<?xml version="1.0" encoding="utf-8"?>
<!-- Generator: Adobe Illustrator 15.0.2, SVG Export Plug-In . SVG Version: 6.00 Build 0)  -->
<!DOCTYPE svg PUBLIC "-//W3C//DTD SVG 1.1//EN" "http://www.w3.org/Graphics/SVG/1.1/DTD/svg11.dtd">
<svg version="1.1" id="Layer_1" xmlns="http://www.w3.org/2000/svg" xmlns:xlink="http://www.w3.org/1999/xlink" x="0px" y="0px"
	 width="1277.936px" height="718.464px" viewBox="0 0 1277.936 718.464" enable-background="new 0 0 1277.936 718.464"
	 xml:space="preserve">
<rect y="1.5" fill="#EFE9E5" width="1277.936" height="716.964"/>
<g>
	<g>
		<path fill="#EF4135" d="M375.095,323.359h-6.575c1.452,2.07,3.854,3.424,6.575,3.424V323.359z"/>
		<path fill="#EF4135" d="M363.433,235.506c-18.32,0-33.171,14.853-33.171,33.174v13.267h13.269v-10.533v-9.37
			c0,0,8.318,8.318,9.949,9.949c1.629,1.629,3.319,3.301,3.319,6.641c0,3.341,0,9.948,0,9.948l9.95,9.948l9.949-9.947v0.001
			l0.001-0.001v19.895c0.389,0,1.312,0,3.316,0c3.34,0,6.636-3.322,6.636-6.646c0-3.321,0-23.18,0-23.199l-1.714-1.715
			c-0.104,0.017-0.214,0.032-0.319,0.049c-0.247,0.041-0.498,0.08-0.75,0.118c-0.589,0.09-1.189,0.177-1.808,0.257
			c-0.232,0.029-0.472,0.057-0.708,0.086c-0.53,0.064-1.07,0.125-1.621,0.182c-0.259,0.027-0.516,0.055-0.78,0.08
			c-0.696,0.066-1.408,0.126-2.138,0.18c-0.272,0.021-0.551,0.039-0.828,0.057c-0.639,0.043-1.291,0.082-1.955,0.115
			c-0.246,0.012-0.488,0.025-0.737,0.036c-0.564,0.024-1.134,0.047-1.717,0.065l-5.975,5.975l-2.156-2.156l3.751-3.752h0
			l9.242-9.242l1.628-1.627l7.494-7.494l6.434-6.434h0.001l0,0l5.439-5.438c0.052-0.054,0.134-0.132,0.242-0.231
			c0.753-0.688,2.788-2.307,5.238-2.307h0.001c3.688,0,6.289,1.832,7.359,2.748c0.356,0.305,0.543,0.509,0.543,0.509l-0.003,0.003
			c4.927,1.291,9.187,3.389,9.187,3.389h-12.574h0l-2.438,2.438c0.596,0.731,1.456,1.987,2.017,3.675
			c0.245,0.736,0.423,1.561,0.508,2.453l0.005-0.006c0.032,0.336,0.053,0.682,0.053,1.039c0,0.092-0.003,0.189-0.008,0.29
			c-0.001,0.023-0.003,0.048-0.004,0.072c-0.002,0.03-0.005,0.061-0.007,0.091c-0.004,0.051-0.008,0.102-0.013,0.154
			c-0.004,0.041-0.009,0.084-0.014,0.125c-0.003,0.031-0.006,0.061-0.01,0.093c-0.001,0.011-0.002,0.02-0.003,0.03
			c-0.005,0.031-0.011,0.066-0.016,0.098c-0.007,0.045-0.014,0.09-0.021,0.135c-0.011,0.064-0.022,0.129-0.035,0.194
			c-0.005,0.031-0.011,0.062-0.018,0.093c-0.006,0.029-0.012,0.059-0.018,0.088c-0.019,0.09-0.042,0.182-0.064,0.274
			c-0.009,0.036-0.016,0.071-0.026,0.108c-0.002,0.012-0.005,0.023-0.009,0.035c-0.042,0.157-0.091,0.319-0.144,0.484
			c-0.016,0.048-0.033,0.096-0.049,0.145c-0.021,0.063-0.042,0.126-0.066,0.189c-0.014,0.039-0.031,0.078-0.045,0.117
			c-0.015,0.042-0.031,0.084-0.049,0.126c-0.014,0.034-0.025,0.068-0.04,0.104c-0.012,0.032-0.028,0.065-0.041,0.099
			c-0.021,0.051-0.044,0.102-0.066,0.151c-0.04,0.091-0.082,0.182-0.125,0.274c-0.017,0.035-0.032,0.07-0.05,0.105
			c-0.016,0.031-0.032,0.062-0.047,0.094c-0.054,0.107-0.11,0.215-0.168,0.323c-0.024,0.044-0.047,0.088-0.071,0.133
			c-0.018,0.031-0.034,0.062-0.052,0.093c-0.056,0.098-0.116,0.197-0.177,0.297c-0.024,0.04-0.046,0.08-0.071,0.12
			c-0.028,0.044-0.057,0.089-0.086,0.135c-0.039,0.061-0.081,0.122-0.121,0.183c-0.099,0.148-0.203,0.297-0.312,0.447
			c-0.039,0.055-0.077,0.109-0.118,0.164c-0.021,0.028-0.043,0.057-0.065,0.086c-0.024,0.032-0.052,0.064-0.077,0.098
			c-0.1,0.127-0.201,0.256-0.31,0.385c-0.054,0.064-0.112,0.13-0.168,0.195c-0.1,0.116-0.206,0.232-0.313,0.35
			c-0.04,0.043-0.079,0.086-0.12,0.129c-0.047,0.051-0.093,0.1-0.141,0.149c-0.082,0.084-0.169,0.169-0.254,0.253
			c-0.051,0.05-0.101,0.1-0.152,0.149c-0.059,0.057-0.117,0.113-0.178,0.17c-0.072,0.065-0.146,0.132-0.219,0.198
			c-0.016,0.014-0.033,0.029-0.05,0.044c-0.039,0.036-0.077,0.071-0.117,0.106c-0.107,0.095-0.221,0.189-0.334,0.284
			c-0.079,0.065-0.155,0.132-0.237,0.198c-0.233,0.189-0.478,0.377-0.733,0.565c-0.088,0.064-0.181,0.128-0.271,0.192
			c-0.15,0.107-0.303,0.215-0.462,0.322c-0.058,0.039-0.118,0.078-0.177,0.117c-0.094,0.062-0.187,0.124-0.283,0.186
			c-0.107,0.068-0.22,0.137-0.331,0.206c-0.079,0.048-0.159,0.097-0.239,0.145c-0.11,0.066-0.219,0.134-0.332,0.199
			c-0.101,0.059-0.207,0.116-0.31,0.174c-0.076,0.043-0.151,0.085-0.228,0.128c-0.176,0.098-0.356,0.193-0.54,0.289
			c-0.111,0.058-0.219,0.116-0.333,0.174c-0.016,0.008-0.033,0.016-0.049,0.023c-0.347,0.176-0.706,0.348-1.079,0.519
			c-0.117,0.054-0.241,0.105-0.362,0.159c-0.212,0.094-0.425,0.188-0.646,0.279c-0.052,0.021-0.106,0.043-0.158,0.063
			c-0.039,0.017-0.08,0.032-0.12,0.049c-0.146,0.06-0.29,0.119-0.44,0.178c-0.134,0.052-0.27,0.104-0.407,0.156
			c-0.098,0.038-0.2,0.074-0.299,0.111c-0.197,0.073-0.391,0.146-0.593,0.218c-0.111,0.039-0.227,0.076-0.339,0.115
			c-0.108,0.037-0.218,0.073-0.327,0.109c-0.138,0.047-0.27,0.094-0.409,0.139l0.01-0.01c-0.066,0.021-0.133,0.043-0.199,0.064
			c-0.336,0.106-0.678,0.212-1.03,0.314c-0.362,0.107-0.728,0.213-1.107,0.314c-0.261,0.07-0.531,0.137-0.8,0.205
			c-0.319,0.081-0.643,0.16-0.974,0.238c-0.285,0.066-0.573,0.132-0.866,0.195c-0.354,0.078-0.716,0.152-1.083,0.225
			c-0.283,0.057-0.561,0.115-0.851,0.169c-0.042,0.009-0.082,0.017-0.125,0.024l10.427,10.428v1.457v0.002
			c0,1.383,0,19.638,0,21.834c0,2.305,0.014,4.682-2.349,7.045c-1.148,1.148-2.841,2.84-4.278,4.277l-0.007,0.012v0.002
			l-0.001-0.002v0.002c1.439,1.438,3.135,3.135,4.285,4.285c2.362,2.361,2.348,4.738,2.348,7.043c0,0.84,0,2.936,0,5.26
			c0.001,0,0.001,0,0.002,0V340v3.316v1.658c0,0,0,0-0.002,0c0.001,4.146,0.002,9.951,0.002,9.951h-0.011c0,0-0.956,0-2.551,0
			c-7.879,0-31.729,0-37.245,0c-6.631,0-13.269-6.635-13.269-6.635l-6.634-6.635h-6.634v26.539h66.344
			c18.32,0,33.171-14.854,33.171-33.174v-99.516H363.433z"/>
		<path fill="#EF4135" d="M407.024,249.309c-0.754-0.087-1.909-0.199-2.864-0.199c-1.564,0-3.129,1.564-3.129,1.564h4.629
			L407.024,249.309z"/>
		<path fill="#EF4135" d="M507.924,368.205h-20.823l-14.61-20.352h-9.932v20.352h-19.513v-73.021h30.286
			c20.588,0,32.198,9.816,32.198,27.291c0,10.656-4.907,18.195-13.884,22.146l16.278,22.023V368.205z M473.572,332.65
			c8.142,0,12.688-3.707,12.688-10.176c0-6.705-4.546-10.531-12.688-10.531h-11.013v20.707H473.572z"/>
		<path fill="#EF4135" d="M533.163,319.244c6.1-6.822,11.848-9.934,19.032-9.934c12.331,0,18.192,6.584,18.192,22.145v36.75h-19.155
			v-30.168c0-7.062-1.19-9.697-6.7-9.697c-4.426,0-8.14,2.635-11.37,6.703v33.162h-19.153v-77.213h19.153V319.244z"/>
		<path fill="#EF4135" d="M581.88,368.205v-57.814h19.155v57.814H581.88z"/>
		<path fill="#EF4135" d="M632.515,317.93c6.104-5.508,11.97-8.619,19.032-8.619c12.336,0,18.199,6.584,18.199,22.145v36.75h-19.156
			v-31.363c0-7.062-1.193-9.697-6.701-9.697c-4.429,0-8.138,2.512-11.374,6.586v34.475h-19.151v-57.814h19.151V317.93z"/>
		<path fill="#EF4135" d="M737.737,339.592c0,18.914-11.136,29.691-30.165,29.691c-18.912,0-30.046-10.777-30.046-29.691
			c0-19.387,11.134-30.281,30.046-30.281C726.601,309.311,737.737,320.205,737.737,339.592z M718.947,339.592
			c0-11.129-4.076-15.08-11.375-15.08c-7.182,0-11.254,3.951-11.254,15.08c0,10.66,3.949,14.484,11.254,14.484
			C714.871,354.076,718.947,350.252,718.947,339.592z"/>
		<path fill="#EF4135" d="M765.628,318.049c5.743-5.982,11.373-8.738,18.432-8.738c14.126,0,21.669,8.738,21.669,29.445
			c0,21.664-10.774,30.527-22.983,30.527c-8.98,0-12.328-2.875-17.117-7.545v6.467h-19.151v-77.213h19.151V318.049z
			 M765.628,347.375c2.986,4.074,5.743,6.227,11.014,6.227c6.104,0,10.292-4.312,10.292-14.846c0-9.695-3.593-13.529-9.814-13.529
			c-4.669,0-8.258,2.279-11.491,6.59V347.375z"/>
		<path fill="#EF4135" d="M814.589,368.205v-57.814h19.15v57.814H814.589z"/>
		<path fill="#EF4135" d="M865.218,321.041c3.955-7.662,8.744-11.73,15.444-11.73c2.036,0,3.954,0,7.185,0.361l-1.32,19.271
			c-2.866-0.242-4.786-0.242-6.821-0.242c-7.058,0-12.091,2.273-14.487,10.656v28.848h-19.146v-57.814h19.146V321.041z"/>
		<path fill="#EF4135" d="M930.341,361.738c-4.785,4.67-8.26,7.545-17.237,7.545c-12.09,0-22.984-8.863-22.984-30.527
			c0-20.707,8.499-29.445,21.786-29.445c7.063,0,12.809,2.031,18.436,7.9v-26.219h19.152v77.213h-19.152V361.738z M930.341,331.816
			c-3.233-4.311-6.945-6.59-11.605-6.59c-6.229,0-9.822,3.834-9.822,13.529c0,10.533,4.19,14.846,10.415,14.846
			c5.266,0,8.136-2.152,11.013-6.227V331.816z"/>
		<rect x="581.88" y="290.992" fill="#EF4135" width="19.211" height="12.027"/>
		<rect x="814.532" y="290.992" fill="#EF4135" width="19.208" height="12.027"/>
	</g>
</g>
<text transform="matrix(1 0 0 1 430.3804 455.8369)"><tspan x="0" y="0" fill="#605748" font-family="'OpenSans-BoldItalic'" font-size="37.4034" letter-spacing="-2">Y</tspan><tspan x="18.102" y="0" fill="#605748" font-family="'OpenSans-BoldItalic'" font-size="37.4034" letter-spacing="-1">ou</tspan><tspan x="59.581" y="0" fill="#605748" font-family="'OpenSans-BoldItalic'" font-size="37.4034">r </tspan><tspan x="85.04" y="0" fill="#605748" font-family="'OpenSans-BoldItalic'" font-size="37.4034">v</tspan><tspan x="103.45" y="0" fill="#605748" font-family="'OpenSans-BoldItalic'" font-size="37.4034" letter-spacing="-1">i</tspan><tspan x="113.058" y="0" fill="#605748" font-family="'OpenSans-BoldItalic'" font-size="37.4034">d</tspan><tspan x="134.537" y="0" fill="#605748" font-family="'OpenSans-BoldItalic'" font-size="37.4034" letter-spacing="-1">e</tspan><tspan x="153.879" y="0" fill="#605748" font-family="'OpenSans-BoldItalic'" font-size="37.4034">os, </tspan><tspan x="213.563" y="0" fill="#605748" font-family="'OpenSans-BoldItalic'" font-size="37.4034" letter-spacing="-1">i</tspan><tspan x="223.172" y="0" fill="#605748" font-family="'OpenSans-BoldItalic'" font-size="37.4034">n </tspan><tspan x="255.479" y="0" fill="#605748" font-family="'OpenSans-BoldItalic'" font-size="37.4034" letter-spacing="-1">r</tspan><tspan x="269.727" y="0" fill="#605748" font-family="'OpenSans-BoldItalic'" font-size="37.4034" letter-spacing="-2">ea</tspan><tspan x="308.304" y="0" fill="#605748" font-family="'OpenSans-BoldItalic'" font-size="37.4034">l </tspan><tspan x="329.123" y="0" fill="#605748" font-family="'OpenSans-BoldItalic'" font-size="37.4034">t</tspan><tspan x="343.717" y="0" fill="#605748" font-family="'OpenSans-BoldItalic'" font-size="37.4034" letter-spacing="-1">i</tspan><tspan x="353.324" y="0" fill="#605748" font-family="'OpenSans-BoldItalic'" font-size="37.4034">me</tspan><tspan x="406.509" y="0" fill="#605748" font-family="'OpenSans-BoldItalic'" font-size="37.4034">.</tspan></text>
</svg>
