<?xml version="1.0" encoding="utf-8"?>
<!-- Generator: Adobe Illustrator 15.0.2, SVG Export Plug-In . SVG Version: 6.00 Build 0)  -->
<!DOCTYPE svg PUBLIC "-//W3C//DTD SVG 1.1//EN" "http://www.w3.org/Graphics/SVG/1.1/DTD/svg11.dtd">
<svg version="1.1" id="Layer_1" xmlns="http://www.w3.org/2000/svg" xmlns:xlink="http://www.w3.org/1999/xlink" x="0px" y="0px"
	 width="128px" height="128px" viewBox="0 0 128 128" enable-background="new 0 0 128 128" xml:space="preserve">
<path fill="#999999" d="M64,0c35.348,0,64,28.654,64,64c0,35.348-28.652,64-64,64C28.654,128,0,99.348,0,64C0,28.654,28.654,0,64,0z
	"/>
<g>
	<defs>
		<circle id="SVGID_2_" cx="64" cy="64" r="64"/>
	</defs>
	<clipPath id="SVGID_3_">
		<use xlink:href="#SVGID_2_"  overflow="visible"/>
	</clipPath>
	<g clip-path="url(#SVGID_3_)">
		<path fill="#FFFFFF" d="M46,31h36c8.284,0,15,2.716,15,11v97c0,8.284-6.716,11-15,11H46c-8.284,0-15-2.716-15-11V42
			C31,33.716,37.716,31,46,31z"/>
		<path fill="#D3D5D6" d="M55.5,141h18c1.381,0,2.5,1.119,2.5,2.5s-1.119,2.5-2.5,2.5h-18c-1.381,0-2.5-1.119-2.5-2.5
			S54.119,141,55.5,141z"/>
		<path fill="#6D6D6D" d="M34,45h60v92H34V45z"/>
		<path fill="#999999" d="M58,37h12c0.553,0,1,0.447,1,1s-0.447,1-1,1H58c-0.553,0-1-0.447-1-1S57.447,37,58,37z"/>
		<path fill="#FFA600" d="M77,37c-0.553,0-1,0.447-1,1s0.447,1,1,1s1-0.447,1-1S77.553,37,77,37z M81,37c-0.553,0-1,0.447-1,1
			s0.447,1,1,1s1-0.447,1-1S81.553,37,81,37z M86,36c-1.104,0-2,0.896-2,2s0.896,2,2,2s2-0.896,2-2S87.104,36,86,36z"/>
	</g>
</g>
</svg>
