<?xml version="1.0" encoding="utf-8"?>
<!-- Generator: Adobe Illustrator 15.0.2, SVG Export Plug-In . SVG Version: 6.00 Build 0)  -->
<!DOCTYPE svg PUBLIC "-//W3C//DTD SVG 1.1//EN" "http://www.w3.org/Graphics/SVG/1.1/DTD/svg11.dtd">
<svg version="1.1" id="Layer_1" xmlns="http://www.w3.org/2000/svg" xmlns:xlink="http://www.w3.org/1999/xlink" x="0px" y="0px"
	 width="48px" height="48px" viewBox="0 0 48 48" enable-background="new 0 0 48 48" xml:space="preserve">
<rect opacity="0.7" width="48" height="48"/>
<g>
	<path fill="#FFFFFF" d="M15.183,33.007c3.232-6.066,7.484-14.686,11.341-25.403l0.452-3.005c0.229-1.475,1.476-2.211,2.724-2.211
		c1.076,0,2.097,0.624,2.097,1.927c0,2.212-1.983,18.827-2.153,29.997c-0.058,3.232,0.283,5.33,1.02,5.33
		c1.417,0,2.95-3.629,5.104-8.107c0.34-0.682,0.737-1.021,1.021-1.021c0.228,0,0.34,0.17,0.34,0.568c0,0.227-0.056,0.621-0.227,1.02
		c-1.7,4.195-3.854,11.455-8.448,11.455c-2.325,0-3.402-3.574-3.687-8.678c-1.87,0.115-4.253,0.285-6.861,0.285
		c-2.608,6.352-3.289,8.447-4.707,8.447c-1.133,0-2.496-0.906-2.496-1.926c0-0.852,1.702-3.516,3.289-6.521l-2.041-0.113
		c-1.021-0.057-1.531-0.623-1.531-1.135c0-0.51,0.51-1.021,1.417-1.021C12.688,32.894,13.878,32.95,15.183,33.007z M24.596,31.081
		c0-5.105,0.454-11.001,1.077-16.445c-2.722,7.654-5.103,13.835-6.917,18.486l5.898,0.225C24.596,32.61,24.596,31.874,24.596,31.081
		z"/>
</g>
</svg>
