<?xml version="1.0" encoding="utf-8"?>
<!-- Generator: Adobe Illustrator 15.0.2, SVG Export Plug-In . SVG Version: 6.00 Build 0)  -->
<!DOCTYPE svg PUBLIC "-//W3C//DTD SVG 1.1//EN" "http://www.w3.org/Graphics/SVG/1.1/DTD/svg11.dtd">
<svg version="1.1" id="Layer_1" xmlns="http://www.w3.org/2000/svg" xmlns:xlink="http://www.w3.org/1999/xlink" x="0px" y="0px"
	 width="100px" height="54.25px" viewBox="0 0 100 54.25" enable-background="new 0 0 100 54.25" xml:space="preserve">
<g>
	<path fill="#EAEAEA" d="M4.198,50.438l-1.725,3.365c-0.383,0.788-1.789,0.234-1.406-0.617L7.5,40.513
		c0.127-0.276,0.426-0.404,0.703-0.404s0.533,0.128,0.682,0.404l6.411,12.608c0.554,0.916-1.022,1.448-1.427,0.618l-1.662-3.302
		H4.198z M8.202,42.388l-3.365,6.708h6.709L8.202,42.388z"/>
	<path fill="#EAEAEA" d="M18.191,49.267v4.132c0,0.979-1.555,0.979-1.555,0.021V41.194c0-0.447,0.319-0.745,0.788-0.745h5.047
		c3.685,0,5.559,2.087,5.559,4.579c0,2.151-1.171,3.706-3.791,4.153l3.45,3.727c0.81,0.81-0.362,1.747-1.065,1.022l-4.302-4.664
		H18.191z M18.191,47.925h4.302c2.79,0,4.004-1.299,3.961-2.896c-0.021-1.746-1.491-3.152-3.961-3.152h-4.302V47.925z"/>
	<path fill="#EAEAEA" d="M39.107,53.483c-1.022,0.469-2.173,0.767-3.195,0.767c-3.642,0-6.922-2.981-6.922-7.198
		c0-3.493,2.492-6.262,5.771-6.773c2.492-0.34,4.665,0.277,6.347,2.045c0.639,0.725-0.511,1.598-1.107,0.959
		c-1.449-1.533-3.131-1.768-5.005-1.555c-2.62,0.404-4.473,2.258-4.473,5.346c0,3.237,2.492,5.707,5.431,5.707
		c0.788,0,1.661-0.213,2.471-0.617c0.66-0.341,1.299-0.852,1.746-1.427c0.49-0.725,1.789,0.063,1.235,0.852
		C40.832,52.397,40.022,53.036,39.107,53.483z"/>
	<path fill="#EAEAEA" d="M45.284,46.796h7.837v-5.814c0-1.021,1.555-1.021,1.555,0v12.417c0,1.044-1.555,1.086-1.555,0v-5.261
		c-2.705,0-5.09,0-7.837,0v5.261c0,1.107-1.534,0.979-1.534,0V40.981c0-1.043,1.534-0.979,1.534,0V46.796z"/>
	<path fill="#EAEAEA" d="M56.486,40.747c0-1.064,1.598-1.043,1.598,0v12.736c0,0.979-1.598,1.022-1.598,0V40.747z"/>
	<path fill="#EAEAEA" d="M59.447,41.323c-0.405-0.916,1.064-1.513,1.49-0.598l5.474,10.905l5.346-10.862
		c0.341-0.873,1.789-0.404,1.47,0.555l-6.134,12.416c-0.298,0.554-1.064,0.682-1.427-0.064L59.447,41.323z"/>
	<path fill="#EAEAEA" d="M76.146,52.61h8.413c0.895,0,1.022,1.405,0,1.405h-8.967c-0.597,0-0.979-0.426-0.979-0.937V41.386
		c0-0.489,0.383-0.915,0.979-0.915h8.988c0.915,0,0.873,1.362-0.021,1.362h-8.413v4.793h8.008c0.853,0,0.895,1.363,0,1.363h-8.008
		V52.61z"/>
	<path fill="#EAEAEA" d="M88.009,54.016c-0.532,0-0.979-0.426-0.979-0.915V41.365c0-0.489,0.447-0.895,0.979-0.895h4.643
		c4.238,0,6.347,3.386,6.347,6.772s-2.108,6.772-6.347,6.772H88.009z M88.562,52.632h4.089c3.195,0,4.792-2.705,4.792-5.389
		s-1.597-5.41-4.792-5.41h-4.089V52.632z"/>
</g>
<g>
	<path fill="#EAEAEA" d="M43.317,6.783c0-0.59,0.467-1.123,1.183-1.347c0.716-0.227,1.539-0.103,2.088,0.316l11.494,8.754
		c0.376,0.287,0.561,0.66,0.561,1.033s-0.185,0.746-0.561,1.031l-11.494,8.758c-0.549,0.418-1.373,0.543-2.088,0.316
		c-0.716-0.227-1.183-0.759-1.183-1.346V6.783z"/>
	<path fill="#EAEAEA" d="M49.375,1.511c7.932,0,14.363,6.431,14.363,14.362c0,7.933-6.432,14.363-14.363,14.363
		c-7.933,0-14.363-6.431-14.363-14.363S41.442,1.511,49.375,1.511 M49.375,0C40.622,0,33.5,7.121,33.5,15.875
		c0,8.754,7.122,15.875,15.875,15.875c8.754,0,15.875-7.121,15.875-15.875C65.25,7.121,58.129,0,49.375,0L49.375,0z"/>
</g>
</svg>
