<?xml version="1.0" encoding="utf-8"?>
<!-- Generator: Adobe Illustrator 15.0.2, SVG Export Plug-In . SVG Version: 6.00 Build 0)  -->
<!DOCTYPE svg PUBLIC "-//W3C//DTD SVG 1.1//EN" "http://www.w3.org/Graphics/SVG/1.1/DTD/svg11.dtd">
<svg version="1.1" id="Layer_1" xmlns="http://www.w3.org/2000/svg" xmlns:xlink="http://www.w3.org/1999/xlink" x="0px" y="0px"
	 width="100px" height="21px" viewBox="0 0 100 21" enable-background="new 0 0 100 21" xml:space="preserve">
<g>
	<path fill="#FFFFFF" d="M7.939,16.149c0,0.322,0.107,0.537,0.301,0.537c0.451,0,1.117-1.139,2.127-3.223
		c0.107-0.236,0.279-0.365,0.387-0.365c0.064,0,0.129,0.064,0.129,0.215c0,0.086-0.021,0.215-0.086,0.365
		c-0.301,0.752-1.654,4.275-3.309,4.275c-0.666,0-1.461-0.365-1.461-1.977c0-0.107,0-0.258,0.021-0.408
		c-0.709,1.461-1.525,2.385-2.213,2.385c-1.16,0-1.654-1.246-1.654-2.922c0-3.266,1.891-8.121,4.361-8.121
		c0.859,0,1.396,0.924,1.439,1.59h0.129c0.537,0,1.182,0.451,1.182,1.246c0,0.107,0,0.215-0.021,0.322
		C8.691,12.797,7.939,15.118,7.939,16.149z M6.758,12.067l0.688-3.094c0-0.365-0.064-0.816-0.58-0.816
		c-1.439,0-2.75,5.027-2.75,7.283c0,0.645,0.107,1.053,0.365,1.053C5.275,16.493,6.221,14.452,6.758,12.067z"/>
	<path fill="#FFFFFF" d="M11.483,17.309c-0.064,0.473-0.43,0.709-0.795,0.709c-0.408,0-0.816-0.301-0.816-0.945
		c0-1.504,0.73-5.736,1.697-9.045c0.107-0.365,0.451-0.537,0.816-0.537c0.494,0,1.053,0.344,1.053,0.945
		c0,0.365-0.258,0.902-0.365,1.289c0.773-1.654,1.719-2.857,2.771-2.857c0.795,0,1.096,0.473,1.096,1.396
		c0,1.203-1.031,3.201-1.031,3.953c0,0.301,0.172,0.473,0.494,0.473c0.709,0,1.59-1.568,1.955-2.406
		c0.129-0.322,0.279-0.516,0.408-0.516c0.236,0,0.15,0.451,0.107,0.602c-0.322,1.225-1.568,3.158-3.051,3.158
		c-0.859,0-1.676-0.365-1.676-1.654c0-1.182,0.945-2.621,0.945-3.287c0-0.15-0.064-0.258-0.215-0.258
		c-0.73,0-2.492,3.072-3.051,6.703L11.483,17.309z"/>
	<path fill="#FFFFFF" d="M22.352,7.77c-1.203,0-2.814,4.061-2.814,6.725c0,1.439,0.43,2.32,1.568,2.32
		c1.697,0,3.244-2.127,3.846-3.352c0.107-0.236,0.236-0.322,0.344-0.322c0.086,0,0.15,0.064,0.15,0.215
		c0,0.086-0.021,0.193-0.064,0.322c-0.752,1.848-2.492,4.361-4.963,4.361c-2.148,0-2.986-1.762-2.986-3.953
		c0-3.201,1.848-7.176,4.146-7.176c0.473,0,0.902,0.193,1.16,0.408c0.967,0.172,1.332,1.289,1.332,2.449
		c0,1.547-0.43,2.879-1.59,2.879c-0.494,0-0.967-0.279-0.967-0.666c0-0.859,1.354-1.59,1.354-3.373
		C22.868,8.157,22.567,7.77,22.352,7.77z"/>
	<path fill="#FFFFFF" d="M30.149,16.321c0,0.344,0.107,0.537,0.387,0.537c0.709,0,1.418-1.654,2.32-3.395
		c0.107-0.215,0.279-0.365,0.387-0.365c0.086,0,0.129,0.064,0.129,0.193c0,0.086-0.021,0.215-0.086,0.387
		c-0.301,0.773-1.375,4.34-3.244,4.34c-0.859,0-1.676-0.602-1.676-1.891c0-1.869,1.697-5.844,1.697-7.262
		c0-0.322-0.086-0.516-0.301-0.516c-0.623,0-2.32,2.535-3.244,6.531c-0.494,2.32-0.43,3.137-1.289,3.137
		c-0.408,0-0.816-0.301-0.816-0.945c0-1.396,1.504-9.023,2.965-13.943c0.107-0.387,0.451-0.559,0.838-0.559
		c0.516,0,1.074,0.344,1.074,0.902c0,0.688-0.602,1.891-1.654,6.488c0.773-1.697,1.719-2.943,2.707-2.943
		c1.268,0,1.59,1.01,1.59,1.805C31.933,11.208,30.149,14.924,30.149,16.321z"/>
	<path fill="#FFFFFF" d="M34.423,15.827c0,0.451,0.107,0.709,0.387,0.709c0.795,0,1.977-2.6,2.213-3.072
		c0.129-0.236,0.258-0.365,0.365-0.365c0.086,0,0.15,0.086,0.15,0.215c0,0.107-0.021,0.215-0.086,0.365
		c-0.301,0.752-1.547,4.275-3.352,4.275c-0.838,0-1.547-0.602-1.547-2.213c0-1.289,0.816-5.264,1.676-8.422
		c0.107-0.365,0.451-0.559,0.859-0.559c0.537,0,1.117,0.365,1.117,1.096C36.206,8.995,34.423,14.172,34.423,15.827z M34.466,4.741
		c0-0.924,0.752-2.127,1.934-2.127c0.881,0,1.268,0.516,1.268,1.117c0,0.902-0.881,2.041-2.234,2.041
		C34.767,5.772,34.466,5.299,34.466,4.741z"/>
	<path fill="#FFFFFF" d="M38.461,15.934c0,0.623,0.15,1.053,0.559,1.053c0.666,0,1.482-1.934,2.213-4.082
		c-0.279-0.473-0.408-1.117-0.408-1.805c0-2.041,1.096-4.533,2.213-4.533c0.387,0,0.859,0.236,0.859,1.225
		c0,1.117-0.602,3.18-1.311,5.027c0.15,0.064,0.365,0.107,0.537,0.107c1.182,0,2.256-1.611,2.75-2.836
		c0.086-0.236,0.193-0.322,0.279-0.322s0.129,0.107,0.129,0.258c0,0.064,0,0.15-0.021,0.215c-0.451,1.461-1.74,3.545-3.416,3.545
		c-0.236,0-0.43-0.021-0.623-0.086c-0.988,2.299-2.32,4.254-3.717,4.254c-1.182,0-1.59-1.289-1.59-3.051
		c0-2.428,0.773-5.715,1.289-7.584c0.107-0.365,0.451-0.559,0.859-0.559c0.537,0,1.117,0.365,1.117,1.096
		C40.18,8.995,38.461,13.915,38.461,15.934z"/>
	<path fill="#FFFFFF" d="M51.178,9.252c0,2.062-1.547,4.963-3.824,4.963c-0.258,0-0.537-0.043-0.816-0.129
		c0,0.945,0.086,2.578,1.418,2.578c2.041,0,3.137-2.32,3.695-3.201c0.129-0.215,0.236-0.301,0.344-0.301
		c0.086,0,0.15,0.086,0.15,0.215c0,0.086-0.021,0.193-0.064,0.301c-0.967,2.406-2.471,4.297-4.941,4.297
		c-1.848,0-2.6-1.676-2.6-3.717c0-3.201,1.848-7.348,4.104-7.348c0.473,0,0.967,0.15,1.225,0.365
		C50.77,7.383,51.178,8.2,51.178,9.252z M46.752,13.528c1.268,0,3.094-3.395,3.094-5.07c0-0.344-0.043-0.709-0.365-0.709
		c-1.225,0-2.643,3.18-2.9,5.758C46.645,13.528,46.688,13.528,46.752,13.528z"/>
	<path fill="#FFFFFF" d="M57.234,15.762c0,0.58,0.129,0.902,0.43,0.902c0.752,0,1.654-2.02,2.234-3.201
		c0.107-0.236,0.279-0.365,0.387-0.365c0.086,0,0.129,0.086,0.129,0.215c0,0.086-0.021,0.215-0.086,0.365
		c-0.537,1.311-1.396,4.275-3.502,4.275c-0.859,0-1.354-0.924-1.354-2.213c0-0.064,0-0.193,0.021-0.322
		c-0.73,1.568-1.59,2.535-2.32,2.535c-1.16,0-1.654-1.246-1.654-2.922c0-3.266,1.891-8.121,4.361-8.121
		c0.58,0,0.924,0.516,1.117,1.031c0.451-2.02,0.945-3.953,1.268-5.135c0.086-0.322,0.365-0.473,0.688-0.473
		c0.537,0,1.182,0.43,1.182,1.225C60.135,4.956,57.234,13.27,57.234,15.762z M56.805,8.823c-0.021-0.279-0.129-0.666-0.602-0.666
		c-1.439,0-2.75,5.027-2.75,7.283c0,0.645,0.107,1.053,0.365,1.053c0.859,0,1.697-2.148,2.342-4.727
		C56.354,10.842,56.568,9.833,56.805,8.823z"/>
	<path fill="#FFFFFF" d="M65.782,15.934c0,0.623,0.15,1.053,0.559,1.053c0.666,0,1.482-1.934,2.213-4.082
		c-0.279-0.473-0.408-1.117-0.408-1.805c0-2.041,1.096-4.533,2.213-4.533c0.387,0,0.859,0.236,0.859,1.225
		c0,1.117-0.602,3.18-1.311,5.027c0.15,0.064,0.365,0.107,0.537,0.107c1.182,0,2.256-1.611,2.75-2.836
		c0.086-0.236,0.193-0.322,0.279-0.322s0.129,0.107,0.129,0.258c0,0.064,0,0.15-0.021,0.215c-0.451,1.461-1.74,3.545-3.416,3.545
		c-0.236,0-0.43-0.021-0.623-0.086c-0.988,2.299-2.32,4.254-3.717,4.254c-1.182,0-1.59-1.289-1.59-3.051
		c0-2.428,0.773-5.715,1.289-7.584c0.107-0.365,0.451-0.559,0.859-0.559c0.537,0,1.117,0.365,1.117,1.096
		C67.501,8.995,65.782,13.915,65.782,15.934z"/>
	<path fill="#FFFFFF" d="M73.472,15.827c0,0.451,0.107,0.709,0.387,0.709c0.795,0,1.977-2.6,2.213-3.072
		c0.129-0.236,0.258-0.365,0.365-0.365c0.086,0,0.15,0.086,0.15,0.215c0,0.107-0.021,0.215-0.086,0.365
		c-0.301,0.752-1.547,4.275-3.352,4.275c-0.838,0-1.547-0.602-1.547-2.213c0-1.289,0.816-5.264,1.676-8.422
		c0.107-0.365,0.451-0.559,0.859-0.559c0.537,0,1.117,0.365,1.117,1.096C75.255,8.995,73.472,14.172,73.472,15.827z M73.515,4.741
		c0-0.924,0.752-2.127,1.934-2.127c0.881,0,1.268,0.516,1.268,1.117c0,0.902-0.881,2.041-2.234,2.041
		C73.815,5.772,73.515,5.299,73.515,4.741z"/>
	<path fill="#FFFFFF" d="M81.656,15.762c0,0.58,0.129,0.902,0.43,0.902c0.752,0,1.654-2.02,2.234-3.201
		c0.107-0.236,0.279-0.365,0.387-0.365c0.086,0,0.129,0.086,0.129,0.215c0,0.086-0.021,0.215-0.086,0.365
		c-0.537,1.311-1.396,4.275-3.502,4.275c-0.859,0-1.354-0.924-1.354-2.213c0-0.064,0-0.193,0.021-0.322
		c-0.73,1.568-1.59,2.535-2.32,2.535c-1.16,0-1.654-1.246-1.654-2.922c0-3.266,1.891-8.121,4.361-8.121
		c0.58,0,0.924,0.516,1.117,1.031c0.451-2.02,0.945-3.953,1.268-5.135c0.086-0.322,0.365-0.473,0.688-0.473
		c0.537,0,1.182,0.43,1.182,1.225C84.557,4.956,81.656,13.27,81.656,15.762z M81.227,8.823c-0.021-0.279-0.129-0.666-0.602-0.666
		c-1.439,0-2.75,5.027-2.75,7.283c0,0.645,0.107,1.053,0.365,1.053c0.859,0,1.697-2.148,2.342-4.727
		C80.775,10.842,80.99,9.833,81.227,8.823z"/>
	<path fill="#FFFFFF" d="M90.914,9.252c0,2.062-1.547,4.963-3.824,4.963c-0.258,0-0.537-0.043-0.816-0.129
		c0,0.945,0.086,2.578,1.418,2.578c2.041,0,3.137-2.32,3.695-3.201c0.129-0.215,0.236-0.301,0.344-0.301
		c0.086,0,0.15,0.086,0.15,0.215c0,0.086-0.021,0.193-0.064,0.301c-0.967,2.406-2.471,4.297-4.941,4.297
		c-1.848,0-2.6-1.676-2.6-3.717c0-3.201,1.848-7.348,4.104-7.348c0.473,0,0.967,0.15,1.225,0.365
		C90.506,7.383,90.914,8.2,90.914,9.252z M86.488,13.528c1.268,0,3.094-3.395,3.094-5.07c0-0.344-0.043-0.709-0.365-0.709
		c-1.225,0-2.643,3.18-2.9,5.758C86.381,13.528,86.424,13.528,86.488,13.528z"/>
	<path fill="#FFFFFF" d="M93.211,9.252c0.43-1.332,1.504-2.385,2.814-2.385c1.719,0,2.428,1.461,2.428,3.33
		c0,3.266-2.148,7.777-4.684,7.777c-1.719,0-2.428-1.611-2.428-3.588c0-1.59,0.408-3.137,0.967-4.318
		C92.502,9.639,92.824,9.274,93.211,9.252z M94.393,9.768c0.043,0.043,0.129,0.215,0.064,0.279c-0.73,1.117-1.289,3.266-1.289,4.877
		c0,1.16,0.301,2.02,1.01,2.02c1.117,0,2.428-4.34,2.428-7.326c0-1.096-0.193-1.934-0.709-1.934
		C95.424,7.684,94.715,8.672,94.393,9.768z"/>
</g>
</svg>
