<?xml version="1.0" encoding="utf-8"?>
<!-- Generator: Adobe Illustrator 15.0.2, SVG Export Plug-In . SVG Version: 6.00 Build 0)  -->
<!DOCTYPE svg PUBLIC "-//W3C//DTD SVG 1.1//EN" "http://www.w3.org/Graphics/SVG/1.1/DTD/svg11.dtd">
<svg version="1.1" id="Layer_1" xmlns="http://www.w3.org/2000/svg" xmlns:xlink="http://www.w3.org/1999/xlink" x="0px" y="0px"
	 width="46px" height="46px" viewBox="0 0 46 46" enable-background="new 0 0 46 46" xml:space="preserve">
<path fill="none" d="M23,0.375C10.525,0.375,0.375,10.523,0.375,23c0,12.477,10.15,22.625,22.625,22.625
	c12.477,0,22.625-10.148,22.625-22.625C45.625,10.523,35.477,0.375,23,0.375L23,0.375z"/>
<path fill="#FFFFFF" d="M34.27,17.817c-0.201-0.482-0.441-0.864-0.723-1.145l-4.219-4.218c-0.281-0.281-0.664-0.522-1.146-0.723
	c-0.48-0.201-0.924-0.301-1.324-0.301H12.876c-0.402,0-0.743,0.141-1.025,0.421c-0.28,0.282-0.421,0.623-0.421,1.025v20.248
	c0,0.402,0.141,0.744,0.421,1.025c0.282,0.281,0.623,0.422,1.025,0.422h20.249c0.4,0,0.742-0.141,1.023-0.422
	s0.422-0.623,0.422-1.025v-13.98C34.57,18.741,34.471,18.299,34.27,17.817z M21.071,13.839c0-0.13,0.048-0.243,0.144-0.339
	c0.096-0.095,0.208-0.143,0.339-0.143h2.894c0.129,0,0.242,0.047,0.338,0.143c0.096,0.096,0.143,0.208,0.143,0.339v4.821
	c0,0.131-0.047,0.244-0.143,0.339c-0.096,0.095-0.209,0.143-0.338,0.143h-2.894c-0.131,0-0.243-0.048-0.339-0.143
	c-0.096-0.096-0.144-0.208-0.144-0.339V13.839z M28.785,32.643h-11.57v-5.787h11.57V32.643z M32.643,32.643h-1.93l0,0v-6.268
	c0-0.402-0.139-0.744-0.42-1.025s-0.623-0.422-1.025-0.422H16.732c-0.402,0-0.743,0.141-1.024,0.422s-0.422,0.623-0.422,1.025v6.268
	h-1.929V13.357h1.929v6.268c0,0.402,0.141,0.743,0.422,1.024s0.622,0.421,1.024,0.421h8.68c0.4,0,0.742-0.14,1.023-0.421
	c0.281-0.281,0.422-0.623,0.422-1.024v-6.268c0.15,0,0.346,0.05,0.588,0.15c0.24,0.101,0.41,0.201,0.512,0.302l4.234,4.233
	c0.1,0.101,0.201,0.274,0.301,0.52c0.102,0.247,0.15,0.44,0.15,0.581V32.643z"/>
</svg>
