<?xml version="1.0" encoding="utf-8"?>
<!-- Generator: Adobe Illustrator 15.0.2, SVG Export Plug-In . SVG Version: 6.00 Build 0)  -->
<!DOCTYPE svg PUBLIC "-//W3C//DTD SVG 1.1//EN" "http://www.w3.org/Graphics/SVG/1.1/DTD/svg11.dtd">
<svg version="1.1" id="Layer_1" xmlns="http://www.w3.org/2000/svg" xmlns:xlink="http://www.w3.org/1999/xlink" x="0px" y="0px"
	 width="100px" height="14px" viewBox="0 0 100 14" enable-background="new 0 0 100 14" xml:space="preserve">
<g>
	<path fill="#EAEAEA" d="M5.965,9.392l-1.45,2.828c-0.322,0.662-1.503,0.196-1.182-0.52L8.739,1.051
		c0.107-0.233,0.358-0.34,0.59-0.34c0.233,0,0.448,0.107,0.573,0.34l5.388,10.596c0.465,0.77-0.859,1.218-1.199,0.52l-1.396-2.774
		H5.965z M9.33,2.626L6.501,8.264h5.638L9.33,2.626z"/>
	<path fill="#EAEAEA" d="M18.439,8.407v3.472c0,0.824-1.307,0.824-1.307,0.019V1.624c0-0.376,0.269-0.626,0.662-0.626h4.242
		c3.096,0,4.671,1.754,4.671,3.848c0,1.808-0.984,3.114-3.186,3.49l2.899,3.132c0.68,0.68-0.304,1.468-0.895,0.859l-3.616-3.92
		H18.439z M18.439,7.279h3.615c2.345,0,3.365-1.092,3.329-2.434c-0.018-1.468-1.253-2.649-3.329-2.649h-3.615V7.279z"/>
	<path fill="#EAEAEA" d="M36.731,11.951c-0.859,0.394-1.826,0.645-2.685,0.645c-3.061,0-5.817-2.506-5.817-6.05
		c0-2.935,2.094-5.262,4.85-5.691c2.094-0.287,3.92,0.232,5.334,1.718c0.537,0.608-0.43,1.342-0.931,0.805
		c-1.217-1.289-2.631-1.485-4.206-1.307c-2.202,0.34-3.759,1.897-3.759,4.493c0,2.721,2.094,4.797,4.564,4.797
		c0.662,0,1.396-0.179,2.076-0.52c0.555-0.286,1.092-0.716,1.468-1.199c0.412-0.608,1.503,0.054,1.038,0.717
		C38.181,11.038,37.501,11.575,36.731,11.951z"/>
	<path fill="#EAEAEA" d="M42.638,6.331h6.586V1.444c0-0.859,1.307-0.859,1.307,0v10.435c0,0.878-1.307,0.913-1.307,0v-4.42
		c-2.273,0-4.278,0-6.586,0v4.42c0,0.932-1.289,0.824-1.289,0V1.444c0-0.877,1.289-0.823,1.289,0V6.331z"/>
	<path fill="#EAEAEA" d="M53.484,1.248c0-0.895,1.342-0.877,1.342,0v10.704c0,0.823-1.342,0.859-1.342,0V1.248z"/>
	<path fill="#EAEAEA" d="M56.329,1.731c-0.341-0.77,0.895-1.271,1.253-0.501l4.6,9.164l4.492-9.128
		c0.287-0.734,1.504-0.34,1.235,0.465l-5.155,10.435c-0.25,0.465-0.895,0.572-1.199-0.054L56.329,1.731z"/>
	<path fill="#EAEAEA" d="M69.663,1.248c0-0.895,1.342-0.877,1.342,0v10.704c0,0.823-1.342,0.859-1.342,0V1.248z"/>
	<path fill="#EAEAEA" d="M81.798,1.444c0-0.751,1.36-0.787,1.36,0v10.274c0,0.895-1.235,0.984-1.611,0.357l-6.693-8.967l0.143,2.47
		v6.318c0,0.877-1.36,0.895-1.36,0V1.642c0-0.895,1.003-1.038,1.45-0.376l6.891,9.218l-0.179-2.703V1.444z"/>
	<path fill="#EAEAEA" d="M95.579,10.412c-1.057,1.396-2.828,2.165-4.564,2.147c-3.078-0.018-5.728-2.577-5.656-5.96
		c0-2.72,2.041-5.208,4.779-5.728c0.269-0.036,0.608-0.054,0.931-0.054c1.558,0,3.222,0.537,4.206,1.683
		c0.537,0.626-0.376,1.486-0.931,0.841c-1.002-1.164-2.667-1.575-4.009-1.235c-1.969,0.465-3.688,2.201-3.688,4.546
		c0.036,2.524,2.076,4.636,4.386,4.69c1.324,0.018,2.702-0.556,3.489-1.611v-2.38h-3.222c-0.841,0-0.751-1.181,0-1.181h3.795
		c0.52,0,0.68,0.268,0.68,0.662v2.989C95.775,10.018,95.74,10.251,95.579,10.412z"/>
</g>
</svg>
