<?xml version="1.0" encoding="utf-8"?>
<!-- Generator: Adobe Illustrator 15.0.2, SVG Export Plug-In . SVG Version: 6.00 Build 0)  -->
<!DOCTYPE svg PUBLIC "-//W3C//DTD SVG 1.1//EN" "http://www.w3.org/Graphics/SVG/1.1/DTD/svg11.dtd">
<svg version="1.1" id="Layer_1" xmlns="http://www.w3.org/2000/svg" xmlns:xlink="http://www.w3.org/1999/xlink" x="0px" y="0px"
	 width="32px" height="32px" viewBox="0 0 32 32" enable-background="new 0 0 32 32" xml:space="preserve">
<g>
	<path fill="#F2F2F2" d="M31.69,29.854c0,0.652-0.529,1.182-1.182,1.182H1.491c-0.652,0-1.182-0.529-1.182-1.182V2.146
		c0-0.652,0.529-1.182,1.182-1.182h29.018c0.652,0,1.182,0.529,1.182,1.182V29.854z"/>
	<path fill="#E6E6E6" d="M31.69,29.854c0,0.652-0.529,1.182-1.182,1.182H16.005V0.965h14.504c0.652,0,1.182,0.529,1.182,1.182
		V29.854z"/>
</g>
<g>
	<g>
		<path fill="#2D2D2D" d="M29,25.195C29,27.038,26.929,29,25.111,29H6.289C4.472,29,3,27.038,3,25.195V6.466
			C3,4.624,4.472,3,6.289,3h18.823C26.929,3,29,4.624,29,6.466V25.195z"/>
		<path fill="#FFFFFF" d="M27,24.797C27,26.014,26.014,27,24.796,27H7.204C5.987,27,5,26.014,5,24.797V7.203
			C5,5.986,5.987,5,7.204,5h17.592C26.014,5,27,5.986,27,7.203V24.797z"/>
	</g>
	<g>
		<path fill="#2D2D2D" d="M22.118,16.116c-0.068,0-0.138-0.003-0.207-0.007c-0.654-0.046-1.281-0.316-1.766-0.76
			c-1.184-1.086-1.263-2.932-0.177-4.116c0.596-0.65,1.462-0.999,2.352-0.937c0.654,0.045,1.281,0.315,1.766,0.76
			c0.571,0.525,0.907,1.243,0.94,2.021c0.033,0.777-0.237,1.521-0.765,2.095C23.711,15.771,22.931,16.116,22.118,16.116z
			 M22.112,10.699c-0.708,0-1.362,0.288-1.842,0.812c-0.932,1.016-0.863,2.602,0.153,3.535c0.415,0.381,0.955,0.614,1.516,0.653
			c0.773,0.054,1.5-0.238,2.019-0.804c0.454-0.494,0.688-1.133,0.658-1.801c-0.029-0.668-0.316-1.285-0.808-1.735
			c-0.417-0.383-0.956-0.615-1.517-0.654C22.231,10.702,22.172,10.699,22.112,10.699z"/>
		<path fill="#2D2D2D" d="M16.118,19.983L16.118,19.983L16.118,19.983L16.118,19.983L16.118,19.983
			c-0.004,0.001-4.075,0.112-6.67-2.049l0.001,0.74c0,0,2.492,2.719,6.671,2.711l0,0l0,0l0,0l0,0
			c4.181-0.008,6.662-2.738,6.662-2.738v-0.741C20.193,20.081,16.121,19.984,16.118,19.983z"/>
		<circle fill="#FF1A15" cx="22.115" cy="13.202" r="1.681"/>
		<path fill="#2D2D2D" d="M10.449,11.723c-0.744,0.033-1.366,0.491-1.645,1.131c-0.018,0.027-0.132,0.383-0.389,0.39
			c-0.616,0.018-1.233-1.178-1.443-1.396c-0.031-0.033-0.085-0.037-0.146-0.008c-0.152,0.072-0.292,0.204-0.321,0.28
			c-0.021,0.054-0.004,0.091,0.004,0.105c1.517,2.673,2.891,3.265,4.102,3.265c0.977,0,1.847-0.925,1.801-1.964
			C12.369,12.484,11.489,11.678,10.449,11.723z"/>
	</g>
</g>
</svg>
