<?xml version="1.0" encoding="utf-8"?>
<!-- Generator: Adobe Illustrator 15.0.2, SVG Export Plug-In . SVG Version: 6.00 Build 0)  -->
<!DOCTYPE svg PUBLIC "-//W3C//DTD SVG 1.1//EN" "http://www.w3.org/Graphics/SVG/1.1/DTD/svg11.dtd">
<svg version="1.1" xmlns="http://www.w3.org/2000/svg" xmlns:xlink="http://www.w3.org/1999/xlink" x="0px" y="0px" width="1400px"
	 height="320px" viewBox="0 0 1400 320" enable-background="new 0 0 1400 320" xml:space="preserve">
<g id="Layer_2">
	<rect x="-0.861" y="-0.697" fill="#EFE9E5" width="1400.861" height="320"/>
</g>
<g id="Layer_3">
	<g>
		<g>
			<path fill="#D4CCC4" d="M872.889,166.151c0.428-0.797,0.843-1.6,1.248-2.404c0.809-1.613,1.575-3.242,2.309-4.885
				c1.467-3.285,2.801-6.625,4.016-10.003c2.434-6.757,4.4-13.671,5.922-20.671c3.04-14.008,4.279-28.377,3.705-42.65
				c-0.002-0.043-0.037-0.075-0.08-0.073c-0.041,0.001-0.072,0.036-0.072,0.077c0.206,14.271-1.398,28.544-4.773,42.364
				c-1.689,6.909-3.812,13.707-6.389,20.321c-1.289,3.307-2.688,6.568-4.215,9.765c-0.764,1.597-1.557,3.179-2.391,4.736
				c-0.414,0.778-0.84,1.552-1.277,2.317c-0.436,0.758-0.887,1.526-1.343,2.24l-0.007,0.008
				C869.19,167.841,872.455,166.951,872.889,166.151z"/>
			<path fill="#D4CCC4" d="M888.336,79.611c7.452-2.769,9.354,37.25,1.977,59.952l-6.27,4.97l5.644-3.145
				c-2.503,6.888-5.95,11.866-10.458,13.016c-8.013,2.042-8.572-14.111-5.879-31.938l4.367,7.023l-3.91-9.876
				C876.949,100.964,883.361,81.46,888.336,79.611z"/>
		</g>
		<g>
			<path fill="#D4CCC4" d="M959.801,158.468c-0.42,1.633-0.807,3.272-1.164,4.917c-0.715,3.29-1.315,6.6-1.812,9.923
				c-0.99,6.648-1.564,13.352-1.684,20.062c-0.118,6.708,0.223,13.423,1.094,20.065c0.869,6.643,2.271,13.213,4.271,19.591
				c0.015,0.046,0.062,0.07,0.104,0.056c0.045-0.014,0.068-0.059,0.057-0.102c-1.803-6.428-3-13.009-3.666-19.633
				c-0.664-6.626-0.801-13.294-0.482-19.934s1.086-13.252,2.264-19.783c0.589-3.266,1.279-6.512,2.08-9.726
				C961.263,162.296,960.01,157.651,959.801,158.468z"/>
			<path fill="#D4CCC4" d="M962.429,221.995l5.968,5.372c-1.408,7.301-3.93,11.831-7.552,10.265c-2.597-1.122-4.947-4.609-6.9-9.424
				l2.345-6.381l-3.02,4.623c-6.971-19.191-8.088-55.384,4.686-53.895c10.193,1.187,13.717,34.338,10.765,52.969L962.429,221.995z"
				/>
		</g>
		<g>
			<path fill="#D4CCC4" d="M1043.605,167.927c-0.502-1.525-0.963-3.115-1.397-4.693c-0.436-1.584-0.843-3.177-1.226-4.775
				c-0.769-3.199-1.443-6.424-2.024-9.664c-1.161-6.484-1.958-13.039-2.312-19.623c-0.351-6.583-0.261-13.199,0.428-19.766
				c0.689-6.562,1.981-13.081,4.071-19.363c0.014-0.043-0.01-0.092-0.054-0.105c-0.043-0.015-0.089,0.008-0.104,0.051
				c-2.285,6.229-3.785,12.74-4.681,19.325c-0.894,6.589-1.188,13.258-1.036,19.911c0.154,6.655,0.759,13.299,1.732,19.889
				c0.488,3.297,1.07,6.578,1.75,9.844c0.34,1.634,0.703,3.262,1.098,4.887c0.396,1.627,3.975,4.819,3.771,4.135
				c-0.002-0.012-0.006-0.021-0.01-0.032L1043.605,167.927z"/>
			<path fill="#D4CCC4" d="M1044.429,82.024c4.576,1.811-1.718,22.542-1.761,42.951c-0.013,6.328,0.297,12.021,0.527,16.881
				l-2.328,7.482l2.518-2.883c0.236,7.717-0.225,12.488-3.75,13.114c-1.271,0.226-7.305-3.731-10.738-16.399l4.818,3.107
				l-5.35-5.225c-0.764-3.312-1.348-7.156-1.65-11.594C1024.922,103.079,1039.859,80.216,1044.429,82.024z"/>
		</g>
		<g>
			<path fill="#D4CCC4" d="M962.371,12.671c0.146,0.843,0.277,1.685,0.398,2.527c0.237,1.684,0.428,3.371,0.578,5.061
				c0.301,3.379,0.445,6.764,0.455,10.147c0.016,6.767-0.514,13.521-1.543,20.188c-1.031,6.668-2.571,13.248-4.588,19.671
				c-2.019,6.421-4.518,12.684-7.451,18.726c-0.021,0.041-0.072,0.059-0.113,0.037c-0.041-0.019-0.059-0.068-0.039-0.109
				c2.748-6.119,5.049-12.432,6.863-18.875c1.812-6.441,3.141-13.013,3.963-19.639c0.822-6.627,1.141-13.309,0.926-19.965
				c-0.109-3.326-0.351-6.647-0.744-9.944c-0.197-1.648-0.434-3.291-0.715-4.921c-0.14-0.815-0.292-1.627-0.458-2.434
				c-0.083-0.404-0.169-0.806-0.262-1.205c-0.089-0.396-0.187-0.8-0.287-1.171l-0.001-0.003
				C959.168,10.073,962.297,12.251,962.371,12.671z"/>
			<path fill="#D4CCC4" d="M954.527,52.989l5.232-3.635l-5.475,5.557c-0.17,1.248-0.365,2.51-0.592,3.777
				c-3.256,18.215-10.524,32.848-6.569,34.912c6.077,3.17,19.858-14.364,24.163-37.947c0.73-4.002,1.158-7.568,1.318-10.725
				l-7.457-8.223l7.52,4.346c-0.25-11.033-4.375-15.898-10.145-16.191C954.776,24.466,956.347,37.573,954.527,52.989z"/>
		</g>
	</g>
	<g>
		<path fill="#D4CCC4" d="M1108.67,5.048c-0.42,1.633-0.806,3.271-1.164,4.916c-0.714,3.29-1.314,6.6-1.811,9.923
			c-0.992,6.649-1.566,13.353-1.685,20.062c-0.118,6.707,0.223,13.423,1.093,20.065c0.869,6.643,2.273,13.213,4.271,19.59
			c0.014,0.047,0.061,0.07,0.105,0.056c0.043-0.013,0.067-0.059,0.056-0.101c-1.803-6.428-3.001-13.01-3.665-19.633
			c-0.666-6.627-0.802-13.295-0.483-19.935s1.086-13.251,2.263-19.783c0.59-3.265,1.281-6.511,2.081-9.726
			C1110.133,8.876,1108.88,4.23,1108.67,5.048z"/>
		<path fill="#D4CCC4" d="M1111.299,68.575l5.967,5.371c-1.407,7.301-3.929,11.832-7.551,10.265c-2.598-1.122-4.947-4.609-6.9-9.423
			l2.346-6.382l-3.021,4.624c-6.971-19.191-8.087-55.385,4.686-53.896c10.193,1.187,13.717,34.339,10.764,52.97L1111.299,68.575z"/>
	</g>
	<g>
		<g>
			<path fill="#D4CCC4" d="M575.146,166.151c0.429-0.797,0.844-1.6,1.249-2.404c0.809-1.613,1.576-3.242,2.309-4.885
				c1.467-3.285,2.801-6.625,4.017-10.003c2.432-6.757,4.399-13.671,5.92-20.671c3.041-14.008,4.279-28.377,3.706-42.65
				c-0.002-0.043-0.037-0.075-0.08-0.073c-0.041,0.001-0.073,0.036-0.073,0.077c0.207,14.271-1.398,28.544-4.773,42.364
				c-1.688,6.909-3.813,13.707-6.388,20.321c-1.289,3.307-2.689,6.568-4.215,9.765c-0.763,1.597-1.558,3.179-2.391,4.736
				c-0.415,0.778-0.841,1.552-1.277,2.317c-0.437,0.758-0.887,1.526-1.343,2.24l-0.006,0.008
				C571.449,167.841,574.714,166.951,575.146,166.151z"/>
			<path fill="#D4CCC4" d="M590.595,79.611c7.452-2.769,9.352,37.25,1.976,59.952l-6.271,4.97l5.645-3.145
				c-2.503,6.888-5.95,11.866-10.458,13.016c-8.012,2.042-8.571-14.111-5.879-31.938l4.368,7.023l-3.911-9.876
				C579.208,100.964,585.62,81.46,590.595,79.611z"/>
		</g>
		<g>
			<path fill="#D4CCC4" d="M662.059,158.468c-0.42,1.633-0.807,3.272-1.164,4.917c-0.714,3.29-1.315,6.6-1.812,9.923
				c-0.991,6.648-1.565,13.352-1.684,20.062c-0.118,6.708,0.223,13.423,1.093,20.065c0.869,6.643,2.272,13.213,4.271,19.591
				c0.014,0.046,0.061,0.07,0.105,0.056c0.044-0.014,0.068-0.059,0.056-0.102c-1.803-6.428-3.001-13.009-3.666-19.633
				c-0.665-6.626-0.801-13.294-0.483-19.934c0.319-6.64,1.087-13.252,2.264-19.783c0.589-3.266,1.28-6.512,2.081-9.726
				C663.521,162.296,662.269,157.651,662.059,158.468z"/>
			<path fill="#D4CCC4" d="M664.687,221.995l5.968,5.372c-1.407,7.301-3.929,11.831-7.552,10.265
				c-2.597-1.122-4.948-4.609-6.9-9.424l2.345-6.381l-3.02,4.623c-6.971-19.191-8.088-55.384,4.686-53.895
				c10.193,1.187,13.716,34.338,10.763,52.969L664.687,221.995z"/>
		</g>
		<g>
			<path fill="#D4CCC4" d="M745.865,167.927c-0.504-1.525-0.963-3.115-1.398-4.693c-0.436-1.584-0.843-3.177-1.227-4.775
				c-0.768-3.199-1.441-6.424-2.023-9.664c-1.161-6.484-1.957-13.039-2.312-19.623c-0.351-6.583-0.26-13.199,0.428-19.766
				c0.689-6.562,1.98-13.081,4.07-19.363c0.016-0.043-0.008-0.092-0.053-0.105c-0.043-0.015-0.09,0.008-0.105,0.051
				c-2.285,6.229-3.784,12.74-4.68,19.325c-0.893,6.589-1.189,13.258-1.037,19.911c0.156,6.655,0.76,13.299,1.734,19.889
				c0.488,3.297,1.068,6.578,1.748,9.844c0.342,1.634,0.705,3.262,1.098,4.887c0.396,1.627,3.977,4.819,3.773,4.135
				c-0.004-0.012-0.007-0.021-0.01-0.032L745.865,167.927z"/>
			<path fill="#D4CCC4" d="M746.688,82.024c4.576,1.811-1.718,22.542-1.76,42.951c-0.014,6.328,0.296,12.021,0.527,16.881
				l-2.33,7.482l2.518-2.883c0.238,7.717-0.224,12.488-3.748,13.114c-1.273,0.226-7.307-3.731-10.74-16.399l4.819,3.107
				l-5.351-5.225c-0.762-3.312-1.348-7.156-1.649-11.594C727.18,103.079,742.119,80.216,746.688,82.024z"/>
		</g>
		<g>
			<path fill="#D4CCC4" d="M664.629,12.671c0.147,0.843,0.278,1.685,0.398,2.527c0.237,1.684,0.428,3.371,0.579,5.061
				c0.301,3.379,0.445,6.764,0.455,10.147c0.016,6.767-0.513,13.521-1.543,20.188c-1.031,6.668-2.571,13.248-4.588,19.671
				c-2.018,6.421-4.516,12.684-7.451,18.726c-0.021,0.041-0.072,0.059-0.112,0.037c-0.041-0.019-0.059-0.068-0.04-0.109
				c2.749-6.119,5.05-12.432,6.863-18.875c1.813-6.441,3.142-13.013,3.963-19.639c0.822-6.627,1.142-13.309,0.926-19.965
				c-0.108-3.326-0.351-6.647-0.744-9.944c-0.198-1.648-0.433-3.291-0.714-4.921c-0.14-0.815-0.292-1.627-0.459-2.434
				c-0.083-0.404-0.169-0.806-0.261-1.205c-0.09-0.396-0.187-0.8-0.288-1.171l0-0.003C661.426,10.073,664.556,12.251,664.629,12.671
				z"/>
			<path fill="#D4CCC4" d="M656.787,52.989l5.232-3.635l-5.476,5.557c-0.17,1.248-0.364,2.51-0.591,3.777
				c-3.256,18.215-10.525,32.848-6.57,34.912c6.078,3.17,19.858-14.364,24.163-37.947c0.731-4.002,1.158-7.568,1.319-10.725
				l-7.458-8.223l7.52,4.346c-0.25-11.033-4.375-15.898-10.144-16.191C657.035,24.466,658.604,37.573,656.787,52.989z"/>
		</g>
	</g>
	<g>
		<path fill="#D4CCC4" d="M810.93,5.048c-0.42,1.633-0.807,3.271-1.164,4.916c-0.715,3.29-1.314,6.6-1.812,9.923
			c-0.991,6.649-1.565,13.353-1.685,20.062c-0.117,6.707,0.223,13.423,1.094,20.065c0.869,6.643,2.272,13.213,4.271,19.59
			c0.014,0.047,0.061,0.07,0.104,0.056c0.045-0.013,0.068-0.059,0.057-0.101c-1.803-6.428-3-13.01-3.666-19.633
			c-0.664-6.627-0.801-13.295-0.482-19.935s1.087-13.251,2.264-19.783c0.589-3.265,1.279-6.511,2.08-9.726
			C812.391,8.876,811.139,4.23,810.93,5.048z"/>
		<path fill="#D4CCC4" d="M813.557,68.575l5.968,5.371c-1.407,7.301-3.928,11.832-7.551,10.265c-2.597-1.122-4.947-4.609-6.9-9.423
			l2.345-6.382l-3.02,4.624c-6.97-19.191-8.088-55.385,4.686-53.896c10.193,1.187,13.717,34.339,10.764,52.97L813.557,68.575z"/>
	</g>
	<g>
		<g>
			<path fill="#D4CCC4" d="M1170.629,166.151c0.429-0.797,0.843-1.6,1.248-2.404c0.809-1.613,1.576-3.242,2.309-4.885
				c1.467-3.285,2.801-6.625,4.017-10.003c2.433-6.757,4.399-13.671,5.92-20.671c3.042-14.008,4.28-28.377,3.706-42.65
				c-0.002-0.043-0.037-0.075-0.08-0.073c-0.04,0.001-0.072,0.036-0.072,0.077c0.207,14.271-1.398,28.544-4.773,42.364
				c-1.688,6.909-3.813,13.707-6.389,20.321c-1.288,3.307-2.688,6.568-4.214,9.765c-0.764,1.597-1.558,3.179-2.391,4.736
				c-0.415,0.778-0.841,1.552-1.277,2.317c-0.437,0.758-0.888,1.526-1.344,2.24l-0.006,0.008
				C1166.932,167.841,1170.196,166.951,1170.629,166.151z"/>
			<path fill="#D4CCC4" d="M1186.077,79.611c7.452-2.769,9.353,37.25,1.977,59.952l-6.271,4.97l5.645-3.145
				c-2.504,6.888-5.951,11.866-10.459,13.016c-8.013,2.042-8.571-14.111-5.879-31.938l4.368,7.023l-3.911-9.876
				C1174.69,100.964,1181.102,81.46,1186.077,79.611z"/>
		</g>
		<g>
			<path fill="#D4CCC4" d="M1257.54,158.468c-0.419,1.633-0.806,3.272-1.163,4.917c-0.715,3.29-1.314,6.6-1.812,9.923
				c-0.991,6.648-1.565,13.352-1.685,20.062c-0.117,6.708,0.223,13.423,1.093,20.065s2.273,13.213,4.272,19.591
				c0.014,0.046,0.06,0.07,0.104,0.056c0.044-0.014,0.067-0.059,0.056-0.102c-1.803-6.428-3.001-13.009-3.665-19.633
				c-0.665-6.626-0.802-13.294-0.483-19.934s1.087-13.252,2.264-19.783c0.59-3.266,1.28-6.512,2.08-9.726
				C1259.003,162.296,1257.75,157.651,1257.54,158.468z"/>
			<path fill="#D4CCC4" d="M1260.169,221.995l5.968,5.372c-1.407,7.301-3.93,11.831-7.552,10.265
				c-2.597-1.122-4.947-4.609-6.899-9.424l2.345-6.381l-3.02,4.623c-6.972-19.191-8.088-55.384,4.686-53.895
				c10.192,1.187,13.716,34.338,10.763,52.969L1260.169,221.995z"/>
		</g>
		<g>
			<path fill="#D4CCC4" d="M1341.347,167.927c-0.502-1.525-0.963-3.115-1.397-4.693c-0.436-1.584-0.843-3.177-1.228-4.775
				c-0.767-3.199-1.441-6.424-2.022-9.664c-1.161-6.484-1.959-13.039-2.312-19.623c-0.352-6.583-0.262-13.199,0.428-19.766
				c0.688-6.562,1.98-13.081,4.07-19.363c0.015-0.043-0.009-0.092-0.053-0.105c-0.044-0.015-0.09,0.008-0.105,0.051
				c-2.285,6.229-3.785,12.74-4.68,19.325c-0.895,6.589-1.19,13.258-1.037,19.911c0.155,6.655,0.76,13.299,1.733,19.889
				c0.487,3.297,1.069,6.578,1.749,9.844c0.34,1.634,0.704,3.262,1.097,4.887c0.397,1.627,3.977,4.819,3.773,4.135
				c-0.003-0.012-0.007-0.021-0.01-0.032L1341.347,167.927z"/>
			<path fill="#D4CCC4" d="M1342.169,82.024c4.577,1.811-1.718,22.542-1.76,42.951c-0.013,6.328,0.297,12.021,0.527,16.881
				l-2.329,7.482l2.518-2.883c0.237,7.717-0.225,12.488-3.749,13.114c-1.272,0.226-7.306-3.731-10.739-16.399l4.819,3.107
				l-5.352-5.225c-0.762-3.312-1.347-7.156-1.649-11.594C1322.662,103.079,1337.601,80.216,1342.169,82.024z"/>
		</g>
		<g>
			<path fill="#D4CCC4" d="M1260.111,12.671c0.147,0.843,0.278,1.685,0.398,2.527c0.238,1.684,0.428,3.371,0.578,5.061
				c0.301,3.379,0.445,6.764,0.455,10.147c0.016,6.767-0.513,13.521-1.543,20.188c-1.031,6.668-2.57,13.248-4.588,19.671
				c-2.018,6.421-4.517,12.684-7.451,18.726c-0.021,0.041-0.071,0.059-0.112,0.037c-0.041-0.019-0.059-0.068-0.041-0.109
				c2.75-6.119,5.05-12.432,6.864-18.875c1.813-6.441,3.142-13.013,3.963-19.639c0.821-6.627,1.141-13.309,0.926-19.965
				c-0.108-3.326-0.351-6.647-0.744-9.944c-0.197-1.648-0.434-3.291-0.714-4.921c-0.14-0.815-0.292-1.627-0.458-2.434
				c-0.084-0.404-0.171-0.806-0.262-1.205c-0.091-0.396-0.187-0.8-0.287-1.171l-0.001-0.003
				C1256.908,10.073,1260.037,12.251,1260.111,12.671z"/>
			<path fill="#D4CCC4" d="M1252.269,52.989l5.232-3.635l-5.476,5.557c-0.171,1.248-0.364,2.51-0.591,3.777
				c-3.256,18.215-10.524,32.848-6.569,34.912c6.077,3.17,19.858-14.364,24.162-37.947c0.73-4.002,1.158-7.568,1.319-10.725
				l-7.459-8.223l7.521,4.346c-0.249-11.033-4.374-15.898-10.144-16.191C1252.518,24.466,1254.086,37.573,1252.269,52.989z"/>
		</g>
	</g>
	<g>
		<path fill="#D4CCC4" d="M813.5,156.642c0.146,0.842,0.278,1.684,0.398,2.526c0.237,1.684,0.428,3.371,0.578,5.062
			c0.301,3.378,0.445,6.764,0.455,10.146c0.016,6.766-0.514,13.521-1.543,20.188c-1.032,6.667-2.57,13.249-4.588,19.671
			c-2.018,6.421-4.518,12.684-7.451,18.725c-0.021,0.042-0.072,0.059-0.113,0.039s-0.058-0.068-0.039-0.109
			c2.748-6.12,5.049-12.432,6.863-18.876c1.812-6.442,3.141-13.013,3.963-19.64c0.822-6.626,1.141-13.309,0.926-19.963
			c-0.109-3.328-0.352-6.648-0.744-9.945c-0.198-1.648-0.434-3.291-0.715-4.921c-0.139-0.815-0.291-1.628-0.458-2.435
			c-0.083-0.402-0.169-0.805-0.261-1.204c-0.09-0.396-0.188-0.8-0.287-1.171l-0.001-0.003
			C810.297,154.042,813.426,156.221,813.5,156.642z"/>
		<path fill="#D4CCC4" d="M805.657,196.96l5.231-3.637l-5.475,5.557c-0.17,1.25-0.365,2.51-0.591,3.778
			c-3.257,18.215-10.525,32.847-6.569,34.911c6.077,3.171,19.858-14.363,24.162-37.945c0.73-4.004,1.158-7.57,1.318-10.727
			l-7.457-8.221l7.52,4.346c-0.25-11.033-4.375-15.9-10.145-16.193C805.905,168.435,807.475,181.542,805.657,196.96z"/>
	</g>
	<g>
		<path fill="#D4CCC4" d="M1021.758,310.12c0.43-0.797,0.844-1.598,1.248-2.404c0.809-1.612,1.576-3.241,2.309-4.883
			c1.467-3.287,2.801-6.626,4.018-10.004c2.432-6.757,4.398-13.671,5.92-20.672c3.041-14.008,4.279-28.377,3.705-42.65
			c-0.002-0.041-0.036-0.074-0.079-0.072c-0.04,0.001-0.073,0.035-0.073,0.077c0.207,14.271-1.398,28.544-4.773,42.364
			c-1.688,6.909-3.812,13.707-6.388,20.322c-1.289,3.306-2.688,6.567-4.214,9.764c-0.764,1.597-1.559,3.178-2.392,4.736
			c-0.415,0.779-0.841,1.551-1.276,2.316c-0.438,0.76-0.889,1.527-1.344,2.24l-0.006,0.01
			C1018.061,311.81,1021.325,310.921,1021.758,310.12z"/>
		<path fill="#D4CCC4" d="M1037.206,223.581c7.452-2.768,9.353,37.25,1.977,59.952l-6.271,4.97l5.645-3.145
			c-2.503,6.889-5.95,11.867-10.459,13.016c-8.012,2.042-8.57-14.111-5.878-31.938l4.368,7.023l-3.911-9.877
			C1025.82,244.934,1032.23,225.429,1037.206,223.581z"/>
	</g>
	<g>
		<path fill="#D4CCC4" d="M1192.477,311.897c-0.503-1.527-0.963-3.116-1.398-4.695c-0.436-1.584-0.842-3.176-1.227-4.775
			c-0.768-3.198-1.441-6.423-2.023-9.664c-1.161-6.483-1.958-13.037-2.312-19.622c-0.352-6.583-0.261-13.2,0.428-19.766
			c0.689-6.563,1.98-13.081,4.07-19.363c0.016-0.044-0.009-0.092-0.053-0.106c-0.043-0.014-0.09,0.009-0.105,0.051
			c-2.284,6.229-3.784,12.741-4.68,19.326c-0.894,6.59-1.189,13.258-1.037,19.911c0.156,6.655,0.76,13.3,1.733,19.89
			c0.488,3.296,1.07,6.578,1.749,9.844c0.341,1.633,0.704,3.26,1.098,4.885c0.396,1.627,3.977,4.82,3.772,4.135
			c-0.003-0.012-0.006-0.021-0.009-0.031L1192.477,311.897z"/>
		<path fill="#D4CCC4" d="M1193.299,225.993c4.576,1.812-1.718,22.543-1.761,42.951c-0.013,6.328,0.298,12.021,0.528,16.882
			l-2.33,7.481l2.518-2.882c0.237,7.718-0.224,12.489-3.749,13.114c-1.272,0.226-7.305-3.732-10.739-16.4l4.82,3.107l-5.352-5.225
			c-0.763-3.312-1.347-7.155-1.649-11.593C1173.791,247.05,1188.73,224.186,1193.299,225.993z"/>
	</g>
	<g>
		<path fill="#D4CCC4" d="M1111.241,156.642c0.146,0.842,0.278,1.684,0.397,2.526c0.238,1.684,0.428,3.371,0.579,5.062
			c0.301,3.378,0.445,6.764,0.454,10.146c0.016,6.766-0.512,13.521-1.543,20.188s-2.57,13.249-4.588,19.671
			c-2.018,6.421-4.517,12.684-7.451,18.725c-0.02,0.042-0.07,0.059-0.111,0.039s-0.059-0.068-0.041-0.109
			c2.75-6.12,5.05-12.432,6.863-18.876c1.814-6.442,3.143-13.013,3.964-19.64c0.821-6.626,1.141-13.309,0.925-19.963
			c-0.107-3.328-0.351-6.648-0.744-9.945c-0.197-1.648-0.433-3.291-0.713-4.921c-0.141-0.815-0.293-1.628-0.459-2.435
			c-0.084-0.402-0.17-0.805-0.261-1.204c-0.091-0.396-0.188-0.8-0.288-1.171l-0.001-0.003
			C1108.037,154.042,1111.167,156.221,1111.241,156.642z"/>
		<path fill="#D4CCC4" d="M1103.398,196.96l5.232-3.637l-5.477,5.557c-0.17,1.25-0.364,2.51-0.59,3.778
			c-3.257,18.215-10.525,32.847-6.57,34.911c6.077,3.171,19.859-14.363,24.163-37.945c0.73-4.004,1.157-7.57,1.318-10.727
			l-7.458-8.221l7.521,4.346c-0.25-11.033-4.374-15.9-10.144-16.193C1103.646,168.435,1105.216,181.542,1103.398,196.96z"/>
	</g>
	<g>
		<path fill="#D4CCC4" d="M724.018,310.12c0.429-0.797,0.844-1.598,1.248-2.404c0.808-1.612,1.575-3.241,2.308-4.883
			c1.467-3.287,2.801-6.626,4.017-10.004c2.433-6.757,4.399-13.671,5.922-20.672c3.041-14.008,4.278-28.377,3.705-42.65
			c-0.002-0.041-0.037-0.074-0.079-0.072c-0.041,0.001-0.073,0.035-0.073,0.077c0.207,14.271-1.398,28.544-4.774,42.364
			c-1.688,6.909-3.812,13.707-6.388,20.322c-1.289,3.306-2.688,6.567-4.215,9.764c-0.763,1.597-1.557,3.178-2.39,4.736
			c-0.415,0.779-0.841,1.551-1.278,2.316c-0.436,0.76-0.887,1.527-1.342,2.24l-0.008,0.01
			C720.32,311.81,723.585,310.921,724.018,310.12z"/>
		<path fill="#D4CCC4" d="M739.465,223.581c7.453-2.768,9.354,37.25,1.977,59.952l-6.27,4.97l5.645-3.145
			c-2.504,6.889-5.951,11.867-10.46,13.016c-8.011,2.042-8.571-14.111-5.878-31.938l4.368,7.023l-3.911-9.877
			C728.078,244.934,734.49,225.429,739.465,223.581z"/>
	</g>
	<g>
		<path fill="#D4CCC4" d="M894.734,311.897c-0.502-1.527-0.962-3.116-1.397-4.695c-0.435-1.584-0.843-3.176-1.226-4.775
			c-0.768-3.198-1.442-6.423-2.023-9.664c-1.162-6.483-1.959-13.037-2.313-19.622c-0.352-6.583-0.261-13.2,0.429-19.766
			c0.688-6.563,1.98-13.081,4.069-19.363c0.015-0.044-0.009-0.092-0.052-0.106c-0.043-0.014-0.09,0.009-0.105,0.051
			c-2.285,6.229-3.785,12.741-4.68,19.326c-0.895,6.59-1.189,13.258-1.037,19.911c0.155,6.655,0.759,13.3,1.732,19.89
			c0.488,3.296,1.07,6.578,1.75,9.844c0.341,1.633,0.703,3.26,1.098,4.885c0.396,1.627,3.975,4.82,3.771,4.135
			c-0.002-0.012-0.006-0.021-0.01-0.031L894.734,311.897z"/>
		<path fill="#D4CCC4" d="M895.557,225.993c4.578,1.812-1.717,22.543-1.76,42.951c-0.012,6.328,0.298,12.021,0.527,16.882
			l-2.328,7.481l2.518-2.882c0.236,7.718-0.225,12.489-3.749,13.114c-1.273,0.226-7.306-3.732-10.74-16.4l4.82,3.107l-5.351-5.225
			c-0.764-3.312-1.348-7.155-1.649-11.593C876.051,247.05,890.988,224.186,895.557,225.993z"/>
	</g>
	<g>
		<path fill="#D4CCC4" d="M1319.5,310.12c0.429-0.797,0.842-1.598,1.247-2.404c0.809-1.612,1.575-3.241,2.309-4.883
			c1.467-3.287,2.801-6.626,4.017-10.004c2.432-6.757,4.399-13.671,5.921-20.672c3.041-14.008,4.279-28.377,3.706-42.65
			c-0.002-0.041-0.037-0.074-0.08-0.072c-0.041,0.001-0.072,0.035-0.072,0.077c0.206,14.271-1.399,28.544-4.774,42.364
			c-1.688,6.909-3.813,13.707-6.388,20.322c-1.288,3.306-2.689,6.567-4.215,9.764c-0.764,1.597-1.558,3.178-2.391,4.736
			c-0.415,0.779-0.841,1.551-1.277,2.316c-0.436,0.76-0.887,1.527-1.344,2.24l-0.006,0.01
			C1315.802,311.81,1319.066,310.921,1319.5,310.12z"/>
		<path fill="#D4CCC4" d="M1334.947,223.581c7.452-2.768,9.354,37.25,1.977,59.952l-6.271,4.97l5.645-3.145
			c-2.503,6.889-5.949,11.867-10.458,13.016c-8.013,2.042-8.571-14.111-5.878-31.938l4.367,7.023l-3.911-9.877
			C1323.561,244.934,1329.972,225.429,1334.947,223.581z"/>
	</g>
	<g>
		<path fill="#D4CCC4" d="M39.293,158.468c-0.419,1.633-0.806,3.272-1.163,4.917c-0.715,3.29-1.314,6.6-1.812,9.923
			c-0.991,6.648-1.565,13.352-1.685,20.062c-0.117,6.708,0.223,13.423,1.093,20.065s2.273,13.213,4.272,19.591
			c0.014,0.046,0.06,0.07,0.104,0.056c0.044-0.014,0.067-0.059,0.056-0.102c-1.803-6.428-3.001-13.009-3.665-19.633
			c-0.665-6.626-0.802-13.294-0.483-19.934s1.087-13.252,2.264-19.783c0.59-3.266,1.28-6.512,2.08-9.726
			C40.756,162.296,39.503,157.651,39.293,158.468z"/>
		<path fill="#D4CCC4" d="M41.922,221.995l5.968,5.372c-1.407,7.301-3.93,11.831-7.552,10.265c-2.597-1.122-4.947-4.609-6.899-9.424
			l2.345-6.381l-3.02,4.623c-6.972-19.191-8.088-55.384,4.686-53.895c10.192,1.187,13.716,34.338,10.763,52.969L41.922,221.995z"/>
	</g>
	<g>
		<path fill="#D4CCC4" d="M123.1,167.927c-0.502-1.525-0.963-3.115-1.397-4.693c-0.436-1.584-0.843-3.177-1.228-4.775
			c-0.767-3.199-1.441-6.424-2.022-9.664c-1.161-6.484-1.959-13.039-2.312-19.623c-0.352-6.583-0.262-13.199,0.428-19.766
			c0.688-6.562,1.98-13.081,4.07-19.363c0.015-0.043-0.009-0.092-0.053-0.105c-0.044-0.015-0.09,0.008-0.105,0.051
			c-2.285,6.229-3.785,12.74-4.68,19.325c-0.895,6.589-1.19,13.258-1.037,19.911c0.155,6.655,0.76,13.299,1.733,19.889
			c0.487,3.297,1.069,6.578,1.749,9.844c0.34,1.634,0.704,3.262,1.097,4.887c0.397,1.627,3.977,4.819,3.773,4.135
			c-0.003-0.012-0.007-0.021-0.01-0.032L123.1,167.927z"/>
		<path fill="#D4CCC4" d="M123.922,82.024c4.577,1.811-1.718,22.542-1.76,42.951c-0.013,6.328,0.297,12.021,0.527,16.881
			l-2.329,7.482l2.518-2.883c0.237,7.717-0.225,12.488-3.749,13.114c-1.272,0.226-7.306-3.731-10.739-16.399l4.819,3.107
			l-5.352-5.225c-0.762-3.312-1.347-7.156-1.649-11.594C104.415,103.079,119.354,80.216,123.922,82.024z"/>
	</g>
	<g>
		<path fill="#D4CCC4" d="M41.864,12.671c0.147,0.843,0.278,1.685,0.398,2.527c0.238,1.684,0.428,3.371,0.578,5.061
			c0.301,3.379,0.445,6.764,0.455,10.147c0.016,6.767-0.513,13.521-1.543,20.188c-1.031,6.668-2.57,13.248-4.588,19.671
			c-2.018,6.421-4.517,12.684-7.451,18.726c-0.021,0.041-0.071,0.059-0.112,0.037c-0.041-0.019-0.059-0.068-0.041-0.109
			c2.75-6.119,5.05-12.432,6.864-18.875c1.813-6.441,3.142-13.013,3.963-19.639c0.821-6.627,1.141-13.309,0.926-19.965
			c-0.108-3.326-0.351-6.647-0.744-9.944c-0.197-1.648-0.434-3.291-0.714-4.921c-0.14-0.815-0.292-1.627-0.458-2.434
			c-0.084-0.404-0.171-0.806-0.262-1.205c-0.091-0.396-0.187-0.8-0.287-1.171l-0.001-0.003
			C38.661,10.073,41.79,12.251,41.864,12.671z"/>
		<path fill="#D4CCC4" d="M34.021,52.989l5.232-3.635l-5.476,5.557c-0.171,1.248-0.364,2.51-0.591,3.777
			c-3.256,18.215-10.524,32.848-6.569,34.912c6.077,3.17,19.858-14.364,24.162-37.947c0.73-4.002,1.158-7.568,1.319-10.725
			l-7.459-8.223l7.521,4.346c-0.249-11.033-4.374-15.898-10.144-16.191C34.271,24.466,35.839,37.573,34.021,52.989z"/>
	</g>
	<g>
		<path fill="#D4CCC4" d="M188.164,5.048c-0.42,1.633-0.807,3.271-1.163,4.916c-0.715,3.29-1.316,6.6-1.812,9.923
			c-0.99,6.649-1.564,13.353-1.684,20.062c-0.118,6.707,0.223,13.423,1.093,20.065s2.272,13.213,4.271,19.59
			c0.014,0.047,0.061,0.07,0.105,0.056c0.043-0.013,0.066-0.059,0.056-0.101c-1.803-6.428-3.002-13.01-3.666-19.633
			c-0.665-6.627-0.801-13.295-0.482-19.935s1.086-13.251,2.263-19.783c0.589-3.265,1.28-6.511,2.081-9.726
			C189.626,8.876,188.374,4.23,188.164,5.048z"/>
		<path fill="#D4CCC4" d="M190.792,68.575l5.968,5.371c-1.407,7.301-3.929,11.832-7.552,10.265c-2.597-1.122-4.947-4.609-6.9-9.423
			l2.346-6.382l-3.02,4.624c-6.971-19.191-8.088-55.385,4.686-53.896c10.193,1.187,13.717,34.339,10.764,52.97L190.792,68.575z"/>
	</g>
	<g>
		<g>
			<path fill="#D4CCC4" d="M250.123,166.151c0.429-0.797,0.843-1.6,1.247-2.404c0.81-1.613,1.576-3.242,2.31-4.885
				c1.466-3.285,2.8-6.625,4.017-10.003c2.432-6.757,4.399-13.671,5.92-20.671c3.041-14.008,4.279-28.377,3.706-42.65
				c-0.002-0.043-0.036-0.075-0.08-0.073c-0.04,0.001-0.072,0.036-0.072,0.077c0.206,14.271-1.398,28.544-4.773,42.364
				c-1.688,6.909-3.813,13.707-6.389,20.321c-1.288,3.307-2.688,6.568-4.214,9.765c-0.764,1.597-1.559,3.179-2.391,4.736
				c-0.416,0.778-0.841,1.552-1.278,2.317c-0.436,0.758-0.887,1.526-1.343,2.24l-0.006,0.008
				C246.426,167.841,249.69,166.951,250.123,166.151z"/>
			<path fill="#D4CCC4" d="M265.571,79.611c7.451-2.769,9.353,37.25,1.977,59.952l-6.271,4.97l5.645-3.145
				c-2.503,6.888-5.949,11.866-10.458,13.016c-8.013,2.042-8.572-14.111-5.879-31.938l4.368,7.023l-3.911-9.876
				C254.185,100.964,260.596,81.46,265.571,79.611z"/>
		</g>
		<g>
			<path fill="#D4CCC4" d="M337.034,158.468c-0.419,1.633-0.806,3.272-1.163,4.917c-0.715,3.29-1.315,6.6-1.812,9.923
				c-0.991,6.648-1.565,13.352-1.685,20.062c-0.117,6.708,0.224,13.423,1.093,20.065c0.87,6.643,2.273,13.213,4.272,19.591
				c0.014,0.046,0.06,0.07,0.104,0.056c0.043-0.014,0.067-0.059,0.057-0.102c-1.803-6.428-3.002-13.009-3.666-19.633
				c-0.665-6.626-0.801-13.294-0.483-19.934c0.318-6.64,1.087-13.252,2.264-19.783c0.589-3.266,1.28-6.512,2.081-9.726
				C338.497,162.296,337.244,157.651,337.034,158.468z"/>
			<path fill="#D4CCC4" d="M339.663,221.995l5.968,5.372c-1.407,7.301-3.929,11.831-7.552,10.265
				c-2.597-1.122-4.947-4.609-6.9-9.424l2.346-6.381l-3.02,4.623c-6.971-19.191-8.088-55.384,4.686-53.895
				c10.193,1.187,13.717,34.338,10.763,52.969L339.663,221.995z"/>
		</g>
		<g>
			<path fill="#D4CCC4" d="M420.841,167.927c-0.503-1.525-0.963-3.115-1.398-4.693c-0.435-1.584-0.842-3.177-1.227-4.775
				c-0.768-3.199-1.441-6.424-2.022-9.664c-1.161-6.484-1.958-13.039-2.313-19.623c-0.352-6.583-0.26-13.199,0.428-19.766
				c0.689-6.562,1.981-13.081,4.071-19.363c0.014-0.043-0.009-0.092-0.054-0.105c-0.043-0.015-0.09,0.008-0.105,0.051
				c-2.284,6.229-3.783,12.74-4.679,19.325c-0.894,6.589-1.19,13.258-1.038,19.911c0.156,6.655,0.76,13.299,1.734,19.889
				c0.487,3.297,1.069,6.578,1.749,9.844c0.34,1.634,0.704,3.262,1.097,4.887c0.396,1.627,3.976,4.819,3.772,4.135
				c-0.002-0.012-0.005-0.021-0.009-0.032L420.841,167.927z"/>
			<path fill="#D4CCC4" d="M421.662,82.024c4.577,1.811-1.717,22.542-1.759,42.951c-0.013,6.328,0.297,12.021,0.527,16.881
				l-2.33,7.482l2.519-2.883c0.236,7.717-0.225,12.488-3.749,13.114c-1.272,0.226-7.306-3.731-10.74-16.399l4.82,3.107l-5.351-5.225
				c-0.763-3.312-1.349-7.156-1.649-11.594C402.155,103.079,417.094,80.216,421.662,82.024z"/>
		</g>
		<g>
			<path fill="#D4CCC4" d="M339.605,12.671c0.147,0.843,0.278,1.685,0.397,2.527c0.238,1.684,0.429,3.371,0.58,5.061
				c0.301,3.379,0.444,6.764,0.454,10.147c0.016,6.767-0.513,13.521-1.543,20.188c-1.032,6.668-2.57,13.248-4.589,19.671
				c-2.018,6.421-4.516,12.684-7.451,18.726c-0.02,0.041-0.07,0.059-0.111,0.037c-0.041-0.019-0.059-0.068-0.041-0.109
				c2.75-6.119,5.051-12.432,6.863-18.875c1.813-6.441,3.143-13.013,3.964-19.639c0.821-6.627,1.142-13.309,0.926-19.965
				c-0.109-3.326-0.351-6.647-0.745-9.944c-0.197-1.648-0.433-3.291-0.713-4.921c-0.141-0.815-0.293-1.627-0.459-2.434
				c-0.083-0.404-0.17-0.806-0.262-1.205c-0.09-0.396-0.186-0.8-0.287-1.171v-0.003C336.402,10.073,339.532,12.251,339.605,12.671z"
				/>
			<path fill="#D4CCC4" d="M331.763,52.989l5.232-3.635l-5.476,5.557c-0.17,1.248-0.364,2.51-0.591,3.777
				c-3.257,18.215-10.525,32.848-6.569,34.912c6.077,3.17,19.858-14.364,24.162-37.947c0.731-4.002,1.158-7.568,1.319-10.725
				l-7.459-8.223l7.521,4.346c-0.249-11.033-4.374-15.898-10.144-16.191C332.011,24.466,333.581,37.573,331.763,52.989z"/>
		</g>
	</g>
	<g>
		<path fill="#D4CCC4" d="M485.905,5.048c-0.42,1.633-0.806,3.271-1.164,4.916c-0.714,3.29-1.315,6.6-1.811,9.923
			c-0.992,6.649-1.566,13.353-1.686,20.062c-0.117,6.707,0.224,13.423,1.094,20.065c0.869,6.643,2.272,13.213,4.271,19.59
			c0.014,0.047,0.061,0.07,0.105,0.056c0.043-0.013,0.067-0.059,0.056-0.101c-1.803-6.428-3.001-13.01-3.665-19.633
			c-0.666-6.627-0.802-13.295-0.484-19.935c0.318-6.64,1.087-13.251,2.264-19.783c0.589-3.265,1.281-6.511,2.081-9.726
			C487.367,8.876,486.115,4.23,485.905,5.048z"/>
		<path fill="#D4CCC4" d="M488.534,68.575l5.967,5.371c-1.407,7.301-3.929,11.832-7.551,10.265c-2.598-1.122-4.947-4.609-6.9-9.423
			l2.345-6.382l-3.02,4.624c-6.971-19.191-8.088-55.385,4.686-53.896c10.193,1.187,13.717,34.339,10.764,52.97L488.534,68.575z"/>
	</g>
	<g>
		<path fill="#D4CCC4" d="M101.253,310.12c0.429-0.797,0.842-1.598,1.247-2.404c0.809-1.612,1.575-3.241,2.309-4.883
			c1.467-3.287,2.801-6.626,4.017-10.004c2.432-6.757,4.399-13.671,5.921-20.672c3.041-14.008,4.279-28.377,3.706-42.65
			c-0.002-0.041-0.037-0.074-0.08-0.072c-0.041,0.001-0.072,0.035-0.072,0.077c0.206,14.271-1.399,28.544-4.774,42.364
			c-1.688,6.909-3.813,13.707-6.388,20.322c-1.288,3.306-2.689,6.567-4.215,9.764c-0.764,1.597-1.558,3.178-2.391,4.736
			c-0.415,0.779-0.841,1.551-1.277,2.316c-0.436,0.76-0.887,1.527-1.344,2.24l-0.006,0.01
			C97.555,311.81,100.819,310.921,101.253,310.12z"/>
		<path fill="#D4CCC4" d="M116.7,223.581c7.452-2.768,9.354,37.25,1.977,59.952l-6.271,4.97l5.645-3.145
			c-2.503,6.889-5.949,11.867-10.458,13.016c-8.013,2.042-8.571-14.111-5.878-31.938l4.367,7.023l-3.911-9.877
			C105.313,244.934,111.725,225.429,116.7,223.581z"/>
	</g>
	<g>
		<path fill="#D4CCC4" d="M271.97,311.897c-0.502-1.527-0.963-3.116-1.398-4.695c-0.434-1.584-0.842-3.176-1.227-4.775
			c-0.768-3.198-1.441-6.423-2.021-9.664c-1.162-6.483-1.959-13.037-2.314-19.622c-0.351-6.583-0.26-13.2,0.429-19.766
			c0.688-6.563,1.981-13.081,4.07-19.363c0.015-0.044-0.009-0.092-0.054-0.106c-0.043-0.014-0.089,0.009-0.104,0.051
			c-2.284,6.229-3.784,12.741-4.68,19.326c-0.894,6.59-1.19,13.258-1.037,19.911c0.155,6.655,0.759,13.3,1.733,19.89
			c0.488,3.296,1.07,6.578,1.75,9.844c0.34,1.633,0.703,3.26,1.097,4.885c0.396,1.627,3.976,4.82,3.772,4.135
			c-0.002-0.012-0.006-0.021-0.01-0.031L271.97,311.897z"/>
		<path fill="#D4CCC4" d="M272.792,225.993c4.576,1.812-1.718,22.543-1.76,42.951c-0.013,6.328,0.297,12.021,0.527,16.882
			l-2.329,7.481l2.518-2.882c0.237,7.718-0.225,12.489-3.749,13.114c-1.272,0.226-7.306-3.732-10.74-16.4l4.82,3.107l-5.351-5.225
			c-0.763-3.312-1.348-7.155-1.65-11.593C253.285,247.05,268.224,224.186,272.792,225.993z"/>
	</g>
	<g>
		<path fill="#D4CCC4" d="M190.735,156.642c0.146,0.842,0.278,1.684,0.397,2.526c0.237,1.684,0.428,3.371,0.579,5.062
			c0.301,3.378,0.445,6.764,0.455,10.146c0.016,6.766-0.514,13.521-1.543,20.188c-1.032,6.667-2.57,13.249-4.589,19.671
			c-2.019,6.421-4.517,12.684-7.451,18.725c-0.021,0.042-0.071,0.059-0.112,0.039s-0.059-0.068-0.04-0.109
			c2.75-6.12,5.05-12.432,6.863-18.876c1.813-6.442,3.142-13.013,3.963-19.64c0.822-6.626,1.142-13.309,0.927-19.963
			c-0.109-3.328-0.352-6.648-0.745-9.945c-0.198-1.648-0.433-3.291-0.714-4.921c-0.141-0.815-0.293-1.628-0.459-2.435
			c-0.083-0.402-0.169-0.805-0.261-1.204c-0.091-0.396-0.187-0.8-0.287-1.171l-0.001-0.003
			C187.532,154.042,190.661,156.221,190.735,156.642z"/>
		<path fill="#D4CCC4" d="M182.892,196.96l5.232-3.637l-5.476,5.557c-0.17,1.25-0.364,2.51-0.591,3.778
			c-3.256,18.215-10.525,32.847-6.568,34.911c6.076,3.171,19.858-14.363,24.162-37.945c0.73-4.004,1.157-7.57,1.318-10.727
			l-7.458-8.221l7.521,4.346c-0.25-11.033-4.375-15.9-10.145-16.193C183.141,168.435,184.709,181.542,182.892,196.96z"/>
	</g>
	<g>
		<path fill="#D4CCC4" d="M398.993,310.12c0.429-0.797,0.844-1.598,1.248-2.404c0.809-1.612,1.576-3.241,2.309-4.883
			c1.467-3.287,2.801-6.626,4.017-10.004c2.433-6.757,4.399-13.671,5.921-20.672c3.041-14.008,4.279-28.377,3.705-42.65
			c-0.002-0.041-0.036-0.074-0.08-0.072c-0.04,0.001-0.072,0.035-0.072,0.077c0.207,14.271-1.398,28.544-4.773,42.364
			c-1.688,6.909-3.812,13.707-6.388,20.322c-1.289,3.306-2.688,6.567-4.214,9.764c-0.764,1.597-1.559,3.178-2.391,4.736
			c-0.416,0.779-0.842,1.551-1.278,2.316c-0.437,0.76-0.888,1.527-1.343,2.24l-0.006,0.01
			C395.296,311.81,398.561,310.921,398.993,310.12z"/>
		<path fill="#D4CCC4" d="M414.441,223.581c7.452-2.768,9.353,37.25,1.977,59.952l-6.271,4.97l5.644-3.145
			c-2.503,6.889-5.949,11.867-10.458,13.016c-8.013,2.042-8.571-14.111-5.879-31.938l4.369,7.023l-3.912-9.877
			C403.056,244.934,409.466,225.429,414.441,223.581z"/>
	</g>
	<g>
		<path fill="#D4CCC4" d="M569.711,311.897c-0.503-1.527-0.962-3.116-1.397-4.695c-0.436-1.584-0.843-3.176-1.227-4.775
			c-0.768-3.198-1.442-6.423-2.023-9.664c-1.161-6.483-1.958-13.037-2.312-19.622c-0.352-6.583-0.261-13.2,0.428-19.766
			c0.689-6.563,1.98-13.081,4.07-19.363c0.015-0.044-0.009-0.092-0.053-0.106c-0.043-0.014-0.09,0.009-0.105,0.051
			c-2.284,6.229-3.784,12.741-4.68,19.326c-0.894,6.59-1.189,13.258-1.037,19.911c0.156,6.655,0.76,13.3,1.733,19.89
			c0.488,3.296,1.069,6.578,1.749,9.844c0.341,1.633,0.704,3.26,1.098,4.885c0.396,1.627,3.976,4.82,3.772,4.135
			c-0.002-0.012-0.006-0.021-0.009-0.031L569.711,311.897z"/>
		<path fill="#D4CCC4" d="M570.533,225.993c4.576,1.812-1.717,22.543-1.759,42.951c-0.014,6.328,0.296,12.021,0.526,16.882
			l-2.329,7.481l2.518-2.882c0.237,7.718-0.224,12.489-3.749,13.114c-1.272,0.226-7.306-3.732-10.739-16.4l4.819,3.107l-5.351-5.225
			c-0.762-3.312-1.348-7.155-1.649-11.593C551.026,247.05,565.965,224.186,570.533,225.993z"/>
	</g>
	<g>
		<path fill="#D4CCC4" d="M488.476,156.642c0.147,0.842,0.278,1.684,0.398,2.526c0.237,1.684,0.428,3.371,0.579,5.062
			c0.301,3.378,0.445,6.764,0.454,10.146c0.016,6.766-0.513,13.521-1.543,20.188c-1.031,6.667-2.57,13.249-4.588,19.671
			c-2.019,6.421-4.517,12.684-7.451,18.725c-0.021,0.042-0.071,0.059-0.111,0.039c-0.041-0.02-0.06-0.068-0.041-0.109
			c2.749-6.12,5.05-12.432,6.863-18.876c1.813-6.442,3.142-13.013,3.963-19.64c0.822-6.626,1.142-13.309,0.926-19.963
			c-0.108-3.328-0.351-6.648-0.744-9.945c-0.197-1.648-0.433-3.291-0.713-4.921c-0.141-0.815-0.294-1.628-0.46-2.435
			c-0.083-0.402-0.169-0.805-0.261-1.204c-0.09-0.396-0.187-0.8-0.287-1.171l-0.001-0.003
			C485.272,154.042,488.402,156.221,488.476,156.642z"/>
		<path fill="#D4CCC4" d="M480.634,196.96l5.232-3.637l-5.476,5.557c-0.171,1.25-0.365,2.51-0.591,3.778
			c-3.258,18.215-10.525,32.847-6.57,34.911c6.078,3.171,19.859-14.363,24.162-37.945c0.731-4.004,1.158-7.57,1.319-10.727
			l-7.458-8.221l7.52,4.346c-0.249-11.033-4.373-15.9-10.143-16.193C480.882,168.435,482.451,181.542,480.634,196.96z"/>
	</g>
</g>
<g id="Layer_1">
	<rect display="none" fill="none" width="175" height="320"/>
</g>
</svg>
