<?xml version="1.0" encoding="utf-8"?>
<!-- Generator: Adobe Illustrator 15.0.2, SVG Export Plug-In . SVG Version: 6.00 Build 0)  -->
<!DOCTYPE svg PUBLIC "-//W3C//DTD SVG 1.1//EN" "http://www.w3.org/Graphics/SVG/1.1/DTD/svg11.dtd">
<svg version="1.1" id="Layer_1" xmlns="http://www.w3.org/2000/svg" xmlns:xlink="http://www.w3.org/1999/xlink" x="0px" y="0px"
	 width="1200px" height="320px" viewBox="0 0 1200 320" enable-background="new 0 0 1200 320" xml:space="preserve">
<g>
	<defs>
		<rect id="SVGID_1_" width="1200" height="320"/>
	</defs>
	<clipPath id="SVGID_2_">
		<use xlink:href="#SVGID_1_"  overflow="visible"/>
	</clipPath>
	<rect x="-0.237" y="-0.196" clip-path="url(#SVGID_2_)" fill="#D7D2CB" width="1199.563" height="320"/>
	<polygon clip-path="url(#SVGID_2_)" fill="#C9C1B7" points="956.589,319.49 281.303,377.805 506.911,-10.567 586.814,-50.284 	"/>
	
		<linearGradient id="SVGID_5_" gradientUnits="userSpaceOnUse" x1="637.627" y1="-382.2817" x2="1097.6104" y2="-382.2817" gradientTransform="matrix(0.7071 -0.7071 -0.7071 -0.7071 213.6226 543.5596)">
		<stop  offset="0" style="stop-color:#AB9F95"/>
		<stop  offset="1" style="stop-color:#EEE9E5"/>
	</linearGradient>
	<polygon opacity="0.5" clip-path="url(#SVGID_2_)" fill="url(#SVGID_5_)" enable-background="new    " points="980.5,408.703 
		1132.718,-19.414 1218.259,-4.045 1134.5,347.805 	"/>
	
		<linearGradient id="SVGID_7_" gradientUnits="userSpaceOnUse" x1="348.8027" y1="-337.6968" x2="836.3105" y2="-337.6968" gradientTransform="matrix(-0.7071 0.7071 0.7071 0.7071 973.1357 -24.2705)">
		<stop  offset="0" style="stop-color:#AB9F95"/>
		<stop  offset="1" style="stop-color:#EEE9E5"/>
	</linearGradient>
	<polygon opacity="0.5" clip-path="url(#SVGID_2_)" fill="url(#SVGID_7_)" enable-background="new    " points="504.129,0 
		351.345,428.117 265.804,412.749 -11.089,174.216 	"/>
	<linearGradient id="SVGID_9_" gradientUnits="userSpaceOnUse" x1="-10.8696" y1="213.8262" x2="1021.5205" y2="213.8262">
		<stop  offset="0" style="stop-color:#AB9F95"/>
		<stop  offset="1" style="stop-color:#EEE9E5"/>
	</linearGradient>
	<path opacity="0.5" clip-path="url(#SVGID_2_)" fill="url(#SVGID_9_)" enable-background="new    " d="M127.265,106.766
		c-11.463-0.162-24.697-0.452-36.385,4.66c-23.62,9.188-40.157,33.626-39.795,58.997h7.48
		c-0.317-22.388,14.283-43.944,35.125-52.052c10.372-4.498,21.47-4.263,33.575-4.122h35.529h858.727v-7.483H162.794H127.265z
		 M102.285,327.998h16.675L72.044,170.423h-7.49L102.285,327.998z M127.269,120.241c-12.623-0.131-21.994-0.317-31.331,3.68
		c-18.612,7.245-31.663,26.496-31.383,46.502h7.49c-0.249-17.021,10.87-33.393,26.703-39.561c8.019-3.386,15.257-3.255,28.521-3.127
		h35.529h768.85v-7.494h-768.85H127.269z M162.804,93.283h-35.536c-10.293-0.187-27.389-0.58-41.438,5.644
		c-28.615,11.125-48.648,40.741-48.231,71.485l7.494,0.004c-0.383-27.766,17.708-54.496,43.551-64.548
		c12.737-5.599,27.689-5.267,38.625-5.095h35.536h741.075v-7.49H162.804z M37.583,334.452h20.307l0.676-164.022h-7.48
		L37.583,334.452z M-10.87,331.546H5.902l39.191-161.123H37.6L-10.87,331.546z"/>
	<g clip-path="url(#SVGID_2_)">
		<polygon fill="#EF4135" points="23.753,2.303 6.904,19.153 8.523,20.772 26.991,2.303 41.188,2.302 43.476,0.014 29.28,0.013 
			26.045,0.013 13.887,0.011 13.887,2.303 		"/>
		
			<linearGradient id="SVGID_12_" gradientUnits="userSpaceOnUse" x1="6920.041" y1="416.1611" x2="6920.041" y2="488.8652" gradientTransform="matrix(1 0 0 -1 -6900.9277 501.9707)">
			<stop  offset="0" style="stop-color:#7C6A55"/>
			<stop  offset="1" style="stop-color:#ACA095"/>
		</linearGradient>
		<path fill="url(#SVGID_12_)" d="M67.491,78.581l0.007,0.004c0,0-6.624,7.225-17.532,7.225c-6.213,0-11.219-4.688-12.159-5.628
			l-67.08-67.075c79.683,0,89.567,27.711,89.567,36.659c0,7.718-3.615,13.289-5.73,15.886L67.491,78.581z"/>
		<path fill="#EF4135" d="M87.871,71.062c0,0-9.449,4.652-20.38,7.519l-7.514-7.519H87.871z"/>
		<path fill="#ACA095" d="M87.871,71.062c0,0-12.465,3.125-24.772,3.125l-3.122-3.125H87.871z"/>
		<path fill="#FBB034" d="M43.584,76.394l-5.335-5.332h21.728l7.514,7.519c-4.861,1.274-10.014,2.195-14.761,2.195
			C48.1,80.776,44.029,76.842,43.584,76.394z"/>
		
			<linearGradient id="SVGID_17_" gradientUnits="userSpaceOnUse" x1="6884.6094" y1="497.9043" x2="6938.9165" y2="443.5973" gradientTransform="matrix(1 0 0 -1 -6900.9277 501.9707)">
			<stop  offset="0" style="stop-color:#7C6A55"/>
			<stop  offset="1" style="stop-color:#ACA095"/>
		</linearGradient>
		<path fill="url(#SVGID_17_)" d="M25.741,68.116l-53.053-53.054c61.299,5.836,69.702,24.504,70.093,31.264
			C43.308,55.461,33.818,63.212,25.741,68.116z"/>
		<path fill="#ACA095" d="M25.742,68.116L-5.154,37.219L-37.59,4.782L-32.808,0l16.289,16.288l47.969,47.97
			C29.565,65.684,27.615,66.978,25.742,68.116z"/>
		<path opacity="0.2" fill="#FFFFFF" d="M60.296,49.765c0,0.795-0.046,1.56-0.117,2.308L28.423,20.314
			C55.795,29.164,60.296,43.732,60.296,49.765z"/>
		<path fill="#7C6A55" d="M59.085,77.213c-1.678,0.193-4.234,0.441-6.355,0.441c-3.471,0-6.94-3.468-6.94-3.468h10.267
			L59.085,77.213z"/>
		<path fill="#ACA095" d="M59.085,77.213c-1.678,0.193-4.234,0.441-6.355,0.441c-3.471,0-6.94-3.468-6.94-3.468h10.267
			L59.085,77.213z"/>
	</g>
	<g clip-path="url(#SVGID_2_)">
		<g>
			<polygon fill="#7C6A55" points="554.115,379.324 608.403,379.323 689.838,297.89 744.128,352.18 662.692,433.615 
				662.692,433.615 608.404,433.613 			"/>
			<polygon fill="#7C6A55" points="744.13,569.338 798.418,569.338 879.853,487.904 934.142,542.193 852.706,623.629 
				852.706,623.629 798.418,623.627 			"/>
		</g>
		<path fill="#C9C1B8" d="M513.398,121.452l0.004,0.005c6.953-6.952,15.016-15.015,17.539-17.539
			c4.716-4.715,9.549-9.609,19.215-9.609c4.703,0,11.645,0,17.533,0v-0.001l0.01-0.037c0-5.883,0.001-12.807,0.001-17.506
			c-0.001-9.666,4.892-14.497,9.609-19.215c4.715-4.715,44.669-44.668,44.669-44.668l40.721-0.002c0,0-40.666,40.666-47.465,47.464
			c-6.8,6.8-6.85,20.335-0.019,27.167c4.104,4.105,5.99,5.995,6.784,6.794l40.702-40.702l0.001,40.705l40.707,0.001
			c0,0,13.518-13.517,20.35-20.35c6.834-6.834,13.711-6.795,20.38-6.795c6.67-0.001,40.702,0.002,40.702,0.002l-40.715,40.715
			l27.14,27.139l0.003-0.003l81.438,81.437c27.148,27.148,13.572,67.863,13.572,67.863l135.726,135.727
			c37.479,37.478,37.48,98.242,0.001,135.722l-13.572,13.573c-22.2,22.199-52.572,31.247-81.437,27.146
			c-19.399,19.4-36.006,36.006-40.805,40.806c-13.483,13.483-27.1,13.483-40.629,13.482c-13.528-0.001-27.143,0.001-27.143,0.001
			l-54.291-54.291l54.289-0.002l86.764-86.764c-44.215,10.969-92.92-0.823-127.481-35.385l-54.29-54.29
			c-13.229,13.229-23.605,23.606-27.233,27.233c-13.482,13.483-27.1,13.483-40.628,13.483c-13.528-0.001-27.143,0.001-27.143,0.001
			l-54.29-54.29l54.289-0.002l40.715-40.715c-29.984-29.984-29.982-78.594,0-108.576l-13.573-13.573l-27.144-0.002
			c0,0-27.15-0.003-40.72-13.571c-13.569-13.569-81.409-81.41-81.409-81.41l-0.022-0.021c0,0,21.108-21.1,27.146-27.136V121.452z"/>
		<g opacity="0.4">
			<path fill="#C9C1B8" d="M851.333,513.672c-33.927-0.345-67.746-13.455-93.632-39.341l-54.287-54.288
				c3.094-3.095,8.439-8.439,13.572-13.572c13.572-13.573,27.14-0.006,27.14-0.006L851.333,513.672z"/>
		</g>
		<path opacity="0.4" fill="#C9C1B8" d="M825.566,650.771c-11.848,0.001-27.146,0.001-27.146,0.001l-54.291-54.291h27.146
			L825.566,650.771z"/>
		<path opacity="0.4" fill="#C9C1B8" d="M635.553,460.759c-11.848-0.001-27.146,0-27.146,0l-54.29-54.29h27.146L635.553,460.759z"/>
		<path opacity="0.2" fill="#FFFFFF" d="M649.121,365.752c7.498,7.498,7.496,19.649,0,27.146c-7.496,7.495-19.648,7.498-27.146,0
			L649.121,365.752z"/>
		<path opacity="0.2" fill="#FFFFFF" d="M811.988,582.91c7.498,7.498,19.65,7.496,27.146,0c7.495-7.495,7.497-19.647-0.001-27.146"
			/>
		<path fill="#C9C1B8" d="M649.12,257.166"/>
		<g opacity="0.5">
			
				<linearGradient id="SVGID_32_" gradientUnits="userSpaceOnUse" x1="244.3833" y1="289.5361" x2="244.3833" y2="155.1753" gradientTransform="matrix(-0.7071 -0.7071 -0.7071 0.7071 1182.7422 489.9072)">
				<stop  offset="0" style="stop-color:#ACA095"/>
				<stop  offset="1" style="stop-color:#EFE9E5"/>
			</linearGradient>
			<path opacity="0.4" fill="url(#SVGID_32_)" d="M866.275,392.892l81.439,81.438c-6.461,6.461-13.414,12.12-20.741,16.989
				c-52.183,34.685-123.261,29.023-169.272-16.988l67.861-67.861c3.096-3.096,8.44-8.44,13.573-13.573
				C852.708,379.324,866.275,392.892,866.275,392.892z"/>
		</g>
		<path opacity="0.4" fill="#C9C1B8" d="M649.12,257.166c0,0,13.575-13.564,27.142,0.003c9.605,9.604,108.58,108.58,108.58,108.58
			l-13.572,13.572l-0.002,0.002c0,0-13.575,13.568-27.144,0c-13.569-13.569-40.679-40.678-40.679-40.678s-13.635-13.59-27.189-0.035
			c-13.387,13.387-27.138,27.138-27.138,27.138c-29.982-29.982-29.984-78.595-0.001-108.579L649.12,257.166z"/>
		<path fill="#7C6A55" d="M752.168,86.331c6.669,0.002,13.507,0.002,13.507,0.002s-25.261,25.261-28.354,28.354
			c-6.832,6.832-13.709,6.794-20.379,6.793c-6.668-0.002-13.506,0-13.506,0s25.193-25.193,28.354-28.354
			C738.622,86.293,745.5,86.331,752.168,86.331z"/>
		
			<linearGradient id="SVGID_36_" gradientUnits="userSpaceOnUse" x1="561.0898" y1="231.9551" x2="733.8359" y2="231.9551" gradientTransform="matrix(-0.7071 -0.7071 -0.7071 0.7071 1182.7422 489.9072)">
			<stop  offset="0" style="stop-color:#ACA095"/>
			<stop  offset="1" style="stop-color:#EFE9E5"/>
		</linearGradient>
		<path opacity="0.5" fill="url(#SVGID_36_)" d="M635.548,243.603l-27.144-0.002c0,0-27.15-0.003-40.72-13.571
			c-13.569-13.569-81.432-81.432-81.432-81.432l54.288,0.008L635.548,243.603z"/>
		<path opacity="0.73" fill="#7C6A55" d="M540.541,148.605l5.239,5.239l-54.288-0.008c-4.928-4.928-5.239-5.239-5.239-5.239
			L540.541,148.605z"/>
		
			<linearGradient id="SVGID_39_" gradientUnits="userSpaceOnUse" x1="676.2422" y1="116.7642" x2="676.2422" y2="116.7642" gradientTransform="matrix(-0.7071 -0.7071 -0.7071 0.7071 1182.7422 489.9072)">
			<stop  offset="0" style="stop-color:#FFFFFF"/>
			<stop  offset="1" style="stop-color:#9A8479"/>
		</linearGradient>
		<path fill="url(#SVGID_39_)" d="M622.002,94.297"/>
		<g>
			<path fill="#ACA095" d="M506.607,128.242c3.748,3.748,9.827,3.749,13.573,0.003c3.749-3.748,3.748-9.827-0.001-13.575
				L506.607,128.242z"/>
			<path fill="#7C6A55" d="M510.001,124.85c1.875,1.874,4.913,1.875,6.786,0.002c1.876-1.875,1.875-4.914,0-6.788L510.001,124.85z"
				/>
		</g>
		
			<linearGradient id="SVGID_43_" gradientUnits="userSpaceOnUse" x1="690.6445" y1="155.1787" x2="690.6445" y2="30.4165" gradientTransform="matrix(-0.7071 -0.7071 -0.7071 0.7071 1182.7422 489.9072)">
			<stop  offset="0" style="stop-color:#ACA095"/>
			<stop  offset="1" style="stop-color:#EFE9E5"/>
		</linearGradient>
		<path opacity="0.5" fill="url(#SVGID_43_)" d="M662.697,12.877c-4.178,4.177-41.147,41.148-47.465,47.465
			c-6.8,6.8-6.852,20.335-0.018,27.168c4.104,4.103,5.989,5.993,6.781,6.791L662.699,53.6l0.002,40.707h-40.7
			c1.146,1.149-0.003,0.002-0.003,0.002l-54.311,0l0.001-0.001l0.009-0.036c0-5.885,0-12.809,0-17.509
			c0.002-9.663,4.89-14.499,9.607-19.217c4.494-4.494,41.869-41.869,44.668-44.668H662.697z"/>
		<g>
			<path fill="#ACA095" d="M598.119,124.738l15.235,15.236l3.493,3.492c-1.52,0.769-3.095,1.393-4.704,1.866
				c-9.474,2.778-20.142,0.442-27.603-7.017l3.287-3.287l7.006-7.006l-0.001-6.57L598.119,124.738z"/>
			<path fill="#7C6A55" d="M608.285,141.475c-7.205,1.266-14.89-0.879-20.457-6.445l7.006-7.006L608.285,141.475z"/>
		</g>
		
			<linearGradient id="SVGID_47_" gradientUnits="userSpaceOnUse" x1="503.502" y1="126.3906" x2="618.6514" y2="126.3906" gradientTransform="matrix(-0.7071 -0.7071 -0.7071 0.7071 1182.7422 489.9072)">
			<stop  offset="0" style="stop-color:#ACA095"/>
			<stop  offset="1" style="stop-color:#EFE9E5"/>
		</linearGradient>
		<path opacity="0.5" fill="url(#SVGID_47_)" d="M635.559,162.188c0,0,27.156-0.002,54.273-0.001
			c27.121-0.003,27.144-0.021,40.722,13.556l0,0L757.7,202.89c-8.78,8.78-19.897,19.897-27.145,27.146
			c-13.569,13.569-27.147,0.002-27.147,0.002l-0.004-0.004l-13.57-13.57l0.005-0.006L635.559,162.188z"/>
		<circle opacity="0.2" fill="#FFFFFF" cx="784.835" cy="175.749" r="4.799"/>
		<circle opacity="0.2" fill="#FFFFFF" cx="811.977" cy="202.89" r="4.799"/>
		<circle opacity="0.2" fill="#FFFFFF" cx="839.126" cy="230.039" r="4.799"/>
		<g>
			<path opacity="0.2" fill="#FFFFFF" d="M856.106,348.786c-1.877-1.877-4.915-1.875-6.789-0.001
				c-1.874,1.873-1.876,4.912,0.001,6.789c1.872,1.872,4.912,1.871,6.786-0.002C857.979,353.698,857.979,350.658,856.106,348.786z"
				/>
			<path opacity="0.2" fill="#FFFFFF" d="M828.967,375.927c-1.877-1.877-4.916-1.876-6.789-0.002
				c-1.874,1.874-1.876,4.913,0.001,6.79c1.872,1.872,4.912,1.871,6.786-0.003C830.838,380.838,830.838,377.799,828.967,375.927z"/>
			<path opacity="0.2" fill="#FFFFFF" d="M801.816,403.076c-1.877-1.877-4.915-1.875-6.788-0.002
				c-1.875,1.875-1.876,4.912,0.001,6.789c1.872,1.872,4.911,1.873,6.786-0.002C803.688,407.988,803.688,404.948,801.816,403.076z"
				/>
		</g>
		<g>
			<circle opacity="0.2" fill="#FFFFFF" cx="1002.006" cy="501.475" r="4.8"/>
			<circle opacity="0.2" fill="#FFFFFF" cx="974.867" cy="528.615" r="4.8"/>
			<circle opacity="0.2" fill="#FFFFFF" cx="947.717" cy="555.764" r="4.8"/>
		</g>
	</g>
</g>
</svg>
