<?xml version="1.0" encoding="utf-8"?>
<!-- Generator: Adobe Illustrator 15.0.2, SVG Export Plug-In . SVG Version: 6.00 Build 0)  -->
<!DOCTYPE svg PUBLIC "-//W3C//DTD SVG 1.1//EN" "http://www.w3.org/Graphics/SVG/1.1/DTD/svg11.dtd">
<svg version="1.1" id="Layer_1" xmlns="http://www.w3.org/2000/svg" xmlns:xlink="http://www.w3.org/1999/xlink" x="0px" y="0px"
	 width="32px" height="32px" viewBox="0 0 32 32" enable-background="new 0 0 32 32" xml:space="preserve">
<path fill="#4E4E50" d="M15.875,0.146C7.122,0.146,0,7.267,0,16.021c0,8.754,7.122,15.875,15.875,15.875
	c8.754,0,15.875-7.121,15.875-15.875C31.75,7.267,24.629,0.146,15.875,0.146L15.875,0.146z"/>
<path fill="#FFFFFF" d="M26.304,14.515c-0.073-2.107-1.083-3.858-3.025-5.253c-1.939-1.396-4.369-2.12-7.288-2.173
	c-2.917,0.053-5.343,0.78-7.28,2.177c-1.934,1.398-2.941,3.147-3.014,5.249c0.113,2.436,1.405,4.373,3.883,5.812
	c-0.604,1.71-1.301,2.862-2.089,3.458c-0.219,0.185-0.323,0.409-0.31,0.675c0-0.003,0,0,0,0.011c0.085,0.298,0.27,0.444,0.549,0.44
	c0.456-0.058,0.892-0.142,1.31-0.255c2.005-0.517,3.768-1.455,5.287-2.81c0.544,0.062,1.102,0.094,1.665,0.094
	c2.919-0.054,5.349-0.777,7.288-2.173C25.221,18.372,26.23,16.62,26.304,14.515z"/>
</svg>
