<?xml version="1.0" encoding="utf-8"?>
<!-- Generator: Adobe Illustrator 15.0.2, SVG Export Plug-In . SVG Version: 6.00 Build 0)  -->
<!DOCTYPE svg PUBLIC "-//W3C//DTD SVG 1.1//EN" "http://www.w3.org/Graphics/SVG/1.1/DTD/svg11.dtd">
<svg version="1.1" id="Layer_1" xmlns="http://www.w3.org/2000/svg" xmlns:xlink="http://www.w3.org/1999/xlink" x="0px" y="0px"
	 width="32px" height="32px" viewBox="0 0 32 32" enable-background="new 0 0 32 32" xml:space="preserve">
<path fill="#4E4E50" d="M15.875,0.146C7.122,0.146,0,7.267,0,16.021c0,8.754,7.122,15.875,15.875,15.875
	c8.754,0,15.875-7.121,15.875-15.875C31.75,7.267,24.629,0.146,15.875,0.146L15.875,0.146z"/>
<g>
	<g>
		<path fill="#FFFFFF" d="M12.817,9.715H9.625c-1.863,0-3.374,1.511-3.374,3.374v7.564c0,1.863,1.511,3.373,3.374,3.373h12.749
			c1.865,0,3.377-1.51,3.377-3.373v-1.874H23.5v1.874c0,0.622-0.504,1.124-1.127,1.124H9.623c-0.62,0-1.124-0.502-1.124-1.124
			v-7.564c0-0.623,0.504-1.125,1.124-1.125h3.193L12.817,9.715L12.817,9.715z"/>
	</g>
	<path fill="#FFFFFF" d="M18.934,16.678l2.896,1.816l-9.007,1.579l1.517-9.069l2.078,3.236c0,0,3.956-3.995,0.28-7.669
		c0,0,0.396-0.398,0.6-0.6C17.295,5.972,23.447,12.164,18.934,16.678z"/>
</g>
</svg>
