<?xml version="1.0" encoding="utf-8"?>
<!-- Generator: Adobe Illustrator 15.0.2, SVG Export Plug-In . SVG Version: 6.00 Build 0)  -->
<!DOCTYPE svg PUBLIC "-//W3C//DTD SVG 1.1//EN" "http://www.w3.org/Graphics/SVG/1.1/DTD/svg11.dtd">
<svg version="1.1" id="Layer_1" xmlns="http://www.w3.org/2000/svg" xmlns:xlink="http://www.w3.org/1999/xlink" x="0px" y="0px"
	 width="54px" height="54px" viewBox="0 0 54 54" enable-background="new 0 0 54 54" xml:space="preserve">
<path fill="#3B5998" d="M27,0.262C12.233,0.262,0.263,12.234,0.263,27c0,14.766,11.971,26.739,26.737,26.739
	S53.737,41.766,53.737,27C53.737,12.234,41.767,0.262,27,0.262z M34.757,16.113c-1.449,0-3.012,0-3.754,0s-1.492,0.776-1.492,1.353
	c0,0.575,0,3.858,0,3.858s4.637,0,5.238,0c-0.211,2.959-0.643,5.665-0.643,5.665h-4.623V43.76h-6.888V26.989h-3.353v-5.644h3.353
	c0,0,0-3.771,0-4.615c0-0.844-0.17-6.492,7.058-6.492c0.971,0,3.17,0,5.104,0C34.757,12.69,34.757,15.344,34.757,16.113z"/>
</svg>
