<?xml version="1.0" encoding="utf-8"?>
<!-- Generator: Adobe Illustrator 15.0.2, SVG Export Plug-In . SVG Version: 6.00 Build 0)  -->
<!DOCTYPE svg PUBLIC "-//W3C//DTD SVG 1.1//EN" "http://www.w3.org/Graphics/SVG/1.1/DTD/svg11.dtd">
<svg version="1.1" id="Layer_1" xmlns="http://www.w3.org/2000/svg" xmlns:xlink="http://www.w3.org/1999/xlink" x="0px" y="0px"
	 width="32px" height="32px" viewBox="0 0 32 32" enable-background="new 0 0 32 32" xml:space="preserve">
<path fill="#FFFFFF" d="M15.875,1.657c7.932,0,14.363,6.431,14.363,14.363s-6.432,14.363-14.363,14.363
	c-7.933,0-14.363-6.432-14.363-14.363C1.512,8.088,7.942,1.657,15.875,1.657 M15.875,0.146C7.122,0.146,0,7.267,0,16.021
	c0,8.754,7.122,15.875,15.875,15.875c8.754,0,15.875-7.121,15.875-15.875C31.75,7.267,24.629,0.146,15.875,0.146L15.875,0.146z"/>
<path fill="#FFFFFF" d="M21.169,8.746c-0.964,0-2.006,0-2.501,0c-0.494,0-0.994,0.518-0.994,0.902c0,0.383,0,2.571,0,2.571
	s3.092,0,3.49,0c-0.141,1.972-0.43,3.776-0.43,3.776h-3.08v11.174h-4.589V15.995h-2.234v-3.762h2.234c0,0,0-2.512,0-3.075
	c0-0.562-0.113-4.326,4.705-4.326c0.646,0,2.11,0,3.398,0C21.169,6.465,21.169,8.234,21.169,8.746z"/>
</svg>
