<?xml version="1.0" encoding="utf-8"?>
<!-- Generator: Adobe Illustrator 15.0.2, SVG Export Plug-In . SVG Version: 6.00 Build 0)  -->
<!DOCTYPE svg PUBLIC "-//W3C//DTD SVG 1.1//EN" "http://www.w3.org/Graphics/SVG/1.1/DTD/svg11.dtd">
<svg version="1.1" id="Layer_1" xmlns="http://www.w3.org/2000/svg" xmlns:xlink="http://www.w3.org/1999/xlink" x="0px" y="0px"
	 width="46px" height="46px" viewBox="-7 -7 46 46" enable-background="new -7 -7 46 46" xml:space="preserve">
<path fill="none" d="M16-6.625C3.525-6.625-6.625,3.523-6.625,16c0,12.476,10.15,22.625,22.625,22.625
	c12.476,0,22.625-10.149,22.625-22.625C38.625,3.523,28.476-6.625,16-6.625L16-6.625z"/>
<path fill="#FFFFFF" d="M23.271,5.796c-1.356,0-2.822,0-3.519,0c-0.695,0-1.398,0.729-1.398,1.269c0,0.539,0,3.616,0,3.616
	s4.35,0,4.91,0c-0.198,2.774-0.605,5.312-0.605,5.312h-4.332v15.716h-6.455V15.993H8.729v-5.292h3.142c0,0,0-3.533,0-4.325
	c0-0.791-0.158-6.085,6.617-6.085c0.909,0,2.969,0,4.78,0C23.271,2.587,23.271,5.076,23.271,5.796z"/>
</svg>
