<?xml version="1.0" encoding="utf-8"?>
<!-- Generator: Adobe Illustrator 15.0.2, SVG Export Plug-In . SVG Version: 6.00 Build 0)  -->
<!DOCTYPE svg PUBLIC "-//W3C//DTD SVG 1.1//EN" "http://www.w3.org/Graphics/SVG/1.1/DTD/svg11.dtd">
<svg version="1.1" id="Layer_1" xmlns="http://www.w3.org/2000/svg" xmlns:xlink="http://www.w3.org/1999/xlink" x="0px" y="0px"
	 width="46px" height="46px" viewBox="0 0 46 46" enable-background="new 0 0 46 46" xml:space="preserve">
<path fill="none" d="M23,0.375C10.525,0.375,0.375,10.523,0.375,23c0,12.477,10.15,22.625,22.625,22.625
	c12.477,0,22.625-10.148,22.625-22.625C45.625,10.523,35.477,0.375,23,0.375L23,0.375z"/>
<path fill="#FFFFFF" d="M33.234,14.836H20.953c0-1.129-0.917-2.046-2.048-2.046h-2.046c-1.127,0-2.043,0.917-2.046,2.046h-2.044
	c-1.132,0-2.048,0.915-2.048,2.047l0.002,12.278c0,1.133,0.917,2.047,2.046,2.047h20.466c1.129,0,2.045-0.912,2.045-2.047V16.883
	C35.279,15.751,34.365,14.836,33.234,14.836z M28.381,24.384c-0.311,1.297-0.957,2.346-1.943,3.151
	c-0.986,0.807-2.141,1.208-3.465,1.208c-0.707,0-1.39-0.134-2.049-0.399c-0.66-0.267-1.249-0.646-1.767-1.139l-0.936,0.935
	c-0.093,0.093-0.2,0.139-0.326,0.139c-0.126,0-0.234-0.046-0.326-0.139c-0.092-0.089-0.139-0.198-0.139-0.325v-3.249
	c0-0.127,0.047-0.234,0.139-0.326s0.199-0.139,0.326-0.139h3.249c0.126,0,0.235,0.047,0.328,0.139
	c0.091,0.092,0.136,0.199,0.136,0.326c0,0.126-0.045,0.234-0.136,0.326l-0.995,0.993c0.344,0.32,0.732,0.566,1.167,0.74
	c0.437,0.174,0.888,0.262,1.355,0.262c0.649,0,1.252-0.157,1.813-0.473c0.561-0.313,1.01-0.745,1.35-1.298
	c0.053-0.081,0.182-0.364,0.385-0.848c0.039-0.111,0.111-0.168,0.217-0.168h1.393c0.062,0,0.117,0.023,0.164,0.069
	c0.045,0.046,0.068,0.101,0.068,0.164C28.389,24.358,28.387,24.374,28.381,24.384z M28.57,21.78c0,0.126-0.047,0.235-0.139,0.326
	c-0.092,0.092-0.199,0.139-0.326,0.139h-3.248c-0.127,0-0.236-0.047-0.328-0.139c-0.092-0.091-0.137-0.2-0.137-0.326
	c0-0.125,0.045-0.234,0.137-0.326l1-1.001c-0.715-0.663-1.559-0.994-2.53-0.994c-0.647,0-1.251,0.157-1.812,0.471
	s-1.011,0.747-1.35,1.298c-0.053,0.083-0.181,0.366-0.384,0.849c-0.039,0.111-0.111,0.167-0.217,0.167h-1.443
	c-0.064,0-0.118-0.023-0.163-0.07c-0.046-0.046-0.069-0.1-0.069-0.163v-0.052c0.314-1.295,0.966-2.345,1.957-3.15
	c0.991-0.804,2.151-1.208,3.48-1.208c0.706,0,1.393,0.134,2.059,0.403c0.668,0.268,1.262,0.646,1.777,1.134l0.943-0.936
	c0.092-0.092,0.201-0.138,0.326-0.138c0.127,0,0.234,0.046,0.326,0.138c0.092,0.093,0.139,0.202,0.139,0.328V21.78z"/>
</svg>
