<?xml version="1.0" encoding="utf-8"?>
<!-- Generator: Adobe Illustrator 15.0.2, SVG Export Plug-In . SVG Version: 6.00 Build 0)  -->
<!DOCTYPE svg PUBLIC "-//W3C//DTD SVG 1.1//EN" "http://www.w3.org/Graphics/SVG/1.1/DTD/svg11.dtd">
<svg version="1.1" id="Layer_1" xmlns="http://www.w3.org/2000/svg" xmlns:xlink="http://www.w3.org/1999/xlink" x="0px" y="0px"
	 width="46px" height="46px" viewBox="-7 -7 46 46" enable-background="new -7 -7 46 46" xml:space="preserve">
<path fill="none" d="M16-6.625C3.525-6.625-6.625,3.523-6.625,16c0,12.476,10.15,22.625,22.625,22.625
	c12.476,0,22.625-10.149,22.625-22.625C38.625,3.523,28.476-6.625,16-6.625L16-6.625z"/>
<path fill="#FFFFFF" d="M22.957,4.124C21.034,2.202,18.717,1.241,16,1.241c-2.716,0-5.034,0.961-6.956,2.883
	c-1.921,1.922-2.882,4.24-2.882,6.956c0,1.397,0.211,2.543,0.634,3.44l7.014,14.875c0.192,0.422,0.491,0.756,0.894,0.998
	c0.404,0.243,0.836,0.366,1.297,0.366c0.461,0,0.893-0.123,1.297-0.366c0.403-0.242,0.708-0.576,0.914-0.998l6.993-14.875
	c0.422-0.897,0.634-2.043,0.634-3.44C25.841,8.364,24.879,6.046,22.957,4.124z M19.478,14.559C18.518,15.519,17.359,16,16,16
	c-1.357,0-2.517-0.481-3.478-1.441c-0.961-0.961-1.442-2.121-1.442-3.479s0.481-2.517,1.442-3.478
	c0.96-0.961,2.121-1.441,3.478-1.441c1.36,0,2.518,0.48,3.478,1.441c0.961,0.961,1.442,2.12,1.442,3.478
	S20.438,13.597,19.478,14.559z"/>
</svg>
