<?xml version="1.0" encoding="utf-8"?>
<!-- Generator: Adobe Illustrator 15.0.2, SVG Export Plug-In . SVG Version: 6.00 Build 0)  -->
<!DOCTYPE svg PUBLIC "-//W3C//DTD SVG 1.1//EN" "http://www.w3.org/Graphics/SVG/1.1/DTD/svg11.dtd">
<svg version="1.1" id="Layer_1" xmlns="http://www.w3.org/2000/svg" xmlns:xlink="http://www.w3.org/1999/xlink" x="0px" y="0px"
	 width="34px" height="32px" viewBox="0 0 34 32" enable-background="new 0 0 34 32" xml:space="preserve">
<g>
	<g>
		<path fill="#F52029" d="M33.669,30.691c0,0.693-0.562,1.256-1.256,1.256H1.586c-0.693,0-1.255-0.562-1.255-1.256V1.256
			C0.331,0.562,0.893,0,1.586,0h30.827c0.694,0,1.256,0.562,1.256,1.256V30.691z"/>
		<path fill="#E01D25" d="M33.669,30.691c0,0.693-0.562,1.256-1.256,1.256H17.006V0h15.407c0.694,0,1.256,0.562,1.256,1.256V30.691z
			"/>
	</g>
	<g>
		<circle fill="#FFFFFF" cx="16.689" cy="15.669" r="9.505"/>
		<path fill="#BF1721" d="M16.826,26.536c-6.108,0-11.061-4.951-11.061-11.062c0-6.108,4.952-11.061,11.061-11.061
			s11.062,4.952,11.062,11.061C27.888,21.585,22.935,26.536,16.826,26.536z M16.826,7.18c-4.581,0-8.296,3.714-8.296,8.295
			c0,4.583,3.715,8.297,8.296,8.297s8.296-3.714,8.296-8.297C25.122,10.894,21.407,7.18,16.826,7.18z M20.892,20.463l-0.243,0.141
			l-0.702,0.428l-0.414,0.302c-0.308,0.146-0.629,0.263-0.962,0.36v-0.406l-0.117-0.939c0,0-0.059-0.54-0.146-0.683
			c-0.088-0.144-0.292-0.343-0.497-0.428c-0.204-0.085-0.352-0.085-0.468-0.228c-0.118-0.142-0.205-0.398-0.353-0.626
			c-0.146-0.228-0.322-0.455-0.322-0.569s0-1.282,0-1.282l0.146-1.082l0.323-0.228l0.38-0.427l0.264-0.086l0.907,0.171h0.645
			l0.263,0.541l0.615,0.484l0.381,0.598l0.498,0.172h0.556l0.381,0.454l0.234,0.484l0.088,0.342v0.57l-0.061,0.336
			C21.914,19.471,21.443,20.006,20.892,20.463z M18.629,10.639l-0.644,0.342l-0.234,0.654l-0.382,0.342h-1.258l-0.585,0.229
			l-0.03,0.455l-0.233,0.37l-0.059,0.398l0.117,0.342l0.146,0.342c0,0,0.351,0.398,0,0.684c0,0-0.439,0-0.527-0.143
			c-0.089-0.143-0.732-0.541-0.849-0.655c-0.117-0.113-0.498-0.228-0.498-0.228l-0.469-0.17l-0.439-0.029l0.029-0.598l-0.029-0.513
			l-0.176-0.37l-0.497-0.37l-0.029-0.398l0.061-0.221c1.186-1.147,2.818-1.858,4.623-1.858c1.019,0,1.971,0.245,2.83,0.648
			l-0.02,0.149L18.629,10.639z"/>
	</g>
</g>
</svg>
