<?xml version="1.0" encoding="utf-8"?>
<!-- Generator: Adobe Illustrator 15.0.2, SVG Export Plug-In . SVG Version: 6.00 Build 0)  -->
<!DOCTYPE svg PUBLIC "-//W3C//DTD SVG 1.1//EN" "http://www.w3.org/Graphics/SVG/1.1/DTD/svg11.dtd">
<svg version="1.1" id="Layer_1" xmlns="http://www.w3.org/2000/svg" xmlns:xlink="http://www.w3.org/1999/xlink" x="0px" y="0px"
	 width="128px" height="128px" viewBox="0 0 128 128" enable-background="new 0 0 128 128" xml:space="preserve">
<path fill="#999999" d="M64,0.001c35.348,0,64,28.653,64,63.999c0,35.348-28.652,64-64,64C28.654,128,0,99.348,0,64
	C0,28.654,28.654,0.001,64,0.001z"/>
<path fill="#F0F0F0" d="M55,103c0,1.657,4.478,3,10,3c5.521,0,10-1.343,10-3s-4.479-3-10-3C59.478,100,55,101.343,55,103z
	 M82.747,83.094c-0.501-0.871-1.604-1.174-2.468-0.675c-14.153,8.202-32.378,3.213-40.625-11.122
	c-8.245-14.336-3.438-32.673,10.717-40.876c0.86-0.499,1.152-1.61,0.65-2.482c-0.501-0.872-1.606-1.174-2.467-0.675
	c-15.874,9.199-21.266,29.763-12.019,45.839c5.853,10.176,16.188,16.146,27.012,16.83L62,100h6l-1.539-10.007
	c5.338-0.134,10.706-1.562,15.637-4.417C82.958,85.077,83.249,83.966,82.747,83.094z"/>
<path fill="#F0F0F0" d="M66,29c14.912,0,27,12.089,27,27c0,14.912-12.088,27-27,27S39,70.912,39,56C39,41.089,51.088,29,66,29z"/>
<g>
	<defs>
		<circle id="SVGID_4_" cx="66" cy="56" r="27"/>
	</defs>
	<clipPath id="SVGID_5_">
		<use xlink:href="#SVGID_4_"  overflow="visible"/>
	</clipPath>
	<path clip-path="url(#SVGID_5_)" fill="#FFA600" d="M69.473,53.405c-3.664-1.104-0.295-1.4-4.238-3.065
		c-3.958-1.664-3.695-3.353-4.808-2.783c-1.122,0.573-3.372,1.143-3.372,1.143l-2.834-2.507c0,0-5.641-2.492-3.688-5.036
		c1.939-2.545,3.629-3.962,4.765-1.998c1.145,1.962,1.423,1.958,2.25-0.578c0.823-2.539,4.183-6.214,5.585-6.223
		c1.41-0.009,2.516-2.271,2.516-2.271s5.068-0.028,1.966-1.972c-10.406-0.772-25.442,6.01-22.439,11.961
		c0.859,1.121,1.438,3.363,3.418,4.757c1.975,1.382,3.394,2.499,4.799,3.053c1.415,0.561,4.512,1.663,3.671,2.226
		c-0.841,0.569-1.393,1.417-0.522,4.502c0.859,3.091,0.868,3.365,2.282,5.044c1.418,1.687,2.551,2.241,2.559,4.204
		c0.018,1.971-0.8,5.916-0.233,7.596c0.573,1.678,1.157,5.045,2.293,5.323c1.13,0.271,3.672,2.232,2.813,0.539
		c-0.854-1.678-2.571-4.766-1.169-6.176c1.403-1.42,3.364-1.994,4.197-4.805c0.822-2.819,2.505-3.388,2.505-3.388l1.104-3.387
		l1.111-2.252C74.003,57.313,73.132,54.5,69.473,53.405L69.473,53.405z M83.029,35.078c-0.411-1.349-2.895-1.761-2.895-1.761
		s-3.641,3.337-4.414,5.755c-0.332-1.071-2.627,1.979-0.736,4.345c1.904,2.368,7.715,10.99,8.192,10.448
		c1.104-1.217,3.566,0.082,5.173-0.405c1.614-0.495,6.375-2.246,7.207-3.375C100.232,43.631,81.807,31.058,83.029,35.078z"/>
</g>
<path fill="#D6D6D6" d="M66,29c-0.668,0-1.327,0.034-1.982,0.083C77.986,30.116,89,41.768,89,56
	c0,14.232-11.016,25.885-24.984,26.917C64.671,82.966,65.331,83,66,83c14.912,0,27-12.088,27-27C93,41.089,80.912,29,66,29z"/>
<path fill="#E58D00" d="M83.023,35.048l0.006,0.03l-0.016-0.039c-0.66-0.536-1.344-1.042-2.053-1.514
	c-0.467-0.148-0.826-0.208-0.826-0.208s-0.648,0.597-1.455,1.464c5.614,4.417,9.438,11.009,10.184,18.512
	c0.975-0.323,2.467-0.873,3.812-1.473C91.63,45.08,88.087,39.167,83.023,35.048L83.023,35.048z"/>
</svg>
