<?xml version="1.0" encoding="utf-8"?>
<!-- Generator: Adobe Illustrator 15.0.2, SVG Export Plug-In . SVG Version: 6.00 Build 0)  -->
<!DOCTYPE svg PUBLIC "-//W3C//DTD SVG 1.1//EN" "http://www.w3.org/Graphics/SVG/1.1/DTD/svg11.dtd">
<svg version="1.1" id="Layer_1" xmlns="http://www.w3.org/2000/svg" xmlns:xlink="http://www.w3.org/1999/xlink" x="0px" y="0px"
	 width="148px" height="46px" viewBox="-36.5 0 148 46" enable-background="new -36.5 0 148 46" xml:space="preserve">
<rect x="-36.833" fill="#FFFFFF" width="148.333" height="46"/>
<g id="hover" display="none">
	<g display="inline">
		<path fill="#FF1A15" d="M12.463,13.307L9.49,10.333c-6.564,6.566-6.564,17.208,0.001,23.771l2.973-2.973
			C7.538,26.212,7.537,18.229,12.463,13.307z"/>
		<path fill="#FF1A15" d="M16.917,17.762l-2.97-2.971c-4.103,4.103-4.104,10.752,0.001,14.855l2.971-2.973
			C14.457,24.214,14.456,20.223,16.917,17.762z"/>
	</g>
</g>
<g id="on_air" display="none">
	<g display="inline">
		<path fill="#FFFFFF" d="M35.498,36.947c-0.347,0-0.698-0.014-1.048-0.036c-3.309-0.229-6.477-1.599-8.923-3.841
			c-5.983-5.49-6.387-14.824-0.899-20.807c3.019-3.291,7.397-5.053,11.89-4.738c3.312,0.23,6.479,1.596,8.926,3.844
			c2.896,2.654,4.59,6.284,4.758,10.215c0.172,3.932-1.203,7.695-3.869,10.596C43.555,35.208,39.605,36.947,35.498,36.947z"/>
		<path opacity="0.75" fill="#D9D9D9" enable-background="new    " d="M51.031,22.212c0,8.577-6.955,15.529-15.532,15.529
			s-15.53-6.952-15.53-15.529H51.031z"/>
		<path fill="#FF1A15" stroke="#CC1511" stroke-width="1.6205" stroke-miterlimit="10" d="M42.035,15.077
			c3.951,3.617,4.217,9.75,0.592,13.696c-3.613,3.938-9.748,4.207-13.694,0.586c-3.942-3.619-4.208-9.75-0.591-13.693
			C31.964,11.718,38.096,11.456,42.035,15.077z"/>
		<circle fill="#FFFFFF" cx="30.279" cy="16.004" r="3.664"/>
		<circle fill="#CC1511" cx="40.436" cy="28.988" r="1.992"/>
		<path fill="#A8A8A8" d="M35.498,37.758c-0.365,0-0.734-0.014-1.102-0.037c-3.488-0.244-6.832-1.683-9.417-4.053
			c-6.312-5.793-6.738-15.641-0.948-21.952c3.181-3.466,7.806-5.33,12.543-4.999c3.49,0.243,6.836,1.683,9.417,4.055
			c3.059,2.803,4.841,6.631,5.018,10.777c0.183,4.146-1.269,8.117-4.082,11.178C43.998,35.924,39.832,37.758,35.498,37.758z
			 M35.489,8.3c-3.893,0-7.634,1.645-10.264,4.512c-5.185,5.652-4.805,14.473,0.85,19.661c2.315,2.123,5.31,3.412,8.432,3.629
			c4.22,0.289,8.38-1.361,11.226-4.471c2.521-2.742,3.819-6.299,3.658-10.013c-0.158-3.714-1.756-7.142-4.494-9.653
			c-2.312-2.125-5.309-3.415-8.436-3.633C36.136,8.311,35.812,8.3,35.489,8.3z"/>
	</g>
	<g display="inline">
		<path fill="#353535" d="M55.762,21.021c0-3.229,2.18-5.986,5.451-6.5c0.761-0.103,1.46-0.082,2.18,0
			c3.167,0.494,5.615,3.126,5.615,6.5c0,4.278-3.085,6.995-6.582,6.995C58.724,28.016,55.762,25.381,55.762,21.021z M57.304,21.083
			c0,3.374,2.222,5.513,5.122,5.513c2.777,0,5.06-2.058,5.06-5.513c0-2.653-1.749-4.772-4.278-5.183
			c-0.617-0.083-1.214-0.083-1.79,0C58.929,16.29,57.304,18.285,57.304,21.083z"/>
		<path fill="#353535" d="M81.166,15.2c0-0.864,1.562-0.905,1.562,0v11.807c0,1.028-1.42,1.132-1.853,0.411l-7.69-10.305
			l0.164,2.838v7.261c0,1.009-1.564,1.028-1.564,0V15.426c0-1.028,1.152-1.193,1.666-0.432l7.92,10.593l-0.205-3.105V15.2
			L81.166,15.2z"/>
		<path fill="#353535" d="M93.221,24.332l-1.666,3.25c-0.371,0.762-1.729,0.227-1.356-0.598l6.211-12.237
			c0.123-0.268,0.411-0.391,0.68-0.391s0.515,0.124,0.658,0.391l6.19,12.176c0.533,0.886-0.987,1.399-1.379,0.597l-1.604-3.188
			H93.221z M97.088,16.558l-3.25,6.479h6.479L97.088,16.558z"/>
		<path fill="#353535" d="M105.912,14.974c0-1.028,1.543-1.008,1.543,0v12.299c0,0.947-1.543,0.987-1.543,0V14.974z"/>
		<path fill="#353535" d="M112.084,23.201v3.99c0,0.945-1.502,0.945-1.502,0.021V15.406c0-0.432,0.309-0.72,0.762-0.72h4.875
			c3.559,0,5.367,2.016,5.367,4.422c0,2.078-1.131,3.579-3.66,4.011l3.332,3.6c0.781,0.781-0.35,1.688-1.029,0.987l-4.153-4.505
			H112.084z M112.084,21.905h4.154c2.695,0,3.867-1.254,3.826-2.797c-0.021-1.687-1.439-3.044-3.826-3.044h-4.154V21.905z"/>
	</g>
	<g display="inline">
		<path fill="#FF1A15" d="M12.463,13.307L9.49,10.333c-6.564,6.566-6.564,17.208,0.001,23.771l2.973-2.973
			C7.538,26.212,7.537,18.229,12.463,13.307z"/>
		<path fill="#FF1A15" d="M16.917,17.762l-2.97-2.971c-4.103,4.103-4.104,10.752,0.001,14.855l2.971-2.973
			C14.457,24.214,14.456,20.223,16.917,17.762z"/>
	</g>
</g>
<g>
	
		<polygon fill="#FBB034" stroke="#FBB034" stroke-width="0.7999" stroke-linecap="round" stroke-linejoin="round" stroke-miterlimit="10" points="
		92.058,21.998 79.362,29.329 66.668,36.659 66.668,21.998 66.668,7.339 79.362,14.669 	"/>
	
		<polygon opacity="0.5" fill="#FD772E" stroke="#FD772E" stroke-width="0.7999" stroke-linecap="round" stroke-linejoin="round" stroke-miterlimit="10" points="
		92.058,21.998 79.362,29.329 66.668,36.659 66.668,21.998 	"/>
	<g>
		<polygon fill="#AC6E30" points="84.711,21.998 77.322,26.266 69.936,30.531 69.936,21.998 69.936,13.467 77.322,17.733 		"/>
	</g>
	<path fill="#552D16" d="M77.322,17.733c0,0-4.904,3.627,0,8.533l7.389-4.268L77.322,17.733z"/>
</g>
<g>
	<path fill="#967E68" d="M1.405,21.998c0,5.44-3.139,8.471-8.335,8.471c-5.224,0-8.363-3.031-8.363-8.471
		c0-5.467,3.14-8.552,8.363-8.552C-1.734,13.445,1.405,16.53,1.405,21.998z M-3.061,21.998c0-3.058-1.435-4.601-3.87-4.601
		c-2.463,0-3.897,1.543-3.897,4.601c0,2.977,1.434,4.52,3.897,4.52C-4.495,26.518-3.061,24.975-3.061,21.998z"/>
	<path fill="#967E68" d="M-16.771,28.494c-2.95,1.461-5.305,2.059-8.012,2.059c-4.953,0-8.092-3.033-8.092-8.472
		c0-5.116,3.275-8.553,8.228-8.553c2.057,0,4.818,0.46,7.146,1.488l-1.11,3.275c-2.084-0.568-3.708-0.92-5.629-0.92
		c-2.517,0-4.168,1.894-4.168,4.709c0,2.976,1.435,4.574,3.816,4.574c1.326,0,2.544-0.08,4.006-0.623v-1.65h-4.222v-3.465h8.039
		V28.494z"/>
</g>
<g>
	<path fill="#967E68" d="M45.578,30.254v-16.51h12.179v4.006H49.99v2.489h6.63v3.79h-6.63v2.301h7.983v3.924H45.578z"/>
	<path fill="#967E68" d="M21.365,30.254v-16.51h4.412v16.51H21.365z"/>
	<path fill="#967E68" d="M8.273,30.254v-16.51h4.412v12.504h7.361v4.006H8.273z"/>
	<path fill="#967E68" d="M33.348,30.254l-6.306-16.51h4.899l3.356,10.366c0.189,0.569,0.351,1.137,0.514,1.706
		c0.135-0.569,0.297-1.137,0.487-1.706l3.573-10.366h4.682l-6.306,16.51H33.348z"/>
</g>
<g id="hover_1_">
	<g>
		<path fill="#EF4135" d="M100.122,30.468l2.865,2.749c6.065-6.329,5.854-16.372-0.474-22.436l-2.748,2.864
			C104.514,18.191,104.674,25.724,100.122,30.468z"/>
		<path fill="#EF4135" d="M95.829,26.352l2.862,2.746c3.791-3.954,3.659-10.23-0.297-14.021l-2.745,2.865
			C98.023,20.214,98.103,23.98,95.829,26.352z"/>
	</g>
</g>
</svg>
