<?xml version="1.0" encoding="utf-8"?>
<!-- Generator: Adobe Illustrator 15.0.2, SVG Export Plug-In . SVG Version: 6.00 Build 0)  -->
<!DOCTYPE svg PUBLIC "-//W3C//DTD SVG 1.1//EN" "http://www.w3.org/Graphics/SVG/1.1/DTD/svg11.dtd">
<svg version="1.1" id="Layer_1" xmlns="http://www.w3.org/2000/svg" xmlns:xlink="http://www.w3.org/1999/xlink" x="0px" y="0px"
	 width="32px" height="32px" viewBox="0 0 32 32" enable-background="new 0 0 32 32" xml:space="preserve">
<g>
	<path fill="#FFFFFF" stroke="#D9D9D9" stroke-width="1.6205" stroke-miterlimit="10" d="M15.998,30.332
		c-0.347,0-0.698-0.013-1.048-0.036c-3.309-0.231-6.477-1.598-8.923-3.841C0.044,20.965-0.36,11.631,5.128,5.648
		c3.019-3.291,7.397-5.052,11.889-4.738c3.311,0.231,6.48,1.596,8.926,3.844c2.896,2.654,4.588,6.284,4.756,10.215
		c0.172,3.93-1.203,7.694-3.869,10.594C24.055,28.593,20.105,30.332,15.998,30.332z"/>
	<path opacity="0.75" fill="#D9D9D9" d="M31.531,15.597c0,8.577-6.955,15.529-15.532,15.529c-8.577,0-15.53-6.952-15.53-15.529
		H31.531z"/>
	<path fill="#FF1A15" stroke="#CC1511" stroke-width="1.6205" stroke-miterlimit="10" d="M22.535,8.462
		c3.951,3.617,4.217,9.75,0.592,13.696c-3.613,3.941-9.748,4.206-13.694,0.586c-3.942-3.619-4.208-9.749-0.591-13.693
		C12.464,5.103,18.596,4.841,22.535,8.462z"/>
	<circle fill="#FFFFFF" cx="10.779" cy="9.389" r="3.664"/>
	<circle fill="#CC1511" cx="20.936" cy="22.373" r="1.992"/>
</g>
</svg>
