<?xml version="1.0" encoding="utf-8"?>
<!-- Generator: Adobe Illustrator 15.0.2, SVG Export Plug-In . SVG Version: 6.00 Build 0)  -->
<!DOCTYPE svg PUBLIC "-//W3C//DTD SVG 1.1//EN" "http://www.w3.org/Graphics/SVG/1.1/DTD/svg11.dtd">
<svg version="1.1" id="Layer_1" xmlns="http://www.w3.org/2000/svg" xmlns:xlink="http://www.w3.org/1999/xlink" x="0px" y="0px"
	 width="24px" height="24px" viewBox="0 0 24 24" enable-background="new 0 0 24 24" xml:space="preserve">
<path fill="#F92D30" d="M12.003,0.62c-6.288,0-11.382,5.095-11.382,11.382c0,6.283,5.094,11.378,11.382,11.378
	c6.282,0,11.376-5.095,11.376-11.378C23.379,5.715,18.285,0.62,12.003,0.62z M11.986,3.699c1.588,0,3.066,0.461,4.326,1.247
	L4.872,16.16c-0.718-1.229-1.137-2.651-1.137-4.175C3.735,7.418,7.437,3.699,11.986,3.699z M11.986,20.266
	c-1.771,0-3.41-0.568-4.756-1.525l11.6-11.37c0.883,1.32,1.401,2.908,1.401,4.615C20.231,16.551,16.53,20.266,11.986,20.266z"/>
</svg>
