<?xml version="1.0" encoding="utf-8"?>
<!-- Generator: Adobe Illustrator 15.0.2, SVG Export Plug-In . SVG Version: 6.00 Build 0)  -->
<!DOCTYPE svg PUBLIC "-//W3C//DTD SVG 1.1//EN" "http://www.w3.org/Graphics/SVG/1.1/DTD/svg11.dtd">
<svg version="1.1" id="Layer_1" xmlns="http://www.w3.org/2000/svg" xmlns:xlink="http://www.w3.org/1999/xlink" x="0px" y="0px"
	 width="108px" height="24px" viewBox="13.333 4.833 108 24" enable-background="new 13.333 4.833 108 24" xml:space="preserve">
<rect x="13.333" y="4.833" fill="#FFFFFF" width="108.001" height="24"/>
<g id="hover" display="none">
	<g display="inline">
		<path fill="#FF1A15" d="M12.463,13.307L9.49,10.333c-6.564,6.566-6.564,17.208,0.001,23.771l2.973-2.974
			C7.538,26.212,7.537,18.229,12.463,13.307z"/>
		<path fill="#FF1A15" d="M16.917,17.762l-2.97-2.971c-4.103,4.103-4.104,10.751,0.001,14.855l2.971-2.973
			C14.457,24.214,14.456,20.223,16.917,17.762z"/>
	</g>
</g>
<g id="on_air" display="none">
	<g display="inline">
		<path fill="#FFFFFF" d="M35.498,36.947c-0.347,0-0.698-0.014-1.048-0.035c-3.309-0.229-6.477-1.6-8.923-3.842
			c-5.983-5.49-6.387-14.824-0.899-20.807c3.019-3.291,7.397-5.053,11.89-4.738c3.312,0.23,6.479,1.596,8.926,3.844
			c2.896,2.654,4.59,6.284,4.758,10.214c0.172,3.933-1.203,7.695-3.869,10.597C43.555,35.208,39.605,36.947,35.498,36.947z"/>
		<path opacity="0.75" fill="#D9D9D9" enable-background="new    " d="M51.031,22.212c0,8.576-6.955,15.529-15.532,15.529
			s-15.53-6.953-15.53-15.529H51.031z"/>
		<path fill="#FF1A15" stroke="#CC1511" stroke-width="1.6205" stroke-miterlimit="10" d="M42.035,15.077
			c3.951,3.617,4.217,9.75,0.592,13.696c-3.613,3.938-9.748,4.207-13.694,0.586c-3.942-3.619-4.208-9.75-0.591-13.693
			C31.964,11.718,38.096,11.456,42.035,15.077z"/>
		<circle fill="#FFFFFF" cx="30.279" cy="16.004" r="3.664"/>
		<circle fill="#CC1511" cx="40.436" cy="28.988" r="1.992"/>
		<path fill="#A8A8A8" d="M35.498,37.757c-0.365,0-0.734-0.014-1.102-0.036c-3.488-0.244-6.832-1.683-9.417-4.054
			c-6.312-5.793-6.738-15.641-0.948-21.952c3.181-3.466,7.806-5.33,12.543-4.999c3.49,0.243,6.836,1.683,9.417,4.055
			c3.059,2.803,4.841,6.631,5.018,10.776c0.183,4.146-1.269,8.117-4.082,11.179C43.998,35.923,39.832,37.757,35.498,37.757z
			 M35.489,8.3c-3.893,0-7.634,1.645-10.264,4.512c-5.185,5.652-4.805,14.473,0.85,19.661c2.315,2.123,5.31,3.411,8.432,3.629
			c4.22,0.289,8.38-1.36,11.226-4.472c2.521-2.741,3.819-6.299,3.658-10.012c-0.158-3.715-1.756-7.143-4.494-9.654
			c-2.312-2.125-5.309-3.415-8.436-3.633C36.136,8.311,35.812,8.3,35.489,8.3z"/>
	</g>
	<g display="inline">
		<path fill="#353535" d="M55.762,21.021c0-3.229,2.18-5.986,5.451-6.5c0.761-0.103,1.46-0.082,2.18,0
			c3.167,0.494,5.614,3.126,5.614,6.5c0,4.277-3.084,6.995-6.582,6.995C58.724,28.016,55.762,25.38,55.762,21.021z M57.304,21.083
			c0,3.373,2.222,5.513,5.122,5.513c2.777,0,5.06-2.058,5.06-5.513c0-2.653-1.749-4.772-4.278-5.184
			c-0.617-0.083-1.214-0.083-1.79,0C58.929,16.29,57.304,18.285,57.304,21.083z"/>
		<path fill="#353535" d="M81.166,15.2c0-0.864,1.562-0.905,1.562,0v11.807c0,1.027-1.42,1.132-1.854,0.41l-7.689-10.305
			l0.164,2.838v7.262c0,1.009-1.564,1.027-1.564,0V15.426c0-1.028,1.152-1.193,1.666-0.432l7.92,10.593l-0.205-3.105V15.2
			L81.166,15.2z"/>
		<path fill="#353535" d="M93.221,24.332l-1.666,3.25c-0.371,0.762-1.729,0.228-1.356-0.598l6.211-12.237
			c0.123-0.268,0.411-0.391,0.68-0.391c0.27,0,0.516,0.124,0.658,0.391l6.19,12.176c0.533,0.886-0.987,1.398-1.379,0.597
			l-1.604-3.188H93.221z M97.087,16.558l-3.25,6.479h6.479L97.087,16.558z"/>
		<path fill="#353535" d="M105.912,14.974c0-1.028,1.543-1.008,1.543,0v12.299c0,0.947-1.543,0.986-1.543,0V14.974z"/>
		<path fill="#353535" d="M112.083,23.201v3.99c0,0.945-1.502,0.945-1.502,0.021V15.406c0-0.432,0.31-0.72,0.762-0.72h4.875
			c3.56,0,5.367,2.016,5.367,4.422c0,2.078-1.131,3.579-3.66,4.011l3.332,3.6c0.781,0.781-0.35,1.689-1.028,0.988l-4.153-4.506
			H112.083z M112.083,21.905h4.154c2.695,0,3.867-1.254,3.826-2.797c-0.021-1.687-1.439-3.044-3.826-3.044h-4.154V21.905z"/>
	</g>
	<g display="inline">
		<path fill="#FF1A15" d="M12.463,13.307L9.49,10.333c-6.564,6.566-6.564,17.208,0.001,23.771l2.973-2.974
			C7.538,26.212,7.537,18.229,12.463,13.307z"/>
		<path fill="#FF1A15" d="M16.917,17.762l-2.97-2.971c-4.103,4.103-4.104,10.751,0.001,14.855l2.971-2.973
			C14.457,24.214,14.456,20.223,16.917,17.762z"/>
	</g>
</g>
<g>
	<path fill="#967E68" d="M79.216,17.096c0,3.909-2.255,6.088-5.989,6.088c-3.753,0-6.009-2.179-6.009-6.088
		c0-3.928,2.256-6.146,6.009-6.146C76.961,10.95,79.216,13.167,79.216,17.096z M76.007,17.096c0-2.198-1.03-3.307-2.781-3.307
		c-1.77,0-2.801,1.109-2.801,3.307c0,2.14,1.031,3.249,2.801,3.249C74.977,20.344,76.007,19.236,76.007,17.096z"/>
	<path fill="#967E68" d="M66.155,21.764c-2.12,1.05-3.812,1.48-5.757,1.48c-3.559,0-5.815-2.181-5.815-6.09
		c0-3.676,2.354-6.146,5.913-6.146c1.479,0,3.462,0.331,5.135,1.069l-0.798,2.354c-1.497-0.409-2.664-0.661-4.045-0.661
		c-1.809,0-2.995,1.361-2.995,3.384c0,2.139,1.031,3.286,2.743,3.286c0.952,0,1.828-0.057,2.878-0.446v-1.187H60.38v-2.49h5.777
		v5.446H66.155z"/>
</g>
<g>
	<path fill="#967E68" d="M110.958,23.029V11.165h8.753v2.878h-5.582v1.79h4.765v2.722h-4.765v1.654h5.737v2.819H110.958z"/>
	<path fill="#967E68" d="M93.56,23.029V11.165h3.17v11.864H93.56z"/>
	<path fill="#967E68" d="M84.153,23.029V11.165h3.17v8.985h5.289v2.879H84.153z"/>
	<path fill="#967E68" d="M102.171,23.029l-4.532-11.864h3.521l2.411,7.449c0.136,0.409,0.253,0.817,0.37,1.226
		c0.098-0.408,0.214-0.816,0.35-1.226l2.567-7.449h3.364l-4.53,11.864H102.171z"/>
</g>
<circle fill="#F92D30" cx="38.445" cy="17.097" r="10.81"/>
<circle fill="#660F0E" cx="38.445" cy="17.097" r="5.254"/>
<circle fill="#FFFFFF" cx="44.713" cy="17.096" r="2.373"/>
</svg>
