<?xml version="1.0" encoding="utf-8"?>
<!-- Generator: Adobe Illustrator 15.0.2, SVG Export Plug-In . SVG Version: 6.00 Build 0)  -->
<!DOCTYPE svg PUBLIC "-//W3C//DTD SVG 1.1//EN" "http://www.w3.org/Graphics/SVG/1.1/DTD/svg11.dtd">
<svg version="1.1" id="Layer_1" xmlns="http://www.w3.org/2000/svg" xmlns:xlink="http://www.w3.org/1999/xlink" x="0px" y="0px"
	 width="76px" height="24px" viewBox="0 0 76 24" enable-background="new 0 0 76 24" xml:space="preserve">
<g id="hover" display="none">
	<g display="inline">
		<path fill="#FF1A15" d="M12.463,13.307L9.49,10.333c-6.564,6.565-6.564,17.208,0.001,23.771l2.973-2.974
			C7.538,26.212,7.537,18.229,12.463,13.307z"/>
		<path fill="#FF1A15" d="M16.917,17.762l-2.97-2.971c-4.103,4.104-4.104,10.751,0.001,14.855l2.971-2.975
			C14.457,24.214,14.456,20.223,16.917,17.762z"/>
	</g>
</g>
<g id="on_air" display="none">
	<g display="inline">
		<path fill="#FFFFFF" d="M35.498,36.947c-0.347,0-0.698-0.014-1.048-0.035c-3.309-0.229-6.477-1.6-8.923-3.842
			c-5.983-5.49-6.387-14.824-0.899-20.807c3.019-3.291,7.397-5.053,11.89-4.738c3.312,0.23,6.479,1.596,8.925,3.844
			c2.896,2.654,4.591,6.283,4.759,10.214c0.172,3.933-1.203,7.694-3.869,10.597C43.555,35.208,39.605,36.947,35.498,36.947z"/>
		<path opacity="0.75" fill="#D9D9D9" enable-background="new    " d="M51.031,22.212c0,8.576-6.955,15.529-15.532,15.529
			s-15.53-6.953-15.53-15.529H51.031z"/>
		<path fill="#FF1A15" stroke="#CC1511" stroke-width="1.6205" stroke-miterlimit="10" d="M42.035,15.077
			c3.951,3.616,4.217,9.75,0.592,13.696c-3.613,3.938-9.748,4.207-13.694,0.586c-3.942-3.619-4.208-9.75-0.591-13.693
			C31.964,11.718,38.096,11.456,42.035,15.077z"/>
		<circle fill="#FFFFFF" cx="30.279" cy="16.004" r="3.664"/>
		<circle fill="#CC1511" cx="40.436" cy="28.988" r="1.992"/>
		<path fill="#A8A8A8" d="M35.498,37.757c-0.365,0-0.734-0.014-1.102-0.036c-3.488-0.244-6.832-1.683-9.417-4.054
			c-6.312-5.793-6.738-15.642-0.948-21.952c3.181-3.466,7.806-5.33,12.543-4.999c3.49,0.243,6.836,1.683,9.417,4.055
			c3.059,2.803,4.841,6.631,5.018,10.776c0.183,4.146-1.269,8.117-4.082,11.18C43.998,35.923,39.832,37.757,35.498,37.757z
			 M35.489,8.3c-3.893,0-7.634,1.645-10.264,4.513c-5.185,5.651-4.805,14.474,0.85,19.66c2.315,2.123,5.31,3.411,8.432,3.629
			c4.22,0.289,8.38-1.358,11.226-4.472c2.521-2.741,3.819-6.299,3.658-10.012c-0.158-3.716-1.756-7.144-4.494-9.654
			c-2.312-2.125-5.309-3.415-8.436-3.633C36.136,8.311,35.812,8.3,35.489,8.3z"/>
	</g>
	<g display="inline">
		<path fill="#353535" d="M55.762,21.021c0-3.229,2.18-5.986,5.451-6.5c0.762-0.104,1.46-0.082,2.18,0
			c3.168,0.494,5.614,3.125,5.614,6.5c0,4.275-3.084,6.994-6.582,6.994C58.725,28.016,55.762,25.38,55.762,21.021z M57.305,21.083
			c0,3.373,2.221,5.513,5.121,5.513c2.777,0,5.061-2.058,5.061-5.513c0-2.653-1.75-4.772-4.277-5.185
			c-0.617-0.082-1.214-0.082-1.79,0C58.93,16.29,57.305,18.285,57.305,21.083z"/>
		<path fill="#353535" d="M81.166,15.2c0-0.864,1.562-0.905,1.562,0v11.807c0,1.027-1.42,1.132-1.854,0.41l-7.688-10.306
			l0.164,2.839v7.262c0,1.009-1.563,1.027-1.563,0V15.426c0-1.027,1.151-1.193,1.666-0.432l7.92,10.593l-0.205-3.104L81.166,15.2
			L81.166,15.2z"/>
		<path fill="#353535" d="M93.221,24.332l-1.666,3.25c-0.371,0.762-1.729,0.229-1.354-0.598l6.211-12.237
			c0.123-0.269,0.409-0.392,0.68-0.392s0.517,0.125,0.658,0.392l6.188,12.176c0.533,0.886-0.985,1.397-1.379,0.597l-1.604-3.188
			H93.221z M97.087,16.559l-3.25,6.479h6.479L97.087,16.559z"/>
		<path fill="#353535" d="M105.912,14.975c0-1.029,1.543-1.009,1.543,0v12.299c0,0.946-1.543,0.985-1.543,0V14.975z"/>
		<path fill="#353535" d="M112.083,23.201v3.99c0,0.943-1.502,0.943-1.502,0.021V15.406c0-0.432,0.31-0.721,0.762-0.721h4.875
			c3.56,0,5.367,2.017,5.367,4.422c0,2.078-1.131,3.58-3.66,4.012l3.332,3.6c0.781,0.781-0.35,1.689-1.028,0.988l-4.151-4.506
			H112.083z M112.083,21.905h4.153c2.695,0,3.867-1.255,3.826-2.798c-0.021-1.688-1.438-3.043-3.826-3.043h-4.153V21.905z"/>
	</g>
	<g display="inline">
		<path fill="#FF1A15" d="M12.463,13.307L9.49,10.333c-6.564,6.565-6.564,17.208,0.001,23.771l2.973-2.974
			C7.538,26.212,7.537,18.229,12.463,13.307z"/>
		<path fill="#FF1A15" d="M16.917,17.762l-2.97-2.971c-4.103,4.104-4.104,10.751,0.001,14.855l2.971-2.975
			C14.457,24.214,14.456,20.223,16.917,17.762z"/>
	</g>
</g>
<rect x="0.043" fill="none" width="75.957" height="23.962"/>
<g>
	<path fill="#967E68" d="M46.607,9.133v9.002h-3.176V9.133h-3.664V6.249h10.521v2.884H46.607z"/>
	<path fill="#967E68" d="M62.593,12.212c0,3.916-2.26,6.098-6.001,6.098c-3.761,0-6.021-2.182-6.021-6.098
		c0-3.938,2.262-6.158,6.021-6.158C60.334,6.055,62.593,8.274,62.593,12.212z M59.378,12.212c0-2.202-1.032-3.312-2.786-3.312
		c-1.773,0-2.805,1.11-2.805,3.312c0,2.143,1.031,3.251,2.805,3.251C58.346,15.464,59.378,14.356,59.378,12.212z"/>
	<path fill="#967E68" d="M68.176,6.25c3.352,0,5.221,1.655,5.221,4.618c0,2.904-1.83,4.54-5.084,4.54H66.6v2.728h-3.178V6.25H68.176
		z M68.292,12.717c1.304,0,2.024-0.661,2.024-1.85c0-1.208-0.778-1.89-2.162-1.89h-1.559v3.738L68.292,12.717L68.292,12.717z"/>
	<path fill="#967E68" d="M37.79,9.504c-1.833-0.683-2.826-0.897-3.858-0.897c-0.682,0-1.246,0.273-1.246,0.78
		c0,0.546,0.448,0.761,3,1.617c2.418,0.817,3.195,1.713,3.195,3.705c0,2.16-1.578,3.603-4.363,3.603
		c-1.539,0-3.976-0.625-5.613-1.617l1.189-2.476c1.812,0.995,3.098,1.386,4.247,1.386c0.701,0,1.093-0.291,1.093-0.8
		c0-0.507-0.312-0.702-2.613-1.384c-2.299-0.682-3.391-1.968-3.391-3.8c0-2.025,1.463-3.564,4.151-3.564
		c1.521,0,3.04,0.194,5.144,1.13L37.79,9.504z"/>
</g>
<path fill="#F92D30" d="M13.234,1.416c-5.978,0-10.818,4.843-10.818,10.819c0,5.973,4.842,10.814,10.818,10.814
	c5.972,0,10.812-4.843,10.812-10.814C24.048,6.259,19.206,1.416,13.234,1.416z M13.219,4.343c1.51,0,2.916,0.439,4.113,1.185
	L6.457,16.188c-0.684-1.168-1.081-2.521-1.081-3.969C5.376,7.878,8.895,4.343,13.219,4.343z M13.219,20.091
	c-1.684,0-3.24-0.541-4.521-1.449L19.723,7.833c0.842,1.255,1.334,2.764,1.334,4.387C21.057,16.56,17.539,20.091,13.219,20.091z"/>
</svg>
