<?xml version="1.0" encoding="utf-8"?>
<!-- Generator: Adobe Illustrator 15.0.2, SVG Export Plug-In . SVG Version: 6.00 Build 0)  -->
<!DOCTYPE svg PUBLIC "-//W3C//DTD SVG 1.1//EN" "http://www.w3.org/Graphics/SVG/1.1/DTD/svg11.dtd">
<svg version="1.1" id="Layer_1" xmlns="http://www.w3.org/2000/svg" xmlns:xlink="http://www.w3.org/1999/xlink" x="0px" y="0px"
	 width="108px" height="24px" viewBox="0 0 108 24" enable-background="new 0 0 108 24" xml:space="preserve">
<rect x="-0.001" fill="none" width="108.001" height="24"/>
<g id="hover" display="none">
	<g display="inline">
		<path fill="#FF1A15" d="M12.463,13.307L9.49,10.333c-6.564,6.565-6.564,17.208,0.001,23.771l2.973-2.974
			C7.538,26.212,7.537,18.229,12.463,13.307z"/>
		<path fill="#FF1A15" d="M16.917,17.762l-2.97-2.971c-4.103,4.104-4.104,10.751,0.001,14.855l2.971-2.974
			C14.457,24.214,14.456,20.223,16.917,17.762z"/>
	</g>
</g>
<g id="on_air" display="none">
	<g display="inline">
		<path fill="#FFFFFF" d="M35.498,36.947c-0.347,0-0.698-0.014-1.048-0.035c-3.309-0.229-6.477-1.6-8.923-3.842
			c-5.983-5.49-6.387-14.824-0.899-20.807c3.019-3.291,7.397-5.053,11.89-4.738c3.312,0.23,6.479,1.596,8.926,3.844
			c2.896,2.654,4.59,6.283,4.758,10.214c0.172,3.933-1.203,7.694-3.869,10.597C43.555,35.208,39.605,36.947,35.498,36.947z"/>
		<path opacity="0.75" fill="#D9D9D9" enable-background="new    " d="M51.031,22.212c0,8.576-6.955,15.529-15.532,15.529
			s-15.53-6.953-15.53-15.529H51.031z"/>
		<path fill="#FF1A15" stroke="#CC1511" stroke-width="1.6205" stroke-miterlimit="10" d="M42.035,15.077
			c3.951,3.616,4.217,9.75,0.592,13.696c-3.613,3.938-9.748,4.207-13.694,0.586c-3.942-3.619-4.208-9.75-0.591-13.693
			C31.964,11.718,38.096,11.456,42.035,15.077z"/>
		<circle fill="#FFFFFF" cx="30.279" cy="16.004" r="3.664"/>
		<circle fill="#CC1511" cx="40.436" cy="28.988" r="1.992"/>
		<path fill="#A8A8A8" d="M35.498,37.757c-0.365,0-0.734-0.014-1.102-0.036c-3.488-0.244-6.832-1.683-9.417-4.054
			c-6.312-5.793-6.738-15.642-0.948-21.952c3.181-3.466,7.806-5.33,12.543-4.999c3.49,0.243,6.836,1.683,9.417,4.055
			c3.059,2.803,4.841,6.631,5.018,10.776c0.183,4.146-1.269,8.117-4.082,11.18C43.998,35.923,39.832,37.757,35.498,37.757z
			 M35.489,8.3c-3.893,0-7.634,1.645-10.264,4.513c-5.185,5.651-4.805,14.473,0.85,19.66c2.315,2.123,5.31,3.411,8.432,3.629
			c4.22,0.289,8.38-1.359,11.226-4.472c2.521-2.741,3.819-6.299,3.658-10.012c-0.158-3.716-1.756-7.144-4.494-9.654
			c-2.312-2.125-5.309-3.415-8.436-3.633C36.136,8.311,35.812,8.3,35.489,8.3z"/>
	</g>
	<g display="inline">
		<path fill="#353535" d="M55.762,21.021c0-3.229,2.18-5.986,5.451-6.5c0.762-0.104,1.46-0.082,2.18,0
			c3.168,0.494,5.614,3.125,5.614,6.5c0,4.276-3.084,6.994-6.582,6.994C58.725,28.016,55.762,25.38,55.762,21.021z M57.305,21.083
			c0,3.373,2.221,5.513,5.121,5.513c2.777,0,5.061-2.058,5.061-5.513c0-2.653-1.75-4.772-4.278-5.185
			c-0.617-0.082-1.214-0.082-1.79,0C58.93,16.29,57.305,18.285,57.305,21.083z"/>
		<path fill="#353535" d="M81.166,15.2c0-0.864,1.562-0.905,1.562,0v11.807c0,1.027-1.42,1.132-1.854,0.41l-7.688-10.306
			l0.164,2.839v7.262c0,1.009-1.564,1.027-1.564,0V15.426c0-1.027,1.152-1.193,1.666-0.432l7.92,10.593l-0.205-3.104V15.2
			L81.166,15.2z"/>
		<path fill="#353535" d="M93.221,24.332l-1.666,3.25c-0.371,0.762-1.729,0.229-1.355-0.598l6.211-12.237
			c0.123-0.269,0.41-0.392,0.68-0.392s0.516,0.125,0.658,0.392l6.189,12.176c0.533,0.886-0.986,1.397-1.379,0.597l-1.604-3.188
			H93.221z M97.087,16.559l-3.25,6.479h6.479L97.087,16.559z"/>
		<path fill="#353535" d="M105.912,14.975c0-1.029,1.543-1.009,1.543,0v12.299c0,0.946-1.543,0.985-1.543,0V14.975z"/>
		<path fill="#353535" d="M112.083,23.201v3.99c0,0.944-1.502,0.944-1.502,0.021V15.406c0-0.432,0.31-0.721,0.762-0.721h4.875
			c3.56,0,5.367,2.017,5.367,4.422c0,2.078-1.131,3.58-3.66,4.012l3.332,3.6c0.781,0.781-0.35,1.689-1.028,0.988l-4.152-4.506
			H112.083z M112.083,21.905h4.153c2.695,0,3.867-1.255,3.826-2.798c-0.021-1.687-1.438-3.043-3.826-3.043h-4.153V21.905z"/>
	</g>
	<g display="inline">
		<path fill="#FF1A15" d="M12.463,13.307L9.49,10.333c-6.564,6.565-6.564,17.208,0.001,23.771l2.973-2.974
			C7.538,26.212,7.537,18.229,12.463,13.307z"/>
		<path fill="#FF1A15" d="M16.917,17.762l-2.97-2.971c-4.103,4.104-4.104,10.751,0.001,14.855l2.971-2.974
			C14.457,24.214,14.456,20.223,16.917,17.762z"/>
	</g>
</g>
<g>
	<path fill="#967E68" d="M65.882,12.263c0,3.909-2.255,6.088-5.989,6.088c-3.752,0-6.009-2.179-6.009-6.088
		c0-3.928,2.257-6.146,6.009-6.146C63.627,6.117,65.882,8.334,65.882,12.263z M62.673,12.263c0-2.197-1.03-3.307-2.78-3.307
		c-1.771,0-2.802,1.109-2.802,3.307c0,2.141,1.031,3.249,2.802,3.249C61.643,15.511,62.673,14.403,62.673,12.263z"/>
	<path fill="#967E68" d="M52.82,16.931c-2.119,1.051-3.812,1.48-5.756,1.48c-3.56,0-5.815-2.182-5.815-6.09
		c0-3.676,2.354-6.146,5.913-6.146c1.479,0,3.462,0.331,5.135,1.069l-0.798,2.354c-1.497-0.41-2.664-0.662-4.045-0.662
		c-1.81,0-2.995,1.361-2.995,3.385c0,2.139,1.031,3.285,2.743,3.285c0.952,0,1.827-0.057,2.878-0.445v-1.188h-3.034v-2.49h5.777
		v5.447H52.82L52.82,16.931z"/>
</g>
<g>
	<path fill="#967E68" d="M97.624,18.196V6.332h8.753V9.21h-5.582V11h4.766v2.722h-4.766v1.654h5.737v2.818h-8.908V18.196z"/>
	<path fill="#967E68" d="M80.227,18.196V6.332h3.17v11.864H80.227z"/>
	<path fill="#967E68" d="M70.818,18.196V6.332h3.171v8.985h5.288v2.879H70.818z"/>
	<path fill="#967E68" d="M88.837,18.196L84.305,6.332h3.521l2.41,7.449c0.137,0.409,0.254,0.817,0.371,1.226
		c0.098-0.408,0.213-0.816,0.35-1.226l2.566-7.449h3.365l-4.531,11.864H88.837z"/>
</g>
<circle fill="#F92D30" cx="25.111" cy="12.264" r="10.81"/>
<circle fill="#660F0E" cx="25.111" cy="12.264" r="5.254"/>
<circle fill="#FFFFFF" cx="31.379" cy="12.263" r="2.373"/>
</svg>
