<?xml version="1.0" encoding="utf-8"?>
<!-- Generator: Adobe Illustrator 15.0.2, SVG Export Plug-In . SVG Version: 6.00 Build 0)  -->
<!DOCTYPE svg PUBLIC "-//W3C//DTD SVG 1.1//EN" "http://www.w3.org/Graphics/SVG/1.1/DTD/svg11.dtd">
<svg version="1.1" id="Layer_1" xmlns="http://www.w3.org/2000/svg" xmlns:xlink="http://www.w3.org/1999/xlink" x="0px" y="0px"
	 width="32px" height="32px" viewBox="0 0 32 32" enable-background="new 0 0 32 32" xml:space="preserve">
<path fill="#FFFFFF" d="M15.998,30.332c-0.347,0-0.698-0.013-1.048-0.036c-3.309-0.23-6.477-1.598-8.923-3.841
	C0.044,20.965-0.36,11.631,5.128,5.648c3.019-3.291,7.397-5.053,11.89-4.738c3.311,0.23,6.479,1.596,8.926,3.844
	c2.896,2.654,4.588,6.284,4.756,10.215c0.172,3.931-1.203,7.694-3.869,10.595C24.055,28.593,20.105,30.332,15.998,30.332z"/>
<path opacity="0.75" fill="#D9D9D9" enable-background="new    " d="M31.531,15.597c0,8.577-6.955,15.529-15.532,15.529
	s-15.53-6.952-15.53-15.529H31.531z"/>
<path fill="#FF1A15" stroke="#CC1511" stroke-width="1.6205" stroke-miterlimit="10" d="M22.535,8.462
	c3.951,3.617,4.217,9.75,0.592,13.696c-3.613,3.94-9.748,4.206-13.694,0.586c-3.942-3.619-4.208-9.749-0.591-13.693
	C12.464,5.103,18.596,4.841,22.535,8.462z"/>
<circle fill="#FFFFFF" cx="10.779" cy="9.389" r="3.664"/>
<circle fill="#CC1511" cx="20.936" cy="22.373" r="1.992"/>
<path fill="#A8A8A8" d="M15.998,31.143c-0.365,0-0.734-0.014-1.102-0.038c-3.488-0.243-6.832-1.682-9.417-4.052
	C-0.833,21.26-1.259,11.412,4.531,5.101c3.181-3.466,7.806-5.33,12.543-4.999c3.491,0.243,6.836,1.683,9.417,4.055
	c3.059,2.803,4.841,6.631,5.018,10.777c0.182,4.147-1.269,8.117-4.082,11.177C24.498,29.309,20.332,31.143,15.998,31.143z
	 M15.989,1.685c-3.893,0-7.634,1.645-10.264,4.512C0.54,11.849,0.92,20.67,6.575,25.858c2.315,2.123,5.31,3.412,8.432,3.629
	c4.22,0.289,8.38-1.364,11.226-4.471c2.521-2.743,3.819-6.299,3.657-10.013c-0.158-3.714-1.755-7.142-4.494-9.653
	c-2.312-2.125-5.308-3.415-8.435-3.633C16.636,1.696,16.312,1.685,15.989,1.685z"/>
</svg>
