<?xml version="1.0" encoding="utf-8"?>
<!-- Generator: Adobe Illustrator 15.0.2, SVG Export Plug-In . SVG Version: 6.00 Build 0)  -->
<!DOCTYPE svg PUBLIC "-//W3C//DTD SVG 1.1//EN" "http://www.w3.org/Graphics/SVG/1.1/DTD/svg11.dtd">
<svg version="1.1" xmlns="http://www.w3.org/2000/svg" xmlns:xlink="http://www.w3.org/1999/xlink" x="0px" y="0px" width="24px"
	 height="24px" viewBox="0 0 24 24" enable-background="new 0 0 24 24" xml:space="preserve">
<g id="Layer_1">
	<g>
		<circle fill="#F92D30" cx="12" cy="12" r="11.543"/>
		<circle fill="#660F0E" cx="12" cy="12" r="5.61"/>
		<circle fill="#FFFFFF" cx="18.693" cy="12" r="2.534"/>
	</g>
</g>
<g id="Layer_2">
	<g>
		<path fill="#25211E" d="M12.001,2.203c5.272,0,9.562,4.396,9.562,9.798c0,5.401-4.289,9.796-9.562,9.796
			c-5.273,0-9.563-4.395-9.563-9.796C2.438,6.599,6.728,2.203,12.001,2.203 M12.001,0.203c-6.386,0-11.563,5.282-11.563,11.798
			c0,6.515,5.177,11.796,11.563,11.796c6.385,0,11.562-5.281,11.562-11.796C23.562,5.485,18.386,0.203,12.001,0.203L12.001,0.203z"
			/>
	</g>
	
		<rect x="1.776" y="9.814" transform="matrix(0.7071 -0.7071 0.7071 0.7071 -4.6912 11.884)" fill="#25211E" width="20.447" height="3.583"/>
</g>
</svg>
