<?xml version="1.0" encoding="utf-8"?>
<!-- Generator: Adobe Illustrator 15.0.2, SVG Export Plug-In . SVG Version: 6.00 Build 0)  -->
<!DOCTYPE svg PUBLIC "-//W3C//DTD SVG 1.1//EN" "http://www.w3.org/Graphics/SVG/1.1/DTD/svg11.dtd">
<svg version="1.1" id="Layer_1" xmlns="http://www.w3.org/2000/svg" xmlns:xlink="http://www.w3.org/1999/xlink" x="0px" y="0px"
	 width="54px" height="54px" viewBox="0 0 54 54" enable-background="new 0 0 54 54" xml:space="preserve">
<g>
	<path fill="#00599B" d="M26.128,13.531c-1.121,0-2.326,0.561-3.017,1.423c-0.733,0.905-0.949,2.069-0.949,3.189
		c0,2.886,1.682,7.669,5.387,7.669c1.078,0,2.241-0.517,2.932-1.205c0.99-0.992,1.078-2.371,1.078-3.146
		C31.559,18.357,29.704,13.531,26.128,13.531z"/>
	<path fill="#00599B" d="M28.24,32.752c-0.389,0-2.716,0.084-4.526,0.689c-0.948,0.344-3.706,1.377-3.706,4.438
		c0,3.057,2.974,5.256,7.584,5.256c4.137,0,6.335-1.98,6.335-4.652c0-2.196-1.421-3.362-4.696-5.688
		C28.885,32.752,28.671,32.752,28.24,32.752z"/>
	<path fill="#00599B" d="M27-0.124C12.02-0.124-0.124,12.019-0.124,27c0,14.98,12.144,27.123,27.124,27.123
		c14.98,0,27.124-12.143,27.124-27.124C54.124,12.019,41.98-0.124,27-0.124z M35.35,19.478c0,3.189-1.81,4.697-3.619,6.119
		c-0.56,0.56-1.205,1.164-1.205,2.111c0,0.948,0.646,1.465,1.119,1.854l1.553,1.205c1.895,1.596,3.617,3.062,3.617,6.032
		c0,4.052-3.92,8.146-11.333,8.146c-6.249,0-9.265-2.975-9.265-6.161c0-1.554,0.775-3.752,3.319-5.261
		c2.671-1.637,6.291-1.854,8.229-1.981c-0.604-0.774-1.293-1.594-1.293-2.928c0-0.735,0.216-1.167,0.432-1.682
		c-0.476,0.043-0.948,0.086-1.38,0.086c-4.567,0-7.153-3.404-7.153-6.766c0-1.981,0.905-4.18,2.758-5.773
		c2.457-2.026,5.387-2.37,7.713-2.37h8.877l-2.758,1.55H32.29C33.281,14.48,35.35,16.203,35.35,19.478z"/>
</g>
</svg>
