<?xml version="1.0" encoding="utf-8"?>
<!-- Generator: Adobe Illustrator 15.0.2, SVG Export Plug-In . SVG Version: 6.00 Build 0)  -->
<!DOCTYPE svg PUBLIC "-//W3C//DTD SVG 1.1//EN" "http://www.w3.org/Graphics/SVG/1.1/DTD/svg11.dtd">
<svg version="1.1" id="Layer_1" xmlns="http://www.w3.org/2000/svg" xmlns:xlink="http://www.w3.org/1999/xlink" x="0px" y="0px"
	 width="54px" height="54px" viewBox="-11 -11 54 54" enable-background="new -11 -11 54 54" xml:space="preserve">
<g>
	<path fill="#FFFFFF" d="M16.712,19.12c-0.409,0-2.846,0.089-4.742,0.722c-0.994,0.36-3.881,1.442-3.881,4.648
		c0,3.202,3.115,5.504,7.943,5.504c4.333,0,6.634-2.07,6.634-4.872c0-2.299-1.489-3.522-4.921-5.96
		C17.385,19.12,17.16,19.12,16.712,19.12z"/>
	<path fill="#FFFFFF" d="M14.498-1.011c-1.174,0-2.437,0.587-3.161,1.491c-0.767,0.948-0.993,2.167-0.993,3.34
		c0,3.022,1.761,8.032,5.642,8.032c1.129,0,2.35-0.542,3.069-1.262c1.038-1.039,1.13-2.484,1.13-3.296
		C20.185,4.043,18.244-1.011,14.498-1.011z"/>
	<path fill="#FFFFFF" d="M16-10.738c-14.767,0-26.736,11.972-26.736,26.737S1.234,42.738,16,42.738s26.736-11.974,26.736-26.739
		S30.768-10.738,16-10.738z M24.157,5.826c0,3.339-1.894,4.311-3.791,5.8c-0.586,0.587-1.263,1.22-1.263,2.212
		c0,0.993,0.677,1.535,1.174,1.943l1.625,1.262c1.983,1.67,3.788,3.206,3.787,6.317c0,4.245-4.103,8.534-11.87,8.534
		c-6.545,0-9.704-3.111-9.704-6.45c0-1.627,0.813-3.924,3.477-5.51c2.798-1.712,6.588-1.93,8.619-2.062
		c-0.633-0.809-1.354-1.644-1.354-3.044c0-0.77,0.227-1.179,0.453-1.718c-0.498,0.044-0.992,0.175-1.444,0.175
		c-4.784,0-7.493-3.396-7.493-6.918c0-2.073,0.973-4.601,2.919-6.271c2.571-2.122,5.64-1.887,8.078-1.887h9.297l-2.889,1.569H20.98
		C22.019-0.222,24.157,2.394,24.157,5.826z"/>
</g>
</svg>
