<?xml version="1.0" encoding="utf-8"?>
<!-- Generator: Adobe Illustrator 15.0.2, SVG Export Plug-In . SVG Version: 6.00 Build 0)  -->
<!DOCTYPE svg PUBLIC "-//W3C//DTD SVG 1.1//EN" "http://www.w3.org/Graphics/SVG/1.1/DTD/svg11.dtd">
<svg version="1.1" id="Layer_1" xmlns="http://www.w3.org/2000/svg" xmlns:xlink="http://www.w3.org/1999/xlink" x="0px" y="0px"
	 width="32px" height="32px" viewBox="0 0 32 32" enable-background="new 0 0 32 32" xml:space="preserve">
<path fill="#999999" d="M15.875,1.657c7.932,0,14.363,6.431,14.363,14.363c0,7.932-6.432,14.363-14.363,14.363
	c-7.933,0-14.363-6.432-14.363-14.363C1.512,8.088,7.942,1.657,15.875,1.657 M15.875,0.146C7.122,0.146,0,7.267,0,16.021
	c0,8.754,7.122,15.875,15.875,15.875c8.754,0,15.875-7.121,15.875-15.875C31.75,7.267,24.629,0.146,15.875,0.146L15.875,0.146z"/>
<path fill="#999999" d="M19.465,17.207l-1.036-0.804c-0.316-0.26-0.747-0.605-0.747-1.238c0-0.632,0.431-1.035,0.804-1.409
	c1.209-0.949,2.416-1.568,2.416-3.696c0-2.186-1.364-3.853-2.025-3.853h1.782l1.841-1h-5.924c-1.553,0-3.508-0.15-5.147,1.202
	C10.19,7.473,9.57,9.084,9.57,10.405c0,2.244,1.726,4.408,4.774,4.408c0.288,0,0.603-0.083,0.92-0.111
	c-0.144,0.344-0.288,0.604-0.288,1.095c0,0.892,0.459,1.424,0.863,1.939c-1.294,0.085-3.709,0.223-5.492,1.315
	C8.65,20.06,8.132,21.523,8.132,22.56c0,2.127,2.012,4.111,6.183,4.111c4.948,0,7.563-2.734,7.563-5.438
	C21.879,19.25,20.729,18.272,19.465,17.207z M15.695,13.9c-2.473,0-3.595-3.192-3.595-5.118c0-0.748,0.144-1.524,0.633-2.128
	c0.462-0.576,1.266-0.95,2.014-0.95c2.387,0,3.623,3.221,3.623,5.292c0,0.517-0.058,1.438-0.719,2.1
	C17.191,13.555,16.414,13.9,15.695,13.9z M15.724,25.46c-3.076,0-5.061-1.467-5.061-3.507c0-2.043,1.84-2.732,2.473-2.962
	c1.208-0.403,2.761-0.46,3.021-0.46c0.287,0,0.43,0,0.66,0.028c2.186,1.553,3.135,2.331,3.135,3.797
	C19.952,24.14,18.484,25.46,15.724,25.46z"/>
</svg>
