<?xml version="1.0" encoding="utf-8"?>
<!-- Generator: Adobe Illustrator 15.0.2, SVG Export Plug-In . SVG Version: 6.00 Build 0)  -->
<!DOCTYPE svg PUBLIC "-//W3C//DTD SVG 1.1//EN" "http://www.w3.org/Graphics/SVG/1.1/DTD/svg11.dtd">
<svg version="1.1" id="Layer_1" xmlns="http://www.w3.org/2000/svg" xmlns:xlink="http://www.w3.org/1999/xlink" x="0px" y="0px"
	 width="34px" height="32px" viewBox="0 0 34 32" enable-background="new 0 0 34 32" xml:space="preserve">
<g>
	<path fill="#F52029" d="M33.669,30.691c0,0.693-0.562,1.256-1.256,1.256H1.586c-0.693,0-1.255-0.562-1.255-1.256V1.256
		C0.331,0.562,0.893,0,1.586,0h30.827c0.694,0,1.256,0.562,1.256,1.256V30.691z"/>
	<path fill="#E01D25" d="M33.669,30.691c0,0.693-0.562,1.256-1.256,1.256H17.006V0h15.407c0.694,0,1.256,0.562,1.256,1.256V30.691z"
		/>
</g>
<g>
	<g>
		<path fill="#FFFFFF" d="M16.918,26.239c-0.165,0-0.322-0.071-0.43-0.196c-0.108-0.125-0.156-0.29-0.133-0.453l0.758-5.229h-1.835
			l-0.752,5.39c-0.039,0.28-0.279,0.489-0.563,0.489h-2.957c-0.165,0-0.322-0.071-0.43-0.196s-0.156-0.29-0.132-0.454l0.76-5.229
			H9.168c-0.314,0-0.569-0.254-0.569-0.568v-3.02c0-0.314,0.255-0.569,0.569-0.569h2.691l0.364-2.573H10.12
			c-0.314,0-0.569-0.255-0.569-0.569v-3.021c0-0.314,0.255-0.569,0.569-0.569h2.728l0.782-5.229
			c0.042-0.279,0.281-0.485,0.562-0.485h2.888c0.165,0,0.322,0.072,0.43,0.196c0.108,0.125,0.157,0.29,0.133,0.454l-0.728,5.063
			h1.872l0.751-5.226c0.04-0.28,0.279-0.488,0.562-0.488h2.924c0.165,0,0.321,0.072,0.43,0.196s0.156,0.29,0.133,0.454l-0.727,5.063
			h1.971c0.314,0,0.568,0.255,0.568,0.569v3.021c0,0.314-0.254,0.569-0.568,0.569h-2.623l-0.343,2.573h2.046
			c0.314,0,0.568,0.255,0.568,0.569v3.02c0,0.314-0.254,0.568-0.568,0.568h-2.726l-0.75,5.389c-0.039,0.281-0.279,0.49-0.563,0.49
			H16.918z M17.797,16.204l0.343-2.573h-1.846l-0.364,2.573H17.797z"/>
		<path fill="#BF1721" d="M23.025,4.328h0.005 M23.025,4.328l-0.82,5.713h2.627v3.021h-3.121l-0.494,3.71h2.695v3.02h-3.221
			l-0.818,5.879h-2.955l0.852-5.879h-2.986l-0.821,5.879h-2.957l0.854-5.879H9.168v-3.02h3.185l0.525-3.71H10.12v-3.021h3.218
			l0.854-5.713h2.888l-0.821,5.713h3.021l0.82-5.713H23.025 M18.789,13.062H15.8l-0.525,3.71h3.02L18.789,13.062 M17.081,4.328
			h0.005 M23.03,3.19h-0.005h-2.924c-0.565,0-1.045,0.416-1.126,0.976l-0.68,4.738h-0.724l0.623-4.339
			c0.017-0.077,0.025-0.156,0.025-0.237c0-0.628-0.507-1.137-1.135-1.137h-0.005h-2.888c-0.563,0-1.042,0.412-1.125,0.969
			l-0.709,4.745H10.12c-0.628,0-1.137,0.509-1.137,1.137v3.021c0,0.628,0.509,1.137,1.137,1.137h1.448l-0.203,1.436H9.168
			c-0.628,0-1.137,0.509-1.137,1.137v3.02c0,0.628,0.509,1.138,1.137,1.138h1.378l-0.666,4.577
			c-0.047,0.327,0.049,0.658,0.266,0.908c0.216,0.25,0.53,0.394,0.86,0.394h2.957c0.567,0,1.048-0.419,1.126-0.98l0.684-4.898h0.683
			l-0.663,4.578c-0.047,0.327,0.049,0.658,0.266,0.907c0.216,0.25,0.53,0.394,0.86,0.394h2.955c0.567,0,1.048-0.419,1.126-0.98
			l0.683-4.898h2.23c0.628,0,1.138-0.51,1.138-1.138v-3.02c0-0.628-0.51-1.137-1.138-1.137h-1.396l0.191-1.436h2.125
			c0.628,0,1.138-0.509,1.138-1.137v-3.021c0-0.628-0.51-1.137-1.138-1.137h-1.314l0.623-4.339c0.016-0.077,0.024-0.156,0.024-0.237
			C24.165,3.7,23.658,3.19,23.03,3.19L23.03,3.19z M16.788,14.199h0.702l-0.191,1.436h-0.714L16.788,14.199L16.788,14.199z"/>
	</g>
</g>
</svg>
