<?xml version="1.0" encoding="utf-8"?>
<!-- Generator: Adobe Illustrator 15.0.2, SVG Export Plug-In . SVG Version: 6.00 Build 0)  -->
<!DOCTYPE svg PUBLIC "-//W3C//DTD SVG 1.1//EN" "http://www.w3.org/Graphics/SVG/1.1/DTD/svg11.dtd">
<svg version="1.1" id="Layer_1" xmlns="http://www.w3.org/2000/svg" xmlns:xlink="http://www.w3.org/1999/xlink" x="0px" y="0px"
	 width="46px" height="46px" viewBox="0 0 46 46" enable-background="new 0 0 46 46" xml:space="preserve">
<path fill="none" d="M23,0.375C10.525,0.375,0.375,10.523,0.375,23c0,12.477,10.15,22.625,22.625,22.625
	c12.477,0,22.625-10.148,22.625-22.625C45.625,10.523,35.477,0.375,23,0.375L23,0.375z"/>
<g>
	<path fill="#FFFFFF" d="M12.414,17.01h4.194l-0.642,4.036h2.67l0.642-4.036h4.194l-1.905,11.98h-4.194l0.662-4.164h-2.67
		l-0.661,4.164h-4.196L12.414,17.01z"/>
	<path fill="#FFFFFF" d="M24.83,17.01h4.433c4.02,0,6.822,1.763,6.122,6.165c-0.565,3.559-3.435,5.816-6.946,5.816h-5.514
		L24.83,17.01z M27.849,25.398h0.271c1.446,0,2.665-0.666,2.915-2.24c0.268-1.684-0.588-2.399-2.177-2.399h-0.27L27.849,25.398z"/>
</g>
</svg>
