<?xml version="1.0" encoding="utf-8"?>
<!-- Generator: Adobe Illustrator 15.0.2, SVG Export Plug-In . SVG Version: 6.00 Build 0)  -->
<!DOCTYPE svg PUBLIC "-//W3C//DTD SVG 1.1//EN" "http://www.w3.org/Graphics/SVG/1.1/DTD/svg11.dtd">
<svg version="1.1" id="Layer_1" xmlns="http://www.w3.org/2000/svg" xmlns:xlink="http://www.w3.org/1999/xlink" x="0px" y="0px"
	 width="32px" height="32px" viewBox="0 0 32 32" enable-background="new 0 0 32 32" xml:space="preserve">
<g>
	<g>
		<path fill="#EF5269" d="M15.875,31.396C7.397,31.396,0.5,24.499,0.5,16.021S7.397,0.646,15.875,0.646
			c8.478,0,15.375,6.897,15.375,15.375S24.353,31.396,15.875,31.396z"/>
		<path fill="#FCBECA" d="M15.875,1.146c8.202,0,14.875,6.673,14.875,14.875c0,8.203-6.673,14.875-14.875,14.875S1,24.224,1,16.021
			C1,7.819,7.673,1.146,15.875,1.146 M15.875,0.146C7.122,0.146,0,7.267,0,16.021c0,8.754,7.122,15.875,15.875,15.875
			c8.754,0,15.875-7.121,15.875-15.875C31.75,7.267,24.629,0.146,15.875,0.146L15.875,0.146z"/>
	</g>
	<defs>
		<filter id="Adobe_OpacityMaskFilter" filterUnits="userSpaceOnUse" x="0" y="0.146" width="31.75" height="31.75">
			
				<feColorMatrix  type="matrix" values="-1 0 0 0 1  0 -1 0 0 1  0 0 -1 0 1  0 0 0 1 0" color-interpolation-filters="sRGB" result="source"/>
		</filter>
	</defs>
	<mask maskUnits="userSpaceOnUse" x="0" y="0.146" width="31.75" height="31.75" id="SVGID_3_">
		<g filter="url(#Adobe_OpacityMaskFilter)">
			<image overflow="visible" width="37" height="37" xlink:href="CC2CF725.jpg"  transform="matrix(1 0 0 1 -2.5 -2.5)">
			</image>
		</g>
	</mask>
	<g opacity="0.75" mask="url(#SVGID_3_)">
		<path fill="#560212" d="M15.875,31.396C7.397,31.396,0.5,24.499,0.5,16.021S7.397,0.646,15.875,0.646
			c8.478,0,15.375,6.897,15.375,15.375S24.353,31.396,15.875,31.396z"/>
		<path fill="#560212" d="M15.875,1.146c8.202,0,14.875,6.673,14.875,14.875c0,8.203-6.673,14.875-14.875,14.875S1,24.224,1,16.021
			C1,7.819,7.673,1.146,15.875,1.146 M15.875,0.146C7.122,0.146,0,7.267,0,16.021c0,8.754,7.122,15.875,15.875,15.875
			c8.754,0,15.875-7.121,15.875-15.875C31.75,7.267,24.629,0.146,15.875,0.146L15.875,0.146z"/>
	</g>
</g>
<path fill="#FFFFFF" d="M24.896,15.172c-0.119-1.685-1.09-2.642-2.904-2.869h-2.083c0.321-0.725,0.481-1.497,0.491-2.317
	c0.041-0.785-0.08-1.533-0.358-2.245c-0.585-0.965-1.722-1.425-3.399-1.384c-0.526,0.007-0.917,0.135-1.174,0.378
	c-0.476,0.551-0.752,1.197-0.829,1.94c-0.076,0.742-0.243,1.328-0.507,1.755c-0.392,0.498-0.763,1.013-1.11,1.545
	c-0.428,0.676-0.902,1.237-1.419,1.685H8.415c-0.799,0.085-1.234,0.595-1.311,1.527v7.622c0.076,0.932,0.512,1.438,1.311,1.524
	h3.328c0.473-0.06,0.95,0.035,1.433,0.281c1.245,0.612,2.889,0.954,4.938,1.028h1.271h0.372c2.342-0.092,3.587-1.205,3.74-3.334
	c0.419-0.627,0.631-1.336,0.631-2.127c0-0.175-0.012-0.346-0.031-0.517c0.26-0.537,0.389-1.11,0.391-1.722
	c0-0.28-0.028-0.557-0.092-0.826C24.725,16.531,24.893,15.882,24.896,15.172z M22.855,15.188c-0.004,0.254-0.07,0.562-0.205,0.923
	c-0.135,0.36-0.323,0.56-0.564,0.601c0.227,0.361,0.348,0.769,0.357,1.228c0.527,0.556,0.523,1.027-0.014,1.416
	c0.147,0.259,0.221,0.535,0.221,0.828c-0.01,0.644-0.276,1.146-0.807,1.514c0.037,0.216,0.059,0.441,0.062,0.672
	c-0.12,1.251-0.863,1.845-2.23,1.777h-1.562c-1.757-0.055-3.179-0.304-4.271-0.746c-0.69-0.285-1.388-0.475-2.099-0.563h-0.33
	v-7.678h0.33c0.437-0.057,0.898-0.402,1.396-1.034c0.495-0.631,0.87-1.132,1.127-1.498c0.252-0.334,0.518-0.676,0.8-1.027
	c0.494-0.63,0.778-1.309,0.863-2.035c0.083-0.724,0.321-1.296,0.713-1.71c1.863,0.065,2.684,0.813,2.446,2.248
	c-0.06,0.678-0.303,1.293-0.733,1.847c-0.429,0.555-0.672,1.125-0.732,1.712h4.369c0.949,0.102,1.479,0.61,1.594,1.524
	L22.855,15.188z M10.103,22.07c-0.052,0.465-0.33,0.721-0.844,0.767c-0.512-0.067-0.794-0.331-0.844-0.789
	c0.05-0.463,0.332-0.717,0.844-0.762c0.514,0.045,0.792,0.299,0.844,0.762V22.07z"/>
</svg>
