<?xml version="1.0" encoding="utf-8"?>
<!-- Generator: Adobe Illustrator 15.0.2, SVG Export Plug-In . SVG Version: 6.00 Build 0)  -->
<!DOCTYPE svg PUBLIC "-//W3C//DTD SVG 1.1//EN" "http://www.w3.org/Graphics/SVG/1.1/DTD/svg11.dtd">
<svg version="1.1" id="Layer_1" xmlns="http://www.w3.org/2000/svg" xmlns:xlink="http://www.w3.org/1999/xlink" x="0px" y="0px"
	 width="32px" height="32px" viewBox="0 0 32 32" enable-background="new 0 0 32 32" xml:space="preserve">
<path fill="#4E4E50" d="M15.875,0.146C7.122,0.146,0,7.267,0,16.021c0,8.754,7.122,15.875,15.875,15.875
	c8.754,0,15.875-7.121,15.875-15.875C31.75,7.267,24.629,0.146,15.875,0.146L15.875,0.146z"/>
<path fill="#FFFFFF" d="M24.896,15.172c-0.119-1.685-1.09-2.642-2.904-2.869h-2.083c0.321-0.725,0.482-1.497,0.492-2.317
	c0.041-0.785-0.08-1.533-0.359-2.245c-0.585-0.965-1.721-1.425-3.399-1.384c-0.527,0.007-0.918,0.135-1.174,0.378
	c-0.476,0.551-0.752,1.197-0.829,1.94c-0.076,0.742-0.243,1.328-0.507,1.755c-0.392,0.498-0.763,1.013-1.11,1.545
	c-0.428,0.676-0.902,1.237-1.419,1.685H8.415c-0.799,0.085-1.234,0.595-1.311,1.527v7.622c0.076,0.931,0.512,1.438,1.311,1.524
	h3.328c0.473-0.06,0.95,0.035,1.433,0.281c1.245,0.612,2.889,0.955,4.937,1.029h1.271h0.372c2.342-0.092,3.587-1.205,3.74-3.335
	c0.419-0.627,0.631-1.336,0.631-2.127c0-0.174-0.012-0.345-0.031-0.516c0.259-0.537,0.389-1.111,0.39-1.721
	c0-0.281-0.028-0.557-0.091-0.827C24.725,16.531,24.892,15.882,24.896,15.172z M22.855,15.188c-0.004,0.254-0.07,0.562-0.204,0.923
	c-0.136,0.36-0.324,0.56-0.565,0.601c0.227,0.361,0.348,0.769,0.358,1.227c0.527,0.556,0.523,1.028-0.015,1.416
	c0.148,0.259,0.222,0.536,0.222,0.829c-0.01,0.643-0.277,1.146-0.807,1.513c0.037,0.216,0.058,0.441,0.062,0.672
	c-0.12,1.251-0.863,1.845-2.23,1.778h-1.563c-1.757-0.055-3.179-0.304-4.271-0.747c-0.69-0.285-1.388-0.474-2.099-0.563h-0.33
	v-7.678h0.33c0.437-0.057,0.898-0.402,1.396-1.034c0.495-0.631,0.87-1.132,1.127-1.498c0.252-0.334,0.518-0.676,0.8-1.027
	c0.494-0.63,0.778-1.309,0.863-2.035c0.083-0.724,0.321-1.296,0.713-1.71c1.864,0.065,2.684,0.813,2.447,2.248
	c-0.06,0.678-0.303,1.293-0.733,1.847c-0.429,0.555-0.673,1.125-0.733,1.712h4.369c0.949,0.102,1.479,0.61,1.594,1.524
	L22.855,15.188z M10.103,22.07c-0.052,0.465-0.33,0.721-0.844,0.767c-0.512-0.068-0.794-0.331-0.844-0.789
	c0.05-0.463,0.332-0.717,0.844-0.762c0.514,0.045,0.792,0.299,0.844,0.762V22.07z"/>
</svg>
