<?xml version="1.0" encoding="utf-8"?>
<!-- Generator: Adobe Illustrator 15.0.2, SVG Export Plug-In . SVG Version: 6.00 Build 0)  -->
<!DOCTYPE svg PUBLIC "-//W3C//DTD SVG 1.1//EN" "http://www.w3.org/Graphics/SVG/1.1/DTD/svg11.dtd">
<svg version="1.1" id="Layer_1" xmlns="http://www.w3.org/2000/svg" xmlns:xlink="http://www.w3.org/1999/xlink" x="0px" y="0px"
	 width="63.75px" height="32px" viewBox="0 0 63.75 32" enable-background="new 0 0 63.75 32" xml:space="preserve">
<rect x="31.75" y="1" opacity="0.75" width="31.75" height="15.25"/>
<polygon fill="#FFFFFF" points="0,32.001 0,0 32,0 "/>
<circle fill="#E21D24" cx="9.042" cy="9.316" r="5.618"/>
<g>
	<path fill="#FFFFFF" d="M32.325,15.837V1.5h2.668v12.003h3.697v2.334H32.325z"/>
	<path fill="#FFFFFF" d="M40.877,15.837V1.5h2.511v14.337H40.877z"/>
	<path fill="#FFFFFF" d="M52.586,1.5h2.688l-3.374,14.337h-3.393L45.153,1.5h2.687l1.873,8.757c0.17,0.745,0.337,1.814,0.5,3.207
		c0.137-1.182,0.311-2.252,0.52-3.207L52.586,1.5z"/>
	<path fill="#FFFFFF" d="M63,15.837h-6.463V1.5H63v2.305h-3.795v3.413h3.521v2.314h-3.521v3.971H63V15.837z"/>
</g>
</svg>
