<?xml version="1.0" encoding="utf-8"?>
<!-- Generator: Adobe Illustrator 15.0.2, SVG Export Plug-In . SVG Version: 6.00 Build 0)  -->
<!DOCTYPE svg PUBLIC "-//W3C//DTD SVG 1.1//EN" "http://www.w3.org/Graphics/SVG/1.1/DTD/svg11.dtd">
<svg version="1.1" id="Layer_1" xmlns="http://www.w3.org/2000/svg" xmlns:xlink="http://www.w3.org/1999/xlink" x="0px" y="0px"
	 width="113.75px" height="93px" viewBox="0 0 113.75 93" enable-background="new 0 0 113.75 93" xml:space="preserve">
<path fill="#2D2D2D" d="M56.588,77.415c-0.179,0-0.358-0.006-0.538-0.019c-1.699-0.119-3.327-0.82-4.583-1.974
	c-3.072-2.817-3.279-7.612-0.461-10.687c1.551-1.688,3.799-2.594,6.105-2.432c1.7,0.117,3.327,0.818,4.583,1.973
	c1.488,1.363,2.356,3.228,2.443,5.246c0.088,2.019-0.617,3.951-1.986,5.441C60.725,76.521,58.697,77.415,56.588,77.415z
	 M56.574,63.352c-1.838,0-3.537,0.748-4.783,2.107c-2.421,2.641-2.243,6.758,0.396,9.18c1.079,0.99,2.478,1.592,3.937,1.695
	c2.008,0.139,3.896-0.618,5.241-2.088c1.177-1.281,1.783-2.939,1.708-4.674c-0.075-1.736-0.82-3.336-2.101-4.508
	c-1.078-0.991-2.478-1.594-3.937-1.696C56.881,63.357,56.728,63.352,56.574,63.352z"/>
<path fill="#2D2D2D" d="M41.576,85.85L41.576,85.85L41.576,85.85L41.576,85.85L41.576,85.85c-0.01,0.002-10.581,0.25-17.299-5.393
	l-0.003,1.925c0,0,6.442,7.086,17.295,7.108l0,0l0,0l0,0l0,0c10.853,0.02,17.322-7.042,17.322-7.042l0.006-1.923
	C52.156,86.143,41.584,85.852,41.576,85.85z"/>
<path fill="#595959" d="M59.531,66.634c1.779,1.63,1.898,4.392,0.265,6.171c-1.627,1.775-4.39,1.896-6.167,0.264
	c-1.777-1.631-1.896-4.393-0.268-6.17C54.994,65.12,57.756,65.002,59.531,66.634z"/>
<path fill="#616161" d="M24.243,49.07c-0.042,0-0.084-0.012-0.121-0.033c-0.057-0.037-0.096-0.098-0.105-0.164L21.736,31.54
	c-0.012-0.092,0.034-0.182,0.113-0.228l7.329-3.473c0.069-0.039,0.154-0.04,0.224,0c0.07,0.039,0.114,0.11,0.118,0.19l0.446,4.84
	c0.003,0.092-0.159,0.177-0.243,0.216l-3.595,1.435l0.29,2.468l2.894-1.132c0.065-0.023,0.193-0.017,0.251,0.02
	c0.059,0.036,0.126,0.098,0.135,0.167l0.318,2.722c0,0,0.033,0.211-0.03,0.367c-0.062,0.156-0.188,0.313-0.502,0.408
	c-0.352,0.105-2.542,0.893-2.542,0.893l0.247,2.336l3.43-1.171c0.063-0.022,0.393-0.114,0.503-0.054
	c0.096,0.054,0.193,0.232,0.204,0.299l0.471,4.681c0.02,0.121-0.044,0.237-0.166,0.262c-0.022,0.004-2.048,0.528-3.817,1.101
	C26.054,48.455,24.267,49.07,24.243,49.07z"/>
<path fill="#616161" d="M26.886,12.859c-1.857-5.056-7.727-6.936-13.508-5.141C12.006,8.145,3.239,12.12,2.867,12.287
	c-0.106,0.048-0.159,0.169-0.123,0.28c0.03,0.092,1.499,2.256,4.575,14.432c3.548,14.045,4.527,26.875,4.536,27.017
	c0.005,0.075,0.048,0.146,0.114,0.184c0.035,0.02,0.075,0.029,0.113,0.029c0.035,0,0.07-0.008,0.103-0.022
	c0.02-0.011,2.908-1.427,5.643-2.599c2.336-1.004,4.581-1.793,4.596-1.797c0.065-0.018,0.119-0.064,0.146-0.127
	c0.027-0.062,0.025-0.133-0.005-0.192c-0.027-0.056-4.532-17.018-4.865-18.006C18.66,31.002,31.798,26.23,26.886,12.859z
	 M18.049,22.931l-2.938,1.558c-0.035,0.021-0.075,0.031-0.115,0.031c-0.028,0-0.058-0.005-0.085-0.017
	c-0.065-0.026-0.115-0.081-0.134-0.149c-0.009-0.032-3.033-9.165-3.038-9.192c-0.016-0.098,0.034-0.196,0.123-0.241l2.94-1.307
	c0,0,4.356-1.416,5.706,2.458C22.09,20.607,18.148,22.871,18.049,22.931z"/>
<path fill="#616161" d="M33.406,46.334c-0.051,0-0.102-0.018-0.142-0.051c-0.049-0.037-0.079-0.094-0.085-0.155L29.53,9.837
	c-0.009-0.102,0.051-0.199,0.147-0.235c0.037-0.014,3.366-1.292,7.425-2.652c4.609-1.547,7.951-2.203,8.069-2.203
	c0.114,0,0.172,0.045,0.227,0.085C45.453,4.871,45.487,4.934,45.492,5l0.688,10.757c0.008,0.106-0.059,0.203-0.162,0.235
	l-7.352,2.228l0.424,4.984l4.631-1.293c0.066-0.019,0.137-0.005,0.192,0.033c0.056,0.04,0.092,0.102,0.097,0.17l0.57,7.754
	c0.008,0.107-0.06,0.204-0.162,0.235l-4.381,1.315l0.412,4.118l7.959-1.769c0.063-0.015,0.132,0,0.185,0.039
	c0.054,0.04,0.087,0.1,0.091,0.165l0.695,9.226c0.006,0.062-0.016,0.125-0.061,0.172c-0.042,0.047-0.104,0.074-0.167,0.074
	c-0.026,0-3.796,0.396-8.434,1.315c-2.505,0.496-7.27,1.573-7.284,1.575C33.425,46.334,33.416,46.334,33.406,46.334z"/>
<path fill="#616161" d="M70.578,15.401c0-10.884-7.118-12.651-10.262-12.651H60.05c-3.217,0-10.625,1.222-10.753,1.258
	c-0.103,0.03-0.171,0.084-0.165,0.19l2.034,38.514c0.007,0.119,0.103,0.396,0.222,0.398l9.799-0.36c0.002,0,0.004,0,0.006,0
	c0.004,0,0.007,0,0.009,0c0.127,0,0.228-0.297,0.228-0.422c0-0.033-0.006-0.162-0.019-0.19l-1.746-12.847
	C61.314,29.25,70.578,28.438,70.578,15.401z M63.794,20.07c-1.437,1.616-3.573,1.857-4.721,1.857c-0.369,0-0.599-0.027-0.607-0.027
	c-0.106-0.013-0.19-0.097-0.2-0.202l-1.37-12.314c-0.011-0.102,0.047-0.198,0.143-0.237c0.049-0.02,1.229-0.485,2.693-0.485
	c2.145,0,4.817,0.987,5.371,5.688C65.396,16.839,64.955,18.764,63.794,20.07z"/>
<path fill="#616161" d="M107.312,38.15c-0.045,0-0.088-0.015-0.125-0.041c-0.041-0.028-2.535-2.838-9.942-6.394
	c-4.731-2.271-8.861-2.962-8.894-2.966c-0.08-0.014-0.146-0.068-0.176-0.143c-0.029-0.075-0.017-0.159,0.033-0.223
	c0.014-0.017,1.398-1.898,2.902-9.875c1.166-6.181,0.274-12.393,0.266-12.454c-0.011-0.073,0.014-0.146,0.066-0.198
	c0.054-0.051,0.129-0.072,0.201-0.06c0.026,0.004,2.813,0.832,5.965,2.262c3.146,1.428,4.463,2.282,4.52,2.319
	c0.248,0.162,0.102,0.303-0.084,0.699l-5.001,11.52c0.606,0.156,4.237,1.12,7.163,2.008c4.4,1.338,7.814,2.926,7.973,3.275
	c0.047,0.106,0.125,0.196,0.067,0.298l-4.731,9.856c-0.029,0.056-0.084,0.097-0.146,0.111
	C107.352,38.15,107.332,38.151,107.312,38.15z"/>
<g>
	<path fill="#2D2D2D" d="M81.305,74.75c-0.002,0-0.005,0-0.008,0H67.614c-0.072,0-0.142,0.109-0.185,0.053
		c-0.043-0.056-0.057-0.06-0.035-0.129c0.026-0.094,2.17-7.822,3.139-16.58c0.34-3.07,0.496-8.484,0.496-14.24
		c-0.285,0.002-6.741-0.646-6.788-0.655c-0.06-0.011-0.118-0.036-0.177-0.104c-0.039-0.047-0.078-0.187-0.088-0.247l-1.605-9.709
		c-0.02-0.121,0.062-0.247,0.181-0.271c0.052-0.01,5.13-1.016,12.253-1.016c1.26,0,2.527,0.027,3.769,0.089
		c9.06,0.453,14.171,2.731,14.222,2.754c0.111,0.051,0.163,0.181,0.116,0.294l-5.474,13.226c-0.025,0.062-0.078,0.109-0.141,0.129
		c-0.062,0.021-0.133,0.014-0.189-0.021c-0.014-0.009-1.871-0.72-4.357-1.606s-4.861-1.539-5.334-1.597
		c0.098,1.844,0.225,7.498,1.111,14.069c0.933,6.9,2.758,14.646,2.977,15.506c0.02,0.033,0.03-0.071,0.03-0.03
		C81.533,74.793,81.432,74.75,81.305,74.75z"/>
	<path fill="#2D2D2D" d="M94.523,74.75H85.4c-0.111,0-0.207,0.062-0.226-0.049c-0.004-0.029-2.062-7.818-3.226-14.026
		c-1.307-6.967-1.561-11.216-1.575-11.245c-0.041-0.09-0.022-0.175,0.048-0.242l6.115,1.99c0,0,0.783,5.258,1.873,8.742
		c0.72,2.303,1.307,3.562,1.307,3.562s0.326-0.871,3.92-10.67c4.032-10.998,6.09-15.5,6.09-15.5
		c0.051-0.113,0.184-0.165,0.297-0.116c0.022,0.01,0.963,0.312,2.369,1.157c2.28,1.367,3.637,2.713,3.693,2.771
		c0.066,0.066,0.086,0.168,0.047,0.255c-0.031,0.071-2.369,5.445-5.891,15.428c-3.107,8.812-5.485,17.836-5.494,17.895
		C94.73,74.812,94.635,74.75,94.523,74.75z"/>
</g>
<path fill="#616161" d="M81.396,4.007c-0.473,0-8.033-0.713-9.457,11.655c-1.336,11.605,7.053,12.112,7.053,12.112
	s9.837,1.934,10.462-10.444C90.096,4.661,83.066,4.007,81.396,4.007z M85.309,16.337c-0.316,6.292-5.316,5.309-5.316,5.309
	s-4.264-0.258-3.585-6.157c0.724-6.286,4.565-5.924,4.807-5.924C82.062,9.565,85.634,9.898,85.309,16.337z"/>
<path fill="#2D2D2D" d="M26.291,66.497c-1.931,0.083-3.545,1.276-4.271,2.937c-0.045,0.07-0.344,0.993-1.009,1.012
	c-1.599,0.046-3.2-3.059-3.747-3.627c-0.082-0.086-0.22-0.094-0.377-0.02c-0.396,0.189-0.759,0.531-0.834,0.727
	c-0.055,0.142-0.01,0.238,0.01,0.273c3.939,6.939,7.505,8.479,10.649,8.479c2.535,0,4.795-2.4,4.678-5.1
	C31.274,68.477,28.991,66.382,26.291,66.497z"/>
</svg>
