<?xml version="1.0" encoding="utf-8"?>
<!-- Generator: Adobe Illustrator 15.0.2, SVG Export Plug-In . SVG Version: 6.00 Build 0)  -->
<!DOCTYPE svg PUBLIC "-//W3C//DTD SVG 1.1//EN" "http://www.w3.org/Graphics/SVG/1.1/DTD/svg11.dtd">
<svg version="1.1" id="Layer_1" xmlns="http://www.w3.org/2000/svg" xmlns:xlink="http://www.w3.org/1999/xlink" x="0px" y="0px"
	 width="580px" height="270px" viewBox="0 0 580 270" enable-background="new 0 0 580 270" xml:space="preserve">
<path opacity="0.5" fill="#D4CCC4" d="M-113.943,139.723c6.649-0.637,19.824-0.593,22.264,3.133
	c1.74,2.658,0.455,15.385-0.328,19.971c-0.719,4.21-12.506,12.253-21.936,11.133c-8.557-1.017-15.267-15.914-12.769-21.203
	C-124.016,147.048-118.75,140.186-113.943,139.723z"/>
<circle opacity="0.5" fill="#AFA69C" cx="-122.446" cy="156.739" r="1.465"/>
<circle opacity="0.5" fill="#AFA69C" cx="-97.489" cy="146.782" r="1.465"/>
<circle opacity="0.5" fill="#AFA69C" cx="-113.295" cy="168.664" r="1.465"/>
<path opacity="0.5" fill="#D4CCC4" d="M-18.509,153.613c3.515-5.682,9.34-11.786,13.788-11.572
	c3.174,0.152,11.411,2.391,14.662,5.718c2.984,3.054,2.463,19.231-1.136,23.874c-3.6,4.642-18.736,5.977-21.218,2.744
	C-15.542,170.306-21.51,158.464-18.509,153.613z"/>
<circle opacity="0.5" fill="#AFA69C" cx="-14.261" cy="156.739" r="1.465"/>
<circle opacity="0.5" fill="#AFA69C" cx="5.966" cy="169.328" r="1.465"/>
<circle opacity="0.5" fill="#AFA69C" cx="5.966" cy="151.416" r="1.465"/>
<path opacity="0.5" fill="#D4CCC4" d="M-69.754,222.001c4.12,5.258,15.173,8.077,19.442,7.069
	c3.092-0.73,9.355-16.637,10.136-21.223c0.716-4.208-15.11-18.219-24.173-14.102C-72.195,197.311-73.498,217.224-69.754,222.001z"/>
<circle opacity="0.5" fill="#AFA69C" cx="-61.579" cy="200.814" r="1.464"/>
<circle opacity="0.5" fill="#AFA69C" cx="-46.057" cy="208.855" r="1.464"/>
<circle opacity="0.5" fill="#AFA69C" cx="-66.886" cy="217.969" r="1.464"/>
<path opacity="0.5" fill="#D4CCC4" d="M-51.642,89.206c-5.472-3.834-18.974,6.663-20.319,10.838
	c-1.489,4.623,3.412,19.476,7.141,22.255c4.654,3.47,20.834-1.293,24.425-10.579C-37.286,103.684-45.016,93.848-51.642,89.206z"/>
<circle opacity="0.5" fill="#AFA69C" cx="-60.874" cy="118.391" r="1.465"/>
<circle opacity="0.5" fill="#AFA69C" cx="-66.927" cy="101.249" r="1.465"/>
<circle opacity="0.5" fill="#AFA69C" cx="-45.179" cy="108.356" r="1.464"/>
<path opacity="0.5" fill="#D4CCC4" d="M106.336,139.723c6.648-0.637,19.824-0.593,22.264,3.133
	c1.74,2.658,0.455,15.385-0.328,19.971c-0.719,4.21-12.507,12.253-21.936,11.133c-8.557-1.017-15.267-15.914-12.769-21.203
	C96.263,147.048,101.528,140.186,106.336,139.723z"/>
<circle opacity="0.5" fill="#AFA69C" cx="97.832" cy="156.739" r="1.465"/>
<circle opacity="0.5" fill="#AFA69C" cx="122.79" cy="146.782" r="1.465"/>
<circle opacity="0.5" fill="#AFA69C" cx="106.983" cy="168.664" r="1.465"/>
<path opacity="0.5" fill="#D4CCC4" d="M201.77,153.613c3.515-5.682,9.34-11.786,13.788-11.572
	c3.173,0.152,11.411,2.391,14.661,5.718c2.984,3.054,2.463,19.231-1.136,23.874c-3.6,4.642-18.735,5.977-21.218,2.744
	C204.736,170.306,198.768,158.464,201.77,153.613z"/>
<circle opacity="0.5" fill="#AFA69C" cx="206.017" cy="156.739" r="1.465"/>
<circle opacity="0.5" fill="#AFA69C" cx="226.245" cy="169.328" r="1.465"/>
<circle opacity="0.5" fill="#AFA69C" cx="226.245" cy="151.416" r="1.465"/>
<path opacity="0.5" fill="#D4CCC4" d="M150.524,222.001c4.119,5.258,15.173,8.077,19.442,7.069
	c3.092-0.73,9.355-16.637,10.136-21.223c0.716-4.208-15.11-18.219-24.174-14.102C148.083,197.311,146.781,217.224,150.524,222.001z"
	/>
<circle opacity="0.5" fill="#AFA69C" cx="158.699" cy="200.814" r="1.464"/>
<circle opacity="0.5" fill="#AFA69C" cx="174.221" cy="208.855" r="1.464"/>
<circle opacity="0.5" fill="#AFA69C" cx="153.392" cy="217.969" r="1.464"/>
<path opacity="0.5" fill="#D4CCC4" d="M168.637,89.206c-5.471-3.834-18.975,6.663-20.318,10.838
	c-1.489,4.623,3.411,19.476,7.141,22.255c4.654,3.47,20.835-1.293,24.425-10.579C182.993,103.684,175.263,93.848,168.637,89.206z"/>
<circle opacity="0.5" fill="#AFA69C" cx="159.405" cy="118.391" r="1.465"/>
<circle opacity="0.5" fill="#AFA69C" cx="153.351" cy="101.249" r="1.465"/>
<circle opacity="0.5" fill="#AFA69C" cx="175.099" cy="108.356" r="1.464"/>
<path opacity="0.5" fill="#D4CCC4" d="M-3.804,35.783c6.649-0.638,19.824-0.593,22.264,3.133c1.74,2.657,0.455,15.386-0.328,19.971
	C17.414,63.096,5.626,71.139-3.804,70.02c-8.556-1.017-15.266-15.915-12.769-21.204C-13.876,43.108-8.611,36.246-3.804,35.783z"/>
<circle opacity="0.5" fill="#AFA69C" cx="-12.307" cy="52.799" r="1.465"/>
<circle opacity="0.5" fill="#AFA69C" cx="12.651" cy="42.842" r="1.465"/>
<circle opacity="0.5" fill="#AFA69C" cx="-3.156" cy="64.725" r="1.465"/>
<path opacity="0.5" fill="#D4CCC4" d="M91.63,49.673c3.516-5.68,9.34-11.786,13.788-11.572c3.173,0.153,11.411,2.392,14.661,5.719
	c2.984,3.053,2.463,19.231-1.136,23.874c-3.6,4.641-18.736,5.977-21.218,2.744C94.597,66.366,88.629,54.525,91.63,49.673z"/>
<circle opacity="0.5" fill="#AFA69C" cx="95.878" cy="52.799" r="1.465"/>
<circle opacity="0.5" fill="#AFA69C" cx="116.105" cy="65.389" r="1.465"/>
<circle opacity="0.5" fill="#AFA69C" cx="116.105" cy="47.477" r="1.465"/>
<path opacity="0.5" fill="#D4CCC4" d="M40.385,118.061c4.12,5.258,15.173,8.078,19.442,7.069
	c3.091-0.729,9.355-16.637,10.136-21.222c0.716-4.209-15.11-18.219-24.173-14.102C37.944,93.371,36.642,113.284,40.385,118.061z"/>
<circle opacity="0.5" fill="#AFA69C" cx="48.56" cy="96.875" r="1.464"/>
<circle opacity="0.5" fill="#AFA69C" cx="64.082" cy="104.915" r="1.464"/>
<circle opacity="0.5" fill="#AFA69C" cx="43.253" cy="114.03" r="1.464"/>
<path opacity="0.5" fill="#D4CCC4" d="M58.497-14.734c-5.471-3.833-18.974,6.663-20.318,10.839C36.69,0.727,41.59,15.58,45.32,18.36
	c4.654,3.47,20.834-1.293,24.424-10.579C72.854-0.256,65.124-10.092,58.497-14.734z"/>
<circle opacity="0.5" fill="#AFA69C" cx="49.265" cy="14.452" r="1.465"/>
<circle opacity="0.5" fill="#AFA69C" cx="43.212" cy="-2.691" r="1.465"/>
<circle opacity="0.5" fill="#AFA69C" cx="64.96" cy="4.417" r="1.465"/>
<path opacity="0.5" fill="#D4CCC4" d="M326.614,139.723c6.648-0.637,19.824-0.593,22.264,3.133
	c1.74,2.658,0.455,15.385-0.327,19.971c-0.72,4.21-12.507,12.253-21.937,11.133c-8.557-1.017-15.266-15.914-12.769-21.203
	C316.542,147.048,321.807,140.186,326.614,139.723z"/>
<circle opacity="0.5" fill="#AFA69C" cx="318.111" cy="156.739" r="1.464"/>
<circle opacity="0.5" fill="#AFA69C" cx="343.068" cy="146.782" r="1.464"/>
<circle opacity="0.5" fill="#AFA69C" cx="327.262" cy="168.664" r="1.464"/>
<path opacity="0.5" fill="#D4CCC4" d="M422.05,153.613c3.514-5.682,9.34-11.786,13.787-11.572c3.172,0.152,11.41,2.391,14.661,5.718
	c2.983,3.054,2.463,19.231-1.138,23.874c-3.598,4.642-18.734,5.977-21.217,2.744C425.015,170.306,419.047,158.464,422.05,153.613z"
	/>
<circle opacity="0.5" fill="#AFA69C" cx="426.296" cy="156.739" r="1.465"/>
<circle opacity="0.5" fill="#AFA69C" cx="446.523" cy="169.328" r="1.464"/>
<circle opacity="0.5" fill="#AFA69C" cx="446.523" cy="151.416" r="1.464"/>
<path opacity="0.5" fill="#D4CCC4" d="M370.804,222.001c4.119,5.258,15.172,8.077,19.441,7.069
	c3.092-0.73,9.355-16.637,10.137-21.223c0.715-4.208-15.11-18.219-24.174-14.102C368.362,197.311,367.06,217.224,370.804,222.001z"
	/>
<circle opacity="0.5" fill="#AFA69C" cx="378.979" cy="200.814" r="1.464"/>
<circle opacity="0.5" fill="#AFA69C" cx="394.5" cy="208.855" r="1.464"/>
<circle opacity="0.5" fill="#AFA69C" cx="373.671" cy="217.969" r="1.465"/>
<path opacity="0.5" fill="#D4CCC4" d="M388.915,89.206c-5.471-3.834-18.975,6.663-20.317,10.838
	c-1.489,4.623,3.409,19.476,7.14,22.255c4.654,3.47,20.836-1.293,24.426-10.579C403.271,103.684,395.542,93.848,388.915,89.206z"/>
<circle opacity="0.5" fill="#AFA69C" cx="379.683" cy="118.391" r="1.464"/>
<circle opacity="0.5" fill="#AFA69C" cx="373.63" cy="101.249" r="1.465"/>
<circle opacity="0.5" fill="#AFA69C" cx="395.378" cy="108.356" r="1.464"/>
<path opacity="0.5" fill="#D4CCC4" d="M216.475,35.783c6.649-0.638,19.824-0.593,22.264,3.133c1.74,2.657,0.455,15.386-0.328,19.971
	c-0.719,4.208-12.506,12.252-21.936,11.132c-8.557-1.017-15.267-15.915-12.77-21.204C206.402,43.108,211.667,36.246,216.475,35.783z
	"/>
<circle opacity="0.5" fill="#AFA69C" cx="207.972" cy="52.799" r="1.465"/>
<circle opacity="0.5" fill="#AFA69C" cx="232.929" cy="42.842" r="1.465"/>
<circle opacity="0.5" fill="#AFA69C" cx="217.123" cy="64.725" r="1.464"/>
<path opacity="0.5" fill="#D4CCC4" d="M311.909,49.673c3.516-5.68,9.34-11.786,13.788-11.572c3.173,0.153,11.411,2.392,14.661,5.719
	c2.983,3.053,2.463,19.231-1.137,23.874c-3.6,4.641-18.736,5.977-21.218,2.744C314.875,66.366,308.907,54.525,311.909,49.673z"/>
<circle opacity="0.5" fill="#AFA69C" cx="316.156" cy="52.799" r="1.464"/>
<circle opacity="0.5" fill="#AFA69C" cx="336.384" cy="65.389" r="1.465"/>
<circle opacity="0.5" fill="#AFA69C" cx="336.384" cy="47.477" r="1.465"/>
<path opacity="0.5" fill="#D4CCC4" d="M260.664,118.061c4.12,5.258,15.172,8.078,19.442,7.069
	c3.092-0.729,9.355-16.637,10.136-21.222c0.716-4.209-15.11-18.219-24.173-14.102C258.223,93.371,256.92,113.284,260.664,118.061z"
	/>
<circle opacity="0.5" fill="#AFA69C" cx="268.838" cy="96.875" r="1.464"/>
<circle opacity="0.5" fill="#AFA69C" cx="284.36" cy="104.915" r="1.464"/>
<circle opacity="0.5" fill="#AFA69C" cx="263.531" cy="114.03" r="1.464"/>
<path opacity="0.5" fill="#D4CCC4" d="M278.775-14.734c-5.47-3.833-18.973,6.663-20.317,10.839
	c-1.489,4.623,3.411,19.475,7.141,22.255c4.655,3.47,20.835-1.293,24.425-10.579C293.132-0.256,285.402-10.092,278.775-14.734z"/>
<circle opacity="0.5" fill="#AFA69C" cx="269.544" cy="14.452" r="1.465"/>
<circle opacity="0.5" fill="#AFA69C" cx="263.49" cy="-2.691" r="1.465"/>
<circle opacity="0.5" fill="#AFA69C" cx="285.239" cy="4.417" r="1.464"/>
<path opacity="0.5" fill="#D4CCC4" d="M546.893,139.723c6.649-0.637,19.824-0.593,22.265,3.133
	c1.739,2.658,0.455,15.385-0.328,19.971c-0.719,4.21-12.507,12.253-21.937,11.133c-8.556-1.017-15.267-15.914-12.769-21.203
	C536.82,147.048,542.086,140.186,546.893,139.723z"/>
<circle opacity="0.5" fill="#AFA69C" cx="538.39" cy="156.739" r="1.465"/>
<circle opacity="0.5" fill="#AFA69C" cx="563.347" cy="146.782" r="1.464"/>
<circle opacity="0.5" fill="#AFA69C" cx="547.541" cy="168.664" r="1.465"/>
<path opacity="0.5" fill="#D4CCC4" d="M642.327,153.613c3.515-5.682,9.341-11.786,13.788-11.572
	c3.174,0.152,11.41,2.391,14.661,5.718c2.983,3.054,2.463,19.231-1.137,23.874c-3.6,4.642-18.734,5.977-21.218,2.744
	C645.293,170.306,639.325,158.464,642.327,153.613z"/>
<circle opacity="0.5" fill="#AFA69C" cx="646.575" cy="156.739" r="1.464"/>
<circle opacity="0.5" fill="#AFA69C" cx="666.802" cy="169.328" r="1.465"/>
<circle opacity="0.5" fill="#AFA69C" cx="666.802" cy="151.416" r="1.465"/>
<path opacity="0.5" fill="#D4CCC4" d="M591.081,222.001c4.12,5.258,15.174,8.077,19.442,7.069
	c3.092-0.73,9.355-16.637,10.136-21.223c0.717-4.208-15.109-18.219-24.173-14.102C588.641,197.311,587.338,217.224,591.081,222.001z
	"/>
<circle opacity="0.5" fill="#AFA69C" cx="599.257" cy="200.814" r="1.464"/>
<circle opacity="0.5" fill="#AFA69C" cx="614.778" cy="208.855" r="1.464"/>
<circle opacity="0.5" fill="#AFA69C" cx="593.95" cy="217.969" r="1.463"/>
<path opacity="0.5" fill="#D4CCC4" d="M609.194,89.206c-5.472-3.834-18.974,6.663-20.318,10.838
	c-1.49,4.623,3.411,19.476,7.141,22.255c4.654,3.47,20.835-1.293,24.426-10.579C623.55,103.684,615.821,93.848,609.194,89.206z"/>
<circle opacity="0.5" fill="#AFA69C" cx="599.962" cy="118.391" r="1.465"/>
<circle opacity="0.5" fill="#AFA69C" cx="593.908" cy="101.249" r="1.465"/>
<circle opacity="0.5" fill="#AFA69C" cx="615.658" cy="108.356" r="1.464"/>
<path opacity="0.5" fill="#D4CCC4" d="M436.753,35.783c6.649-0.638,19.824-0.593,22.264,3.133
	c1.742,2.657,0.455,15.386-0.327,19.971c-0.718,4.208-12.507,12.252-21.937,11.132c-8.557-1.017-15.266-15.915-12.769-21.204
	C426.681,43.108,431.946,36.246,436.753,35.783z"/>
<circle opacity="0.5" fill="#AFA69C" cx="428.25" cy="52.799" r="1.464"/>
<circle opacity="0.5" fill="#AFA69C" cx="453.208" cy="42.842" r="1.464"/>
<circle opacity="0.5" fill="#AFA69C" cx="437.401" cy="64.725" r="1.465"/>
<path opacity="0.5" fill="#D4CCC4" d="M532.188,49.673c3.516-5.68,9.341-11.786,13.788-11.572c3.174,0.153,11.41,2.392,14.661,5.719
	c2.984,3.053,2.463,19.231-1.137,23.874c-3.6,4.641-18.734,5.977-21.218,2.744C535.154,66.366,529.186,54.525,532.188,49.673z"/>
<circle opacity="0.5" fill="#AFA69C" cx="536.435" cy="52.799" r="1.465"/>
<circle opacity="0.5" fill="#AFA69C" cx="556.663" cy="65.389" r="1.465"/>
<circle opacity="0.5" fill="#AFA69C" cx="556.663" cy="47.477" r="1.465"/>
<path opacity="0.5" fill="#D4CCC4" d="M480.942,118.061c4.119,5.258,15.173,8.078,19.441,7.069
	c3.092-0.729,9.355-16.637,10.136-21.222c0.717-4.209-15.109-18.219-24.173-14.102C478.501,93.371,477.198,113.284,480.942,118.061z
	"/>
<circle opacity="0.5" fill="#AFA69C" cx="489.118" cy="96.875" r="1.464"/>
<circle opacity="0.5" fill="#AFA69C" cx="504.639" cy="104.915" r="1.464"/>
<circle opacity="0.5" fill="#AFA69C" cx="483.81" cy="114.03" r="1.463"/>
<path opacity="0.5" fill="#D4CCC4" d="M499.055-14.734c-5.472-3.833-18.974,6.663-20.319,10.839
	c-1.488,4.623,3.412,19.475,7.142,22.255c4.654,3.47,20.835-1.293,24.425-10.579C513.41-0.256,505.681-10.092,499.055-14.734z"/>
<circle opacity="0.5" fill="#AFA69C" cx="489.822" cy="14.452" r="1.465"/>
<circle opacity="0.5" fill="#AFA69C" cx="483.769" cy="-2.691" r="1.465"/>
<circle opacity="0.5" fill="#AFA69C" cx="505.518" cy="4.417" r="1.464"/>
<path opacity="0.5" fill="#D4CCC4" d="M-113.943,348.283c6.649-0.639,19.824-0.594,22.264,3.132
	c1.74,2.657,0.455,15.386-0.328,19.972c-0.719,4.209-12.506,12.252-21.936,11.132c-8.557-1.017-15.267-15.914-12.769-21.202
	C-124.016,355.607-118.75,348.744-113.943,348.283z"/>
<circle opacity="0.5" fill="#AFA69C" cx="-122.446" cy="365.299" r="1.465"/>
<circle opacity="0.5" fill="#AFA69C" cx="-97.489" cy="355.342" r="1.465"/>
<circle opacity="0.5" fill="#AFA69C" cx="-113.295" cy="377.224" r="1.465"/>
<path opacity="0.5" fill="#D4CCC4" d="M-18.509,362.173c3.515-5.681,9.34-11.786,13.788-11.572
	c3.174,0.152,11.411,2.391,14.662,5.718c2.984,3.054,2.463,19.23-1.136,23.873c-3.6,4.643-18.736,5.977-21.218,2.745
	C-15.542,378.865-21.51,367.023-18.509,362.173z"/>
<circle opacity="0.5" fill="#AFA69C" cx="-14.261" cy="365.299" r="1.465"/>
<circle opacity="0.5" fill="#AFA69C" cx="5.966" cy="377.888" r="1.465"/>
<circle opacity="0.5" fill="#AFA69C" cx="5.966" cy="359.976" r="1.465"/>
<path opacity="0.5" fill="#D4CCC4" d="M-69.754,430.561c4.12,5.258,15.173,8.078,19.442,7.069
	c3.092-0.73,9.355-16.637,10.136-21.223c0.716-4.208-15.11-18.219-24.173-14.101C-72.195,405.869-73.498,425.783-69.754,430.561z"/>
<circle opacity="0.5" fill="#AFA69C" cx="-61.579" cy="409.375" r="1.464"/>
<circle opacity="0.5" fill="#AFA69C" cx="-46.057" cy="417.414" r="1.464"/>
<circle opacity="0.5" fill="#AFA69C" cx="-66.886" cy="426.528" r="1.464"/>
<path opacity="0.5" fill="#D4CCC4" d="M-51.642,297.766c-5.472-3.834-18.974,6.662-20.319,10.838
	c-1.489,4.623,3.412,19.476,7.141,22.256c4.654,3.47,20.834-1.294,24.425-10.579C-37.286,312.243-45.016,302.407-51.642,297.766z"/>
<circle opacity="0.5" fill="#AFA69C" cx="-60.874" cy="326.951" r="1.465"/>
<circle opacity="0.5" fill="#AFA69C" cx="-66.927" cy="309.808" r="1.465"/>
<circle opacity="0.5" fill="#AFA69C" cx="-45.179" cy="316.915" r="1.464"/>
<path opacity="0.5" fill="#D4CCC4" d="M106.336,348.283c6.648-0.639,19.824-0.594,22.264,3.132
	c1.74,2.657,0.455,15.386-0.328,19.972c-0.719,4.209-12.507,12.252-21.936,11.132c-8.557-1.017-15.267-15.914-12.769-21.202
	C96.263,355.607,101.528,348.744,106.336,348.283z"/>
<circle opacity="0.5" fill="#AFA69C" cx="97.832" cy="365.299" r="1.465"/>
<circle opacity="0.5" fill="#AFA69C" cx="122.79" cy="355.342" r="1.465"/>
<circle opacity="0.5" fill="#AFA69C" cx="106.983" cy="377.224" r="1.465"/>
<path opacity="0.5" fill="#D4CCC4" d="M201.77,362.173c3.515-5.681,9.34-11.786,13.788-11.572
	c3.173,0.152,11.411,2.391,14.661,5.718c2.984,3.054,2.463,19.23-1.136,23.873s-18.735,5.977-21.218,2.745
	C204.736,378.865,198.768,367.023,201.77,362.173z"/>
<circle opacity="0.5" fill="#AFA69C" cx="206.017" cy="365.299" r="1.465"/>
<circle opacity="0.5" fill="#AFA69C" cx="226.245" cy="377.888" r="1.465"/>
<circle opacity="0.5" fill="#AFA69C" cx="226.245" cy="359.976" r="1.465"/>
<path opacity="0.5" fill="#D4CCC4" d="M150.524,430.561c4.119,5.258,15.173,8.078,19.442,7.069
	c3.092-0.73,9.355-16.637,10.136-21.223c0.716-4.208-15.11-18.219-24.174-14.101C148.083,405.869,146.781,425.783,150.524,430.561z"
	/>
<circle opacity="0.5" fill="#AFA69C" cx="158.699" cy="409.375" r="1.464"/>
<circle opacity="0.5" fill="#AFA69C" cx="174.221" cy="417.414" r="1.464"/>
<circle opacity="0.5" fill="#AFA69C" cx="153.392" cy="426.528" r="1.464"/>
<path opacity="0.5" fill="#D4CCC4" d="M168.637,297.766c-5.471-3.834-18.975,6.662-20.318,10.838
	c-1.489,4.623,3.411,19.476,7.141,22.256c4.654,3.47,20.835-1.294,24.425-10.579C182.993,312.243,175.263,302.407,168.637,297.766z"
	/>
<circle opacity="0.5" fill="#AFA69C" cx="159.405" cy="326.951" r="1.465"/>
<circle opacity="0.5" fill="#AFA69C" cx="153.351" cy="309.808" r="1.465"/>
<circle opacity="0.5" fill="#AFA69C" cx="175.099" cy="316.915" r="1.464"/>
<path opacity="0.5" fill="#D4CCC4" d="M-3.804,244.343c6.649-0.638,19.824-0.593,22.264,3.133c1.74,2.657,0.455,15.386-0.328,19.972
	c-0.719,4.208-12.506,12.251-21.937,11.132c-8.556-1.017-15.266-15.915-12.769-21.204C-13.876,251.668-8.611,244.806-3.804,244.343z
	"/>
<circle opacity="0.5" fill="#AFA69C" cx="-12.307" cy="261.359" r="1.465"/>
<circle opacity="0.5" fill="#AFA69C" cx="12.651" cy="251.402" r="1.465"/>
<circle opacity="0.5" fill="#AFA69C" cx="-3.156" cy="273.284" r="1.465"/>
<path opacity="0.5" fill="#D4CCC4" d="M91.63,258.232c3.516-5.68,9.34-11.786,13.788-11.572c3.173,0.154,11.411,2.393,14.661,5.719
	c2.984,3.054,2.463,19.231-1.136,23.874c-3.6,4.641-18.736,5.977-21.218,2.744C94.597,274.926,88.629,263.084,91.63,258.232z"/>
<circle opacity="0.5" fill="#AFA69C" cx="95.878" cy="261.359" r="1.465"/>
<circle opacity="0.5" fill="#AFA69C" cx="116.105" cy="273.947" r="1.465"/>
<circle opacity="0.5" fill="#AFA69C" cx="116.105" cy="256.036" r="1.465"/>
<path opacity="0.5" fill="#D4CCC4" d="M40.385,326.62c4.12,5.258,15.173,8.078,19.442,7.07c3.091-0.729,9.355-16.637,10.136-21.223
	c0.716-4.208-15.11-18.219-24.173-14.102C37.944,301.93,36.642,321.844,40.385,326.62z"/>
<circle opacity="0.5" fill="#AFA69C" cx="48.56" cy="305.435" r="1.464"/>
<circle opacity="0.5" fill="#AFA69C" cx="64.082" cy="313.475" r="1.464"/>
<circle opacity="0.5" fill="#AFA69C" cx="43.253" cy="322.59" r="1.464"/>
<path opacity="0.5" fill="#D4CCC4" d="M58.497,193.825c-5.471-3.833-18.974,6.662-20.318,10.839
	c-1.489,4.623,3.411,19.475,7.141,22.256c4.654,3.469,20.834-1.294,24.424-10.58C72.854,208.304,65.124,198.467,58.497,193.825z"/>
<circle opacity="0.5" fill="#AFA69C" cx="49.265" cy="223.012" r="1.465"/>
<circle opacity="0.5" fill="#AFA69C" cx="43.212" cy="205.869" r="1.465"/>
<circle opacity="0.5" fill="#AFA69C" cx="64.96" cy="212.975" r="1.465"/>
<path opacity="0.5" fill="#D4CCC4" d="M326.614,348.283c6.648-0.639,19.824-0.594,22.264,3.132
	c1.74,2.657,0.455,15.386-0.327,19.972c-0.72,4.209-12.507,12.252-21.937,11.132c-8.557-1.017-15.266-15.914-12.769-21.202
	C316.542,355.607,321.807,348.744,326.614,348.283z"/>
<circle opacity="0.5" fill="#AFA69C" cx="318.111" cy="365.299" r="1.464"/>
<circle opacity="0.5" fill="#AFA69C" cx="343.068" cy="355.342" r="1.464"/>
<circle opacity="0.5" fill="#AFA69C" cx="327.262" cy="377.224" r="1.464"/>
<path opacity="0.5" fill="#D4CCC4" d="M422.05,362.173c3.514-5.681,9.34-11.786,13.787-11.572c3.172,0.152,11.41,2.391,14.661,5.718
	c2.983,3.054,2.463,19.23-1.138,23.873c-3.598,4.643-18.734,5.977-21.217,2.745C425.015,378.865,419.047,367.023,422.05,362.173z"/>
<circle opacity="0.5" fill="#AFA69C" cx="426.296" cy="365.299" r="1.465"/>
<circle opacity="0.5" fill="#AFA69C" cx="446.523" cy="377.888" r="1.464"/>
<circle opacity="0.5" fill="#AFA69C" cx="446.523" cy="359.976" r="1.464"/>
<path opacity="0.5" fill="#D4CCC4" d="M370.804,430.561c4.119,5.258,15.172,8.078,19.441,7.069
	c3.092-0.73,9.355-16.637,10.137-21.223c0.715-4.208-15.11-18.219-24.174-14.101C368.362,405.869,367.06,425.783,370.804,430.561z"
	/>
<circle opacity="0.5" fill="#AFA69C" cx="378.979" cy="409.375" r="1.464"/>
<circle opacity="0.5" fill="#AFA69C" cx="394.5" cy="417.414" r="1.464"/>
<circle opacity="0.5" fill="#AFA69C" cx="373.671" cy="426.528" r="1.465"/>
<path opacity="0.5" fill="#D4CCC4" d="M388.915,297.766c-5.471-3.834-18.975,6.662-20.317,10.838
	c-1.489,4.623,3.409,19.476,7.14,22.256c4.654,3.47,20.836-1.294,24.426-10.579C403.271,312.243,395.542,302.407,388.915,297.766z"
	/>
<circle opacity="0.5" fill="#AFA69C" cx="379.683" cy="326.951" r="1.464"/>
<circle opacity="0.5" fill="#AFA69C" cx="373.63" cy="309.808" r="1.465"/>
<circle opacity="0.5" fill="#AFA69C" cx="395.378" cy="316.915" r="1.464"/>
<path opacity="0.5" fill="#D4CCC4" d="M216.475,244.343c6.649-0.638,19.824-0.593,22.264,3.133
	c1.74,2.657,0.455,15.386-0.328,19.972c-0.719,4.208-12.506,12.251-21.936,11.132c-8.557-1.017-15.267-15.915-12.77-21.204
	C206.402,251.668,211.667,244.806,216.475,244.343z"/>
<circle opacity="0.5" fill="#AFA69C" cx="207.972" cy="261.359" r="1.465"/>
<circle opacity="0.5" fill="#AFA69C" cx="232.929" cy="251.402" r="1.465"/>
<circle opacity="0.5" fill="#AFA69C" cx="217.123" cy="273.284" r="1.464"/>
<path opacity="0.5" fill="#D4CCC4" d="M311.909,258.232c3.516-5.68,9.34-11.786,13.788-11.572
	c3.173,0.154,11.411,2.393,14.661,5.719c2.983,3.054,2.463,19.231-1.137,23.874c-3.6,4.641-18.736,5.977-21.218,2.744
	C314.875,274.926,308.907,263.084,311.909,258.232z"/>
<circle opacity="0.5" fill="#AFA69C" cx="316.156" cy="261.359" r="1.464"/>
<circle opacity="0.5" fill="#AFA69C" cx="336.384" cy="273.947" r="1.465"/>
<circle opacity="0.5" fill="#AFA69C" cx="336.384" cy="256.036" r="1.465"/>
<path opacity="0.5" fill="#D4CCC4" d="M260.664,326.62c4.12,5.258,15.172,8.078,19.442,7.07c3.092-0.729,9.355-16.637,10.136-21.223
	c0.716-4.208-15.11-18.219-24.173-14.102C258.223,301.93,256.92,321.844,260.664,326.62z"/>
<circle opacity="0.5" fill="#AFA69C" cx="268.838" cy="305.435" r="1.464"/>
<circle opacity="0.5" fill="#AFA69C" cx="284.36" cy="313.475" r="1.464"/>
<circle opacity="0.5" fill="#AFA69C" cx="263.531" cy="322.59" r="1.464"/>
<path opacity="0.5" fill="#D4CCC4" d="M278.775,193.825c-5.47-3.833-18.973,6.662-20.317,10.839
	c-1.489,4.623,3.411,19.475,7.141,22.256c4.655,3.469,20.835-1.294,24.425-10.58C293.132,208.304,285.402,198.467,278.775,193.825z"
	/>
<circle opacity="0.5" fill="#AFA69C" cx="269.544" cy="223.012" r="1.465"/>
<circle opacity="0.5" fill="#AFA69C" cx="263.49" cy="205.869" r="1.465"/>
<circle opacity="0.5" fill="#AFA69C" cx="285.239" cy="212.975" r="1.464"/>
<path opacity="0.5" fill="#D4CCC4" d="M546.893,348.283c6.649-0.639,19.824-0.594,22.265,3.132
	c1.739,2.657,0.455,15.386-0.328,19.972c-0.719,4.209-12.507,12.252-21.937,11.132c-8.556-1.017-15.267-15.914-12.769-21.202
	C536.82,355.607,542.086,348.744,546.893,348.283z"/>
<circle opacity="0.5" fill="#AFA69C" cx="538.39" cy="365.299" r="1.465"/>
<circle opacity="0.5" fill="#AFA69C" cx="563.347" cy="355.342" r="1.464"/>
<circle opacity="0.5" fill="#AFA69C" cx="547.541" cy="377.224" r="1.465"/>
<path opacity="0.5" fill="#D4CCC4" d="M642.327,362.173c3.515-5.681,9.341-11.786,13.788-11.572
	c3.174,0.152,11.41,2.391,14.661,5.718c2.983,3.054,2.463,19.23-1.137,23.873s-18.734,5.977-21.218,2.745
	C645.293,378.865,639.325,367.023,642.327,362.173z"/>
<circle opacity="0.5" fill="#AFA69C" cx="646.575" cy="365.299" r="1.464"/>
<circle opacity="0.5" fill="#AFA69C" cx="666.802" cy="377.888" r="1.465"/>
<circle opacity="0.5" fill="#AFA69C" cx="666.802" cy="359.976" r="1.465"/>
<path opacity="0.5" fill="#D4CCC4" d="M591.081,430.561c4.12,5.258,15.174,8.078,19.442,7.069
	c3.092-0.73,9.355-16.637,10.136-21.223c0.717-4.208-15.109-18.219-24.173-14.101C588.641,405.869,587.338,425.783,591.081,430.561z
	"/>
<circle opacity="0.5" fill="#AFA69C" cx="599.257" cy="409.375" r="1.464"/>
<circle opacity="0.5" fill="#AFA69C" cx="614.778" cy="417.414" r="1.464"/>
<circle opacity="0.5" fill="#AFA69C" cx="593.95" cy="426.528" r="1.463"/>
<path opacity="0.5" fill="#D4CCC4" d="M609.194,297.766c-5.472-3.834-18.974,6.662-20.318,10.838
	c-1.49,4.623,3.411,19.476,7.141,22.256c4.654,3.47,20.835-1.294,24.426-10.579C623.55,312.243,615.821,302.407,609.194,297.766z"/>
<circle opacity="0.5" fill="#AFA69C" cx="599.962" cy="326.951" r="1.465"/>
<circle opacity="0.5" fill="#AFA69C" cx="593.908" cy="309.808" r="1.465"/>
<circle opacity="0.5" fill="#AFA69C" cx="615.658" cy="316.915" r="1.464"/>
<path opacity="0.5" fill="#D4CCC4" d="M436.753,244.343c6.649-0.638,19.824-0.593,22.264,3.133
	c1.742,2.657,0.455,15.386-0.327,19.972c-0.718,4.208-12.507,12.251-21.937,11.132c-8.557-1.017-15.266-15.915-12.769-21.204
	C426.681,251.668,431.946,244.806,436.753,244.343z"/>
<circle opacity="0.5" fill="#AFA69C" cx="428.25" cy="261.359" r="1.464"/>
<circle opacity="0.5" fill="#AFA69C" cx="453.208" cy="251.402" r="1.464"/>
<circle opacity="0.5" fill="#AFA69C" cx="437.401" cy="273.284" r="1.465"/>
<path opacity="0.5" fill="#D4CCC4" d="M532.188,258.232c3.516-5.68,9.341-11.786,13.788-11.572
	c3.174,0.154,11.41,2.393,14.661,5.719c2.984,3.054,2.463,19.231-1.137,23.874c-3.6,4.641-18.734,5.977-21.218,2.744
	C535.154,274.926,529.186,263.084,532.188,258.232z"/>
<circle opacity="0.5" fill="#AFA69C" cx="536.435" cy="261.359" r="1.465"/>
<circle opacity="0.5" fill="#AFA69C" cx="556.663" cy="273.947" r="1.465"/>
<circle opacity="0.5" fill="#AFA69C" cx="556.663" cy="256.036" r="1.465"/>
<path opacity="0.5" fill="#D4CCC4" d="M480.942,326.62c4.119,5.258,15.173,8.078,19.441,7.07
	c3.092-0.729,9.355-16.637,10.136-21.223c0.717-4.208-15.109-18.219-24.173-14.102C478.501,301.93,477.198,321.844,480.942,326.62z"
	/>
<circle opacity="0.5" fill="#AFA69C" cx="489.118" cy="305.435" r="1.464"/>
<circle opacity="0.5" fill="#AFA69C" cx="504.639" cy="313.475" r="1.464"/>
<circle opacity="0.5" fill="#AFA69C" cx="483.81" cy="322.59" r="1.463"/>
<path opacity="0.5" fill="#D4CCC4" d="M499.055,193.825c-5.472-3.833-18.974,6.662-20.319,10.839
	c-1.488,4.623,3.412,19.475,7.142,22.256c4.654,3.469,20.835-1.294,24.425-10.58C513.41,208.304,505.681,198.467,499.055,193.825z"
	/>
<circle opacity="0.5" fill="#AFA69C" cx="489.822" cy="223.012" r="1.465"/>
<circle opacity="0.5" fill="#AFA69C" cx="483.769" cy="205.869" r="1.465"/>
<circle opacity="0.5" fill="#AFA69C" cx="505.518" cy="212.975" r="1.464"/>
<path opacity="0.5" fill="#D4CCC4" d="M-113.943-70.055c6.649-0.638,19.824-0.593,22.264,3.132
	c1.74,2.657,0.455,15.385-0.328,19.971c-0.719,4.209-12.506,12.252-21.936,11.132c-8.557-1.017-15.267-15.915-12.769-21.203
	C-124.016-62.731-118.75-69.594-113.943-70.055z"/>
<circle opacity="0.5" fill="#AFA69C" cx="-122.446" cy="-53.039" r="1.465"/>
<circle opacity="0.5" fill="#AFA69C" cx="-97.489" cy="-62.996" r="1.465"/>
<circle opacity="0.5" fill="#AFA69C" cx="-113.295" cy="-41.114" r="1.465"/>
<path opacity="0.5" fill="#D4CCC4" d="M-18.509-56.166c3.515-5.681,9.34-11.786,13.788-11.572C-1.547-67.585,6.69-65.347,9.94-62.02
	c2.984,3.054,2.463,19.231-1.136,23.874c-3.6,4.643-18.736,5.977-21.218,2.745C-15.542-39.473-21.51-51.315-18.509-56.166z"/>
<circle opacity="0.5" fill="#AFA69C" cx="-14.261" cy="-53.039" r="1.465"/>
<circle opacity="0.5" fill="#AFA69C" cx="5.966" cy="-40.45" r="1.465"/>
<circle opacity="0.5" fill="#AFA69C" cx="5.966" cy="-58.362" r="1.465"/>
<path opacity="0.5" fill="#D4CCC4" d="M-69.754,12.223c4.12,5.258,15.173,8.078,19.442,7.069c3.092-0.73,9.355-16.636,10.136-21.222
	c0.716-4.209-15.11-18.219-24.173-14.102C-72.195-12.468-73.498,7.445-69.754,12.223z"/>
<circle opacity="0.5" fill="#AFA69C" cx="-61.579" cy="-8.963" r="1.464"/>
<circle opacity="0.5" fill="#AFA69C" cx="-46.057" cy="-0.924" r="1.464"/>
<circle opacity="0.5" fill="#AFA69C" cx="-66.886" cy="8.19" r="1.464"/>
<path opacity="0.5" fill="#D4CCC4" d="M-51.642-120.573c-5.472-3.834-18.974,6.662-20.319,10.838
	c-1.489,4.623,3.412,19.476,7.141,22.255c4.654,3.47,20.834-1.293,24.425-10.579C-37.286-106.095-45.016-115.931-51.642-120.573z"/>
<circle opacity="0.5" fill="#AFA69C" cx="-60.874" cy="-91.387" r="1.465"/>
<circle opacity="0.5" fill="#AFA69C" cx="-66.927" cy="-108.53" r="1.465"/>
<circle opacity="0.5" fill="#AFA69C" cx="-45.179" cy="-101.423" r="1.464"/>
<path opacity="0.5" fill="#D4CCC4" d="M106.336-70.055c6.648-0.638,19.824-0.593,22.264,3.132c1.74,2.657,0.455,15.385-0.328,19.971
	c-0.719,4.209-12.507,12.252-21.936,11.132c-8.557-1.017-15.267-15.915-12.769-21.203C96.263-62.731,101.528-69.594,106.336-70.055z
	"/>
<circle opacity="0.5" fill="#AFA69C" cx="97.832" cy="-53.039" r="1.465"/>
<circle opacity="0.5" fill="#AFA69C" cx="122.79" cy="-62.996" r="1.465"/>
<circle opacity="0.5" fill="#AFA69C" cx="106.983" cy="-41.114" r="1.465"/>
<path opacity="0.5" fill="#D4CCC4" d="M201.77-56.166c3.515-5.681,9.34-11.786,13.788-11.572c3.173,0.153,11.411,2.391,14.661,5.718
	c2.984,3.054,2.463,19.231-1.136,23.874c-3.6,4.643-18.735,5.977-21.218,2.745C204.736-39.473,198.768-51.315,201.77-56.166z"/>
<circle opacity="0.5" fill="#AFA69C" cx="206.017" cy="-53.039" r="1.465"/>
<circle opacity="0.5" fill="#AFA69C" cx="226.245" cy="-40.45" r="1.465"/>
<circle opacity="0.5" fill="#AFA69C" cx="226.245" cy="-58.362" r="1.465"/>
<path opacity="0.5" fill="#D4CCC4" d="M150.524,12.223c4.119,5.258,15.173,8.078,19.442,7.069
	c3.092-0.73,9.355-16.636,10.136-21.222c0.716-4.209-15.11-18.219-24.174-14.102C148.083-12.468,146.781,7.445,150.524,12.223z"/>
<circle opacity="0.5" fill="#AFA69C" cx="158.699" cy="-8.963" r="1.464"/>
<circle opacity="0.5" fill="#AFA69C" cx="174.221" cy="-0.924" r="1.464"/>
<circle opacity="0.5" fill="#AFA69C" cx="153.392" cy="8.19" r="1.464"/>
<path opacity="0.5" fill="#D4CCC4" d="M168.637-120.573c-5.471-3.834-18.975,6.662-20.318,10.838
	c-1.489,4.623,3.411,19.476,7.141,22.255c4.654,3.47,20.835-1.293,24.425-10.579C182.993-106.095,175.263-115.931,168.637-120.573z"
	/>
<circle opacity="0.5" fill="#AFA69C" cx="159.405" cy="-91.387" r="1.465"/>
<circle opacity="0.5" fill="#AFA69C" cx="153.351" cy="-108.53" r="1.465"/>
<circle opacity="0.5" fill="#AFA69C" cx="175.099" cy="-101.423" r="1.464"/>
<path opacity="0.5" fill="#D4CCC4" d="M-3.804-173.995c6.649-0.638,19.824-0.593,22.264,3.133c1.74,2.657,0.455,15.386-0.328,19.971
	c-0.719,4.208-12.506,12.251-21.937,11.132c-8.556-1.017-15.266-15.916-12.769-21.204C-13.876-166.67-8.611-173.532-3.804-173.995z"
	/>
<circle opacity="0.5" fill="#AFA69C" cx="-12.307" cy="-156.979" r="1.465"/>
<circle opacity="0.5" fill="#AFA69C" cx="12.651" cy="-166.937" r="1.465"/>
<circle opacity="0.5" fill="#AFA69C" cx="-3.156" cy="-145.054" r="1.465"/>
<path opacity="0.5" fill="#D4CCC4" d="M91.63-160.105c3.516-5.68,9.34-11.786,13.788-11.573c3.173,0.154,11.411,2.392,14.661,5.719
	c2.984,3.054,2.463,19.231-1.136,23.874c-3.6,4.641-18.736,5.977-21.218,2.744C94.597-143.413,88.629-155.254,91.63-160.105z"/>
<circle opacity="0.5" fill="#AFA69C" cx="95.878" cy="-156.979" r="1.465"/>
<circle opacity="0.5" fill="#AFA69C" cx="116.105" cy="-144.391" r="1.465"/>
<circle opacity="0.5" fill="#AFA69C" cx="116.105" cy="-162.302" r="1.465"/>
<path opacity="0.5" fill="#D4CCC4" d="M40.385-91.718c4.12,5.258,15.173,8.078,19.442,7.07c3.091-0.729,9.355-16.637,10.136-21.222
	c0.716-4.208-15.11-18.219-24.173-14.102C37.944-116.408,36.642-96.495,40.385-91.718z"/>
<circle opacity="0.5" fill="#AFA69C" cx="48.56" cy="-112.903" r="1.464"/>
<circle opacity="0.5" fill="#AFA69C" cx="64.082" cy="-104.863" r="1.464"/>
<circle opacity="0.5" fill="#AFA69C" cx="43.253" cy="-95.749" r="1.464"/>
<path opacity="0.5" fill="#D4CCC4" d="M58.497-224.513c-5.471-3.833-18.974,6.663-20.318,10.839
	c-1.489,4.622,3.411,19.475,7.141,22.255c4.654,3.47,20.834-1.293,24.424-10.58C72.854-210.034,65.124-219.871,58.497-224.513z"/>
<circle opacity="0.5" fill="#AFA69C" cx="49.265" cy="-195.326" r="1.465"/>
<circle opacity="0.5" fill="#AFA69C" cx="43.212" cy="-212.47" r="1.465"/>
<circle opacity="0.5" fill="#AFA69C" cx="64.96" cy="-205.363" r="1.465"/>
<path opacity="0.5" fill="#D4CCC4" d="M326.614-70.055c6.648-0.638,19.824-0.593,22.264,3.132c1.74,2.657,0.455,15.385-0.327,19.971
	c-0.72,4.209-12.507,12.252-21.937,11.132c-8.557-1.017-15.266-15.915-12.769-21.203C316.542-62.731,321.807-69.594,326.614-70.055z
	"/>
<circle opacity="0.5" fill="#AFA69C" cx="318.111" cy="-53.039" r="1.464"/>
<circle opacity="0.5" fill="#AFA69C" cx="343.068" cy="-62.996" r="1.464"/>
<circle opacity="0.5" fill="#AFA69C" cx="327.262" cy="-41.114" r="1.464"/>
<path opacity="0.5" fill="#D4CCC4" d="M422.05-56.166c3.514-5.681,9.34-11.786,13.787-11.572c3.172,0.153,11.41,2.391,14.661,5.718
	c2.983,3.054,2.463,19.231-1.138,23.874c-3.598,4.643-18.734,5.977-21.217,2.745C425.015-39.473,419.047-51.315,422.05-56.166z"/>
<circle opacity="0.5" fill="#AFA69C" cx="426.296" cy="-53.039" r="1.465"/>
<circle opacity="0.5" fill="#AFA69C" cx="446.523" cy="-40.45" r="1.464"/>
<circle opacity="0.5" fill="#AFA69C" cx="446.523" cy="-58.362" r="1.464"/>
<path opacity="0.5" fill="#D4CCC4" d="M370.804,12.223c4.119,5.258,15.172,8.078,19.441,7.069
	c3.092-0.73,9.355-16.636,10.137-21.222c0.715-4.209-15.11-18.219-24.174-14.102C368.362-12.468,367.06,7.445,370.804,12.223z"/>
<circle opacity="0.5" fill="#AFA69C" cx="378.979" cy="-8.963" r="1.464"/>
<circle opacity="0.5" fill="#AFA69C" cx="394.5" cy="-0.924" r="1.464"/>
<circle opacity="0.5" fill="#AFA69C" cx="373.671" cy="8.19" r="1.465"/>
<path opacity="0.5" fill="#D4CCC4" d="M388.915-120.573c-5.471-3.834-18.975,6.662-20.317,10.838
	c-1.489,4.623,3.409,19.476,7.14,22.255c4.654,3.47,20.836-1.293,24.426-10.579C403.271-106.095,395.542-115.931,388.915-120.573z"
	/>
<circle opacity="0.5" fill="#AFA69C" cx="379.683" cy="-91.387" r="1.464"/>
<circle opacity="0.5" fill="#AFA69C" cx="373.63" cy="-108.53" r="1.465"/>
<circle opacity="0.5" fill="#AFA69C" cx="395.378" cy="-101.423" r="1.464"/>
<path opacity="0.5" fill="#D4CCC4" d="M216.475-173.995c6.649-0.638,19.824-0.593,22.264,3.133
	c1.74,2.657,0.455,15.386-0.328,19.971c-0.719,4.208-12.506,12.251-21.936,11.132c-8.557-1.017-15.267-15.916-12.77-21.204
	C206.402-166.67,211.667-173.532,216.475-173.995z"/>
<circle opacity="0.5" fill="#AFA69C" cx="207.972" cy="-156.979" r="1.465"/>
<circle opacity="0.5" fill="#AFA69C" cx="232.929" cy="-166.937" r="1.465"/>
<circle opacity="0.5" fill="#AFA69C" cx="217.123" cy="-145.054" r="1.464"/>
<path opacity="0.5" fill="#D4CCC4" d="M311.909-160.105c3.516-5.68,9.34-11.786,13.788-11.573
	c3.173,0.154,11.411,2.392,14.661,5.719c2.983,3.054,2.463,19.231-1.137,23.874c-3.6,4.641-18.736,5.977-21.218,2.744
	C314.875-143.413,308.907-155.254,311.909-160.105z"/>
<circle opacity="0.5" fill="#AFA69C" cx="316.156" cy="-156.979" r="1.464"/>
<circle opacity="0.5" fill="#AFA69C" cx="336.384" cy="-144.391" r="1.465"/>
<circle opacity="0.5" fill="#AFA69C" cx="336.384" cy="-162.302" r="1.465"/>
<path opacity="0.5" fill="#D4CCC4" d="M260.664-91.718c4.12,5.258,15.172,8.078,19.442,7.07c3.092-0.729,9.355-16.637,10.136-21.222
	c0.716-4.208-15.11-18.219-24.173-14.102C258.223-116.408,256.92-96.495,260.664-91.718z"/>
<circle opacity="0.5" fill="#AFA69C" cx="268.838" cy="-112.903" r="1.464"/>
<circle opacity="0.5" fill="#AFA69C" cx="284.36" cy="-104.863" r="1.464"/>
<circle opacity="0.5" fill="#AFA69C" cx="263.531" cy="-95.749" r="1.464"/>
<path opacity="0.5" fill="#D4CCC4" d="M278.775-224.513c-5.47-3.833-18.973,6.663-20.317,10.839
	c-1.489,4.622,3.411,19.475,7.141,22.255c4.655,3.47,20.835-1.293,24.425-10.58C293.132-210.034,285.402-219.871,278.775-224.513z"
	/>
<circle opacity="0.5" fill="#AFA69C" cx="269.544" cy="-195.326" r="1.465"/>
<circle opacity="0.5" fill="#AFA69C" cx="263.49" cy="-212.47" r="1.465"/>
<circle opacity="0.5" fill="#AFA69C" cx="285.239" cy="-205.363" r="1.464"/>
<path opacity="0.5" fill="#D4CCC4" d="M546.893-70.055c6.649-0.638,19.824-0.593,22.265,3.132
	c1.739,2.657,0.455,15.385-0.328,19.971c-0.719,4.209-12.507,12.252-21.937,11.132c-8.556-1.017-15.267-15.915-12.769-21.203
	C536.82-62.731,542.086-69.594,546.893-70.055z"/>
<circle opacity="0.5" fill="#AFA69C" cx="538.39" cy="-53.039" r="1.465"/>
<circle opacity="0.5" fill="#AFA69C" cx="563.347" cy="-62.996" r="1.464"/>
<circle opacity="0.5" fill="#AFA69C" cx="547.541" cy="-41.114" r="1.465"/>
<path opacity="0.5" fill="#D4CCC4" d="M642.327-56.166c3.515-5.681,9.341-11.786,13.788-11.572
	c3.174,0.153,11.41,2.391,14.661,5.718c2.983,3.054,2.463,19.231-1.137,23.874c-3.6,4.643-18.734,5.977-21.218,2.745
	C645.293-39.473,639.325-51.315,642.327-56.166z"/>
<circle opacity="0.5" fill="#AFA69C" cx="646.575" cy="-53.039" r="1.464"/>
<circle opacity="0.5" fill="#AFA69C" cx="666.802" cy="-40.45" r="1.465"/>
<circle opacity="0.5" fill="#AFA69C" cx="666.802" cy="-58.362" r="1.465"/>
<path opacity="0.5" fill="#D4CCC4" d="M591.081,12.223c4.12,5.258,15.174,8.078,19.442,7.069c3.092-0.73,9.355-16.636,10.136-21.222
	c0.717-4.209-15.109-18.219-24.173-14.102C588.641-12.468,587.338,7.445,591.081,12.223z"/>
<circle opacity="0.5" fill="#AFA69C" cx="599.257" cy="-8.963" r="1.464"/>
<circle opacity="0.5" fill="#AFA69C" cx="614.778" cy="-0.924" r="1.464"/>
<circle opacity="0.5" fill="#AFA69C" cx="593.95" cy="8.19" r="1.463"/>
<path opacity="0.5" fill="#D4CCC4" d="M609.194-120.573c-5.472-3.834-18.974,6.662-20.318,10.838
	c-1.49,4.623,3.411,19.476,7.141,22.255c4.654,3.47,20.835-1.293,24.426-10.579C623.55-106.095,615.821-115.931,609.194-120.573z"/>
<circle opacity="0.5" fill="#AFA69C" cx="599.962" cy="-91.387" r="1.465"/>
<circle opacity="0.5" fill="#AFA69C" cx="593.908" cy="-108.53" r="1.465"/>
<circle opacity="0.5" fill="#AFA69C" cx="615.658" cy="-101.423" r="1.464"/>
<path opacity="0.5" fill="#D4CCC4" d="M436.753-173.995c6.649-0.638,19.824-0.593,22.264,3.133
	c1.742,2.657,0.455,15.386-0.327,19.971c-0.718,4.208-12.507,12.251-21.937,11.132c-8.557-1.017-15.266-15.916-12.769-21.204
	C426.681-166.67,431.946-173.532,436.753-173.995z"/>
<circle opacity="0.5" fill="#AFA69C" cx="428.25" cy="-156.979" r="1.464"/>
<circle opacity="0.5" fill="#AFA69C" cx="453.208" cy="-166.937" r="1.464"/>
<circle opacity="0.5" fill="#AFA69C" cx="437.401" cy="-145.054" r="1.465"/>
<path opacity="0.5" fill="#D4CCC4" d="M532.188-160.105c3.516-5.68,9.341-11.786,13.788-11.573
	c3.174,0.154,11.41,2.392,14.661,5.719c2.984,3.054,2.463,19.231-1.137,23.874c-3.6,4.641-18.734,5.977-21.218,2.744
	C535.154-143.413,529.186-155.254,532.188-160.105z"/>
<circle opacity="0.5" fill="#AFA69C" cx="536.435" cy="-156.979" r="1.465"/>
<circle opacity="0.5" fill="#AFA69C" cx="556.663" cy="-144.391" r="1.465"/>
<circle opacity="0.5" fill="#AFA69C" cx="556.663" cy="-162.302" r="1.465"/>
<path opacity="0.5" fill="#D4CCC4" d="M480.942-91.718c4.119,5.258,15.173,8.078,19.441,7.07
	c3.092-0.729,9.355-16.637,10.136-21.222c0.717-4.208-15.109-18.219-24.173-14.102C478.501-116.408,477.198-96.495,480.942-91.718z"
	/>
<circle opacity="0.5" fill="#AFA69C" cx="489.118" cy="-112.903" r="1.464"/>
<circle opacity="0.5" fill="#AFA69C" cx="504.639" cy="-104.863" r="1.464"/>
<circle opacity="0.5" fill="#AFA69C" cx="483.81" cy="-95.749" r="1.463"/>
<path opacity="0.5" fill="#D4CCC4" d="M499.055-224.513c-5.472-3.833-18.974,6.663-20.319,10.839
	c-1.488,4.622,3.412,19.475,7.142,22.255c4.654,3.47,20.835-1.293,24.425-10.58C513.41-210.034,505.681-219.871,499.055-224.513z"/>
<circle opacity="0.5" fill="#AFA69C" cx="489.822" cy="-195.326" r="1.465"/>
<circle opacity="0.5" fill="#AFA69C" cx="483.769" cy="-212.47" r="1.465"/>
<circle opacity="0.5" fill="#AFA69C" cx="505.518" cy="-205.363" r="1.464"/>
</svg>
