<?xml version="1.0" encoding="utf-8"?>
<!-- Generator: Adobe Illustrator 15.0.2, SVG Export Plug-In . SVG Version: 6.00 Build 0)  -->
<!DOCTYPE svg PUBLIC "-//W3C//DTD SVG 1.1//EN" "http://www.w3.org/Graphics/SVG/1.1/DTD/svg11.dtd">
<svg version="1.1" id="Layer_1" xmlns="http://www.w3.org/2000/svg" xmlns:xlink="http://www.w3.org/1999/xlink" x="0px" y="0px"
	 width="46.5px" height="32px" viewBox="-14.5 0 46.5 32" enable-background="new -14.5 0 46.5 32" xml:space="preserve">
<g>
	<path fill="#FFFFFF" d="M15.998,30.447c-0.347,0-0.698-0.014-1.048-0.036c-3.309-0.229-6.477-1.598-8.923-3.841
		C0.044,21.08-0.36,11.746,5.128,5.763c3.019-3.291,7.397-5.053,11.89-4.738c3.312,0.23,6.479,1.596,8.926,3.844
		c2.896,2.654,4.589,6.284,4.757,10.215c0.172,3.932-1.203,7.695-3.869,10.596C24.055,28.708,20.105,30.447,15.998,30.447z"/>
	<path opacity="0.75" fill="#D9D9D9" enable-background="new    " d="M31.531,15.712c0,8.577-6.955,15.529-15.532,15.529
		s-15.53-6.952-15.53-15.529H31.531z"/>
	<path fill="#FF1A15" stroke="#CC1511" stroke-width="1.6205" stroke-miterlimit="10" d="M22.535,8.577
		c3.951,3.617,4.217,9.75,0.592,13.697c-3.613,3.939-9.748,4.206-13.694,0.586C5.491,19.24,5.225,13.11,8.842,9.166
		C12.464,5.218,18.596,4.956,22.535,8.577z"/>
	<circle fill="#FFFFFF" cx="10.779" cy="9.504" r="3.664"/>
	<circle fill="#CC1511" cx="20.936" cy="22.488" r="1.992"/>
	<path fill="#A8A8A8" d="M15.998,31.258c-0.365,0-0.734-0.014-1.102-0.037c-3.488-0.244-6.832-1.683-9.417-4.053
		c-6.312-5.793-6.738-15.641-0.948-21.952c3.181-3.466,7.806-5.33,12.543-4.999c3.49,0.243,6.836,1.683,9.417,4.055
		c3.059,2.803,4.841,6.631,5.018,10.777c0.183,4.147-1.269,8.117-4.082,11.178C24.498,29.424,20.332,31.258,15.998,31.258z
		 M15.989,1.8c-3.893,0-7.634,1.645-10.264,4.512C0.54,11.964,0.92,20.785,6.575,25.973c2.315,2.123,5.31,3.412,8.432,3.629
		c4.22,0.289,8.38-1.363,11.226-4.471c2.521-2.742,3.819-6.299,3.658-10.013c-0.158-3.714-1.756-7.142-4.494-9.653
		c-2.312-2.125-5.309-3.415-8.436-3.633C16.636,1.811,16.312,1.8,15.989,1.8z"/>
</g>
<g>
	<path fill="#FF1A15" d="M-5.946,6.806l-2.973-2.974c-6.564,6.566-6.564,17.208,0.001,23.771l2.972-2.972
		C-10.871,19.711-10.872,11.728-5.946,6.806z"/>
	<path fill="#FF1A15" d="M-1.491,11.261l-2.97-2.971c-4.103,4.103-4.104,10.752,0.001,14.856l2.971-2.972
		C-3.952,17.713-3.953,13.722-1.491,11.261z"/>
</g>
</svg>
