<?xml version="1.0" encoding="utf-8"?>
<!-- Generator: Adobe Illustrator 15.0.2, SVG Export Plug-In . SVG Version: 6.00 Build 0)  -->
<!DOCTYPE svg PUBLIC "-//W3C//DTD SVG 1.1//EN" "http://www.w3.org/Graphics/SVG/1.1/DTD/svg11.dtd">
<svg version="1.1" id="Layer_1" xmlns="http://www.w3.org/2000/svg" xmlns:xlink="http://www.w3.org/1999/xlink" x="0px" y="0px"
	 width="34px" height="32px" viewBox="0 0 34 32" enable-background="new 0 0 34 32" xml:space="preserve">
<g>
	<path fill="#F52029" d="M33.669,30.691c0,0.693-0.562,1.256-1.256,1.256H1.586c-0.693,0-1.255-0.562-1.255-1.256V1.256
		C0.331,0.562,0.893,0,1.586,0h30.827c0.694,0,1.256,0.562,1.256,1.256V30.691z"/>
	<path fill="#E01D25" d="M33.669,30.691c0,0.693-0.562,1.256-1.256,1.256H17.006V0h15.407c0.694,0,1.256,0.562,1.256,1.256V30.691z"
		/>
</g>
<g>
	<path fill="#FFFFFF" d="M15.445,27.045c-0.034,0-0.083-0.004-0.117-0.011c-0.696-0.131-1.312-0.282-1.94-0.477
		c-2.632-0.938-4.221-2.376-4.743-4.28c-0.618-2.261,0.5-4.67,1.644-6.046c0.823-0.991,0.622-3.184,0.4-4.205
		c-0.048-0.221,0.073-0.539,0.255-0.671c0.104-0.078,0.244-0.125,0.384-0.125c0.095,0,0.231,0.035,0.314,0.08
		c0.894,0.518,1.497,1.153,1.897,1.816c-0.925-3.503,0.037-5.859,1.062-7.246c1.221-1.654,2.751-2.295,2.816-2.321
		c0.068-0.028,0.175-0.05,0.25-0.05c0.162,0,0.379,0.097,0.488,0.218c0.188,0.199,0.225,0.508,0.082,0.759
		c-2.002,3.802,0.213,7.206,1.672,8.864c0.497-2.674,3.396-3.87,3.431-3.883c0.065-0.025,0.166-0.044,0.236-0.044
		c0.219,0,0.422,0.109,0.544,0.292c0.169,0.26,0.14,0.592-0.066,0.812c-0.007,0.008-1.308,1.642,0.976,6.588
		c0.907,2.167,0.989,4.073,0.253,5.686c-0.991,2.174-3.214,3.294-4.904,3.851c-0.057,0.02-0.146,0.034-0.207,0.034
		c-0.259,0-0.492-0.153-0.597-0.39c-0.135-0.247-0.048-0.61,0.223-0.803c0.524-0.34,0.804-0.727,0.876-1.196
		c0.107-0.707-0.283-1.474-0.65-1.915c-0.074-0.09-0.139-0.185-0.194-0.284c0.039,0.203,0.09,0.34,0.097,0.357
		c0.11,0.288,0.002,0.619-0.259,0.786c-0.092,0.059-0.245,0.104-0.354,0.104c-0.175,0-0.339-0.068-0.463-0.192
		c-0.119-0.119-1.149-1.205-0.75-2.733c0.365-1.084,0.329-1.898,0.122-2.5c-0.211,2.173-2.082,3.703-2.107,3.722
		c-0.098,0.071-0.269,0.13-0.39,0.13c-0.098,0-0.238-0.037-0.323-0.085c-0.249-0.144-0.375-0.422-0.32-0.697
		c0.027-0.144,0.032-0.276,0.017-0.4c-0.103,0.553-0.311,1.216-0.677,2.01c-0.624,1.492-0.206,2.541,1.285,3.188
		c0.312,0.138,0.466,0.482,0.362,0.804C15.994,26.851,15.735,27.045,15.445,27.045z"/>
	<path fill="#BF1721" d="M17.668,4.079c0.023,0,0.046,0.01,0.063,0.028c0.025,0.026,0.031,0.066,0.013,0.098
		C15,9.414,19.486,13.844,20.446,14.707c-0.439-3.233,3.061-4.693,3.099-4.708c0.011-0.004,0.021-0.006,0.032-0.006
		c0.027,0,0.054,0.013,0.07,0.038c0.022,0.035,0.019,0.08-0.009,0.109c-0.017,0.017-1.641,1.766,0.875,7.215
		c0.835,1.996,0.92,3.748,0.252,5.211c-0.905,1.985-2.982,3.025-4.564,3.547c-0.01,0.003-0.02,0.005-0.029,0.005
		c-0.032,0-0.062-0.018-0.075-0.049c-0.021-0.038-0.006-0.084,0.031-0.11c0.641-0.415,1.012-0.944,1.108-1.574
		c0.136-0.893-0.312-1.809-0.775-2.365c-0.516-0.62-0.396-1.757-0.319-2.217c-1.442,0.989-0.777,2.779-0.748,2.856
		c0.015,0.038,0.002,0.082-0.033,0.104c-0.015,0.009-0.03,0.014-0.047,0.014c-0.021,0-0.044-0.009-0.061-0.025
		c-0.038-0.038-0.929-0.937-0.602-2.188c0.982-2.91-0.683-4.177-1.312-4.539c1.274,2.828-1.531,5.137-1.56,5.158
		c-0.016,0.013-0.035,0.02-0.054,0.02c-0.015,0-0.03-0.004-0.044-0.012c-0.032-0.019-0.048-0.056-0.041-0.09
		c0.232-1.208-0.701-1.895-1.17-2.158c0.181,0.434,0.344,1.449-0.564,3.418c-0.955,2.284,0.33,3.408,1.575,3.948
		c0.04,0.018,0.061,0.063,0.047,0.105c-0.011,0.037-0.045,0.062-0.083,0.062c-0.005,0-0.01,0-0.015-0.001
		c-0.658-0.124-1.252-0.269-1.874-0.461c-2.425-0.864-3.893-2.173-4.362-3.887c-0.56-2.049,0.476-4.261,1.533-5.532
		c1.224-1.473,0.526-4.658,0.519-4.689c-0.008-0.034,0.005-0.069,0.033-0.089c0.015-0.011,0.033-0.017,0.05-0.017
		c0.015,0,0.03,0.004,0.044,0.011c1.865,1.081,2.302,2.752,2.339,3.964c0.025,0.828-0.122,1.547-0.238,1.974
		c0.473-0.618,1.357-2.072,0.89-3.864c-1.29-3.81-0.333-6.272,0.696-7.666c1.116-1.512,2.515-2.109,2.574-2.133
		C17.646,4.081,17.657,4.079,17.668,4.079 M17.669,2.941L17.669,2.941c-0.161,0-0.353,0.041-0.5,0.106
		c-0.037,0.015-1.709,0.714-3.024,2.496c-0.891,1.206-1.74,3.087-1.504,5.75c-0.217-0.168-0.45-0.324-0.696-0.467
		c-0.174-0.1-0.414-0.165-0.615-0.165c-0.263,0-0.523,0.087-0.733,0.245c-0.389,0.281-0.574,0.783-0.456,1.268
		c0.235,1.086,0.307,2.977-0.289,3.693c-1.231,1.481-2.431,4.088-1.755,6.559c0.574,2.096,2.283,3.662,5.078,4.659
		c0.695,0.216,1.33,0.372,2.044,0.507c0.07,0.014,0.155,0.021,0.226,0.021c0.541,0,1.024-0.363,1.175-0.883
		c0.185-0.566-0.104-1.211-0.683-1.465c-1.212-0.525-1.496-1.24-0.982-2.467c0.092-0.199,0.175-0.392,0.249-0.577
		c0.16,0.073,0.355,0.117,0.521,0.117c0.268,0,0.529-0.089,0.742-0.251c0.226-0.168,0.594-0.513,0.973-0.993
		c-0.01,1.395,0.888,2.34,1.008,2.46c0.231,0.231,0.539,0.358,0.865,0.358c0.215,0,0.471-0.074,0.652-0.188
		c0.035-0.022,0.068-0.047,0.101-0.071c0.052,0.189,0.071,0.381,0.045,0.558c-0.029,0.189-0.124,0.48-0.603,0.79
		c-0.53,0.376-0.697,1.029-0.436,1.563c0.203,0.42,0.629,0.688,1.099,0.688c0.125,0,0.278-0.025,0.396-0.065
		c1.787-0.589,4.156-1.791,5.232-4.152c0.805-1.762,0.725-3.821-0.237-6.122c-2.091-4.53-1.064-6.03-1.054-6.044
		c-0.031,0.042-0.054,0.06-0.055,0.062c0.4-0.429,0.454-1.047,0.147-1.521c-0.235-0.354-0.616-0.557-1.025-0.557
		c-0.14,0-0.311,0.032-0.441,0.082c-0.86,0.331-2.636,1.411-3.446,3.233c-1.254-1.71-2.511-4.449-0.938-7.435
		c0.249-0.437,0.18-1.017-0.192-1.41C18.349,3.09,18.017,2.941,17.669,2.941L17.669,2.941z"/>
</g>
</svg>
