<?xml version="1.0" encoding="utf-8"?>
<!-- Generator: Adobe Illustrator 15.0.2, SVG Export Plug-In . SVG Version: 6.00 Build 0)  -->
<!DOCTYPE svg PUBLIC "-//W3C//DTD SVG 1.1//EN" "http://www.w3.org/Graphics/SVG/1.1/DTD/svg11.dtd">
<svg version="1.1" id="Layer_1" xmlns="http://www.w3.org/2000/svg" xmlns:xlink="http://www.w3.org/1999/xlink" x="0px" y="0px"
	 width="32px" height="32.25px" viewBox="0 0 32 32.25" enable-background="new 0 0 32 32.25" xml:space="preserve">
<path fill="#EAEAEA" d="M9.817,7.054c0-0.59,0.467-1.123,1.183-1.347c0.716-0.227,1.539-0.103,2.088,0.316l11.494,8.754
	c0.376,0.287,0.561,0.66,0.561,1.033s-0.185,0.746-0.561,1.032L13.088,25.6c-0.549,0.418-1.373,0.543-2.088,0.316
	c-0.716-0.227-1.183-0.759-1.183-1.346V7.054z"/>
<path fill="#EAEAEA" d="M15.875,1.782c7.932,0,14.363,6.431,14.363,14.363s-6.432,14.363-14.363,14.363
	c-7.933,0-14.363-6.432-14.363-14.363C1.512,8.213,7.942,1.782,15.875,1.782 M15.875,0.271C7.122,0.271,0,7.392,0,16.146
	C0,24.9,7.122,32.021,15.875,32.021c8.754,0,15.875-7.121,15.875-15.875C31.75,7.392,24.629,0.271,15.875,0.271L15.875,0.271z"/>
</svg>
