<?xml version="1.0" encoding="utf-8"?>
<!-- Generator: Adobe Illustrator 15.0.2, SVG Export Plug-In . SVG Version: 6.00 Build 0)  -->
<!DOCTYPE svg PUBLIC "-//W3C//DTD SVG 1.1//EN" "http://www.w3.org/Graphics/SVG/1.1/DTD/svg11.dtd">
<svg version="1.1" id="Layer_1" xmlns="http://www.w3.org/2000/svg" xmlns:xlink="http://www.w3.org/1999/xlink" x="0px" y="0px"
	 width="393.5px" height="104.5px" viewBox="0 0 393.5 104.5" enable-background="new 0 0 393.5 104.5" xml:space="preserve">
<text transform="matrix(1 0 0 1 -0.1416 80.2871)"><tspan x="0" y="0" fill="#2D2D2D" font-family="'Hero'" font-size="95.5933" letter-spacing="-7">p</tspan><tspan x="51.333" y="0" fill="#2D2D2D" font-family="'Hero'" font-size="95.5933" letter-spacing="-6">e</tspan><tspan x="104.004" y="0" fill="#2D2D2D" font-family="'Hero'" font-size="95.5933" letter-spacing="-7">e</tspan><tspan x="155.241" y="0" fill="#2D2D2D" font-family="'Hero'" font-size="95.5933" letter-spacing="-5">p</tspan><tspan x="208.964" y="0" fill="#2D2D2D" font-family="'Hero'" font-size="95.5933" letter-spacing="-6">o</tspan><tspan x="260.679" y="0" fill="#2D2D2D" font-family="'Hero'" font-size="95.5933">l</tspan></text>
<path fill="#2D2D2D" d="M315.821,31.085v-11.09c0-4.492-6.883-4.588-6.883,0v11.09h-6.309c-4.209,0-4.494,6.023,0,6.023h6.309
	v25.811c0,9.082,2.771,17.494,14.244,17.494c2.58,0,4.971-0.285,7.361-1.625c4.303-2.389,1.146-8.029-2.869-5.736
	c-0.955,0.574-3.059,1.053-4.492,1.053c-6.502,0-7.361-5.736-7.361-11.186V37.108h13.94l21.018,41.488
	c1.816,3.154,5.066,2.391,6.309-0.096l20.834-41.393h8.498c4.303,0,4.303-6.023,0-6.023c0,0-5.564,0-9.397,0
	c-4.14,0-4.983,3.002-4.983,3.002l-18.01,35.621c-6.637-13.182-11.384-22.599-17.907-35.646c0,0-1.062-2.979-4.5-2.979
	S315.821,31.085,315.821,31.085z"/>
<g>
	<path fill="#2D2D2D" d="M291.539,80.568c-0.366,0-0.733-0.016-1.102-0.036c-3.481-0.247-6.819-1.681-9.395-4.042
		c-6.297-5.779-6.72-15.604-0.944-21.9c3.178-3.463,7.785-5.315,12.516-4.987c3.482,0.244,6.818,1.678,9.395,4.045
		c3.047,2.793,4.826,6.613,5.002,10.752c0.178,4.137-1.264,8.098-4.068,11.15C300.017,78.738,295.863,80.568,291.539,80.568z"/>
	<path fill="#FFFFFF" d="M291.502,76.068c-0.267,0-0.529-0.012-0.8-0.026c-2.533-0.18-4.964-1.223-6.838-2.942
		c-4.583-4.206-4.893-11.355-0.688-15.939c2.315-2.521,5.666-3.869,9.111-3.63c2.533,0.177,4.962,1.222,6.837,2.944
		c2.218,2.032,3.514,4.812,3.644,7.826c0.127,3.011-0.923,5.893-2.963,8.115C297.676,74.736,294.65,76.068,291.502,76.068z"/>
	<path fill="#FF1A15" d="M297.296,58.557c3.498,3.203,3.729,8.627,0.523,12.119c-3.197,3.492-8.627,3.724-12.118,0.521
		c-3.492-3.204-3.726-8.628-0.524-12.118C288.383,55.584,293.81,55.352,297.296,58.557z"/>
</g>
</svg>
