<?xml version="1.0" encoding="utf-8"?>
<!-- Generator: Adobe Illustrator 15.0.2, SVG Export Plug-In . SVG Version: 6.00 Build 0)  -->
<!DOCTYPE svg PUBLIC "-//W3C//DTD SVG 1.1//EN" "http://www.w3.org/Graphics/SVG/1.1/DTD/svg11.dtd">
<svg version="1.1" id="Layer_1" xmlns="http://www.w3.org/2000/svg" xmlns:xlink="http://www.w3.org/1999/xlink" x="0px" y="0px"
	 width="195.905px" height="194.905px" viewBox="0 0 195.905 194.905" enable-background="new 0 0 195.905 194.905"
	 xml:space="preserve">
<g>
	<g>
		<path fill="#5C0778" d="M195,167.916C195,181.941,183.099,194,169.271,194H25.986C12.158,194,1,181.941,1,167.916V25.345
			C1,11.321,12.158,0,25.986,0h143.285C183.099,0,195,11.321,195,25.345V167.916z"/>
		<path fill="#FFFFFF" d="M182,164.226c0,9.264-7.51,16.774-16.774,16.774H31.774C22.51,181,15,173.49,15,164.226V30.774
			C15,21.51,22.51,14,31.774,14h133.451C174.49,14,182,21.51,182,30.774V164.226z"/>
	</g>
	<g>
		<path fill="#5C0778" d="M145.398,98.799c-0.524,0-1.049-0.021-1.577-0.051c-4.979-0.353-9.754-2.404-13.438-5.783
			c-9.008-8.269-9.612-22.321-1.352-31.33c4.546-4.954,11.138-7.604,17.904-7.134c4.982,0.349,9.754,2.402,13.438,5.787
			c4.36,3.995,6.905,9.461,7.157,15.382c0.255,5.918-1.808,11.583-5.821,15.952C157.526,96.182,151.584,98.799,145.398,98.799z
			 M145.354,57.57c-5.383,0-10.364,2.191-14.016,6.177c-7.098,7.736-6.576,19.812,1.162,26.913c3.159,2.904,7.262,4.67,11.537,4.97
			c5.89,0.411,11.421-1.811,15.368-6.118c3.45-3.76,5.231-8.622,5.007-13.707c-0.223-5.087-2.404-9.778-6.153-13.211
			c-3.163-2.912-7.265-4.676-11.544-4.978C146.261,57.588,145.804,57.57,145.354,57.57z"/>
		<path fill="#5C0778" d="M99.721,128.249L99.721,128.249L99.721,128.249L99.721,128.249L99.721,128.249
			c-0.03,0.001-31.017,0.855-50.777-15.61l0.013,5.64c0,0,18.968,20.698,50.783,20.638l0,0l0,0l0,0l0,0
			c31.819-0.061,50.708-20.838,50.708-20.838l-0.006-5.639C130.744,128.982,99.747,128.25,99.721,128.249z"/>
		<path fill="#FF1A15" d="M154.025,67.192c5.22,4.778,5.566,12.875,0.78,18.087c-4.769,5.212-12.875,5.557-18.085,0.776
			c-5.211-4.782-5.561-12.878-0.783-18.086C140.724,62.754,148.821,62.409,154.025,67.192z"/>
		<path fill="#5C0778" d="M56.575,65.36c-5.664,0.246-10.397,3.742-12.521,8.607c-0.135,0.21-1.013,2.913-2.961,2.968
			c-4.688,0.132-9.384-8.964-10.987-10.63c-0.237-0.253-0.645-0.277-1.104-0.058c-1.162,0.553-2.228,1.557-2.446,2.128
			c-0.161,0.412-0.03,0.693,0.028,0.801c11.549,20.347,22.006,24.857,31.224,24.857c7.433,0,14.057-7.039,13.713-14.952
			C71.182,71.161,64.49,65.022,56.575,65.36z"/>
	</g>
</g>
</svg>
