<?xml version="1.0" encoding="utf-8"?>
<!-- Generator: Adobe Illustrator 15.0.2, SVG Export Plug-In . SVG Version: 6.00 Build 0)  -->
<!DOCTYPE svg PUBLIC "-//W3C//DTD SVG 1.1//EN" "http://www.w3.org/Graphics/SVG/1.1/DTD/svg11.dtd">
<svg version="1.1" id="Layer_1" xmlns="http://www.w3.org/2000/svg" xmlns:xlink="http://www.w3.org/1999/xlink" x="0px" y="0px"
	 width="32px" height="32px" viewBox="0 0 32 32" enable-background="new 0 0 32 32" xml:space="preserve">
<g>
	<g>
		<path fill="#2D2D2D" d="M31,26.396C31,28.505,28.38,31,26.301,31H4.763C2.685,31,1,28.505,1,26.396V4.966C1,2.858,2.685,1,4.763,1
			h21.538C28.38,1,31,2.858,31,4.966V26.396z"/>
		<path fill="#FFFFFF" d="M29,26.479C29,27.871,27.871,29,26.478,29H5.522C4.129,29,3,27.871,3,26.479V5.521
			C3,4.129,4.129,3,5.522,3h20.955C27.871,3,29,4.129,29,5.521V26.479z"/>
	</g>
	<g>
		<path fill="#2D2D2D" d="M22.876,16.007c-0.078,0-0.157-0.004-0.237-0.008c-0.749-0.053-1.466-0.361-2.021-0.869
			c-1.354-1.243-1.444-3.355-0.202-4.71c0.682-0.744,1.673-1.142,2.691-1.071c0.748,0.052,1.466,0.361,2.02,0.87
			c0.654,0.601,1.039,1.421,1.077,2.312c0.037,0.89-0.272,1.741-0.876,2.397C24.698,15.614,23.806,16.007,22.876,16.007z
			 M22.869,9.81c-0.81,0-1.56,0.329-2.107,0.929c-1.065,1.163-0.987,2.978,0.176,4.045c0.475,0.436,1.093,0.702,1.733,0.746
			c0.885,0.062,1.717-0.272,2.31-0.919c0.52-0.565,0.788-1.296,0.754-2.061c-0.033-0.765-0.362-1.47-0.924-1.985
			c-0.479-0.438-1.095-0.703-1.736-0.748C23.005,9.812,22.937,9.81,22.869,9.81z"/>
		<path fill="#2D2D2D" d="M16.009,20.434L16.009,20.434L16.009,20.434L16.009,20.434L16.009,20.434
			c-0.004,0.001-4.662,0.128-7.632-2.345l0.001,0.847c0,0,2.852,3.11,7.633,3.102l0,0l0,0l0,0l0,0
			c4.784-0.009,7.622-3.133,7.622-3.133v-0.849C20.673,20.545,16.013,20.435,16.009,20.434z"/>
		<circle fill="#FF1A15" cx="22.872" cy="12.674" r="1.924"/>
		<path fill="#2D2D2D" d="M9.523,10.98c-0.851,0.038-1.562,0.562-1.881,1.294c-0.02,0.031-0.152,0.438-0.445,0.446
			c-0.705,0.02-1.411-1.348-1.651-1.597c-0.036-0.038-0.097-0.042-0.167-0.009c-0.174,0.083-0.334,0.233-0.367,0.32
			c-0.024,0.062-0.005,0.104,0.004,0.12c1.736,3.058,3.308,3.736,4.694,3.736c1.117,0,2.113-1.058,2.061-2.248
			C11.72,11.852,10.714,10.93,9.523,10.98z"/>
	</g>
</g>
</svg>
