<?xml version="1.0" encoding="utf-8"?>
<!-- Generator: Adobe Illustrator 15.0.2, SVG Export Plug-In . SVG Version: 6.00 Build 0)  -->
<!DOCTYPE svg PUBLIC "-//W3C//DTD SVG 1.1//EN" "http://www.w3.org/Graphics/SVG/1.1/DTD/svg11.dtd">
<svg version="1.1" id="Layer_1" xmlns="http://www.w3.org/2000/svg" xmlns:xlink="http://www.w3.org/1999/xlink" x="0px" y="0px"
	 width="436.364px" height="109.09px" viewBox="0 0 436.364 109.09" enable-background="new 0 0 436.364 109.09"
	 xml:space="preserve">
<g>
	<path fill="#155263" d="M21.123,39.68c0-1.434-0.765-2.103-2.104-2.103H15.1v-7.935h8.699c4.302,0,5.927,1.816,5.927,4.875
		c0,1.434-0.096,2.581-0.096,2.581h0.191c0,0,4.015-8.604,16.06-8.604c13.001,0,21.318,10.325,21.318,25.333
		c0,15.391-9.368,25.332-21.987,25.332c-10.707,0-14.817-7.742-14.817-7.742h-0.191c0,0,0.191,1.721,0.191,4.205v21.51h-9.272V39.68
		z M43.779,71.227c7.647,0,13.957-6.31,13.957-17.303c0-10.516-5.641-17.303-13.671-17.303c-7.169,0-13.957,5.066-13.957,17.399
		C30.108,62.624,34.792,71.227,43.779,71.227z"/>
	<path fill="#155263" d="M94.346,28.495c13.575,0,20.84,10.133,20.84,22.656c0,1.244-0.286,3.824-0.286,3.824H79.625
		c0.573,10.324,8.03,16.156,16.634,16.156c8.317,0,14.148-5.641,14.148-5.641l4.015,6.597c0,0-7.169,7.073-18.641,7.073
		c-15.296,0-25.716-10.992-25.716-25.332C70.065,38.438,80.581,28.495,94.346,28.495z M105.626,48.188
		c-0.286-8.03-5.354-12.332-11.376-12.332c-7.074,0-12.81,4.302-14.243,12.332H105.626z"/>
	<path fill="#155263" d="M142.524,28.495c13.575,0,20.84,10.133,20.84,22.656c0,1.244-0.286,3.824-0.286,3.824h-35.275
		c0.573,10.324,8.03,16.156,16.634,16.156c8.317,0,14.148-5.641,14.148-5.641l4.015,6.597c0,0-7.169,7.073-18.641,7.073
		c-15.296,0-25.716-10.992-25.716-25.332C118.243,38.438,128.758,28.495,142.524,28.495z M153.804,48.188
		c-0.286-8.03-5.354-12.332-11.376-12.332c-7.074,0-12.81,4.302-14.243,12.332H153.804z"/>
	<path fill="#155263" d="M169.67,39.68c0-1.434-0.765-2.103-2.104-2.103h-3.919v-7.935h8.699c4.302,0,5.927,1.816,5.927,4.875
		c0,1.434-0.096,2.581-0.096,2.581h0.191c0,0,4.015-8.604,16.06-8.604c13.002,0,21.318,10.325,21.318,25.333
		c0,15.391-9.368,25.332-21.987,25.332c-10.707,0-14.817-7.742-14.817-7.742h-0.191c0,0,0.191,1.721,0.191,4.205v21.51h-9.272V39.68
		z M192.327,71.227c7.647,0,13.957-6.31,13.957-17.303c0-10.516-5.641-17.303-13.671-17.303c-7.169,0-13.957,5.066-13.957,17.399
		C178.656,62.624,183.34,71.227,192.327,71.227z"/>
	<path fill="#155263" d="M245.093,28.495c14.436,0,26.098,10.611,26.098,25.238c0,14.722-11.662,25.428-26.098,25.428
		c-14.435,0-26.002-10.706-26.002-25.428C219.091,39.106,230.659,28.495,245.093,28.495z M245.093,71.131
		c9.178,0,16.634-7.266,16.634-17.398c0-10.038-7.456-17.208-16.634-17.208c-9.081,0-16.538,7.17-16.538,17.208
		C228.555,63.866,236.012,71.131,245.093,71.131z"/>
	<path fill="#155263" d="M276.064,20.561c0-1.434-0.765-2.103-2.104-2.103h-3.919v-7.935h9.177c4.302,0,6.118,1.816,6.118,6.118
		v51.336c0,1.434,0.765,2.103,2.104,2.103h3.919v7.935h-9.177c-4.302,0-6.118-1.816-6.118-6.118V20.561z"/>
</g>
<g>
	<path fill="#155263" d="M363.379,37.099h-6.31v-7.457h6.501V16.354h9.082v13.288h11.566v7.457h-11.566v22.179
		c0,9.654,6.691,10.897,10.229,10.897c1.338,0,2.198-0.191,2.198-0.191v8.222c0,0-1.242,0.191-3.25,0.191
		c-6.118,0-18.45-1.912-18.45-18.068V37.099z"/>
	<path fill="#155263" d="M383.167,39.489c-0.573-1.434-1.434-1.912-2.964-1.912h-23.191v-7.935h27.016
		c4.302,0,5.927,1.051,7.361,4.875l10.42,27.818c0.956,2.677,1.721,6.309,1.721,6.309h0.191c0,0,0.765-3.632,1.721-6.309
		l10.324-27.818c1.434-3.824,3.154-4.875,7.36-4.875h6.495v7.935h-2.958c-1.625,0-2.581,0.478-3.154,1.912l-14.722,38.525H398.08
		L383.167,39.489z"/>
</g>
<g>
	<path fill="#FC3828" d="M326.899,77.801c5.186-9.318,3.829-21.301-4.087-29.217c-7.915-7.914-19.898-9.272-29.217-4.086
		c0,0-2.181,13.84,8.696,24.717C313.168,80.091,326.899,77.801,326.899,77.801z"/>
	<g>
		<path fill="#FC3828" d="M353.369,44.196c-0.407-2.137-1.021-4.219-1.844-6.244c-0.822-2.026-1.85-3.984-3.083-5.865
			c-1.233-1.887-2.675-3.652-4.318-5.295c-1.646-1.646-3.407-3.084-5.286-4.31c-1.88-1.232-3.832-2.254-5.855-3.071
			c-2.019-0.817-4.098-1.434-6.23-1.844c-2.132-0.412-4.274-0.622-6.424-0.633l-0.031,4.191c1.894-0.001,3.774,0.172,5.651,0.531
			c1.874,0.352,3.702,0.891,5.48,1.604c1.779,0.719,3.489,1.615,5.136,2.699c1.645,1.079,3.186,2.335,4.621,3.771
			c1.443,1.443,2.699,2.991,3.778,4.642c1.076,1.65,1.97,3.369,2.681,5.15c0.715,1.783,1.245,3.612,1.6,5.488
			c0.353,1.873,0.526,3.752,0.516,5.636l4.205-0.013C353.972,48.479,353.776,46.333,353.369,44.196z"/>
		<path fill="#FC3828" d="M331.486,39.429c-1.549-1.55-3.288-2.708-5.217-3.479c-1.926-0.772-3.909-1.16-5.945-1.172l-0.014,3.948
			c1.549-0.002,3.047,0.286,4.49,0.856c1.444,0.576,2.749,1.447,3.916,2.615c1.168,1.168,2.036,2.482,2.605,3.951
			c0.568,1.47,0.847,2.981,0.836,4.541l3.946-0.014c0.018-2.047-0.356-4.049-1.134-5.999
			C334.197,42.729,333.034,40.977,331.486,39.429z"/>
		<path fill="#FC3828" d="M343.212,41.313c-0.596-1.493-1.35-2.936-2.252-4.314c-0.906-1.385-1.958-2.678-3.162-3.882
			c-1.205-1.205-2.498-2.257-3.883-3.165c-1.379-0.899-2.815-1.652-4.302-2.25c-1.486-0.6-3.015-1.048-4.577-1.35
			c-1.564-0.303-3.135-0.446-4.712-0.438l-0.002,4.104c1.321-0.001,2.632,0.121,3.935,0.371c1.301,0.248,2.566,0.627,3.798,1.135
			c1.235,0.507,2.425,1.139,3.574,1.895c1.146,0.754,2.224,1.636,3.227,2.641c1.002,1.002,1.888,2.082,2.647,3.232
			c0.76,1.154,1.389,2.35,1.885,3.594c0.5,1.242,0.873,2.522,1.119,3.83c0.25,1.311,0.373,2.627,0.373,3.945l4.118-0.015
			c0.001-1.588-0.147-3.165-0.444-4.732C344.255,44.342,343.81,42.811,343.212,41.313z"/>
	</g>
	<path fill="#FC3828" d="M347.859,57.727c-1.308,3.489-3.343,6.948-6.146,9.752C331.191,78,314.072,78.003,303.55,67.482
		s-10.758-27.64-0.237-38.161c2.858-2.857,6.331-4.918,9.823-6.223v-4.004c-4.453,1.435-8.884,3.941-12.497,7.555
		c-11.995,11.996-11.877,31.514,0.118,43.51c11.996,11.996,31.574,11.99,43.57-0.006c3.555-3.555,6.072-7.975,7.537-12.426H347.859z
		"/>
</g>
</svg>
