<?xml version="1.0" encoding="utf-8"?>
<!-- Generator: Adobe Illustrator 15.0.2, SVG Export Plug-In . SVG Version: 6.00 Build 0)  -->
<!DOCTYPE svg PUBLIC "-//W3C//DTD SVG 1.1//EN" "http://www.w3.org/Graphics/SVG/1.1/DTD/svg11.dtd">
<svg version="1.1" id="Layer_1" xmlns="http://www.w3.org/2000/svg" xmlns:xlink="http://www.w3.org/1999/xlink" x="0px" y="0px"
	 width="30px" height="30px" viewBox="0 0 30 30" enable-background="new 0 0 30 30" xml:space="preserve">
<g id="Layer_1_1_">
</g>
<g id="icono">
	<g>
		<g>
			<g>
				<g>
					<defs>
						<circle id="SVGID_1_" cx="15" cy="15" r="13.199"/>
					</defs>
					<clipPath id="SVGID_2_">
						<use xlink:href="#SVGID_1_"  overflow="visible"/>
					</clipPath>
					<g clip-path="url(#SVGID_2_)">
						<g>
							<path fill="#776C62" d="M26.104,26.867c-1.257,0.152-0.095,0.971-0.095,0.971l0.476-1.01
								C26.353,26.848,26.238,26.848,26.104,26.867z"/>
						</g>
						<g>
							<path fill="#DED7D1" d="M26.01,27.838L26.01,27.838L26.01,27.838z"/>
						</g>
						<path fill="#776C62" d="M26.067,27.838"/>
						<g>
							<g>
								<path fill="#776C62" d="M12.733,23.4c3.771-4.457,10.705-0.686,13.639,3.275c0.113,0.152-0.362,1.162-0.362,1.162
									l-0.952,1.943c0,0,1.732,0.877,1.181,1.543C23.896,34.105,12.733,23.4,12.733,23.4z"/>
							</g>
							<polygon fill="#776C62" points="4.086,28.943 11.857,30.715 12.028,32.619 4.447,33.248 							"/>
							<path fill="#ACA095" d="M6.714,16.811c0.344-2.61,1.296-4.763,2.839-5.658c4.495-2.629,8.819,1.791,8.819,1.791l1.79,2.742
								l-5.639,0.457l1.886,3.354C23,18.943,19.8,32.391,14.2,32.848C7.096,33.438,5.8,23.514,6.714,16.811z"/>
							<path fill="#FBB034" d="M9.647,16.562c0.286-2.115,1.048-3.848,2.286-4.572c3.619-2.114,7.124,1.448,7.124,1.448l1.447,2.21
								l-4.553,0.381L9.647,16.562z"/>
							<polygon fill="#EF4135" points="26.771,15.153 18.467,12.943 17.8,15.895 							"/>
							<path fill="#ACA095" d="M26.771,15.153c0,0-6.095,0.305-8.628-0.781L17.8,15.895L26.771,15.153z"/>
							<path fill="#696664" d="M16.429,14.295c-0.076-1.009-0.972-1.752-1.962-1.676c-1.01,0.077-1.753,0.972-1.677,1.962"/>
							<circle fill="#FFFFFF" cx="13.914" cy="13.591" r="0.305"/>
							<g>
								<path fill="#8C8179" d="M6.485,22.01c6.038-0.496,8.229,7.676,7.22,12.514c-0.267,1.238-1.029-0.076-1.029-0.076
									s0.743,2.115-0.229,2.553c-0.952,0.438-1.771-1.771-1.771-1.771s0.61,1.848-0.267,1.924
									C6.81,37.477,6.485,22.01,6.485,22.01z"/>
							</g>
							<g>
								<circle fill="#FFFFFF" cx="23.419" cy="28.124" r="0.438"/>
							</g>
							<g>
								<path fill="#776C62" d="M23.515,27.895c-0.496,0.857,1.371,1.811,1.581,1.906l0.914-1.963
									C26.01,27.838,24.028,26.98,23.515,27.895z"/>
							</g>
							<path fill="#696664" d="M10.904,12.505l-0.019-0.267l7.048-0.59l0.019,0.267c0.152,1.943-1.295,3.658-3.238,3.81
								C12.771,15.895,11.076,14.448,10.904,12.505z M11.477,12.714c0.267,1.505,1.638,2.61,3.199,2.477
								c1.562-0.133,2.743-1.429,2.763-2.972L11.477,12.714z"/>
							<path fill="#FFFFFF" d="M15.438,23.99c-0.058-0.59,0.381-1.104,0.971-1.143c0.591-0.057,1.105,0.381,1.144,0.971
								c0.058,0.592-0.381,1.105-0.972,1.145C16.01,25.02,15.495,24.58,15.438,23.99z M15.972,23.953
								c0.02,0.285,0.285,0.514,0.571,0.494s0.515-0.285,0.495-0.57c-0.02-0.287-0.285-0.516-0.571-0.496
								S15.952,23.648,15.972,23.953z"/>
							
								<rect x="10.607" y="16.728" transform="matrix(0.3338 -0.9427 0.9427 0.3338 -13.3993 24.8398)" fill="#FFFFFF" width="0.532" height="10.344"/>
							
								<rect x="15.474" y="20.776" transform="matrix(0.4189 -0.908 0.908 0.4189 -8.7491 28.414)" fill="#FFFFFF" width="4.704" height="0.534"/>
							<g>
								
									<rect x="7.25" y="10.127" transform="matrix(0.9004 -0.4351 0.4351 0.9004 -3.688 5.4593)" fill="#EF4135" width="5.657" height="1.314"/>
							</g>
							<g>
								<path fill="#FBB034" d="M12.048,9.096c-0.591-1.238-2.096-1.752-3.334-1.162c-1.237,0.59-1.752,2.095-1.161,3.333"/>
							</g>
							<g>
								<path fill="#FBB034" d="M7.553,11.267c-0.591-1.238-0.076-2.724,1.161-3.333c1.238-0.59,2.725-0.076,3.334,1.162"/>
							</g>
							<g>
								<path fill="#F68F75" d="M12.048,9.096c-0.591-1.238-2.096-1.752-3.334-1.162c-1.237,0.59-1.752,2.095-1.161,3.333"/>
							</g>
							<g>
								<circle fill="#EF4135" cx="8.447" cy="7.4" r="0.914"/>
							</g>
						</g>
					</g>
				</g>
			</g>
		</g>
		<g>
			<g>
				<circle fill="none" stroke="#FECD85" stroke-width="2" stroke-miterlimit="10" cx="15" cy="15" r="13.199"/>
			</g>
		</g>
	</g>
</g>
</svg>
