<?xml version="1.0" encoding="utf-8"?>
<!-- Generator: Adobe Illustrator 15.0.2, SVG Export Plug-In . SVG Version: 6.00 Build 0)  -->
<!DOCTYPE svg PUBLIC "-//W3C//DTD SVG 1.1//EN" "http://www.w3.org/Graphics/SVG/1.1/DTD/svg11.dtd">
<svg version="1.1" id="Layer_1" xmlns="http://www.w3.org/2000/svg" xmlns:xlink="http://www.w3.org/1999/xlink" x="0px" y="0px"
	 width="1804px" height="932px" viewBox="0 0 1804 932" enable-background="new 0 0 1804 932" xml:space="preserve">
<rect x="2.906" y="142" fill="#F6921E" width="1800" height="647.998"/>
<circle fill="#FFEAC5" cx="1123.255" cy="412.382" r="2.178"/>
<path fill="#FAAF40" d="M1436.802,219.027c-88.281,0-159.848,71.566-159.848,159.848h319.695
	C1596.649,290.594,1525.083,219.027,1436.802,219.027z"/>
<path fill="#52C1B7" d="M1321.146,473.143c-66.404,0-72.545,42.311-7.562,42.311c67.936,0,35.174,35.702,83.947,35.702
	c36.822,0,175.672-31.731,175.672-55.019c0-20.027-37.1-22.994-84.623-22.994C1470.429,473.143,1364.741,473.143,1321.146,473.143z"
	/>
<path fill="#52C1B7" d="M428.144,752.951c179.973,0,269.992,39.049,402.787,39.049H167.519
	C167.519,792,248.171,752.951,428.144,752.951z"/>
<path fill="#52C1B7" d="M1571.739,736.238c-103.818,0-312.061,55.762-312.061,55.762h533.234
	C1792.913,792,1733.144,736.238,1571.739,736.238z"/>
<g>
	<g>
		<rect x="610.004" y="683.303" fill="#FAAF40" width="3" height="28.785"/>
	</g>
	<g>
		<rect x="616.719" y="683.303" fill="#FAAF40" width="3" height="28.785"/>
	</g>
	<g>
		<rect x="623.433" y="683.303" fill="#FAAF40" width="3" height="28.785"/>
	</g>
	<g>
		<rect x="630.147" y="683.303" fill="#FAAF40" width="3" height="28.785"/>
	</g>
	<g>
		<rect x="636.862" y="683.303" fill="#FAAF40" width="3" height="28.785"/>
	</g>
	<g>
		<rect x="643.576" y="683.303" fill="#FAAF40" width="3" height="28.785"/>
	</g>
	<g>
		<rect x="650.291" y="683.303" fill="#FAAF40" width="3" height="28.785"/>
	</g>
	<g>
		<rect x="657.005" y="683.303" fill="#FAAF40" width="3" height="28.785"/>
	</g>
	<g>
		<rect x="663.72" y="683.303" fill="#FAAF40" width="3" height="28.785"/>
	</g>
	<g>
		<rect x="670.435" y="683.303" fill="#FAAF40" width="3" height="28.785"/>
	</g>
	<g>
		<rect x="677.149" y="683.303" fill="#FAAF40" width="3" height="28.785"/>
	</g>
	<g>
		<rect x="683.863" y="683.303" fill="#FAAF40" width="3" height="28.785"/>
	</g>
	<g>
		<rect x="690.578" y="683.303" fill="#FAAF40" width="3" height="28.785"/>
	</g>
	<g>
		<rect x="697.292" y="683.303" fill="#FAAF40" width="3" height="28.785"/>
	</g>
	<g>
		<rect x="704.007" y="683.303" fill="#FAAF40" width="3" height="28.785"/>
	</g>
	<g>
		<rect x="710.722" y="683.303" fill="#FAAF40" width="3" height="28.785"/>
	</g>
	<g>
		<rect x="717.436" y="683.303" fill="#FAAF40" width="3" height="28.785"/>
	</g>
	<g>
		<rect x="724.15" y="683.303" fill="#FAAF40" width="3" height="28.785"/>
	</g>
</g>
<g>
	<path fill="none" stroke="#FAAF40" stroke-width="3" stroke-miterlimit="10" d="M899.679,634.494"/>
</g>
<path fill="#FAAF40" d="M618.906,610.482c-5.094,0-10.359-0.372-15.711-0.973v-27.018h-3v26.659
	c-1.235-0.156-2.473-0.32-3.715-0.497v-26.162h-3v25.717c-1.236-0.189-2.475-0.389-3.714-0.593v-25.124h-3v24.619
	c-1.238-0.213-2.477-0.431-3.715-0.652v-23.967h-3v23.424c-1.24-0.227-2.479-0.455-3.715-0.686v-22.738h-3v22.18
	c-0.008-0.002-0.017-0.004-0.024-0.005c-1.237-0.231-2.466-0.46-3.689-0.687v-21.488h-3v20.936
	c-1.248-0.229-2.487-0.451-3.715-0.668v-20.268h-3v19.748c-8.443-1.43-16.312-2.471-23.111-2.471v3
	c10.016,0,22.62,2.354,35.965,4.847c6.854,1.28,13.812,2.578,20.719,3.628v0.031h0.215c8.582,1.298,17.084,2.207,25.211,2.207
	V610.482z"/>
<circle fill="#FAAF40" cx="489.775" cy="680.26" r="4.305"/>
<circle fill="#FAAF40" cx="72.578" cy="730.828" r="4.305"/>
<circle fill="#FAAF40" cx="259.373" cy="666.598" r="4.305"/>
<circle fill="#FAAF40" cx="277.234" cy="670.902" r="4.305"/>
<circle fill="#FAAF40" cx="52.026" cy="489" r="4.305"/>
<circle fill="#FAAF40" cx="67.155" cy="489.01" r="4.305"/>
<circle fill="#FAAF40" cx="1345.952" cy="537.152" r="4.305"/>
<circle fill="#FAAF40" cx="1111.249" cy="754.613" r="4.305"/>
<circle fill="#FAAF40" cx="1120.149" cy="766.082" r="4.305"/>
<circle fill="#FAAF40" cx="1479.888" cy="613.381" r="4.305"/>
<circle fill="#FAAF40" cx="269.227" cy="662.293" r="2.178"/>
<circle fill="#FAAF40" cx="56.201" cy="500.877" r="2.178"/>
<circle fill="#FAAF40" cx="1123.255" cy="756.791" r="2.178"/>
<circle fill="#FAAF40" cx="1731.218" cy="533.24" r="4.305"/>
<circle fill="#FAAF40" cx="1741.11" cy="524.299" r="4.305"/>
<circle fill="#FAAF40" cx="1744.626" cy="535.83" r="2.178"/>
<circle fill="#FAAF40" cx="1335.771" cy="541.992" r="2.178"/>
<path fill="#F26F21" d="M247.349,362.883h-44.537c0.481-0.633,0.969-1.26,1.43-1.908c1.559-2.178,2.982-4.449,4.282-6.788
	c4.301-0.79,20.596-4.825,22.27-20.479c1.968-1.027,3.665-2.501,4.96-4.287c0.845,0.318,1.751,0.514,2.706,0.514
	c3.951,0,7.173-2.99,7.606-6.83h-62.204c0.416,2.527,2.59,4.457,5.231,4.457c0.419,0,0.82-0.061,1.214-0.152
	c2.565,4.215,7.189,7.041,12.486,7.041c0.697,0,1.379-0.062,2.051-0.158c1.403,2.622,4.059,4.455,7.182,4.672
	c-2.39,7.204-5.924,13.996-10.504,20.018c-1.016,1.342-2.092,2.633-3.194,3.902h-11.985c0.084,3.266,1.468,6.207,3.652,8.326
	c-3.039,2.654-6.242,5.133-9.572,7.43c-7.967,5.543-16.587,10.109-25.311,14.693c-4.361,2.318-8.77,4.602-13.081,7.414
	c-1.239,0.822-2.47,1.701-3.672,2.68v-17.927c0.295-2.368,1.1-4.905,2.077-7.376c1.315-3.279,2.975-6.531,4.731-9.758
	c3.532-6.451,7.47-12.816,11.19-19.344c3.725-6.525,7.309-13.209,10.121-20.285c1.916-4.839,3.478-9.941,4.228-15.161
	c0.769,0.227,1.58,0.353,2.425,0.353c3.615,0,6.716-2.172,8.098-5.275c1.725,0.973,3.688,1.574,5.811,1.574
	c5.021,0,9.299-3.115,11.055-7.512c0.283,0.043,0.566,0.088,0.862,0.088c2.735,0,5.019-1.953,5.53-4.539H81.355
	c0.564,7.561,6.863,13.52,14.566,13.52c2.895,0,5.587-0.852,7.857-2.305c0.628,5.521,5.26,9.826,10.947,9.826
	c2.223,0,4.267-0.69,5.995-1.828c0.704,3.415,2.17,6.637,3.769,9.578c2.307,4.191,5.002,8.059,7.605,11.912
	c2.602,3.846,5.17,7.678,7.202,11.67c1.832,3.604,3.193,7.399,3.358,11.109c-0.799,1.26-1.597,2.52-2.379,3.801
	c-1.967,3.244-3.873,6.568-5.509,10.15c-1.229,2.783-2.393,5.728-2.924,9.032l-1.742,8.323c-3.219-2.762-6.738-4.529-10.222-6.016
	c-3.807-1.569-7.634-2.793-11.462-3.854c-1.498-10.634-11.206-16.39-21.055-21.744c0.553-0.508,1.064-1.061,1.507-1.67
	c1.514,0.699,3.189,1.115,4.969,1.115c6.043,0,10.982-4.516,11.757-10.35h-35.6c-4.426-3.853-7.76-8.537-8.864-14.815
	c0.691-0.239,1.365-0.519,1.998-0.868c0.639,1.922,2.432,3.314,4.566,3.314c2.311,0,4.238-1.621,4.717-3.791
	c1.06,0.357,2.172,0.598,3.353,0.598c3.825,0,7.138-2.061,8.979-5.111c0.491,0.143,1.001,0.24,1.536,0.24
	c3.115,0,5.642-2.527,5.642-5.641H31.791c0,2.674,2.164,4.838,4.834,4.838c0.467,0,0.909-0.09,1.334-0.211
	c1.08,1.752,2.748,3.092,4.725,3.763c1.443,5.892,6.763,13.39,20.256,13.618c1.018,1.455,2.167,2.805,3.42,4.066H19.627
	c0.742,4.148,4.35,7.305,8.713,7.305c2.173,0,4.137-0.812,5.676-2.107c1.133,1.275,2.492,2.338,4.001,3.158
	c3.35,7.226,19.322,13.477,29.64,16.851c2.453,1.303,4.991,2.344,7.526,3.308c7.107,2.643,14.32,4.617,21.4,6.783
	c7.059,2.16,14.109,4.385,20.42,7.5c3.119,1.562,6.066,3.391,8.18,5.568c1.415,1.449,2.323,2.959,2.744,4.541l-7.739,36.963h18.17
	v-28.268c1.098-2.438,3.905-4.775,6.786-6.807c3.865-2.693,8.147-5.088,12.416-7.518c6.846-3.858,13.77-7.792,20.386-12.253
	c2.59-0.378,5.958-0.325,9.46-0.272c6.506,0.109,14.345,0.232,20.67-2.422c3.25,1.93,6.453,2.91,9.563,2.91
	c1.227,0,2.439-0.152,3.633-0.453c4.844-1.223,8.197-4.618,9.956-6.85C239.928,378.394,246.979,371.506,247.349,362.883z
	 M220.2,334.709c1.286,0.381,2.646,0.598,4.059,0.598c1.343,0,2.634-0.206,3.865-0.556c-1.961,11.369-12.811,15.319-18.082,16.575
	c2.017-4.045,3.63-8.282,4.858-12.619C217.139,338.109,219.023,336.65,220.2,334.709z M143.09,348.605
	c-2.385-4.221-5.197-8.031-7.975-11.781c-2.775-3.752-5.576-7.43-7.932-11.316c-1.325-2.207-2.516-4.501-3.329-6.875
	c3.456,2.934,7.918,4.711,12.809,4.711c6.201,0,11.735-2.842,15.378-7.297c1.412,0.457,2.916,0.709,4.48,0.709
	c4.355,0,8.253-1.916,10.935-4.936c0.197,0.166,0.402,0.323,0.612,0.473c-0.895,5.184-2.684,10.219-4.86,15.059
	c-3.023,6.682-6.813,13.035-10.787,19.297c-1.977,3.12-4.015,6.211-6.05,9.327C145.54,353.353,144.37,350.892,143.09,348.605z
	 M45.424,333.326c0.023,0,0.045,0.004,0.068,0.004c1.176,0,2.292-0.24,3.32-0.654c2.168,2.27,5.209,3.701,8.596,3.701
	c0.436,0,0.859-0.039,1.28-0.088c0.51,2.811,1.424,5.329,2.656,7.604C51.381,343.205,46.958,337.916,45.424,333.326z
	 M42.125,360.379c0.915,0.18,1.855,0.289,2.824,0.289c1.564,0,3.068-0.252,4.481-0.707c2.335,2.854,5.45,5.04,9.016,6.247
	c0.324,1.39,0.973,2.734,1.82,3.81c0.177,0.233,0.374,0.441,0.563,0.659C51.874,367.238,45.336,363.634,42.125,360.379z
	 M76.462,375.281c-3.479-1.062-6.921-2.268-9.975-3.98c-1.984-1.119-3.814-2.537-4.857-4.303c1.035,0.166,2.096,0.258,3.178,0.258
	c4.232,0,8.147-1.332,11.37-3.59c1.175,0.428,2.426,0.695,3.748,0.695c1.873,0,3.629-0.474,5.171-1.3
	c9.667,5.237,18.749,10.292,20.65,19.405c-2.589-0.671-5.177-1.288-7.756-1.898C90.723,378.861,83.459,377.369,76.462,375.281z
	 M187.447,382.781c-1.938-0.032-3.776-0.055-5.501-0.019c0.312-0.227,0.63-0.445,0.94-0.675c3.618-2.656,7.1-5.537,10.38-8.635
	c1.534,0.717,3.24,1.129,5.047,1.129c4.034,0,7.584-2.008,9.761-5.059c1.604,1.145,3.555,1.842,5.676,1.842
	c0.74,0,1.453-0.102,2.143-0.266C211.84,383.166,198.921,382.958,187.447,382.781z M220.662,382.891
	c-3.134,0.797-6.448,0.31-9.88-1.403c3.235-1.971,5.866-4.934,7.409-9.365c2.411,3.125,5.92,5.351,9.956,6.087
	C226.478,379.996,223.952,382.062,220.662,382.891z"/>
<path fill="#F26F21" d="M562.279,397.42c-86.862,0-137.543-33.666-193.005-33.666c-101.363,0-198.08,54.316-198.08,54.316h1563.17
	c0,0-42.67-70.146-186.51-70.146c-52.158,0-165.248,29.451-274.744,29.451c-109.494,0-184.49-30.062-292.484-30.062
	C872.63,347.312,649.142,397.42,562.279,397.42z"/>
<path fill="#FAAF40" d="M1694.196,418.07c-6.629,59.822-84.592,96.893-150.461,117.705
	c-86.352,27.285-203.932,42.934-322.594,42.934c-106.908,0-170.938,27.77-238.727,57.172
	c-73.166,31.734-148.824,64.549-290.747,64.549c-48.041,0-96.979-0.988-144.306-1.945c-114.911-2.32-223.45-4.514-315.979,6.629
	c-50.568,6.09-91.935,15.65-126.46,29.229C67.867,748.912,39.212,767.82,17.573,792h61.456
	c94.245-61.055,276.252-57.385,467.525-53.523c47.525,0.959,96.669,1.953,145.113,1.953c150.224,0,233.337-36.047,306.665-67.852
	c63.871-27.703,124.201-53.869,222.809-53.869c122.582,0,244.557-16.326,334.645-44.791c53.342-16.855,95.453-37.795,125.164-62.236
	c33.055-27.193,50.984-58.65,53.412-93.611H1694.196z"/>
<g>
	<rect x="1450.239" y="450.859" fill="#FAAF40" width="198.613" height="3"/>
</g>
<g>
	<rect x="1582.187" y="469.053" fill="#FAAF40" width="48.666" height="3"/>
</g>
<g>
	<rect x="361.326" y="451.111" fill="#FAAF40" width="157.524" height="3"/>
</g>
<g>
	<rect x="28.019" y="463.469" fill="#FAAF40" width="172.18" height="3"/>
</g>
<g>
	<rect x="485.471" y="475.828" fill="#FAAF40" width="129.733" height="3"/>
</g>
<g>
	<rect x="28.019" y="590.963" fill="#FAAF40" width="68.799" height="3"/>
</g>
<g>
	<rect x="885.81" y="751.451" fill="#FAAF40" width="127.959" height="3"/>
</g>
<g>
	<rect x="1358.122" y="694.479" fill="#FAAF40" width="125.596" height="3"/>
</g>
<g>
	<rect x="1699.519" y="694.479" fill="#FAAF40" width="69.404" height="3"/>
</g>
<g>
	<rect x="1564.233" y="611.881" fill="#FAAF40" width="224.938" height="3"/>
</g>
<path fill="#FAAF40" d="M1355.546,742.749v-9.394h-3v9.775c-1.241,0.166-2.479,0.343-3.715,0.527v-10.303h-3v10.755
	c-1.241,0.2-2.477,0.421-3.713,0.638v-11.393h-3v11.936c-1.239,0.232-2.479,0.463-3.715,0.71v-12.646h-3v13.269
	c-1.24,0.259-2.479,0.522-3.715,0.794v-14.062h-3v14.733c-1.241,0.283-2.479,0.574-3.715,0.867v-15.601h-3v16.318
	c-1.24,0.302-2.479,0.609-3.715,0.92v-17.238h-3v18c-1.239,0.317-2.478,0.635-3.713,0.957v-18.957h-3v19.747
	c-1.24,0.328-2.479,0.657-3.715,0.988v-20.735h-3v21.539c-1.241,0.334-2.479,0.669-3.715,1.003v-22.542h-3v23.352
	c-1.241,0.336-2.48,0.67-3.715,1.002v-24.354h-3v25.158c-1.242,0.331-2.479,0.658-3.715,0.983v-26.142h-3v26.927
	c-1.241,0.322-2.48,0.644-3.715,0.956v-27.883h-3v28.633c-1.241,0.308-2.478,0.607-3.713,0.904v-29.537h-3v30.246
	c-1.24,0.287-2.479,0.572-3.715,0.845v-31.091h-3v31.73c-1.241,0.261-2.479,0.512-3.715,0.755v-32.485h-3v33.062
	c-1.24,0.229-2.479,0.451-3.715,0.658v-33.721h-3v34.193c-1.24,0.19-2.479,0.366-3.715,0.531v-34.725h-3v35.108
	c-5.729,0.669-11.414,1.054-17.068,1.054v3c23.802,0,47.921-6.521,73.457-13.424c26.849-7.259,54.61-14.764,83.385-14.764v-3
	C1370.549,741.33,1363.01,741.855,1355.546,742.749z"/>
<g>
	<path fill="#625048" d="M81.03,534.768c0,12.496,10.133,22.637,22.631,22.637c2.148,0,4.191-0.398,6.168-0.965
		c6.302,10.439,16.908,17.975,29.413,19.969c0.706,13.08,2.419,26.191,5.431,39.113c2.48,10.734,5.838,21.303,9.857,31.545
		c4.01,10.248,8.664,20.154,13.404,29.789c1.859,3.784,3.72,7.521,5.562,11.243c-6.515,0.477-13.03,0.524-19.49,0.015
		c-11.496-0.902-22.82-3.559-33.349-8.32c-10.529-4.736-20.226-11.586-28.448-20.145c-3.475-3.609-6.675-7.528-9.593-11.674
		c2.26-1.429,4.324-3.14,6.135-5.09c2.158,2.002,5.037,3.234,8.211,3.234c4.293,0,8.055-2.244,10.2-5.617
		c0.813,0.107,1.643,0.17,2.486,0.17c10.319,0,18.686-8.365,18.686-18.686H16.821c0,10.32,8.366,18.686,18.686,18.686
		c0.816,0,1.617-0.065,2.405-0.168c0.945,6.397,4.193,19.549,15.302,28.791c7.83,6.516,18.002,9.793,30.34,9.793
		c2.763,0,5.64-0.174,8.618-0.503c6.085,6.168,12.958,11.655,20.472,16.214c11.696,7.141,24.812,11.982,38.224,14.711
		c11.247,2.298,22.686,3.155,34.028,2.999c2.929,6.953,5.502,13.926,7.586,20.976c2.825,9.498,4.764,19.139,5.848,28.91
		s1.326,19.664,0.902,29.605h30.445c-0.429-11.297-1.617-22.66-3.789-33.885c-2.168-11.221-5.346-22.283-9.449-32.865
		c-4.083-10.596-9.064-20.68-14.389-30.264c-4.521-8.152-9.259-15.958-13.881-23.666c0.033-0.859,0.14-1.74,0.336-2.662
		c0.807-3.877,3.197-8.277,6.045-12.668c2.861-4.414,6.148-8.908,9.336-13.566c3.198-4.656,6.322-9.486,9.13-14.527
		c4.979-8.873,8.873-18.439,11.329-28.289c2.385,0.352,6.074,0.756,10.452,0.756c8.714,0,20.118-1.604,29.192-8.428
		c7.145-5.371,11.707-13.133,13.622-23.125c8.375-2.562,15.423-8.146,19.937-15.477c1.709,0.496,3.484,0.848,5.355,0.848
		c10.717,0,19.401-8.686,19.401-19.414H81.03z M56.45,665.484c-8.398-6.967-11.743-16.761-13.067-22.972
		c5.625,6.259,13.774,10.2,22.851,10.2c2.303,0,4.545-0.258,6.703-0.739c2.815,5.457,6.075,10.713,9.801,15.677
		c1.615,2.158,3.343,4.244,5.13,6.285C74.77,674.75,64.216,671.927,56.45,665.484z M203.87,622.291
		c-2.98,4.408-6.258,8.637-9.711,12.838c-3.448,4.217-7.089,8.375-10.676,12.973c-1.664,2.148-3.312,4.409-4.863,6.891
		c-2.782-4.96-5.439-9.943-7.903-15.002c-4.5-9.217-8.365-18.684-11.467-28.447c-3.628-11.355-6.184-23.083-7.857-35.025
		c2.722-0.415,5.357-1.102,7.908-1.963c1.923,8.705,9.656,15.207,18.928,15.207c8.568,0,15.758-5.59,18.324-13.303
		c6.848,3.785,14.586,6.117,22.956,6.117c0.283,0,0.562-0.018,0.843-0.022c-0.715,3.765-1.607,7.481-2.711,11.124
		C214.563,603.924,209.847,613.5,203.87,622.291z M261.002,587.926c-11.795,8.885-28.842,7.686-35.565,6.771
		c0.856-4.233,1.46-8.494,1.839-12.761c10.446-1.726,19.726-6.865,26.737-14.197c4.114,1.658,8.596,2.621,13.308,2.621
		c1.668,0,3.306-0.121,4.91-0.346C270.345,577.713,266.589,583.719,261.002,587.926z"/>
	<path fill="#625048" d="M1483.048,641.859c0,12.434,10.08,22.514,22.514,22.514c0.65,0,1.291-0.035,1.928-0.088
		c4.301,11.438,15.336,19.576,28.277,19.576c1.324,0,2.626-0.092,3.905-0.258c0.141,3.022,0.35,6.049,0.653,9.076
		c1.072,10.818,3.326,21.676,7.018,32.115c1.828,5.219,4.004,10.316,6.352,15.25c2.338,4.934,4.852,9.699,7.121,14.33
		c2.268,4.633,4.254,9.137,5.482,13.561c0.354,1.271,0.644,2.535,0.877,3.798c-0.144,0.331-0.282,0.66-0.426,0.991
		c-2.762,6.348-5.613,12.754-8.406,19.275h23.154c1.361-3.967,2.74-7.955,4.113-11.982c3.375-9.896,6.645-20.016,9.369-30.322
		c0.677-2.546,1.319-5.103,1.929-7.668c0.109-0.166,0.208-0.328,0.337-0.5c0.908-1.213,2.309-2.516,3.949-3.764
		c3.314-2.514,7.48-4.832,11.748-7.131c8.588-4.596,17.836-9.24,26.262-15.531c4.209-3.137,8.211-6.691,11.709-10.746
		c1.203-1.389,2.337-2.842,3.403-4.343c6.338-1.568,11.883-4.292,16.575-8.196c8.037-6.688,11.956-15.416,13.869-22.158
		c6.3-0.98,11.392-5.59,13.082-11.629c0.205,0.008,0.406,0.031,0.613,0.031c8.949,0,16.203-7.254,16.203-16.201H1483.048z
		 M1572.733,747.848c-2.834-4.664-5.68-9.053-8.297-13.494c-2.621-4.436-5.029-8.918-7.137-13.549
		c-4.238-9.242-7.248-19.086-9.193-29.254c-0.616-3.203-1.12-6.436-1.546-9.688c5.246-2.011,9.792-5.436,13.161-9.818
		c0.25,0.006,0.498,0.02,0.75,0.02c8.305,0,15.824-3.354,21.285-8.777c3.062,4.097,6.988,7.504,11.497,9.98
		c-1.27,14.315-3.376,28.463-6.622,42.289c-2.299,9.814-5.158,19.451-8.535,28.934c-0.909,2.564-1.862,5.116-2.841,7.662
		C1574.426,750.684,1573.58,749.248,1572.733,747.848z M1633.188,706.221c-7.959,4.826-16.834,8.301-26.084,12.141
		c-1.987,0.844-4.001,1.698-6.036,2.628c0.138-0.87,0.277-1.739,0.407-2.61c2.048-13.701,3.04-27.465,3.255-41.166
		c1.87,0.303,3.785,0.473,5.741,0.473c12.217,0,23-6.121,29.467-15.457c4.896,4.616,11.452,7.486,18.681,7.618
		c-1.036,6.237-2.982,12.204-6.052,17.487C1648.032,695.275,1641.128,701.459,1633.188,706.221z M1667.655,688.004
		c-2.767,2.296-5.894,4.122-9.354,5.499c0.446-0.858,0.878-1.725,1.276-2.604c2.205-4.861,3.643-10,4.402-15.152
		c0.317-2.143,0.515-4.286,0.62-6.426c2.775-0.549,5.406-1.504,7.821-2.809c2.039,1.562,4.454,2.658,7.09,3.112
		C1677.665,675.449,1674.189,682.584,1667.655,688.004z"/>
	<path fill="#625048" d="M1377.468,712.816c0,9.389,7.611,17,17,17c0.507,0,1.009-0.024,1.503-0.069
		c0.796,2.837,1.894,5.646,3.415,8.331c4.595,8.111,12.138,13.768,22.445,16.881c-0.025,0.419-0.055,0.838-0.07,1.258
		c-0.199,5.332,0.418,10.73,1.748,15.91c1.32,5.189,3.314,10.156,5.682,14.842c0.865,1.717,1.793,3.385,2.742,5.031h14.104
		c-2.709-3.348-5.254-6.736-7.498-10.293c-4.98-7.805-8.398-16.418-8.914-25.551c-0.457-7.184,0.901-14.523,3.471-21.565
		c2.017-1.224,3.855-2.714,5.455-4.431c1.895,1.455,4.258,2.332,6.83,2.332c3.148,0,5.988-1.301,8.025-3.387
		c1.539,0.457,3.166,0.711,4.852,0.711c6.123,0,11.473-3.246,14.467-8.102c0.807,0.229,1.654,0.359,2.535,0.359
		c5.113,0,9.258-4.145,9.258-9.258H1377.468z M1424.585,740.693c-0.975,2.977-1.722,6.059-2.21,9.201
		c-8.57-2.783-14.826-7.562-18.628-14.264c-0.992-1.748-1.774-3.572-2.401-5.431c4.645,4.963,11.246,8.071,18.579,8.071
		c1.987,0,3.919-0.235,5.774-0.666C1425.308,738.624,1424.926,739.648,1424.585,740.693z"/>
</g>
<g>
	<g>
		<g>
			<g>
				<path fill="#C1B49A" d="M330.813,517.646c-3.789,3.791-7.513,1.99-7.513,1.99l9.166-9.168c0,0,2.547-2.545,4.611-4.609
					c1.547-1.549,3.287-0.164,4.197,1.328C336.932,511.53,331.249,517.21,330.813,517.646z"/>
			</g>
			<path fill="#C1B49A" d="M330.969,518.647c0.076-11.336,9.361-13.674,9.361-13.674l5.142-0.438v14.111H330.969z"/>
			<path fill="#C1B49A" d="M334.879,534.601c-1.698,0.412-3.91,0.162-3.91-2.029c0-2.918,0-11.74,0-11.74v-2.473h3.91
				C334.879,522.491,334.879,529.858,334.879,534.601z"/>
			<path fill="#C1B49A" d="M340.176,534.601c-1.699,0.412-3.908,0.162-3.908-2.029c0-2.918,0-11.74,0-11.74v-4.074h3.908
				C340.176,520.892,340.176,529.858,340.176,534.601z"/>
			<path fill="#C1B49A" d="M345.472,534.601c-1.696,0.412-3.905,0.162-3.905-2.029c0-2.918,0-11.74,0-11.74v-4.074h3.905
				C345.472,520.892,345.472,529.858,345.472,534.601z"/>
		</g>
		<path fill="#8B8179" d="M304.029,467.015v-3.736h41.442C345.472,463.278,326.45,487.058,304.029,467.015z"/>
		<path fill="#8B8179" d="M345.472,511.022v-47.744l-5.142,0.438c0,0-12.965,33.252-3.326,43.549
			C341.481,512.048,345.472,511.022,345.472,511.022z"/>
	</g>
	<g>
		<g>
			<path fill="#8B8179" d="M254.553,509.427h16.854c1.407,0,2.546-1.139,2.546-2.547s-1.139-2.547-2.546-2.547h-16.854
				c-9.206,0-16.697-7.492-16.697-16.701c0-7.086,5.765-12.85,12.85-12.85c5.386,0,9.767,4.385,9.767,9.773
				c0,4.027-3.276,7.305-7.304,7.305c-2.943,0-5.338-2.395-5.338-5.336c0-1.408-1.14-2.549-2.547-2.549
				c-1.408,0-2.548,1.141-2.548,2.549c0,5.754,4.681,10.432,10.433,10.432c6.837,0,12.4-5.564,12.4-12.4
				c0-8.199-6.667-14.869-14.863-14.869c-9.896,0-17.945,8.051-17.945,17.945C232.76,499.649,242.536,509.427,254.553,509.427z"/>
		</g>
		<g>
			<path fill="#8B8179" d="M307.646,530.329c-0.6,0-11.697,0-19.259,0c0.124-0.436,0.312-0.861,0.585-1.268
				c1.618-2.418,8.049-12.014,8.049-12.014l-11.629-3.902l0.676-6.574c0,0,12.352,4.02,14.411,4.684
				c2.056,0.664,3.487,1.871,2.812,5.588c-0.679,3.719-2.042,11.213-2.042,11.213c1.481,0,7.489,0,9.498,0
				c9.209,0,11.54,6.709,11.54,6.709h-7.01C315.277,534.765,313.734,530.329,307.646,530.329z"/>
			<path fill="#C1B49A" d="M288.388,530.329c7.562,0,18.659,0,19.259,0c6.088,0,7.631,4.436,7.631,4.436h-14.719h-0.532
				c0,0-3.558,0-8.571,0C288.944,534.765,287.777,532.487,288.388,530.329z"/>
		</g>
		<g>
			<path fill="#ACA095" d="M273.094,449.394c-17.699-21.814-7.914-45.648,12.246-47.965c14.91-1.713,24.936,7.006,27.931,19.035
				c-19.649-11.975-34.991,5.883-21.031,26.975c9.692,14.643,18.57,28.055,24.653,37.244c-4.07,16.16-19.402,30.254-43.799,30.254
				c-7.135,0-8.031,0-8.031,0l9.806-63.482C274.251,450.769,273.652,450.081,273.094,449.394z"/>
			<path fill="#C1B49A" d="M313.271,420.464c0.617,2.482,0.943,5.1,0.943,7.801c0,0.91,0,1.783,0,2.639c0,12.139,0,19.293,0,20.957
				c-2.776,0-5.957,0-9.312,0c4.648,2.273,8.667,6.02,10.926,12.053c2.505,6.686,2.793,13.912,1.065,20.77
				c-6.083-9.189-14.961-22.602-24.653-37.244C278.279,426.347,293.621,408.489,313.271,420.464z"/>
			<path fill="#D7CEBD" d="M313.271,420.464c0.617,2.482,0.943,5.1,0.943,7.801c0,0.91,0,1.783,0,2.639c0,12.139,0,19.293,0,20.957
				c-2.776,0-5.957,0-9.312,0c4.648,2.273,8.667,6.02,10.926,12.053c2.505,6.686,2.793,13.912,1.065,20.77
				c-6.083-9.189-14.961-22.602-24.653-37.244C278.279,426.347,293.621,408.489,313.271,420.464z"/>
		</g>
		<path fill="#ACA095" d="M253.189,530.329c0.597,0,11.696,0,19.256,0c-0.123-0.436-0.31-0.861-0.582-1.268
			c-1.618-2.418-8.049-12.014-8.049-12.014l11.626-3.902l-0.676-6.574c0,0-12.353,4.02-14.409,4.684s-3.488,1.871-2.811,5.588
			c0.676,3.719,2.039,11.213,2.039,11.213c-1.479,0-7.486,0-9.496,0c-9.208,0-11.54,6.709-11.54,6.709h7.011
			C245.559,534.765,247.102,530.329,253.189,530.329z"/>
		<path fill="#D7CEBD" d="M272.445,530.329c-7.56,0-18.659,0-19.256,0c-6.088,0-7.631,4.436-7.631,4.436h14.719h0.529
			c0,0,3.56,0,8.571,0C271.889,534.765,273.059,532.487,272.445,530.329z"/>
		<path fill="#8B8179" d="M295.879,430.853c0.934-2.566,3.371-4.408,6.26-4.408c2.887,0,5.324,1.842,6.257,4.408H295.879z"/>
		<g>
			<path fill="#C1B49A" d="M318.483,431.903c-0.214,0.393-0.348,0.836-0.348,1.312c0,1.521,1.23,2.756,2.751,2.756
				c0.839,0,1.58-0.385,2.087-0.977c5.827,6.117,5.593,16.865,0.665,16.865c-1.52,0-9.425,0-9.425,0s0-6.988,0-20.957
				C315.789,431.015,317.205,431.374,318.483,431.903z"/>
			<path fill="#8B8179" d="M320.887,435.972c-1.521,0-2.751-1.234-2.751-2.756c0-0.477,0.134-0.92,0.348-1.312
				c1.772,0.734,3.265,1.807,4.49,3.092C322.467,435.587,321.726,435.972,320.887,435.972z"/>
		</g>
		<g>
			<path fill="#8B8179" d="M316.815,440.321h2.344c0,4.475,1.765,6.012,8.16,6.307c-0.048,0.852-0.185,1.639-0.405,2.332
				C321.16,448.665,316.815,447.173,316.815,440.321z"/>
		</g>
		<g>
			<path fill="#D7CEBD" d="M273.991,415.878c4.048,0,6.538,2.85,8.063,6.691c-4.016,0.9-7.021,4.479-7.021,8.766
				c0,4.963,4.024,8.986,8.989,8.986c0.104,0,0.205-0.012,0.311-0.016c-0.048,1.625-0.131,2.639-0.131,2.639
				C264.178,442.944,264.971,415.878,273.991,415.878z"/>
			<path fill="#8B8179" d="M282.055,422.569c0.537,1.352,0.959,2.818,1.281,4.334c0.635,3.004,0.9,6.174,0.99,8.9
				c0.057,1.738,0.043,3.291,0.008,4.502c-0.105,0.004-0.207,0.016-0.311,0.016c-4.965,0-8.989-4.023-8.989-8.986
				C275.034,427.048,278.039,423.47,282.055,422.569z"/>
		</g>
		<g>
			<g>
				<g>
					<path fill="#D7CEBD" d="M255.523,411.095c3.788-3.793,7.514-1.988,7.514-1.988l-9.168,9.166c0,0-2.543,2.545-4.607,4.609
						c-1.551,1.549-3.29,0.164-4.197-1.33C249.405,417.21,255.088,411.53,255.523,411.095z"/>
				</g>
				<path fill="#D7CEBD" d="M255.367,410.093c-0.073,11.336-9.357,13.674-9.357,13.674l-5.145,0.438v-14.111H255.367z"/>
				<path fill="#D7CEBD" d="M251.457,394.142c1.701-0.414,3.91-0.164,3.91,2.025c0,2.922,0,11.742,0,11.742v2.473h-3.91
					C251.457,406.249,251.457,398.88,251.457,394.142z"/>
				<path fill="#D7CEBD" d="M246.16,394.142c1.702-0.414,3.911-0.164,3.911,2.025c0,2.922,0,11.742,0,11.742v4.074h-3.911
					C246.16,407.849,246.16,398.88,246.16,394.142z"/>
				<path fill="#D7CEBD" d="M240.865,394.142c1.698-0.414,3.906-0.164,3.906,2.025c0,2.922,0,11.742,0,11.742v4.074h-3.906
					C240.865,407.849,240.865,398.88,240.865,394.142z"/>
			</g>
			<path fill="#ACA095" d="M282.311,461.726v3.738h-41.445C240.865,465.464,259.887,441.683,282.311,461.726z"/>
			<path fill="#ACA095" d="M240.865,417.718v47.746l5.145-0.439c0,0,12.965-33.252,3.322-43.549
				C244.855,416.692,240.865,417.718,240.865,417.718z"/>
		</g>
	</g>
</g>
<g>
	<g>
		<g>
			<g>
				<path fill="#ACA095" d="M443.532,602.939c17.073,56.242,73.76,47.396,73.76,47.396v-41.393c0,0-32.791,5.01-52.002-20.129"/>
			</g>
		</g>
		<g>
			<g>
				<path fill="#C9C1B8" d="M517.292,636.531c3.809,0,6.896,3.09,6.896,6.9c0,3.809-3.087,6.896-6.896,6.895"/>
			</g>
		</g>
		<g>
			<g>
				<path fill="#ACA095" d="M453.465,576.109c12.304,0,22.276,9.975,22.277,22.277c-0.001,12.305-9.976,22.279-22.28,22.281
					c-12.303-0.002-22.277-9.975-22.278-22.279C431.185,586.084,441.159,576.111,453.465,576.109z"/>
			</g>
		</g>
		<g>
			<g>
				<g>
					<g>
						<rect x="497.935" y="603.801" fill="#77736F" width="19.355" height="30.133"/>
					</g>
					<g>
						<rect x="500.588" y="606.473" fill="#77736F" width="14.049" height="20.617"/>
					</g>
					<g>
						<circle fill="#EF4135" cx="507.613" cy="630.379" r="1.874"/>
					</g>
				</g>
				<g>
					<g>
						<path fill="#DED7D1" d="M497.996,621.83L497.996,621.83c-0.036,0.008-0.062,0.01-0.062,0.01S497.96,621.836,497.996,621.83z"
							/>
					</g>
				</g>
			</g>
		</g>
		<g>
			<g>
				<path fill="#C9C1B8" d="M517.392,622.736c-3.806,0-6.895-3.088-6.895-6.896c0-3.811,3.088-6.896,6.896-6.896"/>
			</g>
		</g>
		<g>
			<g>
				<path fill="#C9C1B8" d="M517.394,636.531c-3.809,0-6.896-3.088-6.898-6.898c0.003-3.809,3.091-6.896,6.896-6.896"/>
			</g>
		</g>
	</g>
	<g>
		<path fill="#ACA095" d="M365.562,636.436l-22.361,22.365l0,0c0,0,23.578,23.232,26.434,25.988
			c2.854,2.756,9.895,4.908,14.717,0.014c6.287-6.379,25.924-26.412,25.924-26.412l-8.176-15.168l-22.178,14.68L365.562,636.436z"/>
	</g>
	<path fill="#DED7D1" d="M370.104,643.225l-4.542-6.789l-22.361,22.365c0.002,0.002,2.376,2.344,5.708,5.623L370.104,643.225z"/>
	<polygon fill="#ACA095" points="343.201,658.801 343.201,658.801 343.201,658.801 	"/>
	<path fill="#ACA095" d="M419.339,496.199l1.912,44.98c2.696-1.25,9.776-1.25,12.472,0v-22.49
		C433.723,508.715,427.825,500.141,419.339,496.199z"/>
	<path fill="#C9C1B8" d="M397.45,496.199l1.913,44.98c2.695-1.25,9.775-1.25,12.471,0v-22.49
		C411.834,508.715,405.937,500.141,397.45,496.199z"/>
	<path fill="#BCB1A7" d="M403.107,499.836l3.599,40.43c2.052,0.08,3.985,0.385,5.128,0.914v-22.49
		C411.834,511.131,408.443,504.379,403.107,499.836z"/>
	<polygon fill="#C9C1B8" points="403.03,714.594 435.202,714.594 414.09,646.412 396.859,646.412 	"/>
	<path fill="#C9C1B8" d="M492.006,511.881c3.854,32.117-16.41,29.391-24.722,24.439c5.498-7.658,1.854-17.105,1.854-17.105
		s-2.194,9.25-9.269,12.715c-12.661-7.441-24.311-13.451-41.426-13.451c-80.301,0-19.04,146.188-19.04,146.188
		c81.403,0,70.431-50.854,59.455-76.928c19.298,7.572,28.851-5.391,29.913-9.453c0,0,3.752,1.955,4.265,0.811
		c2.05-4.586,6.465-17.004-0.702-26.545C508.988,532.277,492.006,511.881,492.006,511.881z"/>
	<path fill="#ACA095" d="M439.412,548.125h-8.229c4.445,2.24,8.714,2.326,8.714,2.326c0.899,2.053,2.945,3.486,5.33,3.488
		c3.209,0,5.814-2.604,5.814-5.814H439.412z"/>
	<path fill="#ACA095" d="M448.208,548.125c0,1.605-1.304,2.906-2.909,2.906c-1.606,0-2.908-1.301-2.908-2.906"/>
	<path fill="#ACA095" d="M446.219,560.027v-2.326c5.28,0,9.575-4.297,9.575-9.576h2.327
		C458.121,554.688,452.781,560.027,446.219,560.027z"/>
	<path fill="#ACA095" d="M482.094,575.75c-3.884-0.248-7.879-0.504-9.63-2.119c0.66-1.072,1.047-2.33,1.047-3.68h-2.326
		c0,2.609-2.122,4.73-4.729,4.73v2.326c1.701,0,3.267-0.607,4.487-1.613c2.333,2.117,6.559,2.395,11.001,2.678
		c2.3,0.146,4.633,0.297,6.67,0.707c0.396,0.08,0.78,0.17,1.15,0.271c1.043,0.285,1.973,0.664,2.738,1.178
		c0.241-0.482,0.583-1.209,0.968-2.141C490.516,576.293,486.249,576.016,482.094,575.75z"/>
	<g>
		<path fill="#ACA095" d="M495.572,559.322c-2.104,0.318-3.717,2.129-3.717,4.322c0,2.375,1.894,4.305,4.249,4.371
			C496.401,565.246,496.333,562.266,495.572,559.322z"/>
	</g>
	<rect x="408.803" y="686.531" fill="#ACA095" width="11.266" height="2.328"/>
	<rect x="391.379" y="557.701" fill="#ACA095" width="22.25" height="2.326"/>
	<g>
		<path fill="#BCB1A7" d="M389.626,580.953c-51.774-27.662-85.562,18.615-85.562,18.615l29.229,29.229
			c0,0,19.623-26.691,50.942-22.506"/>
	</g>
	<g>
		<path fill="#DED7D1" d="M313.812,609.314c-2.688,2.689-7.052,2.691-9.74,0c-2.691-2.689-2.689-7.051,0-9.74"/>
	</g>
	<g>
		<path fill="#DED7D1" d="M323.555,619.057c-2.689,2.689-7.051,2.689-9.74,0c-2.69-2.689-2.69-7.053-0.002-9.742"/>
	</g>
	<g>
		<path fill="#DED7D1" d="M333.294,628.797c-2.687,2.689-7.051,2.691-9.739,0c-2.689-2.689-2.689-7.051,0-9.74"/>
	</g>
	<g>
		<path fill="#BCB1A7" d="M401.559,606.91c-8.689,8.689-22.777,8.689-31.468,0c-8.687-8.689-8.687-22.777,0-31.465
			c8.69-8.689,22.778-8.689,31.468,0C410.246,584.135,410.246,598.221,401.559,606.91z"/>
	</g>
	
		<rect x="333.15" y="594" transform="matrix(0.7072 0.707 -0.707 0.7072 522.0341 -70.121)" fill="#ACA095" width="25.041" height="2.328"/>
	
		<rect x="329.848" y="610.077" transform="matrix(0.7071 0.7071 -0.7071 0.7071 530.4726 -58.1918)" fill="#ACA095" width="11.264" height="2.328"/>
	
		<rect x="362.079" y="589.923" transform="matrix(0.7071 0.7071 -0.7071 0.7071 526.0874 -87.9996)" fill="#ACA095" width="14.394" height="2.327"/>
	<rect x="400.94" y="633.383" fill="#ACA095" width="20.186" height="2.328"/>
	<polygon fill="#DED7D1" points="435.202,714.594 403.03,714.594 402.359,707.176 432.908,707.176 	"/>
</g>
<g>
	<g>
		<path fill="#786C62" d="M1125.206,669.199v16.582l-15.49-1.143l-3.865,1.133c0,0-9.236-0.477-9.236,3.125
			c0,5.971,16.535,6.988,25.027,7.074c19.42,0.193,43.047-2.906,43.047-2.906C1163.171,677.768,1142.353,670.719,1125.206,669.199z"
			/>
	</g>
	<g>
		<path fill="#DED7D1" d="M1105.851,655.648v14.795v5.938c0.037,0.014,0.062,0.023,0.062,0.023s-0.025-0.004-0.062-0.01v9.375
			c0.002,0.002,0.004,0.002,0.004,0.002h-0.004v0.01h19.355v-16.582v-13.551H1105.851z"/>
	</g>
	<g>
		<polygon fill="#DED7D1" points="1105.851,685.77 1105.851,685.771 1105.856,685.771 		"/>
	</g>
	<g>
		<path fill="#DED7D1" d="M1105.851,676.381v0.014c0.037,0.006,0.062,0.01,0.062,0.01S1105.888,676.395,1105.851,676.381z"/>
	</g>
	<g>
		<rect x="1108.505" y="658.322" fill="#E8E3DD" width="14.047" height="20.615"/>
	</g>
	<g>
		<circle fill="#EF4135" cx="1115.527" cy="682.227" r="1.874"/>
	</g>
	<g>
		<g>
			<polygon fill="#786C62" points="1222.198,703.898 1189.044,714.369 1189.044,722.705 1222.198,722.705 			"/>
		</g>
		<g>
			<g>
				<rect x="1175.286" y="713.094" fill="#A21E22" width="4.35" height="46.289"/>
			</g>
			<g>
				<path fill="#A21E22" d="M1179.636,755.033v4.35h-24.99c0,0,2.711-4.35,7.121-4.35S1179.636,755.033,1179.636,755.033z"/>
			</g>
		</g>
		<g>
			<g>
				<path fill="#EF4135" d="M1187.8,755.033v4.35h24.992c0,0-2.711-4.35-7.123-4.35C1201.259,755.033,1187.8,755.033,1187.8,755.033
					z"/>
			</g>
			<g>
				<rect x="1187.8" y="713.094" fill="#EF4135" width="4.352" height="46.289"/>
			</g>
		</g>
		<g>
			<path fill="#ACA095" d="M1206.425,653.139c-2.465-11.211-7.348-20.201-14.334-23.545c-20.473-9.793-37.709,10.998-37.709,10.998
				l-6.832,12.547h24.662l-6.986,15.195c-28.818,0-10.074,57.211,14.41,57.211C1210.696,725.545,1212.765,681.984,1206.425,653.139z
				"/>
		</g>
		<g>
			<path fill="#FBB034" d="M1193.587,653.139c-1.986-9.043-5.926-16.295-11.561-18.992c-16.512-7.898-30.416,8.873-30.416,8.873
				l-5.512,10.119h19.893H1193.587z"/>
		</g>
		<g>
			<polygon fill="#EF4135" points="1118.694,653.139 1153.978,640.592 1157.991,653.139 			"/>
		</g>
		<g>
			<path fill="#ACA095" d="M1118.694,653.139c0,0,26.557-0.838,37.227-6.467l2.07,6.467H1118.694z"/>
		</g>
		<g>
			<path fill="#686664" d="M1163.308,645.746c0-4.393,3.562-7.955,7.957-7.955c4.393,0,7.955,3.562,7.955,7.955"/>
		</g>
		<g>
			<circle fill="#FFFFFF" cx="1174.033" cy="641.77" r="1.292"/>
		</g>
		<g>
			<path fill="#8B8179" d="M1237.028,642.494c-1.617,0-2.918,3.455-2.918,3.455s1.65-9.707-2.904-10.223
				c-4.531-0.51-6.475,10.223-6.475,10.223s1.443-8.863-2.322-9.297c-7.012-0.807-8.275,16.02-7.773,33.143
				c-11.186,0.855-19.893,1.996-19.893,1.996c0.99,10.006,10.242,16.479,21.32,20.189c5.07,1.697,10.523,2.816,15.746,3.428
				c4.959-7.045,7.852-17.041,9.096-26.459C1242.739,655.086,1241.003,642.494,1237.028,642.494z"/>
		</g>
	</g>
	<g>
		<g>
			<path fill="#786C62" d="M1109.243,673.488c0,1.492-2.945,2.715-3.393,2.893v-5.938
				C1107.991,671.209,1109.243,672.236,1109.243,673.488z"/>
		</g>
		<g>
			<path fill="#786C62" d="M1116.009,679.311c0.49,4.34-9.334,6.303-10.158,6.459v-9.375
				C1106.636,676.27,1115.517,674.955,1116.009,679.311z"/>
		</g>
	</g>
</g>
<g>
	<g>
		<path fill="#AA9C7B" d="M1357.844,461.873c0-6.989,5.66-12.652,12.648-12.654c6.99,0.002,12.656,5.667,12.656,12.653
			c-0.004,6.988-5.666,12.651-12.656,12.653C1363.508,474.525,1357.844,468.86,1357.844,461.873z"/>
		<g>
			<g>
				<path fill="#AA9C7B" d="M1335.629,426.77c2.652-2.65,6.953-2.65,9.605-0.001c2.654,2.654,2.654,6.955,0.002,9.607
					c-2.654,2.653-6.955,2.653-9.609,0C1332.975,433.724,1332.978,429.423,1335.629,426.77z"/>
				
					<rect x="1334.329" y="441.982" transform="matrix(-0.7071 -0.7071 0.7071 -0.7071 1998.1743 1720.5608)" fill="#AA9C7B" width="42.229" height="8.889"/>
			</g>
			<g>
				<polygon fill="#AA9C7B" points="1305.514,407.241 1337.535,434.94 1343.82,428.655 1316.123,396.63 				"/>
				<g>
					<path fill="#786C62" d="M1300.207,401.936c2.932-2.933,7.682-2.931,10.609,0l-5.303,5.306L1300.207,401.936z"/>
					<path fill="#786C62" d="M1310.816,401.933c-2.928-2.928-2.932-7.677,0-10.608l5.307,5.306l-5.307,5.306V401.933z"/>
					<path fill="#786C62" d="M1321.047,391.708c2.932,2.93,2.932,7.679,0.002,10.609l-4.926-5.688L1321.047,391.708
						L1321.047,391.708z"/>
				</g>
				<rect x="1305.514" y="407.241" fill="#E5D0A1" width="0" height="0"/>
				<polygon fill="#E5D0A1" points="1321.031,402.305 1316.123,396.63 1305.514,407.241 1311.188,412.149 				"/>
			</g>
		</g>
	</g>
	<g>
		<polygon fill="#8B8179" points="1416.064,437.185 1411.252,439.312 1411.252,344.245 1416.064,342.117 		"/>
		<path fill="#AA9C7B" d="M1384.912,495.984c0,0-0.24,57.255-3.185,69.631c-2.946,12.377-20.233,21.851-20.233,21.851h30.645V497.36
			L1384.912,495.984z"/>
		<path fill="#AA9C7B" d="M1381.141,539.664c0,3.751,3.039,6.794,6.793,6.794c3.752,0,6.791-3.043,6.791-6.794
			c0-3.754-3.039-6.794-6.791-6.794C1384.18,532.87,1381.141,535.91,1381.141,539.664z"/>
		<path fill="#E5D0A1" d="M1361.494,587.466h30.645v-21.62h-10.477C1378.561,578.108,1361.494,587.466,1361.494,587.466z"/>
		<path fill="#786C62" d="M1372.805,579.146c-5.471,5.115-11.311,8.319-11.311,8.319h30.645v-3.71L1372.805,579.146z"/>
		<polygon fill="#AA9C7B" points="1392.65,328.931 1388.119,328.931 1388.119,313.101 1396.727,313.101 		"/>
		<path fill="#E5D0A1" d="M1421.682,324.469c-0.143-0.054-3.504-1.296-7.316-1.296c-2.295,0-4.328,0.443-6.047,1.316
			c-1.553,0.79-2.633,1.636-3.389,2.499c-0.377,0-0.76,0-1.154,0c-5.223,0-11.854,0-15.314,0c-6.242,0-8.217,0.468-12.062,3.446
			c-3.844,2.979-22.93,17.771-22.93,17.771l0.004,0.006l-1.062,0.821h-5.594c-1.432,0-2.596,1.163-2.596,2.595v3.753l-0.053,0.042
			c-2.953,2.288-3.492,6.535-1.203,9.49c1.332,1.718,3.33,2.617,5.352,2.617c1.447,0,2.904-0.459,4.137-1.416l11.912-9.231h29.064
			l-22.791,96.721c0,0-7.84-0.396-8.439,8.27c-0.812,11.749,4.215,48.933,49.053,48.933V340.038
			c1.277-0.061,2.686-0.477,4.309-1.303c5.52-2.807,7.664-9.975,7.891-10.783l0.713-2.552L1421.682,324.469z"/>
		<path fill="#8B8179" d="M1411.252,326.452v10.7c0.795-0.063,1.762-0.362,3-0.991c4.547-2.313,6.416-8.987,6.416-8.987
			S1415.584,325.275,1411.252,326.452z"/>
		<g>
			<path fill="#8B8179" d="M1379.434,337.152c0.711,2.849,3.283,4.965,6.352,4.965c3.07,0,5.641-2.116,6.352-4.965H1379.434z"/>
			<g>
				<path fill="#8B8179" d="M1383.576,339.208c-2.422,0-6.051,0-6.469,0c-2.822,0-3.537-2.056-3.537-2.056h6.824
					c0,0,1.088,0,2.627,0c0.926,0,1.258,1.007,0.762,1.747C1383.729,338.979,1383.658,339.086,1383.576,339.208z"/>
			</g>
		</g>
		<path fill="#786C62" d="M1382.381,337.152c0.381,1.528,1.758,2.662,3.404,2.662c1.645,0,3.023-1.134,3.404-2.662H1382.381z"/>
		<path fill="#E5D0A1" d="M1414.436,565.615c-2.945-12.376-3.184-69.631-3.184-69.631l-7.227,1.376v90.105h30.645
			C1434.67,587.466,1417.383,577.992,1414.436,565.615z"/>
		<path fill="#E5D0A1" d="M1415.023,539.664c0,3.751-3.039,6.794-6.793,6.794c-3.752,0-6.791-3.043-6.791-6.794
			c0-3.754,3.039-6.794,6.791-6.794C1411.984,532.87,1415.023,535.91,1415.023,539.664z"/>
		<path fill="#8B8179" d="M1349.965,353.042c0,0.945-0.766,1.713-1.713,1.713s-1.715-0.768-1.715-1.713
			c0-0.949,0.768-1.717,1.715-1.717S1349.965,352.093,1349.965,353.042z"/>
		<polygon fill="#E5D0A1" points="1404.311,328.931 1399.775,328.931 1399.775,313.101 1408.385,313.101 		"/>
		<path fill="#8B8179" d="M1343.791,365.786c0.639,0.576,1.361,1.016,2.141,1.307l5.996-4.646c3.998-3.098,5.648-6.564,6.252-8.232
			h2.127v-2.345h-5.859v2.345h1.209c-0.697,1.554-2.184,4.068-5.166,6.38L1343.791,365.786z"/>
		<path fill="#EDE0C3" d="M1434.67,587.466c0,0-17.064-9.357-20.17-21.62h-10.475v21.62H1434.67z"/>
		<path fill="#786C62" d="M1423.359,579.146c5.471,5.115,11.311,8.319,11.311,8.319h-30.645v-3.71L1423.359,579.146z"/>
		<circle fill="#BDAD87" cx="1411.252" cy="461.873" r="12.652"/>
		<g>
			<path fill="#BDAD87" d="M1446.117,496.974c-2.654,2.654-6.951,2.654-9.605,0.001c-2.656-2.652-2.652-6.954,0-9.606
				c2.654-2.653,6.955-2.653,9.605,0C1448.773,490.021,1448.77,494.32,1446.117,496.974z"/>
			
				<rect x="1405.188" y="472.876" transform="matrix(0.7071 0.7071 -0.7071 0.7071 755.2928 -868.7562)" fill="#BDAD87" width="42.231" height="8.889"/>
		</g>
		<g>
			<polygon fill="#BDAD87" points="1448.848,534.822 1445.791,492.593 1436.902,492.594 1433.844,534.824 			"/>
			<g>
				<path fill="#786C62" d="M1448.848,542.326c-4.145,0-7.502-3.358-7.504-7.502h7.504V542.326z"/>
				<path fill="#786C62" d="M1441.344,534.825c0.002,4.143-3.355,7.502-7.5,7.502v-7.503L1441.344,534.825
					C1441.346,534.824,1441.346,534.824,1441.344,534.825z"/>
				<path fill="#786C62" d="M1426.881,534.82c0-4.143,3.355-7.5,7.502-7.5l-0.539,7.504h-6.963V534.82z"/>
			</g>
			<rect x="1448.848" y="534.822" fill="#E5D0A1" width="0" height="0"/>
			<polygon fill="#E5D0A1" points="1434.383,527.34 1433.844,534.823 1448.848,534.822 1448.307,527.34 			"/>
		</g>
		<path fill="#BDAD87" d="M1376.361,351.603c-0.111,0.899,2.438,3.575,3.916,3.178c1.479-0.396,4.139-2.897,3.684-3.939
			c-0.451-1.041-3.592-2.458-4.994-1.721C1377.566,349.856,1376.461,350.803,1376.361,351.603z"/>
		<path fill="#BDAD87" d="M1388.961,346.676c-1.508,1.46-2.039,7.644,0.592,7.728c2.633,0.085,9.174-0.594,9.26-3.312
			C1398.895,348.374,1391.766,343.959,1388.961,346.676z"/>
		<path fill="#BDAD87" d="M1400.209,340.667c-2.332,1.308-1.498,7.609,2.154,9.052c3.65,1.443,6.963-3.312,5.688-5.267
			C1406.777,342.501,1401.961,339.683,1400.209,340.667z"/>
		<path fill="#BDAD87" d="M1407.98,353.827c1.111,1.048,2.762,4.176,1.336,6.611c-1.719,2.932-6.227,2.215-9.889,2.714
			c-2.443,0.331-4.879-6.683-0.242-8.906C1403.818,352.024,1406.328,352.269,1407.98,353.827z"/>
		<path fill="#BDAD87" d="M1391.967,363.087c3.049-0.639,4.938-0.73,4.912,5.258c-0.027,5.987,1.502,11.465-1.873,12.166
			l-7.666,2.223L1391.967,363.087z"/>
		<path fill="#BDAD87" d="M1400.391,332.819c-1.9,1.007-0.764,6.225,2.736,5.906c3.504-0.319,4.205-3.057,3.889-4.012
			C1406.697,333.757,1403.002,331.436,1400.391,332.819z"/>
		<path fill="#BDAD87" d="M1399.545,366.456c-1.383,2.279-0.129,9.405,0.637,11.953s6.08,4.203,7.689,3.439
			c1.611-0.764,1.1-12.867,0.91-14.523C1408.59,365.669,1400.689,364.567,1399.545,366.456z"/>
		<path fill="#BDAD87" d="M1388.119,386.31c0.748-2.196,7.754-3.059,9.082-1.531c1.328,1.531,2.748,17.157,0,19.364
			s-6.447,3.905-9.861,2.888C1383.924,406.011,1386.676,390.526,1388.119,386.31z"/>
		<path fill="#BDAD87" d="M1403.279,386.052c-1.547,2.041-0.285,10.191,0.688,12.739s7.285,3.312,7.285,3.312v-13.631
			C1411.252,388.473,1404.033,385.06,1403.279,386.052z"/>
		<path fill="#BDAD87" d="M1402.01,404.611c-1.496-0.101-10.742,5.537-10.939,7.749c-0.193,2.215-0.197,13.219,2.736,14.066
			c2.928,0.847,9.701,2.021,11.98,0c2.279-2.02,3.322-13.611,3.062-17.128C1408.588,405.784,1403.967,404.743,1402.01,404.611z"/>
		<path fill="#BDAD87" d="M1379.553,415.781c0,0,3.576-5.44,5.76-5.562s3.273,9.456,2.729,12.608s-4.609,6.124-6.85,5.819
			c-2.244-0.304-3.799-3.707-3.799-3.707L1379.553,415.781z"/>
		<path fill="#BDAD87" d="M1388.529,429.136c-2.473,0.285-8.23,4.059-8.117,6.876c0.111,2.821-0.311,8.797,2.326,9.361
			c2.635,0.563,9.68,3.045,12.697,0.902s4.482-4.85,3.807-9.586C1398.568,431.954,1391.463,428.796,1388.529,429.136z"/>
		<path fill="#BDAD87" d="M1411.252,430.639c0,0-6.822,0.128-7.586,1.784c-0.762,1.656,0.129,9.809,1.783,11.337
			c1.658,1.528,5.803,2.038,5.803,2.038V430.639z"/>
		<path fill="#BDAD87" d="M1367.055,459.685c1.398-0.472,4.244,0.906,5.258,2.29c1.098,1.501,0.32,5.436-0.32,6.927
			c-0.637,1.493-3.623,2.823-5.486,2.451c-1.863-0.374-2.184-4.102-2.24-6.181C1364.213,463.094,1365.633,460.164,1367.055,459.685z
			"/>
		<path fill="#BDAD87" d="M1377.859,447.679c-2.047-0.287-5.176,4.033-4.986,7.072c0.15,2.439,1.98,4.998,4.221,5.616
			c2.238,0.616,5.773-2.351,6.285-5.196C1383.894,452.325,1380.688,448.077,1377.859,447.679z"/>
		<path fill="#BDAD87" d="M1373.639,473.421c1.311-0.284,4.336,3.719,3.922,6.714c-0.41,2.994-5.301,3.305-6.213,1.755
			C1370.438,480.342,1371.262,473.938,1373.639,473.421z"/>
		<path fill="#BDAD87" d="M1374.211,486.88c-1.473,0.337-2.734,4.005-1.623,5.168c1.049,1.096,3.639,2.459,4.869,2.066
			c1.229-0.394,1.734-3.35,1.457-4.478C1378.637,488.508,1375.736,486.531,1374.211,486.88z"/>
		<path fill="#BDAD87" d="M1384.141,478.202c-1.957-0.304-3.645,3.82-3.051,4.925c0.596,1.105,2.719,2.72,4.586,2.125
			s2.082-1.998,1.764-3.929C1387.121,479.391,1385.24,478.371,1384.141,478.202z"/>
		<path fill="#BDAD87" d="M1387.562,468.909c0.387-2.196-2.086-5.89-3.215-6.316c-1.133-0.424-6.617,1.981-6.746,4.287
			c-0.131,2.306,1.492,6.292,3.062,6.942C1382.24,474.477,1387.174,471.104,1387.562,468.909z"/>
		<path fill="#BDAD87" d="M1374.686,436.436c0,0,2.881,3.68,2.092,6.66c-0.789,2.979-4.613,4.037-4.613,4.037L1374.686,436.436z"/>
		<path fill="#BDAD87" d="M1364.773,480.344c0,0,2.508,0.396,3.291,2.26c0.787,1.864-0.387,4.742-0.387,4.742
			S1365.912,483.846,1364.773,480.344z"/>
		<path fill="#BDAD87" d="M1393.211,450.212c-3.842-0.886-6.83,1.632-6.516,4.245c0.314,2.611,0.965,5.997,4.447,5.992
			c3.484-0.005,6.002-5.348,6.43-7.14C1398,451.519,1394.627,450.538,1393.211,450.212z"/>
		<path fill="#BDAD87" d="M1390.512,489.336c-0.049-2.129-4.707-1.383-5.35-0.167c-0.504,0.955-1.682,4.419-0.172,4.87
			C1385.891,494.308,1390.631,494.726,1390.512,489.336z"/>
		<path fill="#BDAD87" d="M1392.52,467.138c-2.611,0.885-2.717,8.071,0.678,9.261c3.398,1.188,7.562,0.084,7.477-1.699
			C1400.59,472.915,1397.531,465.439,1392.52,467.138z"/>
		<path fill="#BDAD87" d="M1393.865,481.564c-0.988,0.248-2.035,4.431-0.763,5.562c1.272,1.128,3.233,2.488,4.548,1.894
			c1.311-0.596,3.064-4.675,2.402-5.396C1399.387,482.905,1395.82,481.07,1393.865,481.564z"/>
		<path fill="#BDAD87" d="M1406.854,477.318c-2.984,0.639-4.416,5.276-1.273,8.003c3.141,2.728,5.672,0.859,5.672,0.859v-7.134
			C1411.252,479.047,1408.979,476.865,1406.854,477.318z"/>
		<path fill="#BDAD87" d="M1403.848,496.995c1.117,0.244,3.916-2.557,3.311-3.583c-0.602-1.026-2.291-3.42-3.613-3.663
			c-1.324-0.244-3.396,2.851-3.48,4.064C1399.98,495.028,1402.859,496.779,1403.848,496.995z"/>
		<path fill="#BDAD87" d="M1394.113,495.147c-1.385-0.531-3.934,1.488-3.803,2.472c0.133,0.981,1.029,4.24,3.199,4.256
			c2.168,0.016,3.152-1.505,3.125-2.72C1396.604,497.94,1395.066,495.513,1394.113,495.147z"/>
		<path fill="#BDAD87" d="M1380.357,496.883c-0.951,0.446-1.318,2.418,0,3.734c1.316,1.317,3.27,2.301,4.373,1.131
			c1.104-1.172,0.764-1.896,0.424-3.169C1384.812,497.306,1381.799,496.205,1380.357,496.883z"/>
		<path fill="#BDAD87" d="M1411.26,498.307l0.084,7.354c0,0-3.434-1.479-3.658-3.124
			C1407.459,500.89,1409.318,498.532,1411.26,498.307z"/>
	</g>
</g>
<rect y="-4" fill="#F6921E" width="1802" height="174"/>
<rect y="790" fill="#52C1B7" width="1804" height="142"/>
</svg>
