<?xml version="1.0" encoding="utf-8"?>
<!-- Generator: Adobe Illustrator 18.1.1, SVG Export Plug-In . SVG Version: 6.00 Build 0)  -->
<!DOCTYPE svg PUBLIC "-//W3C//DTD SVG 1.1//EN" "http://www.w3.org/Graphics/SVG/1.1/DTD/svg11.dtd">
<svg version="1.1" xmlns="http://www.w3.org/2000/svg" xmlns:xlink="http://www.w3.org/1999/xlink" x="0px" y="0px"
	 viewBox="0 0 149.9 157.5" enable-background="new 0 0 149.9 157.5" xml:space="preserve">
<g id="Layer_1">
</g>
<g id="icono">
	<g>
		<g>
			<g>
				<defs>
					<circle id="SVGID_1_" cx="74.3" cy="80.4" r="69.3"/>
				</defs>
				<clipPath id="SVGID_2_">
					<use xlink:href="#SVGID_1_"  overflow="visible"/>
				</clipPath>
				<g clip-path="url(#SVGID_2_)">
					<g>
						<path fill="#776C62" d="M132.6,142.7c-6.6,0.8-0.5,5.1-0.5,5.1l2.5-5.3C133.9,142.6,133.3,142.6,132.6,142.7z"/>
					</g>
					<g>
						<polygon fill="#DED7D1" points="132.1,147.8 132.1,147.8 132.1,147.8 						"/>
					</g>
					<path fill="#776C62" d="M132.4,147.8"/>
					<g>
						<g>
							<path fill="#776C62" d="M62.4,124.5c19.8-23.4,56.2-3.6,71.6,17.2c0.6,0.8-1.9,6.1-1.9,6.1l-5,10.2c0,0,9.1,4.6,6.2,8.1
								C121,180.7,62.4,124.5,62.4,124.5z"/>
						</g>
						<polygon fill="#776C62" points="17,153.6 57.8,162.9 58.7,172.9 18.9,176.2 						"/>
						<path fill="#ACA095" d="M30.8,89.9c1.8-13.7,6.8-25,14.9-29.7C69.3,46.4,92,69.6,92,69.6l9.4,14.4l-29.6,2.4l9.9,17.6
							c34.6-2.9,17.8,67.7-11.6,70.1C32.8,177.2,26,125.1,30.8,89.9z"/>
						<path fill="#FBB034" d="M46.2,88.6c1.5-11.1,5.5-20.2,12-24c19-11.1,37.4,7.6,37.4,7.6l7.6,11.6l-23.9,2L46.2,88.6z"/>
						<polygon fill="#EF4135" points="136.1,81.2 92.5,69.6 89,85.1 						"/>
						<path fill="#ACA095" d="M136.1,81.2c0,0-32,1.6-45.3-4.1l-1.8,8L136.1,81.2z"/>
						<path fill="#696664" d="M81.8,76.7c-0.4-5.3-5.1-9.2-10.3-8.8c-5.3,0.4-9.2,5.1-8.8,10.3"/>
						<circle fill="#FFFFFF" cx="68.6" cy="73" r="1.6"/>
						<g>
							<path fill="#8C8179" d="M29.6,117.2c31.7-2.6,43.2,40.3,37.9,65.7c-1.4,6.5-5.4-0.4-5.4-0.4s3.9,11.1-1.2,13.4
								c-5,2.3-9.3-9.3-9.3-9.3s3.2,9.7-1.4,10.1C31.3,198.4,29.6,117.2,29.6,117.2z"/>
						</g>
						<g>
							<circle fill="#FFFFFF" cx="118.5" cy="149.3" r="2.3"/>
						</g>
						<g>
							<path fill="#776C62" d="M119,148.1c-2.6,4.5,7.2,9.5,8.3,10l4.8-10.3C132.1,147.8,121.7,143.3,119,148.1z"/>
						</g>
						<path fill="#696664" d="M52.8,67.3l-0.1-1.4l37-3.1l0.1,1.4c0.8,10.2-6.8,19.2-17,20C62.6,85.1,53.7,77.5,52.8,67.3z
							 M55.8,68.4c1.4,7.9,8.6,13.7,16.8,13c8.2-0.7,14.4-7.5,14.5-15.6L55.8,68.4z"/>
						<path fill="#FFFFFF" d="M76.6,127.6c-0.3-3.1,2-5.8,5.1-6c3.1-0.3,5.8,2,6,5.1c0.3,3.1-2,5.8-5.1,6
							C79.6,133,76.9,130.7,76.6,127.6z M79.4,127.4c0.1,1.5,1.5,2.7,3,2.6c1.5-0.1,2.7-1.5,2.6-3c-0.1-1.5-1.5-2.7-3-2.6
							S79.3,125.8,79.4,127.4z"/>
						
							<rect x="51.2" y="89.5" transform="matrix(-0.3343 0.9425 -0.9425 -0.3343 180.1642 106.0399)" fill="#FFFFFF" width="2.8" height="54.3"/>
						
							<rect x="76.8" y="110.7" transform="matrix(-0.4191 0.9079 -0.9079 -0.4191 228.2758 78.166)" fill="#FFFFFF" width="24.7" height="2.8"/>
						<g>
							
								<rect x="33.7" y="54.7" transform="matrix(-0.9004 0.4351 -0.4351 -0.9004 117.4788 89.4987)" fill="#EF4135" width="29.7" height="6.9"/>
						</g>
						<g>
							<path fill="#FBB034" d="M58.8,49.4c-3.1-6.5-11-9.2-17.5-6.1c-6.5,3.1-9.2,11-6.1,17.5"/>
						</g>
						<g>
							<path fill="#FBB034" d="M35.2,60.8c-3.1-6.5-0.4-14.3,6.1-17.5c6.5-3.1,14.3-0.4,17.5,6.1"/>
						</g>
						<g>
							<path fill="#F68F75" d="M58.8,49.4c-3.1-6.5-11-9.2-17.5-6.1c-6.5,3.1-9.2,11-6.1,17.5"/>
						</g>
						<g>
							<circle fill="#EF4135" cx="39.9" cy="40.5" r="4.8"/>
						</g>
					</g>
				</g>
			</g>
		</g>
		<g>
			<g>
				<circle fill="none" stroke="#FECD85" stroke-width="9.3589" stroke-miterlimit="10" cx="74.3" cy="80.4" r="69.3"/>
			</g>
		</g>
	</g>
</g>
</svg>
