<?xml version="1.0" encoding="utf-8"?>
<!-- Generator: Adobe Illustrator 15.0.2, SVG Export Plug-In . SVG Version: 6.00 Build 0)  -->
<!DOCTYPE svg PUBLIC "-//W3C//DTD SVG 1.1//EN" "http://www.w3.org/Graphics/SVG/1.1/DTD/svg11.dtd">
<svg version="1.1" id="Layer_1" xmlns="http://www.w3.org/2000/svg" xmlns:xlink="http://www.w3.org/1999/xlink" x="0px" y="0px"
	 width="640px" height="915px" viewBox="0 0 640 915" enable-background="new 0 0 640 915" xml:space="preserve">
<rect x="2.478" fill="#F6921E" width="637.908" height="915.516"/>
<g>
	<path fill="#52C1B7" d="M418.49,325.208c-54.822,0-59.893,34.932-6.243,34.932c56.088,0,29.04,29.476,69.308,29.476
		c30.4,0,145.033-26.197,145.033-45.424c0-16.533-30.629-18.984-69.864-18.984C541.739,325.208,454.483,325.208,418.49,325.208z"/>
</g>
<g>
	<path fill="#52C1B7" d="M312.459,883.276c148.586,0,222.905,32.239,332.541,32.239H97.287
		C97.287,915.516,163.873,883.276,312.459,883.276z"/>
</g>
<path fill="#FAAF40" d="M97.65,563.978c-4.205,0-8.553-0.307-12.971-0.803v-22.306h-2.477v22.01c-1.02-0.129-2.042-0.265-3.068-0.41
	v-21.6h-2.477v21.232c-1.021-0.156-2.043-0.321-3.066-0.49v-20.742h-2.477v20.326c-1.022-0.176-2.044-0.355-3.066-0.538v-19.788
	h-2.477v19.34c-1.024-0.188-2.047-0.376-3.067-0.566v-18.773h-2.477v18.312c-0.006-0.001-0.013-0.002-0.02-0.003
	c-1.022-0.191-2.037-0.381-3.047-0.567v-17.741h-2.476v17.285c-1.03-0.189-2.053-0.373-3.067-0.552v-16.733h-2.477v16.305
	c-6.97-1.181-13.467-2.04-19.081-2.04v2.477c8.27,0,18.676,1.944,29.693,4.001c5.658,1.057,11.402,2.129,17.105,2.995v0.026h0.18
	c7.084,1.071,14.103,1.822,20.812,1.822V563.978z"/>
<g>
	<circle fill="#FAAF40" cx="575.121" cy="717.469" r="3.554"/>
</g>
<g>
	<circle fill="#FAAF40" cx="36.46" cy="733.581" r="3.554"/>
</g>
<g>
	<g>
		<circle fill="#FAAF40" cx="307.15" cy="335.365" r="3.554"/>
	</g>
	<g>
		<circle fill="#FAAF40" cx="314.499" cy="344.833" r="3.554"/>
	</g>
	<g>
		<circle fill="#FAAF40" cx="317.062" cy="337.163" r="1.798"/>
	</g>
</g>
<g>
	<circle fill="#FAAF40" cx="347.634" cy="688.311" r="3.554"/>
</g>
<g>
	<circle fill="#FAAF40" cx="58.328" cy="471.688" r="3.554"/>
</g>
<g>
	<circle fill="#FAAF40" cx="68.3" cy="472.722" r="3.554"/>
</g>
<g>
	<circle fill="#FAAF40" cx="451.43" cy="546.504" r="3.554"/>
</g>
<g>
	<circle fill="#FAAF40" cx="598.774" cy="233.583" r="3.554"/>
</g>
<g>
	<circle fill="#FAAF40" cx="355.8" cy="680.93" r="3.554"/>
</g>
<g>
	<circle fill="#FAAF40" cx="358.704" cy="690.449" r="1.798"/>
</g>
<g>
	<circle fill="#FAAF40" cx="63.756" cy="463.994" r="1.798"/>
</g>
<g>
	<circle fill="#FAAF40" cx="566.715" cy="721.465" r="1.798"/>
</g>
<g>
	<path fill="#FAAF40" d="M371.188,40.42c-72.885,0-131.97,59.085-131.97,131.97h263.939C503.158,99.505,444.073,40.42,371.188,40.42
		z"/>
</g>
<path fill="#F26F21" d="M198.925,155.739h-34.754c0.375-0.494,0.755-0.983,1.115-1.489c1.217-1.701,2.333-3.473,3.348-5.298
	c3.367-0.62,16.066-3.773,17.372-15.979c1.535-0.802,2.859-1.952,3.87-3.346c0.659,0.248,1.367,0.4,2.112,0.4
	c3.083,0,5.596-2.333,5.936-5.33h-48.54c0.324,1.973,2.021,3.478,4.081,3.478c0.328,0,0.64-0.047,0.947-0.119
	c2.003,3.289,5.61,5.495,9.744,5.495c0.544,0,1.077-0.049,1.601-0.125c1.095,2.05,3.167,3.498,5.609,3.664
	c-1.865,5.618-4.631,10.909-8.202,15.604c-0.793,1.047-1.633,2.055-2.493,3.045h-9.351c0.066,2.547,1.145,4.844,2.85,6.496
	c-2.371,2.072-4.872,4.006-7.47,5.798c-6.217,4.326-12.944,7.89-19.75,11.466c-3.404,1.809-6.843,3.591-10.208,5.786
	c-0.965,0.641-1.928,1.317-2.864,2.08v-13.978c0.23-1.848,0.858-3.827,1.621-5.755c1.026-2.56,2.321-5.097,3.691-7.615
	c2.756-5.034,5.829-10.001,8.732-15.096c2.907-5.09,5.704-10.306,7.899-15.829c1.495-3.775,2.729-7.753,3.314-11.825
	c0.595,0.173,1.223,0.269,1.876,0.269c2.821,0,5.241-1.693,6.319-4.116c1.345,0.759,2.878,1.229,4.534,1.229
	c3.919,0,7.256-2.431,8.626-5.862c0.221,0.034,0.442,0.068,0.673,0.068c2.134,0,3.917-1.524,4.315-3.542H69.395
	c0.441,5.9,5.355,10.55,11.367,10.55c2.258,0,4.359-0.665,6.131-1.798c0.489,4.309,4.105,7.667,8.543,7.667
	c1.73,0,3.323-0.536,4.669-1.42c0.55,2.664,1.703,5.174,2.949,7.469c1.8,3.27,3.903,6.288,5.935,9.294
	c2.03,3.002,4.034,5.992,5.62,9.107c1.43,2.812,2.492,5.774,2.621,8.67c-0.624,0.982-1.246,1.966-1.856,2.965
	c-1.536,2.531-3.022,5.125-4.299,7.921c-0.958,2.169-1.866,4.465-2.28,7.041l-1.361,6.502c-2.512-2.156-5.257-3.535-7.976-4.694
	c-2.97-1.225-5.957-2.18-8.944-3.007c-1.168-8.298-8.745-12.79-16.43-16.968c0.432-0.396,0.831-0.828,1.176-1.303
	c1.181,0.546,2.49,0.87,3.877,0.87c4.716,0,8.571-3.523,9.175-8.076H60.531c-3.45-3.003-6.049-6.653-6.915-11.543
	c0.541-0.187,1.061-0.422,1.556-0.695c0.498,1.5,1.897,2.586,3.563,2.586c1.803,0,3.307-1.266,3.681-2.959
	c0.826,0.279,1.695,0.467,2.616,0.467c2.985,0,5.569-1.608,7.007-3.989c0.383,0.112,0.78,0.188,1.198,0.188
	c2.432,0,4.403-1.973,4.403-4.402H30.717c0,2.087,1.689,3.776,3.772,3.776c0.365,0,0.709-0.07,1.042-0.165
	c0.842,1.368,2.144,2.414,3.687,2.938c1.127,4.597,5.277,10.447,15.806,10.626c0.794,1.136,1.691,2.189,2.669,3.173H21.225
	c0.579,3.236,3.394,5.699,6.799,5.699c1.696,0,3.228-0.634,4.429-1.644c0.888,1,1.948,1.842,3.133,2.484
	c2.635,5.629,15.077,10.5,23.119,13.13c1.914,1.016,3.895,1.829,5.874,2.581c5.547,2.062,11.175,3.603,16.7,5.292
	c5.507,1.686,11.009,3.422,15.934,5.853c2.435,1.22,4.733,2.646,6.383,4.346c1.104,1.131,1.812,2.309,2.141,3.542l-6.039,28.845
	h14.18v-22.06c0.857-1.901,3.047-3.726,5.295-5.31c3.016-2.102,6.357-3.971,9.688-5.866c5.342-3.011,10.746-6.081,15.91-9.562
	c2.021-0.295,4.648-0.253,7.381-0.213c5.077,0.086,11.194,0.182,16.129-1.89c2.536,1.506,5.037,2.271,7.463,2.271
	c0.957,0,1.904-0.12,2.835-0.354c3.781-0.954,6.397-3.604,7.769-5.345C193.134,167.842,198.636,162.468,198.925,155.739z
	 M177.74,133.753c1.004,0.298,2.065,0.467,3.167,0.467c1.045,0,2.055-0.149,3.014-0.422c-1.536,8.863-9.996,11.943-14.107,12.923
	c1.575-3.159,2.85-6.464,3.807-9.851C175.361,136.401,176.824,135.263,177.74,133.753z M117.568,144.598
	c-1.861-3.293-4.057-6.267-6.223-9.193c-2.166-2.928-4.352-5.797-6.189-8.83c-1.037-1.727-1.978-3.52-2.612-5.377
	c2.698,2.296,6.186,3.688,10.009,3.688c4.84,0,9.158-2.217,12-5.695c1.102,0.357,2.275,0.553,3.496,0.553
	c3.4,0,6.44-1.494,8.533-3.851c0.156,0.131,0.317,0.254,0.483,0.372c-0.698,4.044-2.1,7.971-3.798,11.748
	c-2.359,5.213-5.316,10.171-8.417,15.058c-1.541,2.431-3.129,4.841-4.715,7.269C119.486,148.295,118.566,146.38,117.568,144.598z
	 M41.356,132.675c0.018,0,0.035,0.003,0.052,0.003c0.917,0,1.789-0.188,2.591-0.511c1.692,1.771,4.065,2.888,6.707,2.888
	c0.339,0,0.673-0.024,1.001-0.062c0.397,2.191,1.11,4.154,2.07,5.928C46.005,140.384,42.553,136.257,41.356,132.675z
	 M38.791,153.794c0.71,0.139,1.443,0.216,2.195,0.216c1.221,0,2.394-0.196,3.497-0.551c1.823,2.226,4.253,3.934,7.036,4.875
	c0.252,1.084,0.759,2.134,1.42,2.973c0.138,0.182,0.292,0.344,0.439,0.515C46.397,159.14,41.299,156.331,38.791,153.794z
	 M65.576,165.413c-2.716-0.828-5.401-1.768-7.784-3.105c-1.548-0.873-2.976-1.979-3.79-3.358c0.808,0.13,1.635,0.202,2.479,0.202
	c3.303,0,6.357-1.039,8.873-2.802c0.917,0.334,1.893,0.543,2.924,0.543c1.462,0,2.833-0.37,4.035-1.014
	c7.544,4.087,14.631,8.031,16.115,15.143c-2.021-0.523-4.04-1.004-6.053-1.481C76.704,168.208,71.036,167.043,65.576,165.413z
	 M152.181,171.266c-1.503-0.025-2.943-0.048-4.283-0.02c0.241-0.175,0.485-0.343,0.725-0.52c2.824-2.073,5.541-4.321,8.1-6.739
	c1.198,0.56,2.528,0.881,3.939,0.881c3.148,0,5.918-1.568,7.616-3.947c1.252,0.893,2.774,1.436,4.43,1.436
	c0.577,0,1.133-0.079,1.671-0.207C171.215,171.567,161.134,171.404,152.181,171.266z M178.1,171.352
	c-2.445,0.622-5.031,0.24-7.709-1.096c2.524-1.538,4.577-3.85,5.782-7.308c1.88,2.438,4.62,4.175,7.769,4.75
	C182.638,169.093,180.668,170.705,178.1,171.352z"/>
<g>
	<path fill="#F26F21" d="M139.208,193.203H613.17c0,0-44.814-52.814-163.568-52.814c-51.295,0-75.021,26.023-146.984,26.023
		C221.513,166.413,139.208,193.203,139.208,193.203z"/>
</g>
<path fill="#FAAF40" d="M640.384,836.789c-19.741,2.003-41.297,3.126-65.118,3.126c-39.662,0-80.065-0.815-119.138-1.605
	c-94.871-1.916-184.481-3.727-260.873,5.473c-41.75,5.027-75.902,12.921-104.405,24.131c-30.594,12.029-54.252,27.641-72.117,47.603
	h50.739c77.809-50.406,228.074-47.377,385.989-44.188c39.236,0.791,79.811,1.611,119.805,1.611c23.605,0,45.202-1.078,65.118-3.005
	V836.789z"/>
<path fill="#FAAF40" d="M497.458,427.316c-0.256-0.11-0.512-0.223-0.768-0.333c-55.966-24.274-108.828-47.2-197.092-47.2
	c-97.967,0-195.042-12.919-266.333-35.446c-10.066-3.182-20.475-6.824-30.789-10.958v35.356c6.698,2.452,13.642,4.818,20.839,7.093
	c74.376,23.5,175.079,36.979,276.283,36.979c81.409,0,131.219,21.604,183.951,44.475c4.583,1.987,9.213,3.996,13.91,6.01
	c39.069,16.751,82.78,33.886,142.926,43.108v-33.358C580.666,463.302,538.534,445.131,497.458,427.316z"/>
<g>
	<rect x="429.411" y="607.197" fill="#FAAF40" width="161.612" height="2.477"/>
</g>
<g>
	<rect x="129.456" y="625.944" fill="#FAAF40" width="40.178" height="2.477"/>
</g>
<g>
	<rect x="392.852" y="213.755" fill="#FAAF40" width="58.757" height="2.477"/>
</g>
<g>
	<rect x="212.907" y="768.298" fill="#FAAF40" width="103.691" height="2.478"/>
</g>
<g>
	<rect x="2.477" y="663.354" fill="#FAAF40" width="70.503" height="2.478"/>
</g>
<g>
	<rect x="554.841" y="658.008" fill="#FAAF40" width="54.937" height="2.478"/>
</g>
<g>
	<rect x="23.871" y="245.11" fill="#FAAF40" width="78.891" height="2.477"/>
</g>
<g>
	<rect x="517.783" y="283.299" fill="#FAAF40" width="100.812" height="2.477"/>
</g>
<path fill="#FAAF40" d="M385.768,262.276v-7.751h-2.477v8.064c-1.023,0.137-2.046,0.279-3.066,0.432v-8.496h-2.477v8.88
	c-1.023,0.165-2.045,0.34-3.065,0.52v-9.399h-2.477v9.849c-1.023,0.191-2.046,0.387-3.067,0.591v-10.44h-2.477v10.947
	c-1.023,0.214-2.046,0.435-3.066,0.66v-11.606h-2.477v12.162c-1.024,0.233-2.047,0.471-3.068,0.713v-12.875h-2.477v13.471
	c-1.023,0.25-2.045,0.503-3.066,0.759v-14.23h-2.477v14.857c-1.023,0.263-2.045,0.527-3.066,0.793v-15.651h-2.477v16.303
	c-1.023,0.271-2.046,0.542-3.066,0.815v-17.118h-2.477v17.783c-1.024,0.275-2.047,0.552-3.068,0.829v-18.611H333.4v19.279
	c-1.024,0.277-2.047,0.553-3.066,0.827v-20.106h-2.477v20.771c-1.025,0.273-2.047,0.543-3.067,0.813v-21.583h-2.477v22.231
	c-1.024,0.267-2.047,0.531-3.066,0.79v-23.021h-2.477v23.64c-1.024,0.254-2.046,0.502-3.065,0.747v-24.386h-2.477v24.972
	c-1.024,0.238-2.047,0.472-3.067,0.697v-25.669h-2.478v26.197c-1.023,0.216-2.046,0.422-3.066,0.623v-26.82h-2.477v27.297
	c-1.024,0.189-2.047,0.372-3.067,0.543v-27.84h-2.477v28.23c-1.024,0.157-2.046,0.303-3.067,0.439v-28.669h-2.477v28.986
	c-4.729,0.552-9.423,0.87-14.091,0.87v2.477c19.65,0,39.563-5.383,60.646-11.083c22.166-5.993,45.086-12.189,68.842-12.189v-2.478
	C398.154,261.108,391.93,261.539,385.768,262.276z"/>
<path fill="#625048" d="M61.407,703.145c0,10.317,8.366,18.688,18.684,18.688c1.773,0,3.46-0.328,5.092-0.797
	c5.204,8.621,13.958,14.855,24.284,16.501c0.583,10.794,1.997,21.613,4.483,32.278c2.048,8.862,4.82,17.587,8.139,26.043
	c3.31,8.46,7.152,16.64,11.066,24.594c1.534,3.122,3.075,6.212,4.594,9.282c-5.38,0.394-10.76,0.434-16.095,0.013
	c-9.491-0.745-18.839-2.938-27.532-6.87c-8.693-3.909-16.698-9.564-23.487-16.631c-2.869-2.979-5.511-6.215-7.92-9.639
	c1.866-1.179,3.569-2.591,5.064-4.201c1.783,1.652,4.159,2.67,6.779,2.67c3.545,0,6.65-1.853,8.421-4.638
	c0.671,0.089,1.356,0.141,2.053,0.141c8.52,0,15.426-6.906,15.426-15.427H8.396c0,8.521,6.907,15.427,15.426,15.427
	c0.674,0,1.335-0.054,1.986-0.139c0.779,5.282,3.462,16.14,12.634,23.77c6.463,5.38,14.862,8.086,25.048,8.086
	c2.278,0,4.651-0.143,7.106-0.414c5.024,5.093,10.705,9.62,16.91,13.384c9.657,5.896,20.485,9.894,31.558,12.146
	c9.286,1.897,18.732,2.614,28.098,2.485c2.416,5.737,4.541,11.491,6.26,17.309c2.333,7.842,3.933,15.802,4.828,23.869
	c0.894,8.067,1.094,16.233,0.744,24.441h25.137c-0.354-9.327-1.336-18.709-3.128-27.976c-1.79-9.264-4.414-18.396-7.802-27.133
	c-3.371-8.748-7.483-17.074-11.879-24.986c-3.731-6.727-7.646-13.173-11.46-19.533c0.027-0.711,0.116-1.44,0.278-2.202
	c0.666-3.201,2.64-6.834,4.991-10.459c2.362-3.645,5.076-7.355,7.707-11.2c2.641-3.846,5.22-7.833,7.538-11.995
	c4.111-7.325,7.327-15.223,9.355-23.354c1.969,0.29,5.014,0.623,8.627,0.623c7.194,0,16.61-1.324,24.102-6.959
	c5.898-4.435,9.666-10.842,11.246-19.092c6.914-2.113,12.732-6.725,16.459-12.776c1.411,0.409,2.877,0.7,4.422,0.7
	c8.847,0,16.018-7.171,16.018-16.029H61.407z M41.113,811.064c-6.934-5.752-9.695-13.837-10.788-18.965
	c4.644,5.166,11.372,8.42,18.866,8.42c1.897,0,3.743-0.212,5.52-0.605c2.326,4.505,5.03,8.839,8.105,12.938
	c1.331,1.779,2.739,3.509,4.211,5.19C56.224,818.709,47.52,816.379,41.113,811.064z M162.823,775.404
	c-2.46,3.639-5.166,7.13-8.018,10.599c-2.846,3.481-5.853,6.914-8.813,10.71c-1.374,1.774-2.735,3.641-4.015,5.689
	c-2.297-4.095-4.491-8.209-6.525-12.386c-3.715-7.61-6.906-15.425-9.467-23.485c-2.995-9.376-5.105-19.058-6.486-28.918
	c2.247-0.343,4.421-0.909,6.528-1.62c1.588,7.187,7.973,12.555,15.627,12.555c7.074,0,13.01-4.616,15.129-10.982
	c5.653,3.124,12.042,5.05,18.953,5.05c0.233,0,0.463-0.015,0.696-0.019c-0.59,3.108-1.328,6.177-2.239,9.185
	C171.652,760.24,167.757,768.146,162.823,775.404z M209.992,747.032c-9.734,7.332-23.799,6.346-29.355,5.59
	c0.707-3.495,1.205-7.014,1.518-10.537c8.622-1.426,16.28-5.667,22.067-11.72c3.396,1.369,7.097,2.163,10.987,2.163
	c1.376,0,2.729-0.1,4.053-0.285C217.706,738.6,214.604,743.559,209.992,747.032z"/>
<g>
	<g>
		<g>
			<g>
				<g>
					<path fill="#C1B49A" d="M267.637,689.021c-3.128,3.131-6.202,1.644-6.202,1.644l7.567-7.569c0,0,2.103-2.102,3.807-3.806
						c1.277-1.278,2.715-0.135,3.466,1.097C272.689,683.973,267.997,688.662,267.637,689.021z"/>
				</g>
			</g>
			<g>
				<path fill="#C1B49A" d="M267.765,689.85c0.063-9.359,7.729-11.289,7.729-11.289l4.244-0.361v11.65H267.765z"/>
			</g>
			<g>
				<path fill="#C1B49A" d="M270.993,703.021c-1.402,0.339-3.228,0.134-3.228-1.677c0-2.408,0-9.692,0-9.692v-2.04h3.228
					C270.993,693.021,270.993,699.105,270.993,703.021z"/>
			</g>
			<g>
				<path fill="#C1B49A" d="M275.366,703.021c-1.403,0.339-3.227,0.134-3.227-1.677c0-2.408,0-9.692,0-9.692v-3.363h3.227
					C275.366,691.702,275.366,699.105,275.366,703.021z"/>
			</g>
			<g>
				<path fill="#C1B49A" d="M279.739,703.021c-1.4,0.339-3.225,0.134-3.225-1.677c0-2.408,0-9.692,0-9.692v-3.363h3.225
					C279.739,691.702,279.739,699.105,279.739,703.021z"/>
			</g>
		</g>
		<g>
			<path fill="#8B8179" d="M245.524,647.221v-3.085h34.214C279.739,644.136,264.034,663.769,245.524,647.221z"/>
		</g>
		<g>
			<path fill="#8B8179" d="M279.739,683.555v-39.419l-4.244,0.361c0,0-10.705,27.452-2.747,35.954
				C276.445,684.399,279.739,683.555,279.739,683.555z"/>
		</g>
	</g>
	<g>
		<g>
			<g>
				<path fill="#8B8179" d="M204.676,682.236h13.917c1.162,0,2.102-0.939,2.102-2.103s-0.94-2.104-2.102-2.104h-13.917
					c-7.6,0-13.785-6.186-13.785-13.788c0-5.85,4.759-10.608,10.609-10.608c4.446,0,8.062,3.62,8.062,8.068
					c0,3.326-2.704,6.031-6.03,6.031c-2.429,0-4.407-1.978-4.407-4.405c0-1.162-0.94-2.105-2.102-2.105
					c-1.163,0-2.104,0.943-2.104,2.105c0,4.75,3.864,8.612,8.612,8.612c5.645,0,10.239-4.594,10.239-10.238
					c0-6.769-5.504-12.275-12.271-12.275c-8.171,0-14.816,6.647-14.816,14.815C186.684,674.164,194.756,682.236,204.676,682.236z"/>
			</g>
		</g>
		<g>
			<g>
				<path fill="#8B8179" d="M248.51,699.493c-0.495,0-9.657,0-15.899,0c0.102-0.359,0.257-0.712,0.482-1.047
					c1.336-1.996,6.646-9.917,6.646-9.917l-9.602-3.223l0.559-5.428c0,0,10.197,3.318,11.897,3.867
					c1.697,0.547,2.879,1.544,2.321,4.613c-0.56,3.069-1.686,9.258-1.686,9.258c1.223,0,6.184,0,7.842,0
					c7.603,0,9.527,5.538,9.527,5.538h-5.788C254.81,703.155,253.537,699.493,248.51,699.493z"/>
			</g>
			<g>
				<path fill="#C1B49A" d="M232.611,699.493c6.242,0,15.404,0,15.899,0c5.027,0,6.3,3.662,6.3,3.662h-12.151h-0.439
					c0,0-2.937,0-7.076,0C233.07,703.155,232.107,701.274,232.611,699.493z"/>
			</g>
		</g>
		<g>
			<g>
				<path fill="#ACA095" d="M219.983,632.672c-14.612-18.009-6.533-37.686,10.11-39.599c12.31-1.415,20.587,5.784,23.06,15.716
					c-16.222-9.887-28.888,4.856-17.363,22.27c8.002,12.089,15.331,23.162,20.353,30.748c-3.361,13.343-16.018,24.979-36.16,24.979
					c-5.891,0-6.63,0-6.63,0l8.095-52.412C220.939,633.808,220.445,633.239,219.983,632.672z"/>
			</g>
			<g>
				<path fill="#C1B49A" d="M253.153,608.789c0.51,2.049,0.779,4.21,0.779,6.439c0,0.752,0,1.473,0,2.179
					c0,10.022,0,15.929,0,17.303c-2.292,0-4.918,0-7.688,0c3.838,1.877,7.155,4.97,9.02,9.95c2.069,5.52,2.306,11.486,0.879,17.146
					c-5.022-7.586-12.351-18.659-20.353-30.748C224.266,613.646,236.931,598.902,253.153,608.789z"/>
			</g>
			<g>
				<path fill="#D7CEBD" d="M253.153,608.789c0.51,2.049,0.779,4.21,0.779,6.439c0,0.752,0,1.473,0,2.179
					c0,10.022,0,15.929,0,17.303c-2.292,0-4.918,0-7.688,0c3.838,1.877,7.155,4.97,9.02,9.95c2.069,5.52,2.306,11.486,0.879,17.146
					c-5.022-7.586-12.351-18.659-20.353-30.748C224.266,613.646,236.931,598.902,253.153,608.789z"/>
			</g>
		</g>
		<g>
			<path fill="#ACA095" d="M203.551,699.493c0.492,0,9.656,0,15.897,0c-0.102-0.359-0.255-0.712-0.48-1.047
				c-1.336-1.996-6.645-9.917-6.645-9.917l9.598-3.223l-0.559-5.428c0,0-10.198,3.318-11.896,3.867
				c-1.698,0.547-2.879,1.544-2.32,4.613c0.557,3.069,1.683,9.258,1.683,9.258c-1.221,0-6.181,0-7.84,0
				c-7.603,0-9.528,5.538-9.528,5.538h5.789C197.251,703.155,198.525,699.493,203.551,699.493z"/>
		</g>
		<g>
			<path fill="#D7CEBD" d="M219.448,699.493c-6.241,0-15.405,0-15.897,0c-5.026,0-6.3,3.662-6.3,3.662h12.151h0.437
				c0,0,2.939,0,7.076,0C218.989,703.155,219.955,701.274,219.448,699.493z"/>
		</g>
		<g>
			<path fill="#8B8179" d="M238.795,617.365c0.771-2.118,2.783-3.639,5.168-3.639c2.383,0,4.395,1.521,5.165,3.639H238.795z"/>
		</g>
		<g>
			<g>
				<path fill="#C1B49A" d="M257.458,618.232c-0.176,0.324-0.287,0.691-0.287,1.085c0,1.256,1.016,2.274,2.271,2.274
					c0.692,0,1.305-0.317,1.722-0.807c4.812,5.051,4.618,13.925,0.549,13.925c-1.253,0-7.781,0-7.781,0s0-5.77,0-17.303
					C255.233,617.499,256.402,617.797,257.458,618.232z"/>
			</g>
			<g>
				<path fill="#8B8179" d="M259.442,621.592c-1.255,0-2.271-1.019-2.271-2.274c0-0.394,0.111-0.761,0.287-1.085
					c1.463,0.607,2.695,1.492,3.707,2.553C260.747,621.274,260.134,621.592,259.442,621.592z"/>
			</g>
		</g>
		<g>
			<g>
				<path fill="#8B8179" d="M256.08,625.184h1.936c0,3.693,1.456,4.963,6.736,5.206c-0.039,0.703-0.152,1.353-0.334,1.926
					C259.668,632.071,256.08,630.839,256.08,625.184z"/>
			</g>
		</g>
		<g>
			<g>
				<path fill="#D7CEBD" d="M220.725,605.003c3.342,0,5.398,2.353,6.657,5.523c-3.314,0.743-5.796,3.698-5.796,7.237
					c0,4.097,3.323,7.42,7.421,7.42c0.085,0,0.17-0.011,0.257-0.014c-0.04,1.342-0.108,2.179-0.108,2.179
					C212.624,627.349,213.277,605.003,220.725,605.003z"/>
			</g>
			<g>
				<path fill="#8B8179" d="M227.382,610.526c0.444,1.117,0.792,2.326,1.058,3.579c0.524,2.479,0.744,5.096,0.818,7.348
					c0.047,1.436,0.036,2.717,0.007,3.717c-0.087,0.003-0.172,0.014-0.257,0.014c-4.099,0-7.421-3.323-7.421-7.42
					C221.585,614.225,224.067,611.27,227.382,610.526z"/>
			</g>
		</g>
		<g>
			<g>
				<g>
					<g>
						<path fill="#D7CEBD" d="M205.478,601.054c3.127-3.132,6.203-1.642,6.203-1.642l-7.569,7.566c0,0-2.1,2.103-3.804,3.807
							c-1.28,1.279-2.717,0.136-3.465-1.099C200.427,606.102,205.118,601.413,205.478,601.054z"/>
					</g>
				</g>
				<g>
					<path fill="#D7CEBD" d="M205.349,600.227c-0.06,9.358-7.725,11.288-7.725,11.288l-4.247,0.361v-11.649H205.349z"/>
				</g>
				<g>
					<path fill="#D7CEBD" d="M202.121,587.057c1.404-0.341,3.228-0.135,3.228,1.672c0,2.413,0,9.695,0,9.695v2.04h-3.228
						C202.121,597.053,202.121,590.969,202.121,587.057z"/>
				</g>
				<g>
					<path fill="#D7CEBD" d="M197.747,587.057c1.405-0.341,3.229-0.135,3.229,1.672c0,2.413,0,9.695,0,9.695v3.363h-3.229
						C197.747,598.374,197.747,590.969,197.747,587.057z"/>
				</g>
				<g>
					<path fill="#D7CEBD" d="M193.376,587.057c1.401-0.341,3.224-0.135,3.224,1.672c0,2.413,0,9.695,0,9.695v3.363h-3.224
						C193.376,598.374,193.376,590.969,193.376,587.057z"/>
				</g>
			</g>
			<g>
				<path fill="#ACA095" d="M227.594,642.854v3.086h-34.217C193.376,645.94,209.081,626.307,227.594,642.854z"/>
			</g>
			<g>
				<path fill="#ACA095" d="M193.376,606.521v39.42l4.247-0.362c0,0,10.704-27.453,2.743-35.954
					C196.671,605.676,193.376,606.521,193.376,606.521z"/>
			</g>
		</g>
	</g>
</g>
<g>
	<g>
		<g>
			<g>
				<g>
					<path fill="#ACA095" d="M174.491,297.337c14.095,46.435,60.897,39.131,60.897,39.131v-34.174c0,0-27.072,4.136-42.934-16.618"
						/>
				</g>
			</g>
		</g>
		<g>
			<g>
				<g>
					<path fill="#C9C1B8" d="M235.388,325.071c3.144,0,5.693,2.551,5.693,5.697c0,3.145-2.548,5.694-5.693,5.692"/>
				</g>
			</g>
		</g>
		<g>
			<g>
				<g>
					<circle fill="#ACA095" cx="182.69" cy="293.581" r="18.394"/>
				</g>
			</g>
		</g>
		<g>
			<g>
				<g>
					<g>
						<g>
							<rect x="219.405" y="298.049" fill="#77736F" width="15.98" height="24.878"/>
						</g>
					</g>
					<g>
						<g>
							<rect x="221.597" y="300.255" fill="#77736F" width="11.598" height="17.021"/>
						</g>
					</g>
					<g>
						<g>
							<circle fill="#EF4135" cx="227.396" cy="319.992" r="1.547"/>
						</g>
					</g>
				</g>
				<g>
					<g>
						<g>
							<path fill="#DED7D1" d="M219.456,312.934L219.456,312.934c-0.029,0.006-0.051,0.008-0.051,0.008
								S219.427,312.938,219.456,312.934z"/>
						</g>
					</g>
				</g>
			</g>
		</g>
		<g>
			<g>
				<g>
					<path fill="#C9C1B8" d="M235.47,313.682c-3.143,0-5.692-2.549-5.692-5.693c0-3.146,2.549-5.694,5.693-5.694"/>
				</g>
			</g>
		</g>
		<g>
			<g>
				<g>
					<path fill="#C9C1B8" d="M235.471,325.071c-3.144,0-5.693-2.549-5.695-5.695c0.003-3.145,2.551-5.694,5.694-5.694"/>
				</g>
			</g>
		</g>
	</g>
	<g>
		<g>
			<path fill="#ACA095" d="M110.119,324.992l-18.461,18.465l0,0c0,0,19.467,19.181,21.823,21.456
				c2.357,2.275,8.17,4.052,12.151,0.012c5.19-5.267,21.402-21.806,21.402-21.806l-6.75-12.524l-18.31,12.121L110.119,324.992z"/>
		</g>
	</g>
	<g>
		<path fill="#DED7D1" d="M113.869,330.597l-3.75-5.605l-18.461,18.465c0.001,0.001,1.961,1.935,4.712,4.642L113.869,330.597z"/>
	</g>
	<g>
		<polygon fill="#ACA095" points="91.657,343.457 91.657,343.457 91.657,343.457 		"/>
	</g>
	<g>
		<path fill="#ACA095" d="M154.517,209.213l1.578,37.136c2.227-1.032,8.071-1.032,10.296,0v-18.568
			C166.392,219.546,161.523,212.467,154.517,209.213z"/>
	</g>
	<g>
		<path fill="#C9C1B8" d="M136.446,209.213l1.579,37.136c2.225-1.032,8.071-1.032,10.296,0v-18.568
			C148.321,219.546,143.452,212.467,136.446,209.213z"/>
	</g>
	<g>
		<path fill="#BCB1A7" d="M141.116,212.216l2.972,33.379c1.693,0.065,3.29,0.317,4.234,0.754v-18.568
			C148.321,221.541,145.521,215.966,141.116,212.216z"/>
	</g>
	<g>
		<polygon fill="#C9C1B8" points="141.052,389.52 167.613,389.52 150.183,333.229 135.958,333.229 		"/>
	</g>
	<g>
		<path fill="#C9C1B8" d="M214.512,222.16c3.18,26.516-13.549,24.264-20.411,20.177c4.54-6.323,1.531-14.123,1.531-14.123
			s-1.811,7.637-7.652,10.498c-10.453-6.144-20.071-11.106-34.202-11.106c-66.296,0-15.719,120.693-15.719,120.693
			c67.207,0,58.147-41.985,49.087-63.512c15.932,6.251,23.819-4.451,24.695-7.805c0,0,3.099,1.615,3.522,0.67
			c1.691-3.786,5.337-14.039-0.58-21.917C228.532,239,214.512,222.16,214.512,222.16z"/>
	</g>
	<g>
		<path fill="#ACA095" d="M171.089,252.083h-6.793c3.67,1.85,7.194,1.921,7.194,1.921c0.743,1.694,2.432,2.878,4.401,2.879
			c2.649,0,4.801-2.149,4.801-4.8H171.089z"/>
	</g>
	<g>
		<path fill="#ACA095" d="M178.351,252.083c0,1.326-1.076,2.4-2.402,2.4c-1.327,0-2.401-1.074-2.401-2.4"/>
	</g>
	<g>
		<path fill="#ACA095" d="M176.708,261.91v-1.921c4.36,0,7.906-3.547,7.906-7.906h1.921
			C186.535,257.501,182.127,261.91,176.708,261.91z"/>
	</g>
	<g>
		<path fill="#ACA095" d="M206.328,274.89c-3.208-0.205-6.506-0.416-7.951-1.749c0.545-0.886,0.864-1.924,0.864-3.039h-1.921
			c0,2.155-1.751,3.906-3.904,3.906v1.919c1.405,0,2.697-0.5,3.706-1.331c1.925,1.748,5.414,1.976,9.083,2.21
			c1.898,0.121,3.824,0.246,5.506,0.583c0.328,0.065,0.645,0.141,0.951,0.224c0.861,0.235,1.628,0.549,2.26,0.973
			c0.2-0.398,0.481-0.998,0.8-1.768C213.281,275.338,209.759,275.109,206.328,274.89z"/>
	</g>
	<g>
		<g>
			<path fill="#ACA095" d="M217.456,261.328c-1.737,0.262-3.068,1.757-3.068,3.568c0,1.96,1.563,3.553,3.508,3.609
				C218.14,266.218,218.083,263.758,217.456,261.328z"/>
		</g>
	</g>
	<g>
		<rect x="145.818" y="366.352" fill="#ACA095" width="9.301" height="1.922"/>
	</g>
	<g>
		<rect x="131.433" y="259.989" fill="#ACA095" width="18.369" height="1.921"/>
	</g>
	<g>
		<g>
			<path fill="#BCB1A7" d="M129.985,279.186c-42.744-22.838-70.639,15.369-70.639,15.369l24.131,24.132
				c0,0,16.201-22.037,42.059-18.582"/>
		</g>
	</g>
	<g>
		<g>
			<path fill="#DED7D1" d="M67.394,302.601c-2.22,2.221-5.822,2.222-8.042,0c-2.222-2.221-2.22-5.821,0-8.042"/>
		</g>
	</g>
	<g>
		<g>
			<path fill="#DED7D1" d="M75.437,310.644c-2.221,2.221-5.821,2.221-8.042,0c-2.221-2.22-2.221-5.822-0.001-8.043"/>
		</g>
	</g>
	<g>
		<g>
			<path fill="#DED7D1" d="M83.478,318.687c-2.218,2.219-5.821,2.221-8.041,0c-2.221-2.221-2.221-5.821,0-8.042"/>
		</g>
	</g>
	<g>
		<g>
			<circle fill="#BCB1A7" cx="126.847" cy="287.627" r="18.37"/>
		</g>
	</g>
	<g>
		
			<rect x="83.359" y="289.957" transform="matrix(0.7071 0.7071 -0.7071 0.7071 233.1396 18.9481)" fill="#ACA095" width="20.674" height="1.923"/>
	</g>
	<g>
		
			<rect x="80.632" y="303.23" transform="matrix(0.7071 0.7071 -0.7071 0.7071 240.0645 28.7859)" fill="#ACA095" width="9.3" height="1.922"/>
	</g>
	<g>
		
			<rect x="107.244" y="286.591" transform="matrix(0.7072 0.707 -0.707 0.7072 236.4399 4.1702)" fill="#ACA095" width="11.883" height="1.922"/>
	</g>
	<g>
		<rect x="139.328" y="322.471" fill="#ACA095" width="16.664" height="1.923"/>
	</g>
	<g>
		<polygon fill="#DED7D1" points="167.613,389.52 141.052,389.52 140.498,383.395 165.72,383.395 		"/>
	</g>
</g>
<g>
	<g>
		<g>
			<path fill="#786C62" d="M472.357,780.725v13.69l-12.788-0.943l-3.191,0.936c0,0-7.625-0.394-7.625,2.579
				c0,4.93,13.651,5.77,20.662,5.841c16.033,0.159,35.54-2.399,35.54-2.399C503.702,787.799,486.514,781.979,472.357,780.725z"/>
		</g>
	</g>
	<g>
		<g>
			<path fill="#DED7D1" d="M456.378,769.537v12.215v4.901c0.031,0.012,0.052,0.02,0.052,0.02s-0.021-0.003-0.052-0.008v7.74
				c0.001,0.002,0.004,0.002,0.004,0.002h-0.004v0.008h15.979v-13.69v-11.188H456.378z"/>
		</g>
	</g>
	<g>
		<g>
			<polygon fill="#DED7D1" points="456.378,794.405 456.378,794.407 456.383,794.407 			"/>
		</g>
	</g>
	<g>
		<g>
			<path fill="#DED7D1" d="M456.378,786.653v0.012c0.031,0.005,0.052,0.008,0.052,0.008S456.409,786.665,456.378,786.653z"/>
		</g>
	</g>
	<g>
		<g>
			<rect x="458.57" y="771.744" fill="#E8E3DD" width="11.596" height="17.021"/>
		</g>
	</g>
	<g>
		<g>
			<circle fill="#EF4135" cx="464.367" cy="791.48" r="1.547"/>
		</g>
	</g>
	<g>
		<g>
			<g>
				<polygon fill="#786C62" points="552.435,809.372 525.062,818.018 525.062,824.898 552.435,824.898 				"/>
			</g>
		</g>
		<g>
			<g>
				<g>
					<rect x="513.703" y="816.964" fill="#A21E22" width="3.592" height="38.216"/>
				</g>
			</g>
			<g>
				<g>
					<path fill="#A21E22" d="M517.295,851.589v3.591h-20.631c0,0,2.238-3.591,5.879-3.591S517.295,851.589,517.295,851.589z"/>
				</g>
			</g>
		</g>
		<g>
			<g>
				<g>
					<path fill="#EF4135" d="M524.036,851.589v3.591h20.632c0,0-2.237-3.591-5.88-3.591
						C535.147,851.589,524.036,851.589,524.036,851.589z"/>
				</g>
			</g>
			<g>
				<g>
					<rect x="524.036" y="816.964" fill="#EF4135" width="3.592" height="38.216"/>
				</g>
			</g>
		</g>
		<g>
			<g>
				<path fill="#ACA095" d="M539.413,767.465c-2.036-9.257-6.067-16.678-11.835-19.438c-16.902-8.086-31.133,9.079-31.133,9.079
					l-5.641,10.359h20.361l-5.768,12.545c-23.793,0-8.316,47.234,11.896,47.234C542.939,827.244,544.646,791.279,539.413,767.465z"
					/>
			</g>
		</g>
		<g>
			<g>
				<path fill="#FBB034" d="M528.812,767.465c-1.639-7.466-4.893-13.453-9.543-15.68c-13.633-6.521-25.112,7.325-25.112,7.325
					l-4.551,8.354h16.424H528.812z"/>
			</g>
		</g>
		<g>
			<g>
				<polygon fill="#EF4135" points="466.981,767.465 496.11,757.105 499.425,767.465 				"/>
			</g>
		</g>
		<g>
			<g>
				<path fill="#ACA095" d="M466.981,767.465c0,0,21.925-0.691,30.734-5.339l1.709,5.339H466.981z"/>
			</g>
		</g>
		<g>
			<g>
				<path fill="#686664" d="M503.815,761.361c0-3.626,2.94-6.567,6.568-6.567c3.627,0,6.567,2.941,6.567,6.567"/>
			</g>
		</g>
		<g>
			<g>
				<circle fill="#FFFFFF" cx="512.67" cy="758.078" r="1.066"/>
			</g>
		</g>
		<g>
			<g>
				<path fill="#8B8179" d="M564.678,758.677c-1.334,0-2.408,2.852-2.408,2.852s1.361-8.013-2.398-8.438
					c-3.74-0.421-5.345,8.438-5.345,8.438s1.191-7.317-1.917-7.675c-5.79-0.665-6.833,13.227-6.418,27.363
					c-9.235,0.706-16.423,1.646-16.423,1.646c0.816,8.262,8.455,13.605,17.602,16.669c4.185,1.402,8.688,2.326,13,2.83
					c4.094-5.816,6.482-14.068,7.509-21.844C569.393,769.072,567.96,758.677,564.678,758.677z"/>
			</g>
		</g>
	</g>
	<g>
		<g>
			<g>
				<path fill="#786C62" d="M459.179,784.266c0,1.231-2.432,2.241-2.801,2.388v-4.901
					C458.146,782.384,459.179,783.231,459.179,784.266z"/>
			</g>
		</g>
		<g>
			<g>
				<path fill="#786C62" d="M464.765,789.072c0.405,3.584-7.706,5.203-8.387,5.333v-7.74
					C457.026,786.562,464.359,785.477,464.765,789.072z"/>
			</g>
		</g>
	</g>
</g>
<g>
	<g>
		<g>
			<path fill="#AA9C7B" d="M503.889,357.868c0-5.77,4.674-10.446,10.444-10.447c5.771,0.001,10.447,4.678,10.447,10.446
				c-0.002,5.769-4.676,10.445-10.447,10.447C508.566,368.314,503.889,363.636,503.889,357.868z"/>
		</g>
		<g>
			<g>
				<g>
					<path fill="#AA9C7B" d="M485.55,328.887c2.189-2.188,5.74-2.188,7.929-0.001c2.192,2.192,2.192,5.743,0.004,7.933
						c-2.192,2.19-5.743,2.19-7.935,0C483.357,334.628,483.359,331.078,485.55,328.887z"/>
				</g>
				<g>
					
						<rect x="484.476" y="341.446" transform="matrix(-0.7071 -0.7071 0.7071 -0.7071 612.754 944.0552)" fill="#AA9C7B" width="34.864" height="7.338"/>
				</g>
			</g>
			<g>
				<g>
					<polygon fill="#AA9C7B" points="460.686,312.764 487.123,335.632 492.312,330.443 469.445,304.003 					"/>
				</g>
				<g>
					<g>
						<path fill="#786C62" d="M456.305,308.384c2.421-2.42,6.342-2.419,8.76,0l-4.379,4.38L456.305,308.384z"/>
					</g>
					<g>
						<path fill="#786C62" d="M465.064,308.381c-2.418-2.417-2.42-6.338,0-8.758l4.381,4.38l-4.381,4.38
							C465.064,308.384,465.064,308.384,465.064,308.381z"/>
					</g>
					<g>
						<path fill="#786C62" d="M473.511,299.94c2.42,2.419,2.42,6.339,0.002,8.759l-4.067-4.696L473.511,299.94L473.511,299.94z"/>
					</g>
				</g>
				<g>
					<rect x="460.686" y="312.764" fill="#E5D0A1" width="0" height="0"/>
				</g>
				<g>
					<polygon fill="#E5D0A1" points="473.498,308.688 469.445,304.003 460.686,312.764 465.371,316.817 					"/>
				</g>
			</g>
		</g>
	</g>
	<g>
		<g>
			<polygon fill="#8B8179" points="551.957,337.485 547.983,339.242 547.983,260.755 551.957,258.998 			"/>
		</g>
		<g>
			<path fill="#AA9C7B" d="M526.238,386.031c0,0-0.199,47.27-2.63,57.487c-2.433,10.219-16.705,18.04-16.705,18.04h25.3v-74.391
				L526.238,386.031z"/>
		</g>
		<g>
			<circle fill="#AA9C7B" cx="528.731" cy="422.093" r="5.607"/>
		</g>
		<g>
			<path fill="#E5D0A1" d="M506.903,461.558h25.3v-17.849h-8.648C520.993,453.832,506.903,461.558,506.903,461.558z"/>
		</g>
		<g>
			<path fill="#786C62" d="M516.24,454.689c-4.515,4.223-9.337,6.868-9.337,6.868h25.3v-3.063L516.24,454.689z"/>
		</g>
		<g>
			<polygon fill="#AA9C7B" points="532.627,248.111 528.884,248.111 528.884,235.042 535.992,235.042 			"/>
		</g>
		<g>
			<path fill="#E5D0A1" d="M556.594,244.428c-0.117-0.044-2.893-1.07-6.04-1.07c-1.895,0-3.572,0.366-4.991,1.087
				c-1.283,0.653-2.175,1.351-2.799,2.063c-0.312,0-0.628,0-0.953,0c-4.312,0-9.786,0-12.644,0c-5.153,0-6.785,0.385-9.958,2.845
				c-3.174,2.459-18.932,14.671-18.932,14.671l0.003,0.006l-0.875,0.677h-4.62c-1.181,0-2.142,0.961-2.142,2.142v3.099l-0.044,0.035
				c-2.438,1.89-2.883,5.396-0.993,7.835c1.099,1.418,2.749,2.161,4.419,2.161c1.194,0,2.396-0.38,3.414-1.169l9.835-7.622h23.995
				l-18.816,79.853c0,0-6.473-0.326-6.967,6.827c-0.671,9.7,3.48,40.399,40.497,40.399V257.282c1.055-0.05,2.216-0.394,3.558-1.075
				c4.557-2.317,6.327-8.236,6.514-8.903l0.589-2.107L556.594,244.428z"/>
		</g>
		<g>
			<path fill="#8B8179" d="M547.983,246.065v8.834c0.656-0.053,1.455-0.3,2.478-0.819c3.753-1.909,5.296-7.418,5.296-7.418
				S551.561,245.094,547.983,246.065z"/>
		</g>
		<g>
			<g>
				<path fill="#8B8179" d="M521.715,254.899c0.587,2.351,2.709,4.099,5.243,4.099s4.657-1.748,5.244-4.099H521.715z"/>
			</g>
			<g>
				<g>
					<path fill="#8B8179" d="M525.135,256.596c-2,0-4.996,0-5.341,0c-2.331,0-2.92-1.697-2.92-1.697h5.635c0,0,0.896,0,2.168,0
						c0.763,0,1.039,0.831,0.628,1.442C525.261,256.407,525.202,256.496,525.135,256.596z"/>
				</g>
			</g>
		</g>
		<g>
			<path fill="#786C62" d="M524.147,254.899c0.315,1.261,1.452,2.198,2.811,2.198s2.496-0.937,2.811-2.198H524.147z"/>
		</g>
		<g>
			<path fill="#E5D0A1" d="M550.611,443.518c-2.432-10.217-2.628-57.487-2.628-57.487l-5.966,1.136v74.391h25.3
				C567.317,461.558,553.046,453.736,550.611,443.518z"/>
		</g>
		<g>
			<circle fill="#E5D0A1" cx="545.49" cy="422.093" r="5.608"/>
		</g>
		<g>
			<circle fill="#8B8179" cx="495.97" cy="268.017" r="1.416"/>
		</g>
		<g>
			<polygon fill="#E5D0A1" points="542.253,248.111 538.509,248.111 538.509,235.042 545.616,235.042 			"/>
		</g>
		<g>
			<path fill="#8B8179" d="M492.288,278.539c0.527,0.476,1.123,0.839,1.767,1.079l4.951-3.836c3.3-2.558,4.663-5.419,5.162-6.797
				h1.755v-1.936h-4.838v1.936h0.999c-0.575,1.283-1.804,3.359-4.266,5.268L492.288,278.539z"/>
		</g>
		<g>
			<path fill="#EDE0C3" d="M567.317,461.558c0,0-14.089-7.726-16.653-17.849h-8.646v17.849H567.317z"/>
		</g>
		<g>
			<path fill="#786C62" d="M557.979,454.689c4.517,4.223,9.338,6.868,9.338,6.868h-25.3v-3.063L557.979,454.689z"/>
		</g>
		<g>
			<circle fill="#BDAD87" cx="547.983" cy="357.868" r="10.446"/>
		</g>
		<g>
			<g>
				<path fill="#BDAD87" d="M576.77,386.848c-2.192,2.192-5.74,2.192-7.932,0.001c-2.193-2.189-2.189-5.742,0-7.931
					c2.191-2.191,5.741-2.191,7.932,0C578.961,381.107,578.958,384.657,576.77,386.848z"/>
			</g>
			<g>
				
					<rect x="542.977" y="366.952" transform="matrix(0.7071 0.7071 -0.7071 0.7071 426.2093 -287.7177)" fill="#BDAD87" width="34.866" height="7.339"/>
			</g>
		</g>
		<g>
			<g>
				<polygon fill="#BDAD87" points="579.023,418.096 576.498,383.231 569.161,383.232 566.636,418.097 				"/>
			</g>
			<g>
				<g>
					<path fill="#786C62" d="M579.023,424.291c-3.422,0-6.194-2.773-6.196-6.194h6.196V424.291z"/>
				</g>
				<g>
					<path fill="#786C62" d="M572.827,418.098c0.002,3.42-2.77,6.193-6.191,6.193v-6.194L572.827,418.098
						C572.829,418.097,572.829,418.097,572.827,418.098z"/>
				</g>
				<g>
					<path fill="#786C62" d="M560.887,418.094c0-3.42,2.77-6.191,6.194-6.191l-0.445,6.194h-5.749V418.094z"/>
				</g>
			</g>
			<g>
				<rect x="579.023" y="418.096" fill="#E5D0A1" width="0" height="0"/>
			</g>
			<g>
				<polygon fill="#E5D0A1" points="567.081,411.918 566.636,418.096 579.023,418.096 578.576,411.918 				"/>
			</g>
		</g>
		<g>
			<path fill="#BDAD87" d="M519.178,266.829c-0.091,0.743,2.013,2.952,3.232,2.624c1.222-0.327,3.417-2.392,3.043-3.252
				c-0.374-0.859-2.967-2.029-4.124-1.42C520.172,265.387,519.26,266.169,519.178,266.829z"/>
		</g>
		<g>
			<path fill="#BDAD87" d="M529.58,262.762c-1.246,1.205-1.685,6.31,0.489,6.38c2.173,0.069,7.572-0.491,7.644-2.735
				C537.781,264.164,531.896,260.519,529.58,262.762z"/>
		</g>
		<g>
			<path fill="#BDAD87" d="M538.865,257.801c-1.924,1.08-1.235,6.283,1.78,7.473c3.014,1.192,5.748-2.735,4.694-4.348
				C544.29,259.315,540.312,256.989,538.865,257.801z"/>
		</g>
		<g>
			<path fill="#BDAD87" d="M545.282,268.666c0.918,0.865,2.28,3.448,1.103,5.459c-1.419,2.42-5.14,1.829-8.164,2.24
				c-2.017,0.273-4.027-5.518-0.199-7.353C541.847,267.177,543.918,267.379,545.282,268.666z"/>
		</g>
		<g>
			<path fill="#BDAD87" d="M532.062,276.311c2.518-0.527,4.075-0.604,4.055,4.34c-0.021,4.944,1.241,9.466-1.546,10.044
				l-6.328,1.835L532.062,276.311z"/>
		</g>
		<g>
			<path fill="#BDAD87" d="M539.016,251.322c-1.569,0.831-0.63,5.139,2.26,4.876c2.893-0.264,3.473-2.524,3.211-3.312
				C544.223,252.096,541.173,250.179,539.016,251.322z"/>
		</g>
		<g>
			<path fill="#BDAD87" d="M538.318,279.092c-1.142,1.881-0.106,7.765,0.525,9.868c0.632,2.104,5.02,3.47,6.349,2.84
				c1.331-0.631,0.907-10.624,0.752-11.991C545.786,278.442,539.264,277.532,538.318,279.092z"/>
		</g>
		<g>
			<path fill="#BDAD87" d="M528.884,295.483c0.619-1.812,6.403-2.524,7.499-1.263c1.097,1.263,2.27,14.164,0,15.987
				c-2.268,1.821-5.322,3.225-8.141,2.383C525.421,311.749,527.693,298.964,528.884,295.483z"/>
		</g>
		<g>
			<path fill="#BDAD87" d="M541.401,295.271c-1.277,1.686-0.235,8.413,0.567,10.518c0.803,2.103,6.015,2.734,6.015,2.734v-11.253
				C547.983,297.269,542.022,294.451,541.401,295.271z"/>
		</g>
		<g>
			<path fill="#BDAD87" d="M540.354,310.593c-1.236-0.083-8.87,4.572-9.031,6.398c-0.16,1.829-0.163,10.914,2.258,11.614
				c2.418,0.699,8.01,1.668,9.892,0c1.882-1.668,2.744-11.238,2.528-14.142C545.784,311.562,541.969,310.703,540.354,310.593z"/>
		</g>
		<g>
			<path fill="#BDAD87" d="M521.812,319.815c0,0,2.954-4.491,4.756-4.591c1.803-0.101,2.701,7.806,2.252,10.409
				c-0.449,2.602-3.805,5.056-5.654,4.805c-1.853-0.251-3.137-3.061-3.137-3.061L521.812,319.815z"/>
		</g>
		<g>
			<path fill="#BDAD87" d="M529.224,330.84c-2.041,0.236-6.795,3.352-6.701,5.677c0.092,2.329-0.257,7.263,1.921,7.729
				c2.175,0.465,7.99,2.513,10.482,0.744c2.49-1.769,3.701-4.003,3.143-7.914C537.512,333.167,531.646,330.56,529.224,330.84z"/>
		</g>
		<g>
			<path fill="#BDAD87" d="M547.983,332.082c0,0-5.632,0.105-6.263,1.473c-0.63,1.367,0.106,8.097,1.472,9.359
				c1.369,1.262,4.791,1.683,4.791,1.683V332.082z"/>
		</g>
		<g>
			<path fill="#BDAD87" d="M511.493,356.062c1.156-0.39,3.505,0.748,4.343,1.891c0.905,1.239,0.264,4.488-0.265,5.718
				c-0.526,1.232-2.991,2.331-4.529,2.023c-1.54-0.309-1.804-3.386-1.85-5.102C509.148,358.876,510.32,356.458,511.493,356.062z"/>
		</g>
		<g>
			<path fill="#BDAD87" d="M520.415,346.15c-1.69-0.238-4.273,3.33-4.118,5.838c0.126,2.015,1.637,4.127,3.485,4.637
				c1.848,0.508,4.767-1.94,5.189-4.289C525.397,349.986,522.75,346.479,520.415,346.15z"/>
		</g>
		<g>
			<path fill="#BDAD87" d="M516.931,367.402c1.082-0.234,3.579,3.071,3.238,5.543c-0.34,2.472-4.377,2.728-5.13,1.449
				C514.287,373.116,514.968,367.83,516.931,367.402z"/>
		</g>
		<g>
			<path fill="#BDAD87" d="M517.402,378.514c-1.215,0.278-2.258,3.306-1.34,4.267c0.866,0.904,3.005,2.03,4.021,1.707
				c1.015-0.326,1.433-2.767,1.202-3.697C521.057,379.857,518.662,378.227,517.402,378.514z"/>
		</g>
		<g>
			<path fill="#BDAD87" d="M525.602,371.35c-1.617-0.25-3.01,3.154-2.52,4.065c0.492,0.914,2.244,2.246,3.786,1.755
				c1.541-0.491,1.719-1.65,1.456-3.243C528.061,372.331,526.508,371.489,525.602,371.35z"/>
		</g>
		<g>
			<path fill="#BDAD87" d="M528.425,363.677c0.32-1.812-1.721-4.862-2.653-5.214c-0.936-0.35-5.463,1.636-5.569,3.54
				c-0.108,1.903,1.232,5.194,2.528,5.732C524.032,368.274,528.104,365.489,528.425,363.677z"/>
		</g>
		<g>
			<path fill="#BDAD87" d="M517.795,336.867c0,0,2.377,3.039,1.727,5.5c-0.651,2.459-3.808,3.333-3.808,3.333L517.795,336.867z"/>
		</g>
		<g>
			<path fill="#BDAD87" d="M509.611,373.118c0,0,2.07,0.327,2.717,1.865c0.65,1.539-0.318,3.916-0.318,3.916
				S510.551,376.009,509.611,373.118z"/>
		</g>
		<g>
			<path fill="#BDAD87" d="M533.089,348.241c-3.172-0.731-5.639,1.346-5.38,3.505c0.261,2.155,0.797,4.951,3.673,4.947
				c2.876-0.003,4.954-4.415,5.307-5.895C537.043,349.32,534.258,348.51,533.089,348.241z"/>
		</g>
		<g>
			<path fill="#BDAD87" d="M530.859,380.542c-0.039-1.758-3.885-1.142-4.416-0.138c-0.417,0.789-1.388,3.649-0.141,4.021
				C527.046,384.646,530.958,384.991,530.859,380.542z"/>
		</g>
		<g>
			<path fill="#BDAD87" d="M532.519,362.215c-2.156,0.73-2.244,6.663,0.56,7.645c2.805,0.981,6.243,0.069,6.173-1.403
				C539.181,366.984,536.656,360.812,532.519,362.215z"/>
		</g>
		<g>
			<path fill="#BDAD87" d="M533.629,374.125c-0.815,0.205-1.68,3.658-0.629,4.591c1.051,0.933,2.669,2.055,3.753,1.565
				c1.083-0.493,2.531-3.86,1.985-4.456C538.188,375.233,535.243,373.718,533.629,374.125z"/>
		</g>
		<g>
			<path fill="#BDAD87" d="M544.352,370.621c-2.464,0.527-3.646,4.356-1.051,6.607c2.593,2.251,4.683,0.709,4.683,0.709v-5.889
				C547.983,372.048,546.106,370.246,544.352,370.621z"/>
		</g>
		<g>
			<path fill="#BDAD87" d="M541.871,386.865c0.923,0.202,3.233-2.11,2.732-2.958c-0.497-0.847-1.892-2.823-2.982-3.023
				c-1.094-0.202-2.804,2.354-2.873,3.354C538.677,385.241,541.056,386.687,541.871,386.865z"/>
		</g>
		<g>
			<path fill="#BDAD87" d="M533.833,385.34c-1.142-0.438-3.247,1.228-3.139,2.041c0.108,0.81,0.851,3.501,2.642,3.514
				c1.789,0.013,2.602-1.243,2.579-2.246C535.891,387.646,534.62,385.641,533.833,385.34z"/>
		</g>
		<g>
			<path fill="#BDAD87" d="M522.478,386.772c-0.786,0.368-1.089,1.996,0,3.083c1.086,1.087,2.698,1.899,3.61,0.934
				c0.91-0.968,0.63-1.566,0.35-2.617C526.155,387.122,523.668,386.213,522.478,386.772z"/>
		</g>
		<g>
			<path fill="#BDAD87" d="M547.991,387.948l0.067,6.071c0,0-2.834-1.222-3.019-2.58
				C544.852,390.081,546.388,388.134,547.991,387.948z"/>
		</g>
	</g>
</g>
</svg>
