<?xml version="1.0" encoding="utf-8"?>
<!-- Generator: Adobe Illustrator 15.0.2, SVG Export Plug-In . SVG Version: 6.00 Build 0)  -->
<!DOCTYPE svg PUBLIC "-//W3C//DTD SVG 1.1//EN" "http://www.w3.org/Graphics/SVG/1.1/DTD/svg11.dtd">
<svg version="1.1" id="Layer_1" xmlns="http://www.w3.org/2000/svg" xmlns:xlink="http://www.w3.org/1999/xlink" x="0px" y="0px"
	 width="81.25px" height="100px" viewBox="0 0 81.25 100" enable-background="new 0 0 81.25 100" xml:space="preserve">
<path fill="#C9C1B7" d="M59.611,87.276L59.611,87.276L59.611,87.276c0-3.055,0-6.597,0-7.706c0-2.07,0.012-4.206-2.11-6.328
	c-1.033-1.032-2.557-2.558-3.85-3.849v-0.002l0.005-0.012c1.292-1.291,2.813-2.811,3.845-3.843c2.122-2.123,2.11-4.261,2.11-6.331
	s0-19.62,0-19.62l-8.943-8.942c0,0-0.001,17.861-0.001,20.846c0,2.987-2.96,5.972-5.961,5.972c-4.43,0-2.982,0.005-2.982,0.005
	V39.586l-8.939,8.939l-8.939-8.94c0,0,0-5.936,0-8.938c0-3.001-1.52-4.503-2.984-5.967c-1.465-1.465-8.939-8.939-8.939-8.939v17.883
	H0v53.65h5.961l5.961,5.963c0,0,5.963,5.961,11.923,5.961c5.959,0,35.756,0,35.756,0h0.01
	C59.612,99.198,59.611,89.929,59.611,87.276z"/>
<path fill="#7D6A55" d="M14.889,27.126c-1.465-1.465-2.967-2.966-2.967-2.966s0,11.096,0,12.454c0,3.001,1.519,4.503,2.983,5.967
	c1.465,1.465,2.966,2.966,2.966,2.966s0-11.065,0-12.454C17.872,30.093,16.353,28.591,14.889,27.126z"/>
<linearGradient id="SVGID_3_" gradientUnits="userSpaceOnUse" x1="5.9614" y1="93.2363" x2="59.6118" y2="93.2363">
	<stop  offset="0" style="stop-color:#AB9F95"/>
	<stop  offset="1" style="stop-color:#EEE9E5"/>
</linearGradient>
<path opacity="0.5" fill="url(#SVGID_3_)" d="M5.961,87.274l5.961,5.963c0,0,5.963,5.961,11.923,5.961c5.959,0,35.766,0,35.766,0
	L47.689,87.276L5.961,87.274z"/>
<path opacity="0.73" fill="#7D6A55" d="M47.689,87.276h-2.301l11.923,11.922c2.164,0,2.301,0,2.301,0L47.689,87.276z"/>
<linearGradient id="SVGID_6_" gradientUnits="userSpaceOnUse" x1="41.7261" y1="57.4629" x2="41.7261" y2="57.4629">
	<stop  offset="0" style="stop-color:#FFFFFF"/>
	<stop  offset="1" style="stop-color:#9A8479"/>
</linearGradient>
<path fill="url(#SVGID_6_)" d="M41.726,57.462"/>
<g>
	<path fill="#AB9F95" d="M59.612,90.257c-1.646,0-2.98-1.334-2.98-2.98c0-1.646,1.334-2.979,2.98-2.979V90.257z"/>
	<path fill="#7D6A55" d="M59.612,88.767c-0.823,0-1.49-0.667-1.49-1.49c0-0.822,0.667-1.489,1.49-1.489V88.767z"/>
</g>
<linearGradient id="SVGID_10_" gradientUnits="userSpaceOnUse" x1="0" y1="60.4512" x2="23.8394" y2="60.4512">
	<stop  offset="0" style="stop-color:#AB9F95"/>
	<stop  offset="1" style="stop-color:#EEE9E5"/>
</linearGradient>
<path opacity="0.5" fill="url(#SVGID_10_)" d="M23.839,69.394c0,0-5.964-5.965-11.92-11.92S5.963,51.51,0,51.51v17.882
	L23.839,69.394z"/>
<linearGradient id="SVGID_12_" gradientUnits="userSpaceOnUse" x1="46.1987" y1="69.3936" x2="46.1987" y2="30.645">
	<stop  offset="0" style="stop-color:#AB9F95"/>
	<stop  offset="1" style="stop-color:#EEE9E5"/>
</linearGradient>
<path opacity="0.5" fill="url(#SVGID_12_)" d="M50.669,30.645c0,1.834,0,18.072,0,20.846c0,2.987-2.961,5.972-5.963,5.972
	c-1.803,0-2.631,0-2.98,0V39.586l-8.94,8.939l8.938,8.937c-0.505,0.002,0,0.005,0.001,0.005l11.928,11.927v-0.002l0.005-0.012
	c1.292-1.291,2.814-2.811,3.845-3.843c2.122-2.123,2.11-4.261,2.11-6.331c0-1.974,0-18.389,0-19.62L50.669,30.645z"/>
<g>
	<path fill="#AB9F95" d="M40.285,69.394h-6.692H32.06c0.164,0.501,0.373,0.983,0.623,1.442c1.469,2.688,4.326,4.519,7.602,4.519
		v-1.442v-3.076l1.443-1.442H40.285z"/>
	<path fill="#7D6A55" d="M34.375,70.836c1.306,1.858,3.465,3.076,5.909,3.076v-3.076H34.375z"/>
</g>
<path fill="#FFFFFF" d="M69.333,6.791L69.333,6.791h11.299c0,0-3.828-1.884-8.253-3.045l0.001-0.003c0,0-2.683-2.926-7.1-2.926
	c-2.517,0-4.544,1.899-4.925,2.281L29.816,33.636l1.937,1.938l5.369-5.369c4.622-0.141,8.592-0.532,12.004-1.101l10.485,10.485
	v-1.311l-9.37-9.37c16.744-3.097,19.222-10.643,19.222-13.493c0-3.126-1.463-5.381-2.321-6.434L69.333,6.791z"/>
<polygon fill="#EE4034" points="59.612,38.278 48.504,27.17 47.848,27.825 59.612,39.589 "/>
<linearGradient id="SVGID_18_" gradientUnits="userSpaceOnUse" x1="52.7827" y1="0.8169" x2="52.7827" y2="30.2646">
	<stop  offset="0" style="stop-color:#7D6A55"/>
	<stop  offset="1" style="stop-color:#AB9F95"/>
</linearGradient>
<path fill="url(#SVGID_18_)" d="M72.379,3.746l0.001-0.003c0,0-2.683-2.926-7.1-2.926c-2.517,0-4.544,1.899-4.925,2.281
	L33.186,30.265c32.276,0,36.278-11.224,36.278-14.849c0-3.126-1.463-5.381-2.321-6.434L72.379,3.746z"/>
<path fill="#EE4034" d="M80.632,6.791c0,0-3.828-1.884-8.253-3.045l-3.046,3.045H80.632z"/>
<path fill="#AB9F95" d="M80.632,6.791c0,0-5.049-1.266-10.033-1.266l-1.266,1.266H80.632z"/>
<path fill="#FBAF33" d="M62.695,4.631l-2.162,2.16h8.8l3.046-3.045c-1.97-0.517-4.058-0.891-5.979-0.891
	C64.523,2.855,62.875,4.449,62.695,4.631z"/>
<linearGradient id="SVGID_23_" gradientUnits="userSpaceOnUse" x1="38.4326" y1="33.9258" x2="60.4288" y2="11.9296">
	<stop  offset="0" style="stop-color:#7D6A55"/>
	<stop  offset="1" style="stop-color:#AB9F95"/>
</linearGradient>
<path fill="url(#SVGID_23_)" d="M55.468,7.984L33.98,29.473c24.828-2.364,28.231-9.925,28.39-12.663
	C62.583,13.109,58.739,9.97,55.468,7.984z"/>
<path fill="#AB9F95" d="M55.468,7.984L42.954,20.499L29.816,33.636l1.937,1.938l6.597-6.597L57.78,9.547
	C57.018,8.97,56.228,8.445,55.468,7.984z"/>
<path opacity="0.2" fill="#FFFFFF" d="M69.464,15.416c0-0.321-0.02-0.631-0.047-0.934L56.552,27.345
	C67.641,23.761,69.464,17.861,69.464,15.416z"/>
<path fill="#7D6A55" d="M68.972,4.299C68.294,4.22,67.258,4.12,66.4,4.12c-1.407,0-2.812,1.405-2.812,1.405h4.158L68.972,4.299z"/>
<path fill="#AB9F95" d="M68.972,4.299C68.294,4.22,67.258,4.12,66.4,4.12c-1.407,0-2.812,1.405-2.812,1.405h4.158L68.972,4.299z"/>
</svg>
