<?xml version="1.0" encoding="utf-8"?>
<!-- Generator: Adobe Illustrator 15.0.2, SVG Export Plug-In . SVG Version: 6.00 Build 0)  -->
<!DOCTYPE svg PUBLIC "-//W3C//DTD SVG 1.1//EN" "http://www.w3.org/Graphics/SVG/1.1/DTD/svg11.dtd">
<svg version="1.1" id="Layer_1" xmlns="http://www.w3.org/2000/svg" xmlns:xlink="http://www.w3.org/1999/xlink" x="0px" y="0px"
	 width="168px" height="24px" viewBox="0 0 168 24" enable-background="new 0 0 168 24" xml:space="preserve">
<g>
	<g>
		<g>
			<path fill="#EE4034" d="M20.062,23.432h-6.319L9.31,17.256H6.296v6.176H0.375V1.272h9.19c6.247,0,9.771,2.979,9.771,8.281
				c0,3.234-1.49,5.522-4.213,6.721l4.939,6.684V23.432z M9.638,12.642c2.471,0,3.851-1.125,3.851-3.088
				c0-2.034-1.38-3.195-3.851-3.195H6.296v6.284H9.638z"/>
			<path fill="#EE4034" d="M27.721,8.574c1.851-2.07,3.596-3.015,5.775-3.015c3.743,0,5.521,1.998,5.521,6.719v11.153h-5.812v-9.155
				c0-2.144-0.361-2.942-2.033-2.942c-1.343,0-2.47,0.799-3.45,2.034v10.063h-5.812V0h5.812V8.574z"/>
			<path fill="#EE4034" d="M42.504,23.432V5.887h5.813v17.545H42.504z"/>
			<path fill="#EE4034" d="M57.87,8.174c1.851-1.671,3.632-2.615,5.775-2.615c3.744,0,5.522,1.998,5.522,6.719v11.153h-5.813v-9.518
				c0-2.144-0.362-2.943-2.033-2.943c-1.344,0-2.469,0.762-3.451,1.999v10.462h-5.812V5.887h5.812V8.174z"/>
			<path fill="#EE4034" d="M89.8,14.748c0,5.739-3.379,9.01-9.153,9.01c-5.739,0-9.118-3.271-9.118-9.01
				c0-5.883,3.378-9.189,9.118-9.189C86.421,5.559,89.8,8.865,89.8,14.748z M84.099,14.748c0-3.377-1.238-4.576-3.452-4.576
				c-2.179,0-3.417,1.199-3.417,4.576c0,3.234,1.199,4.395,3.417,4.395C82.861,19.143,84.099,17.982,84.099,14.748z"/>
			<path fill="#EE4034" d="M98.264,8.211c1.743-1.816,3.451-2.652,5.593-2.652c4.286,0,6.575,2.652,6.575,8.936
				c0,6.574-3.27,9.263-6.975,9.263c-2.726,0-3.741-0.872-5.194-2.289v1.963h-5.812V0h5.812V8.211z M98.264,17.11
				c0.906,1.235,1.743,1.89,3.341,1.89c1.853,0,3.123-1.309,3.123-4.505c0-2.942-1.089-4.105-2.978-4.105
				c-1.417,0-2.506,0.69-3.487,1.999V17.11z"/>
			<path fill="#EE4034" d="M113.121,23.432V5.887h5.812v17.545H113.121z"/>
			<path fill="#EE4034" d="M128.484,9.119c1.2-2.325,2.654-3.56,4.687-3.56c0.618,0,1.2,0,2.181,0.11l-0.401,5.848
				c-0.869-0.074-1.452-0.074-2.068-0.074c-2.142,0-3.669,0.69-4.397,3.234v8.755h-5.809V5.887h5.809V9.119z"/>
			<path fill="#EE4034" d="M148.246,21.469c-1.451,1.417-2.506,2.289-5.23,2.289c-3.669,0-6.975-2.688-6.975-9.263
				c0-6.284,2.579-8.936,6.611-8.936c2.143,0,3.888,0.617,5.594,2.397V0h5.812v23.432h-5.812V21.469z M148.246,12.389
				c-0.98-1.309-2.106-1.999-3.521-1.999c-1.89,0-2.98,1.163-2.98,4.105c0,3.196,1.271,4.505,3.161,4.505
				c1.598,0,2.468-0.654,3.341-1.89V12.389z"/>
			<rect x="42.504" fill="#EE4034" width="5.83" height="3.65"/>
			<rect x="113.104" fill="#EE4034" width="5.829" height="3.65"/>
		</g>
	</g>
	<g>
		<path fill="#EE4034" d="M166.051,0l-1.794,4.37c-0.078,0.237-0.158,0.493-0.226,0.74c-0.06-0.247-0.139-0.503-0.228-0.74
			L162.047,0h-0.633h-0.383h-4.961v0.849h2.102v5.167h0.907V0.849h2.302l2.127,5.167h1.047L167.038,0H166.051z"/>
	</g>
</g>
</svg>
