<?xml version="1.0" encoding="utf-8"?>
<!-- Generator: Adobe Illustrator 15.0.2, SVG Export Plug-In . SVG Version: 6.00 Build 0)  -->
<!DOCTYPE svg PUBLIC "-//W3C//DTD SVG 1.1//EN" "http://www.w3.org/Graphics/SVG/1.1/DTD/svg11.dtd">
<svg version="1.1" id="Layer_1" xmlns="http://www.w3.org/2000/svg" xmlns:xlink="http://www.w3.org/1999/xlink" x="0px" y="0px"
	 width="170px" height="32px" viewBox="0 0 170 32" enable-background="new 0 0 170 32" xml:space="preserve">
<g>
	<g>
		<path fill="#EF4135" d="M11.609,20.841h-1.518c0.335,0.479,0.89,0.792,1.518,0.792V20.841z"/>
		<path fill="#EF4135" d="M8.917,0.555c-4.23,0-7.66,3.43-7.66,7.66v3.063h3.064V8.847V6.683c0,0,1.92,1.921,2.297,2.297
			c0.376,0.376,0.767,0.763,0.767,1.533c0,0.771,0,2.297,0,2.297l2.297,2.297l2.297-2.296l0,0l0,0v4.594c0.09,0,0.303,0,0.766,0
			c0.771,0,1.532-0.768,1.532-1.536c0-0.767,0-5.352,0-5.356l-0.396-0.396c-0.024,0.003-0.05,0.007-0.073,0.011
			c-0.058,0.009-0.116,0.019-0.173,0.027c-0.136,0.021-0.275,0.041-0.417,0.06c-0.054,0.006-0.109,0.013-0.164,0.02
			c-0.123,0.015-0.247,0.028-0.375,0.042c-0.06,0.007-0.119,0.013-0.18,0.019c-0.16,0.015-0.325,0.029-0.494,0.042
			c-0.062,0.004-0.127,0.009-0.191,0.013c-0.147,0.01-0.297,0.019-0.452,0.026c-0.056,0.003-0.113,0.006-0.17,0.009
			c-0.13,0.005-0.262,0.01-0.396,0.015l-1.379,1.379l-0.499-0.498l0.866-0.866l0,0l2.134-2.134l0.375-0.376l1.731-1.73l1.485-1.485
			l0,0l0,0l1.257-1.256c0.012-0.013,0.03-0.031,0.056-0.054c0.174-0.159,0.644-0.533,1.209-0.533l0,0c0.852,0,1.452,0.423,1.7,0.635
			c0.082,0.07,0.126,0.118,0.126,0.118l-0.001,0c1.137,0.298,2.121,0.783,2.121,0.783h-2.903l0,0l-0.562,0.563
			c0.137,0.169,0.336,0.458,0.466,0.849c0.056,0.169,0.097,0.36,0.117,0.566l0.001-0.001c0.008,0.078,0.013,0.157,0.013,0.24
			c0,0.021-0.001,0.044-0.003,0.067c0,0.005,0,0.011,0,0.017c-0.001,0.007-0.001,0.014-0.002,0.021
			c-0.001,0.012-0.002,0.023-0.003,0.035c-0.001,0.009-0.002,0.02-0.003,0.029c-0.001,0.007-0.002,0.014-0.003,0.021
			c0,0.003,0,0.005,0,0.007c-0.002,0.007-0.002,0.015-0.004,0.022c-0.001,0.01-0.003,0.021-0.005,0.031
			c-0.002,0.015-0.004,0.03-0.008,0.045c-0.001,0.007-0.002,0.014-0.004,0.021c-0.001,0.007-0.002,0.014-0.004,0.021
			C19.065,6.958,19.061,6.979,19.055,7c-0.002,0.008-0.004,0.016-0.006,0.025c0,0.002-0.001,0.005-0.002,0.008
			c-0.01,0.036-0.021,0.074-0.034,0.112c-0.004,0.011-0.007,0.022-0.011,0.034c-0.005,0.015-0.01,0.029-0.015,0.043
			c-0.003,0.009-0.007,0.019-0.01,0.027c-0.004,0.01-0.008,0.02-0.011,0.029c-0.003,0.007-0.007,0.016-0.01,0.023
			c-0.003,0.008-0.006,0.016-0.009,0.023c-0.005,0.012-0.01,0.024-0.015,0.035c-0.009,0.021-0.019,0.042-0.029,0.063
			c-0.004,0.008-0.008,0.017-0.011,0.025c-0.004,0.007-0.008,0.014-0.012,0.021c-0.012,0.025-0.024,0.05-0.039,0.075
			c-0.005,0.01-0.01,0.021-0.016,0.031c-0.004,0.007-0.007,0.014-0.012,0.021c-0.012,0.022-0.026,0.046-0.041,0.069
			c-0.005,0.009-0.01,0.018-0.016,0.027c-0.006,0.01-0.013,0.021-0.021,0.031c-0.009,0.014-0.018,0.028-0.027,0.042
			c-0.023,0.035-0.047,0.069-0.072,0.104c-0.009,0.013-0.018,0.026-0.027,0.039c-0.005,0.006-0.01,0.013-0.015,0.019
			c-0.006,0.008-0.012,0.015-0.018,0.022c-0.022,0.03-0.046,0.059-0.071,0.089c-0.012,0.015-0.026,0.03-0.039,0.045
			c-0.023,0.027-0.048,0.054-0.073,0.081c-0.009,0.01-0.017,0.021-0.027,0.03c-0.01,0.012-0.021,0.023-0.032,0.035
			c-0.019,0.02-0.039,0.039-0.059,0.058c-0.012,0.012-0.023,0.023-0.034,0.035c-0.015,0.013-0.028,0.026-0.042,0.04
			c-0.016,0.015-0.033,0.03-0.051,0.045c-0.003,0.003-0.007,0.007-0.011,0.01c-0.009,0.008-0.017,0.016-0.027,0.024
			c-0.024,0.022-0.051,0.043-0.076,0.066c-0.019,0.015-0.036,0.03-0.056,0.045c-0.053,0.044-0.109,0.087-0.168,0.131
			c-0.021,0.015-0.042,0.029-0.063,0.044c-0.035,0.025-0.07,0.05-0.106,0.075c-0.013,0.009-0.027,0.019-0.042,0.027
			c-0.021,0.015-0.042,0.029-0.065,0.043c-0.024,0.016-0.051,0.032-0.076,0.047C17.438,8.93,17.419,8.941,17.4,8.953
			c-0.025,0.015-0.051,0.03-0.076,0.046c-0.023,0.013-0.047,0.026-0.072,0.04c-0.018,0.01-0.035,0.02-0.053,0.03
			c-0.041,0.022-0.083,0.044-0.125,0.067c-0.025,0.013-0.05,0.026-0.077,0.04c-0.003,0.001-0.007,0.003-0.011,0.005
			c-0.079,0.041-0.163,0.081-0.249,0.12c-0.028,0.012-0.056,0.024-0.083,0.037c-0.05,0.022-0.099,0.043-0.15,0.064
			c-0.011,0.004-0.023,0.01-0.037,0.015C16.459,9.42,16.45,9.424,16.44,9.427c-0.033,0.014-0.067,0.028-0.102,0.041
			c-0.03,0.012-0.062,0.024-0.093,0.037C16.222,9.514,16.2,9.521,16.176,9.53c-0.046,0.017-0.09,0.034-0.138,0.05
			c-0.024,0.009-0.052,0.018-0.077,0.026s-0.051,0.017-0.076,0.026c-0.031,0.011-0.062,0.021-0.094,0.032l0.003-0.002
			c-0.016,0.005-0.032,0.01-0.047,0.015c-0.077,0.025-0.156,0.049-0.237,0.073c-0.084,0.024-0.168,0.049-0.256,0.073
			c-0.06,0.016-0.123,0.031-0.185,0.047c-0.074,0.019-0.148,0.037-0.225,0.055c-0.065,0.015-0.132,0.03-0.2,0.045
			c-0.081,0.019-0.165,0.036-0.249,0.052c-0.066,0.013-0.13,0.026-0.197,0.039c-0.01,0.002-0.02,0.004-0.029,0.006l2.408,2.408
			v0.337l0,0c0,0.32,0,4.535,0,5.042c0,0.533,0.003,1.081-0.543,1.628c-0.265,0.264-0.656,0.654-0.988,0.986l-0.002,0.003v0.001
			V20.47v0.001c0.333,0.331,0.724,0.724,0.99,0.989c0.545,0.545,0.542,1.095,0.542,1.626c0,0.194,0,0.679,0,1.215c0,0,0,0,0.001,0
			v0.384v0.765v0.383c-0.001,0-0.001,0-0.001,0c0,0.958,0.001,2.298,0.001,2.298h-0.004c0,0-0.22,0-0.588,0
			c-1.819,0-7.327,0-8.601,0c-1.531,0-3.064-1.531-3.064-1.531l-1.532-1.533H1.257v6.128h15.32c4.229,0,7.659-3.429,7.659-7.659
			V0.555H8.917z"/>
		<path fill="#EF4135" d="M18.982,3.742c-0.174-0.021-0.44-0.046-0.662-0.046c-0.36,0-0.722,0.361-0.722,0.361h1.069L18.982,3.742z"
			/>
		<path fill="#EF4135" d="M42.281,31.195h-4.808l-3.375-4.698h-2.292v4.698H27.3v-16.86h6.994c4.754,0,7.434,2.267,7.434,6.302
			c0,2.461-1.133,4.202-3.206,5.113l3.759,5.086V31.195z M34.348,22.986c1.88,0,2.93-0.856,2.93-2.35
			c0-1.549-1.049-2.432-2.93-2.432h-2.542v4.781H34.348z"/>
		<path fill="#EF4135" d="M48.109,19.891c1.408-1.575,2.735-2.294,4.394-2.294c2.848,0,4.201,1.521,4.201,5.114v8.484h-4.423V24.23
			c0-1.632-0.274-2.238-1.546-2.238c-1.022,0-1.88,0.606-2.625,1.547v7.656h-4.423V13.367h4.423V19.891z"/>
		<path fill="#EF4135" d="M59.358,31.195v-13.35h4.422v13.35H59.358z"/>
		<path fill="#EF4135" d="M71.05,19.588c1.41-1.272,2.764-1.991,4.395-1.991c2.849,0,4.202,1.521,4.202,5.114v8.484h-4.424v-7.24
			c0-1.632-0.274-2.24-1.546-2.24c-1.023,0-1.88,0.58-2.627,1.521v7.96h-4.422v-13.35h4.422V19.588z"/>
		<path fill="#EF4135" d="M95.348,24.589c0,4.368-2.573,6.856-6.967,6.856c-4.367,0-6.938-2.488-6.938-6.856
			c0-4.477,2.57-6.992,6.938-6.992C92.774,17.597,95.348,20.112,95.348,24.589z M91.008,24.589c0-2.568-0.941-3.482-2.627-3.482
			c-1.657,0-2.599,0.914-2.599,3.482c0,2.462,0.912,3.346,2.599,3.346C90.066,27.935,91.008,27.051,91.008,24.589z"/>
		<path fill="#EF4135" d="M101.787,19.614c1.325-1.381,2.626-2.018,4.256-2.018c3.261,0,5.003,2.018,5.003,6.799
			c0,5.003-2.488,7.05-5.307,7.05c-2.073,0-2.847-0.664-3.952-1.742v1.492h-4.423V13.367h4.423V19.614z M101.787,26.387
			c0.688,0.941,1.325,1.438,2.543,1.438c1.409,0,2.376-0.997,2.376-3.43c0-2.238-0.829-3.122-2.266-3.122
			c-1.078,0-1.907,0.525-2.653,1.521V26.387z"/>
		<path fill="#EF4135" d="M113.092,31.195v-13.35h4.422v13.35H113.092z"/>
		<path fill="#EF4135" d="M124.783,20.306c0.913-1.77,2.019-2.709,3.566-2.709c0.47,0,0.912,0,1.658,0.085l-0.304,4.448
			c-0.662-0.055-1.106-0.055-1.576-0.055c-1.629,0-2.792,0.523-3.345,2.46v6.66h-4.421v-13.35h4.421V20.306z"/>
		<path fill="#EF4135" d="M139.82,29.703c-1.104,1.078-1.908,1.742-3.979,1.742c-2.792,0-5.308-2.047-5.308-7.05
			c0-4.781,1.962-6.799,5.03-6.799c1.631,0,2.957,0.47,4.257,1.824v-6.054h4.423v17.828h-4.423V29.703z M139.82,22.794
			c-0.746-0.995-1.604-1.521-2.68-1.521c-1.438,0-2.268,0.884-2.268,3.122c0,2.433,0.968,3.43,2.404,3.43
			c1.216,0,1.879-0.497,2.543-1.438V22.794z"/>
		<rect x="59.358" y="13.367" fill="#EF4135" width="4.436" height="2.777"/>
		<rect x="113.08" y="13.367" fill="#EF4135" width="4.434" height="2.777"/>
	</g>
</g>
<g>
	<path fill="#BA2F2B" d="M148.616,24.73c0.809,0,1.438,0.293,1.89,0.879s0.677,1.408,0.677,2.467c0,1.062-0.229,1.89-0.686,2.481
		s-1.092,0.888-1.904,0.888c-0.82,0-1.457-0.295-1.91-0.885h-0.094l-0.252,0.768h-1.031v-9.117h1.377v2.168
		c0,0.16-0.008,0.398-0.023,0.715s-0.027,0.518-0.035,0.604h0.059C147.12,25.053,147.765,24.73,148.616,24.73z M148.259,25.855
		c-0.555,0-0.954,0.163-1.198,0.489s-0.37,0.872-0.378,1.638v0.094c0,0.789,0.125,1.36,0.375,1.714s0.658,0.53,1.225,0.53
		c0.488,0,0.858-0.193,1.11-0.58s0.378-0.945,0.378-1.676C149.771,26.592,149.267,25.855,148.259,25.855z"/>
	<path fill="#BA2F2B" d="M154.893,31.445c-1.008,0-1.796-0.294-2.364-0.882s-0.853-1.397-0.853-2.429
		c0-1.059,0.264-1.891,0.791-2.496s1.252-0.908,2.174-0.908c0.855,0,1.531,0.26,2.027,0.779s0.744,1.234,0.744,2.145v0.744h-4.318
		c0.02,0.629,0.189,1.112,0.51,1.45s0.771,0.507,1.354,0.507c0.383,0,0.739-0.036,1.069-0.108s0.685-0.192,1.063-0.36v1.119
		c-0.336,0.16-0.676,0.273-1.02,0.34S155.334,31.445,154.893,31.445z M154.641,25.773c-0.438,0-0.788,0.139-1.052,0.416
		s-0.421,0.682-0.472,1.213h2.941c-0.008-0.535-0.137-0.94-0.387-1.216S155.078,25.773,154.641,25.773z"/>
	<path fill="#BA2F2B" d="M160.91,30.332c0.336,0,0.672-0.053,1.008-0.158v1.037c-0.152,0.066-0.349,0.122-0.589,0.167
		s-0.489,0.067-0.747,0.067c-1.305,0-1.957-0.688-1.957-2.062v-3.492h-0.885v-0.609l0.949-0.504l0.469-1.371h0.85v1.441h1.846v1.043
		h-1.846v3.469c0,0.332,0.083,0.577,0.249,0.735S160.641,30.332,160.91,30.332z"/>
	<path fill="#BA2F2B" d="M166.788,31.328l-0.275-0.902h-0.047c-0.312,0.395-0.627,0.663-0.943,0.806s-0.723,0.214-1.219,0.214
		c-0.637,0-1.134-0.172-1.491-0.516s-0.536-0.83-0.536-1.459c0-0.668,0.248-1.172,0.744-1.512s1.252-0.525,2.268-0.557l1.119-0.035
		v-0.346c0-0.414-0.097-0.724-0.29-0.929s-0.493-0.308-0.899-0.308c-0.332,0-0.65,0.049-0.955,0.146s-0.598,0.213-0.879,0.346
		l-0.445-0.984c0.352-0.184,0.736-0.323,1.154-0.419s0.812-0.144,1.184-0.144c0.824,0,1.446,0.18,1.866,0.539s0.63,0.924,0.63,1.693
		v4.365H166.788z M164.737,30.391c0.5,0,0.901-0.14,1.204-0.419s0.454-0.671,0.454-1.175v-0.562l-0.832,0.035
		c-0.648,0.023-1.12,0.132-1.415,0.325s-0.442,0.489-0.442,0.888c0,0.289,0.086,0.513,0.258,0.671S164.394,30.391,164.737,30.391z"
		/>
</g>
</svg>
