<?xml version="1.0" encoding="utf-8"?>
<!-- Generator: Adobe Illustrator 15.0.2, SVG Export Plug-In . SVG Version: 6.00 Build 0)  -->
<!DOCTYPE svg PUBLIC "-//W3C//DTD SVG 1.1//EN" "http://www.w3.org/Graphics/SVG/1.1/DTD/svg11.dtd">
<svg version="1.1" id="Layer_1" xmlns="http://www.w3.org/2000/svg" xmlns:xlink="http://www.w3.org/1999/xlink" x="0px" y="0px"
	 width="170px" height="32px" viewBox="0 0 170 32" enable-background="new 0 0 170 32" xml:space="preserve">
<g>
	<g>
		<path fill="#FFFFFF" d="M11.609,20.841h-1.518c0.335,0.479,0.89,0.792,1.518,0.792V20.841z"/>
		<path fill="#FFFFFF" d="M8.917,0.555c-4.23,0-7.66,3.43-7.66,7.66v3.063h3.064V8.847V6.683c0,0,1.92,1.921,2.297,2.297
			c0.376,0.376,0.767,0.763,0.767,1.533c0,0.771,0,2.297,0,2.297l2.297,2.297l2.297-2.296l0,0l0,0v4.594c0.09,0,0.303,0,0.766,0
			c0.771,0,1.532-0.769,1.532-1.536c0-0.767,0-5.352,0-5.356l-0.396-0.396c-0.024,0.003-0.05,0.007-0.073,0.011
			c-0.058,0.009-0.116,0.019-0.173,0.027c-0.136,0.021-0.275,0.041-0.417,0.06c-0.054,0.006-0.109,0.013-0.164,0.02
			c-0.123,0.015-0.247,0.028-0.375,0.042c-0.06,0.007-0.119,0.013-0.18,0.019c-0.16,0.015-0.325,0.029-0.494,0.042
			c-0.062,0.004-0.127,0.009-0.191,0.013c-0.147,0.01-0.297,0.019-0.452,0.026c-0.056,0.003-0.113,0.006-0.17,0.009
			c-0.13,0.005-0.262,0.01-0.396,0.015L9.417,11.78l-0.499-0.498l0.866-0.866l0,0l2.134-2.134l0.375-0.376l1.731-1.73l1.485-1.485
			l0,0l0,0l1.257-1.256c0.012-0.013,0.03-0.031,0.056-0.054c0.174-0.159,0.644-0.533,1.209-0.533l0,0c0.852,0,1.452,0.423,1.7,0.635
			c0.082,0.07,0.126,0.118,0.126,0.118h-0.001c1.137,0.298,2.121,0.783,2.121,0.783h-2.903l0,0l-0.562,0.563
			c0.137,0.169,0.336,0.458,0.466,0.849c0.056,0.169,0.097,0.36,0.117,0.566l0.001-0.001c0.008,0.078,0.013,0.157,0.013,0.24
			c0,0.021-0.001,0.044-0.003,0.067c0,0.005,0,0.011,0,0.017c-0.001,0.007-0.001,0.014-0.002,0.021
			c-0.001,0.012-0.002,0.023-0.003,0.035C19.1,6.75,19.099,6.761,19.098,6.77c-0.001,0.007-0.002,0.014-0.003,0.021
			c0,0.003,0,0.005,0,0.007c-0.002,0.007-0.002,0.015-0.004,0.022c-0.001,0.01-0.003,0.021-0.005,0.031
			c-0.002,0.015-0.004,0.03-0.008,0.045c-0.001,0.007-0.002,0.014-0.004,0.021c-0.001,0.007-0.002,0.014-0.004,0.021
			C19.065,6.958,19.061,6.979,19.055,7c-0.002,0.008-0.004,0.016-0.006,0.025c0,0.002-0.001,0.005-0.002,0.008
			c-0.01,0.036-0.021,0.074-0.034,0.112c-0.004,0.011-0.007,0.022-0.011,0.034c-0.005,0.015-0.01,0.029-0.015,0.043
			c-0.003,0.009-0.007,0.019-0.01,0.027c-0.004,0.01-0.008,0.02-0.011,0.029c-0.003,0.007-0.007,0.016-0.01,0.023
			c-0.003,0.008-0.006,0.016-0.009,0.023c-0.005,0.012-0.01,0.024-0.015,0.035c-0.009,0.021-0.019,0.042-0.029,0.063
			c-0.004,0.008-0.008,0.017-0.011,0.025c-0.004,0.007-0.008,0.014-0.012,0.021c-0.012,0.025-0.024,0.05-0.039,0.075
			c-0.005,0.01-0.01,0.021-0.016,0.031c-0.004,0.007-0.007,0.014-0.012,0.021c-0.012,0.022-0.026,0.046-0.041,0.069
			c-0.005,0.009-0.01,0.018-0.016,0.027c-0.006,0.01-0.013,0.021-0.021,0.031c-0.009,0.014-0.018,0.028-0.027,0.042
			c-0.023,0.035-0.047,0.069-0.072,0.104c-0.009,0.013-0.018,0.026-0.027,0.039c-0.005,0.006-0.01,0.013-0.015,0.019
			c-0.006,0.008-0.012,0.015-0.018,0.022c-0.022,0.03-0.046,0.059-0.071,0.089c-0.012,0.015-0.026,0.03-0.039,0.045
			c-0.023,0.027-0.048,0.054-0.073,0.081c-0.009,0.01-0.017,0.021-0.027,0.03c-0.01,0.012-0.021,0.023-0.032,0.035
			c-0.019,0.02-0.039,0.039-0.059,0.058c-0.012,0.012-0.023,0.023-0.034,0.035c-0.015,0.013-0.028,0.026-0.042,0.04
			c-0.016,0.015-0.033,0.03-0.051,0.045c-0.003,0.003-0.007,0.007-0.011,0.01C18.128,8.424,18.12,8.432,18.11,8.44
			c-0.024,0.022-0.051,0.043-0.076,0.066c-0.019,0.015-0.036,0.03-0.056,0.045c-0.053,0.044-0.109,0.087-0.168,0.131
			c-0.021,0.015-0.042,0.029-0.063,0.044c-0.035,0.025-0.07,0.05-0.106,0.075c-0.013,0.009-0.027,0.019-0.042,0.027
			c-0.021,0.015-0.042,0.029-0.065,0.043c-0.024,0.016-0.051,0.032-0.076,0.047c-0.02,0.012-0.039,0.023-0.058,0.035
			c-0.025,0.015-0.051,0.03-0.076,0.046c-0.023,0.013-0.047,0.026-0.072,0.04c-0.018,0.01-0.035,0.02-0.053,0.03
			c-0.041,0.022-0.083,0.044-0.125,0.067c-0.025,0.013-0.05,0.026-0.077,0.04c-0.003,0.001-0.007,0.003-0.011,0.005
			c-0.079,0.041-0.163,0.081-0.249,0.12c-0.028,0.012-0.056,0.024-0.083,0.037c-0.05,0.022-0.099,0.043-0.15,0.064
			c-0.011,0.004-0.023,0.01-0.037,0.015c-0.008,0.003-0.017,0.007-0.027,0.01c-0.033,0.014-0.067,0.028-0.102,0.041
			c-0.03,0.012-0.062,0.024-0.093,0.037C16.222,9.514,16.2,9.521,16.176,9.53c-0.046,0.017-0.09,0.034-0.138,0.05
			c-0.024,0.009-0.052,0.018-0.077,0.026c-0.025,0.008-0.051,0.017-0.076,0.026c-0.031,0.011-0.062,0.021-0.094,0.032l0.003-0.002
			c-0.016,0.005-0.032,0.01-0.047,0.015C15.67,9.702,15.591,9.726,15.51,9.75c-0.084,0.024-0.168,0.049-0.256,0.073
			c-0.06,0.016-0.123,0.031-0.185,0.047c-0.074,0.019-0.148,0.037-0.225,0.055c-0.065,0.015-0.132,0.03-0.2,0.045
			c-0.081,0.02-0.165,0.036-0.249,0.052c-0.066,0.013-0.13,0.026-0.197,0.039c-0.01,0.002-0.02,0.004-0.029,0.006l2.408,2.408v0.337
			l0,0c0,0.32,0,4.536,0,5.042c0,0.533,0.003,1.082-0.543,1.629c-0.265,0.264-0.656,0.653-0.988,0.985l-0.002,0.003v0.002V20.47
			v0.001c0.333,0.331,0.724,0.725,0.99,0.989c0.545,0.545,0.542,1.095,0.542,1.626c0,0.194,0,0.68,0,1.215c0,0,0,0,0.001,0v0.385
			v0.765v0.383c-0.001,0-0.001,0-0.001,0c0,0.958,0.001,2.298,0.001,2.298h-0.004c0,0-0.22,0-0.588,0c-1.819,0-7.327,0-8.601,0
			c-1.531,0-3.064-1.531-3.064-1.531l-1.532-1.533H1.257v6.129h15.32c4.229,0,7.659-3.43,7.659-7.659V0.555H8.917z"/>
		<path fill="#FFFFFF" d="M18.982,3.742c-0.174-0.021-0.44-0.046-0.662-0.046c-0.36,0-0.722,0.361-0.722,0.361h1.069L18.982,3.742z"
			/>
		<path fill="#FFFFFF" d="M42.281,31.195h-4.808l-3.375-4.698h-2.292v4.698H27.3v-16.86h6.994c4.754,0,7.434,2.267,7.434,6.302
			c0,2.461-1.133,4.202-3.206,5.113l3.759,5.086V31.195z M34.348,22.986c1.88,0,2.93-0.856,2.93-2.351
			c0-1.549-1.049-2.432-2.93-2.432h-2.542v4.78h2.542V22.986z"/>
		<path fill="#FFFFFF" d="M48.109,19.891c1.408-1.574,2.735-2.293,4.394-2.293c2.848,0,4.201,1.521,4.201,5.113v8.484h-4.423V24.23
			c0-1.633-0.274-2.238-1.546-2.238c-1.022,0-1.88,0.605-2.625,1.547v7.656h-4.423V13.367h4.423L48.109,19.891L48.109,19.891z"/>
		<path fill="#FFFFFF" d="M59.358,31.195V17.845h4.422v13.351H59.358z"/>
		<path fill="#FFFFFF" d="M71.05,19.588c1.41-1.271,2.764-1.99,4.395-1.99c2.849,0,4.202,1.521,4.202,5.113v8.484h-4.424v-7.24
			c0-1.632-0.274-2.24-1.546-2.24c-1.023,0-1.88,0.58-2.627,1.521v7.959h-4.422v-13.35h4.422V19.588L71.05,19.588z"/>
		<path fill="#FFFFFF" d="M95.348,24.589c0,4.368-2.572,6.856-6.967,6.856c-4.367,0-6.938-2.488-6.938-6.856
			c0-4.478,2.57-6.991,6.938-6.991C92.773,17.598,95.348,20.111,95.348,24.589z M91.008,24.589c0-2.567-0.941-3.481-2.627-3.481
			c-1.656,0-2.599,0.914-2.599,3.481c0,2.462,0.911,3.347,2.599,3.347C90.066,27.936,91.008,27.051,91.008,24.589z"/>
		<path fill="#FFFFFF" d="M101.787,19.614c1.324-1.382,2.626-2.019,4.256-2.019c3.262,0,5.003,2.019,5.003,6.799
			c0,5.004-2.487,7.051-5.307,7.051c-2.073,0-2.847-0.664-3.952-1.742v1.492h-4.423V13.367h4.423V19.614z M101.787,26.387
			c0.688,0.941,1.324,1.438,2.543,1.438c1.409,0,2.376-0.997,2.376-3.431c0-2.237-0.829-3.121-2.267-3.121
			c-1.078,0-1.906,0.524-2.652,1.521V26.387z"/>
		<path fill="#FFFFFF" d="M113.092,31.195V17.845h4.422v13.351H113.092z"/>
		<path fill="#FFFFFF" d="M124.783,20.307c0.912-1.771,2.019-2.709,3.566-2.709c0.469,0,0.911,0,1.657,0.084l-0.304,4.448
			c-0.662-0.055-1.105-0.055-1.576-0.055c-1.629,0-2.792,0.522-3.345,2.46v6.66h-4.421V17.845h4.421L124.783,20.307L124.783,20.307z
			"/>
		<path fill="#FFFFFF" d="M139.82,29.703c-1.104,1.078-1.908,1.742-3.979,1.742c-2.792,0-5.308-2.047-5.308-7.051
			c0-4.78,1.962-6.799,5.029-6.799c1.631,0,2.957,0.471,4.258,1.824v-6.054h4.423v17.827h-4.423V29.703z M139.82,22.794
			c-0.746-0.995-1.604-1.521-2.68-1.521c-1.438,0-2.269,0.884-2.269,3.121c0,2.434,0.968,3.431,2.403,3.431
			c1.217,0,1.88-0.497,2.543-1.438v-3.593H139.82z"/>
		<rect x="59.358" y="13.367" fill="#FFFFFF" width="4.436" height="2.777"/>
		<rect x="113.08" y="13.367" fill="#FFFFFF" width="4.434" height="2.777"/>
	</g>
</g>
</svg>
