<?xml version="1.0" encoding="utf-8"?>
<!-- Generator: Adobe Illustrator 15.0.2, SVG Export Plug-In . SVG Version: 6.00 Build 0)  -->
<!DOCTYPE svg PUBLIC "-//W3C//DTD SVG 1.1//EN" "http://www.w3.org/Graphics/SVG/1.1/DTD/svg11.dtd">
<svg version="1.1" id="Layer_1" xmlns="http://www.w3.org/2000/svg" xmlns:xlink="http://www.w3.org/1999/xlink" x="0px" y="0px"
	 width="31.083px" height="31.083px" viewBox="-1.083 -1.083 31.083 31.083" enable-background="new -1.083 -1.083 31.083 31.083"
	 xml:space="preserve">
<g id="Layer_1_1_">
</g>
<g id="icono">
	<g>
		<g>
			<g>
				<defs>
					<circle id="SVGID_1_" cx="14.458" cy="14.459" r="13.869"/>
				</defs>
				<clipPath id="SVGID_2_">
					<use xlink:href="#SVGID_1_"  overflow="visible"/>
				</clipPath>
				<circle clip-path="url(#SVGID_2_)" fill="#ACA095" cx="15.779" cy="22.144" r="3.843"/>
			</g>
			<g>
				<defs>
					<circle id="SVGID_4_" cx="14.458" cy="14.459" r="13.869"/>
				</defs>
				<clipPath id="SVGID_5_">
					<use xlink:href="#SVGID_4_"  overflow="visible"/>
				</clipPath>
				<path clip-path="url(#SVGID_5_)" fill="#ACA095" d="M11.236,4.512l0.32,7.766c0.46-0.22,1.681-0.22,2.162,0V8.395
					C13.718,6.673,12.717,5.192,11.236,4.512z"/>
			</g>
			<g>
				<defs>
					<circle id="SVGID_7_" cx="14.458" cy="14.459" r="13.869"/>
				</defs>
				<clipPath id="SVGID_8_">
					<use xlink:href="#SVGID_7_"  overflow="visible"/>
				</clipPath>
				<path clip-path="url(#SVGID_8_)" fill="#C9C1B8" d="M7.474,4.512l0.32,7.766c0.46-0.22,1.681-0.22,2.161,0V8.395
					C9.955,6.673,8.935,5.192,7.474,4.512z"/>
			</g>
			<g>
				<defs>
					<circle id="SVGID_10_" cx="14.458" cy="14.459" r="13.869"/>
				</defs>
				<clipPath id="SVGID_11_">
					<use xlink:href="#SVGID_10_"  overflow="visible"/>
				</clipPath>
				<path clip-path="url(#SVGID_11_)" fill="#BCB1A7" d="M8.434,5.152l0.621,6.985c0.36,0.02,0.681,0.06,0.88,0.16V8.395
					C9.955,7.094,9.355,5.933,8.434,5.152z"/>
			</g>
			<g>
				<defs>
					<circle id="SVGID_13_" cx="14.458" cy="14.459" r="13.869"/>
				</defs>
				<clipPath id="SVGID_14_">
					<use xlink:href="#SVGID_13_"  overflow="visible"/>
				</clipPath>
				<path clip-path="url(#SVGID_14_)" fill="#C9C1B8" d="M23.785,7.234c0.66,5.543-2.822,5.063-4.264,4.223
					c0.941-1.321,0.32-2.942,0.32-2.942s-0.381,1.601-1.602,2.202c-2.182-1.281-4.202-2.322-7.144-2.322
					c-13.85,0-3.282,25.217-3.282,25.217c14.049,0,12.147-8.766,10.266-13.27c3.322,1.303,4.984-0.92,5.164-1.621
					c0,0,0.641,0.342,0.74,0.141c0.359-0.801,1.121-2.941-0.119-4.583C26.707,10.736,23.785,7.234,23.785,7.234z"/>
			</g>
			<g>
				<defs>
					<circle id="SVGID_16_" cx="14.458" cy="14.459" r="13.869"/>
				</defs>
				<clipPath id="SVGID_17_">
					<use xlink:href="#SVGID_16_"  overflow="visible"/>
				</clipPath>
				<path clip-path="url(#SVGID_17_)" fill="#ACA095" d="M14.698,13.478h-1.421c0.761,0.38,1.501,0.4,1.501,0.4
					c0.16,0.36,0.5,0.6,0.921,0.6c0.561,0,1-0.44,1-1H14.698z"/>
			</g>
			<g>
				<defs>
					<circle id="SVGID_19_" cx="14.458" cy="14.459" r="13.869"/>
				</defs>
				<clipPath id="SVGID_20_">
					<use xlink:href="#SVGID_19_"  overflow="visible"/>
				</clipPath>
				<path clip-path="url(#SVGID_20_)" fill="#ACA095" d="M16.219,13.478c0,0.28-0.219,0.5-0.5,0.5c-0.28,0-0.5-0.22-0.5-0.5"/>
			</g>
			<g>
				<defs>
					<circle id="SVGID_22_" cx="14.458" cy="14.459" r="13.869"/>
				</defs>
				<clipPath id="SVGID_23_">
					<use xlink:href="#SVGID_22_"  overflow="visible"/>
				</clipPath>
				<circle clip-path="url(#SVGID_23_)" fill="#BCB1A7" cx="6.413" cy="22.144" r="3.843"/>
			</g>
			<g>
				<defs>
					<circle id="SVGID_25_" cx="14.458" cy="14.459" r="13.869"/>
				</defs>
				<clipPath id="SVGID_26_">
					<use xlink:href="#SVGID_25_"  overflow="visible"/>
				</clipPath>
				<path clip-path="url(#SVGID_26_)" fill="#ACA095" d="M15.879,15.539v-0.4c0.92,0,1.662-0.741,1.662-1.661h0.398
					C17.939,14.619,17.02,15.539,15.879,15.539z"/>
			</g>
			<g>
				<defs>
					<circle id="SVGID_28_" cx="14.458" cy="14.459" r="13.869"/>
				</defs>
				<clipPath id="SVGID_29_">
					<use xlink:href="#SVGID_28_"  overflow="visible"/>
				</clipPath>
				<g clip-path="url(#SVGID_29_)">
					<path fill="#ACA095" d="M22.062,18.242c-0.66-0.041-1.359-0.08-1.66-0.361c0.119-0.18,0.18-0.4,0.18-0.641h-0.4
						c0,0.441-0.359,0.82-0.82,0.82v0.4c0.301,0,0.561-0.1,0.781-0.279c0.4,0.359,1.141,0.42,1.9,0.459
						c0.4,0.021,0.801,0.061,1.141,0.121c0.061,0.02,0.141,0.02,0.201,0.039c0.18,0.041,0.34,0.121,0.48,0.201
						c0.039-0.08,0.1-0.201,0.16-0.361C23.523,18.342,22.783,18.281,22.062,18.242z"/>
				</g>
			</g>
			<g>
				<defs>
					<circle id="SVGID_31_" cx="14.458" cy="14.459" r="13.869"/>
				</defs>
				<clipPath id="SVGID_32_">
					<use xlink:href="#SVGID_31_"  overflow="visible"/>
				</clipPath>
				<g clip-path="url(#SVGID_32_)">
					<g>
						<path fill="#ACA095" d="M24.404,15.419c-0.359,0.06-0.641,0.36-0.641,0.741c0,0.4,0.32,0.74,0.74,0.76
							C24.545,16.439,24.525,15.92,24.404,15.419z"/>
					</g>
				</g>
			</g>
			<g>
				<defs>
					<circle id="SVGID_34_" cx="14.458" cy="14.459" r="13.869"/>
				</defs>
				<clipPath id="SVGID_35_">
					<use xlink:href="#SVGID_34_"  overflow="visible"/>
				</clipPath>
				<rect x="6.413" y="15.139" clip-path="url(#SVGID_35_)" fill="#ACA095" width="3.842" height="0.4"/>
			</g>
			<g>
				<defs>
					<circle id="SVGID_37_" cx="14.458" cy="14.459" r="13.869"/>
				</defs>
				<clipPath id="SVGID_38_">
					<use xlink:href="#SVGID_37_"  overflow="visible"/>
				</clipPath>
				<g clip-path="url(#SVGID_38_)">
					<path fill="#BCB1A7" d="M4.191,23.225C7.133,32.932,16.9,31.41,16.9,31.41v-7.125c0,0-5.644,0.861-8.966-3.463"/>
				</g>
			</g>
			<g>
				<defs>
					<circle id="SVGID_40_" cx="14.458" cy="14.459" r="13.869"/>
				</defs>
				<clipPath id="SVGID_41_">
					<use xlink:href="#SVGID_40_"  overflow="visible"/>
				</clipPath>
				<g clip-path="url(#SVGID_41_)">
					<path fill="#DED7D1" d="M16.9,29.029c0.66,0,1.18,0.539,1.18,1.18c0,0.66-0.539,1.182-1.18,1.182"/>
				</g>
			</g>
			<g>
				<defs>
					<circle id="SVGID_43_" cx="14.458" cy="14.459" r="13.869"/>
				</defs>
				<clipPath id="SVGID_44_">
					<use xlink:href="#SVGID_43_"  overflow="visible"/>
				</clipPath>
				<g clip-path="url(#SVGID_44_)">
					<path fill="#DED7D1" d="M16.9,26.646c0.66,0,1.18,0.541,1.18,1.182c0,0.66-0.539,1.18-1.18,1.18"/>
				</g>
			</g>
			<g>
				<defs>
					<circle id="SVGID_46_" cx="14.458" cy="14.459" r="13.869"/>
				</defs>
				<clipPath id="SVGID_47_">
					<use xlink:href="#SVGID_46_"  overflow="visible"/>
				</clipPath>
				<g clip-path="url(#SVGID_47_)">
					<path fill="#DED7D1" d="M16.9,24.266c0.66,0,1.18,0.541,1.18,1.18c0,0.662-0.539,1.182-1.18,1.182"/>
				</g>
			</g>
			<g>
				<defs>
					<circle id="SVGID_49_" cx="14.458" cy="14.459" r="13.869"/>
				</defs>
				<clipPath id="SVGID_50_">
					<use xlink:href="#SVGID_49_"  overflow="visible"/>
				</clipPath>
				<g clip-path="url(#SVGID_50_)">
					<rect x="11.076" y="24.705" fill="#ACA095" width="0.4" height="4.324"/>
				</g>
			</g>
			<g>
				<defs>
					<circle id="SVGID_52_" cx="14.458" cy="14.459" r="13.869"/>
				</defs>
				<clipPath id="SVGID_53_">
					<use xlink:href="#SVGID_52_"  overflow="visible"/>
				</clipPath>
				<g clip-path="url(#SVGID_53_)">
					<rect x="14.298" y="25.166" fill="#ACA095" width="0.4" height="1.941"/>
				</g>
			</g>
			<g>
				<defs>
					<circle id="SVGID_55_" cx="14.458" cy="14.459" r="13.869"/>
				</defs>
				<clipPath id="SVGID_56_">
					<use xlink:href="#SVGID_55_"  overflow="visible"/>
				</clipPath>
				<g clip-path="url(#SVGID_56_)">
					<rect x="7.714" y="23.244" fill="#ACA095" width="0.4" height="2.482"/>
				</g>
			</g>
			<g>
				<defs>
					<circle id="SVGID_58_" cx="14.458" cy="14.459" r="13.869"/>
				</defs>
				<clipPath id="SVGID_59_">
					<use xlink:href="#SVGID_58_"  overflow="visible"/>
				</clipPath>
				<path clip-path="url(#SVGID_59_)" fill="#696664" d="M15.719,16.82c-1.841,0-3.342-1.501-3.342-3.342
					c0-1.841,1.501-3.342,3.342-3.342c1.842,0,3.342,1.501,3.342,3.342C19.061,15.319,17.561,16.82,15.719,16.82z M15.719,10.556
					c-1.621,0-2.921,1.321-2.921,2.922c0,1.621,1.321,2.922,2.921,2.922c1.621,0,2.922-1.322,2.922-2.922
					C18.66,11.857,17.34,10.556,15.719,10.556z"/>
			</g>
			<g>
				<defs>
					<circle id="SVGID_61_" cx="14.458" cy="14.459" r="13.869"/>
				</defs>
				<clipPath id="SVGID_62_">
					<use xlink:href="#SVGID_61_"  overflow="visible"/>
				</clipPath>
				<polygon clip-path="url(#SVGID_62_)" fill="#FFDCAA" points="17.359,22.023 17.58,20.043 13.377,22.023 13.538,19.842 				"/>
			</g>
			<g>
				<defs>
					<circle id="SVGID_64_" cx="14.458" cy="14.459" r="13.869"/>
				</defs>
				<clipPath id="SVGID_65_">
					<use xlink:href="#SVGID_64_"  overflow="visible"/>
				</clipPath>
				<g clip-path="url(#SVGID_65_)">
					<rect x="10.496" y="7.974" fill="#FBB034" width="4.243" height="0.981"/>
				</g>
			</g>
			<g>
				<defs>
					<circle id="SVGID_67_" cx="14.458" cy="14.459" r="13.869"/>
				</defs>
				<clipPath id="SVGID_68_">
					<use xlink:href="#SVGID_67_"  overflow="visible"/>
				</clipPath>
				<g clip-path="url(#SVGID_68_)">
					<path fill="#FBB034" d="M10.756,7.974c0-1.041,0.84-1.881,1.881-1.881c1.041,0,1.881,0.841,1.881,1.881"/>
				</g>
			</g>
			<g>
				<defs>
					<circle id="SVGID_70_" cx="14.458" cy="14.459" r="13.869"/>
				</defs>
				<clipPath id="SVGID_71_">
					<use xlink:href="#SVGID_70_"  overflow="visible"/>
				</clipPath>
				<g clip-path="url(#SVGID_71_)">
					<path fill="#FBB034" d="M14.499,7.974c0-1.041-0.841-1.881-1.881-1.881c-1.041,0-1.881,0.841-1.881,1.881"/>
				</g>
			</g>
			<g>
				<defs>
					<circle id="SVGID_73_" cx="14.458" cy="14.459" r="13.869"/>
				</defs>
				<clipPath id="SVGID_74_">
					<use xlink:href="#SVGID_73_"  overflow="visible"/>
				</clipPath>
				<g clip-path="url(#SVGID_74_)">
					<path fill="#FECD85" d="M10.756,7.974c0-1.041,0.84-1.881,1.881-1.881c1.041,0,1.881,0.841,1.881,1.881"/>
				</g>
			</g>
			<g>
				<defs>
					<circle id="SVGID_76_" cx="14.458" cy="14.459" r="13.869"/>
				</defs>
				<clipPath id="SVGID_77_">
					<use xlink:href="#SVGID_76_"  overflow="visible"/>
				</clipPath>
				<g clip-path="url(#SVGID_77_)">
					<circle fill="#FBB034" cx="12.617" cy="5.653" r="0.68"/>
				</g>
			</g>
			<g>
				<defs>
					<circle id="SVGID_79_" cx="14.458" cy="14.459" r="13.869"/>
				</defs>
				<clipPath id="SVGID_80_">
					<use xlink:href="#SVGID_79_"  overflow="visible"/>
				</clipPath>
				<circle clip-path="url(#SVGID_80_)" fill="#FBB034" cx="15.479" cy="20.943" r="0.781"/>
			</g>
		</g>
		<g>
			<g>
				<circle fill="none" stroke="#FECD85" stroke-width="2" stroke-miterlimit="10" cx="14.458" cy="14.459" r="13.869"/>
			</g>
		</g>
	</g>
</g>
</svg>
