<?xml version="1.0" encoding="utf-8"?>
<!-- Generator: Adobe Illustrator 15.0.2, SVG Export Plug-In . SVG Version: 6.00 Build 0)  -->
<!DOCTYPE svg PUBLIC "-//W3C//DTD SVG 1.1//EN" "http://www.w3.org/Graphics/SVG/1.1/DTD/svg11.dtd">
<svg version="1.1" id="Layer_1" xmlns="http://www.w3.org/2000/svg" xmlns:xlink="http://www.w3.org/1999/xlink" x="0px" y="0px"
	 width="460px" height="400px" viewBox="0 0 460 400" enable-background="new 0 0 460 400" xml:space="preserve">
<g>
	<path fill="#AFA69C" d="M241.198,257.085c-0.27-0.112-0.535-0.229-0.8-0.351c-0.527-0.241-1.048-0.497-1.562-0.765
		c-1.026-0.535-2.026-1.117-3-1.737c-1.947-1.241-3.792-2.637-5.52-4.16c-1.727-1.523-3.335-3.178-4.81-4.939
		c-1.474-1.763-2.814-3.634-4.011-5.589c-0.008-0.014-0.004-0.031,0.01-0.039c0.013-0.009,0.03-0.005,0.039,0.008
		c1.253,1.917,2.644,3.74,4.162,5.448c1.518,1.707,3.162,3.298,4.915,4.754c1.754,1.456,3.616,2.778,5.569,3.941
		c0.976,0.581,1.975,1.123,2.995,1.616c0.51,0.247,1.025,0.481,1.546,0.701c0.26,0.109,0.521,0.215,0.784,0.315
		c0.131,0.051,0.263,0.101,0.395,0.147c0.13,0.047,0.264,0.094,0.389,0.133h0.002C242.535,256.643,241.333,257.142,241.198,257.085z
		"/>
	<g>
		<path fill="#D4CCC4" d="M242.303,257h-0.002c-0.125,0-0.259-0.301-0.389-0.348c-0.132-0.047-0.264-0.205-0.395-0.255
			c-0.263-0.101-0.524-0.261-0.784-0.37c-0.521-0.22-1.036-0.48-1.546-0.728c-0.453-0.22-0.9-0.465-1.345-0.703
			c-0.048,0.102-0.104,0.195-0.177,0.297c-0.077,0.107-0.158,0.204-0.245,0.3c0.467,0.269,0.938,0.528,1.416,0.778
			c0.514,0.268,1.034,0.522,1.562,0.764c0.265,0.121,0.53,0.453,0.8,0.566C241.333,257.358,242.535,257,242.303,257z"/>
		<path fill="#D4CCC4" d="M230.317,250.072c-1.727-1.523-3.335-3.178-4.81-4.939c-1.474-1.763-2.814-3.634-4.011-5.589
			c-0.008-0.014-0.004-0.031,0.01-0.039c0.013-0.009,0.03-0.005,0.039,0.008c1.253,1.917,2.644,3.74,4.162,5.448
			c1.518,1.707,3.162,3.298,4.915,4.754c1.754,1.456,3.616,2.778,5.569,3.941c0.542,0.323,1.094,0.63,1.65,0.928
			c0.979-2.04-2.886-3.972-6.791-7.175l0.082,2.174l-0.589-2.597c-0.328-0.279-0.654-0.567-0.978-0.866
			c-4.636-4.289-7.504-9.072-8.825-8.314c-2.03,1.163,0.473,8.353,6.459,13.931c1.017,0.946,1.963,1.727,2.841,2.354l3.736-0.631
			l-2.634,1.361c3.002,1.828,5.08,1.698,6.276,0.369c-0.535-0.308-1.063-0.626-1.584-0.957
			C233.89,252.991,232.045,251.596,230.317,250.072z"/>
	</g>
</g>
<g>
	<path fill="#FBB034" d="M104.921,38.51c1.677,1.185,7.596,7.202,7.596,9.569c0,1.775-5.919,5.919-9.47,9.568
		c-31.172,32.456-54.552,60.373-65.897,74.184c-6.412,7.793-7.3,11.739-8.483,11.739c-2.466,0-8.977-8.286-8.977-12.726
		c0-9.864,28.707-33.935,43.997-49.719C51.355,90.498,42.674,95.924,34.19,95.924c-9.174,0-18.447-8.682-18.447-21.309
		c0-17.362,22.985-38.867,41.531-50.311c9.076-5.524,23.873-14.106,36.598-14.106c7.991,0,9.865,5.229,13.614,10.26
		c2.071,2.071,3.847,3.748,3.847,7.596C111.333,31.506,108.768,35.156,104.921,38.51z M65.067,51.334
		c0.888,0,1.677-0.197,2.466-0.395c6.412-1.677,36.007-17.657,36.007-25.057c0-1.973-1.381-2.959-3.354-2.959
		c-24.168,0-75.762,41.729-75.762,58.301c0,3.256,1.579,4.637,5.13,4.637c17.066,0,51.198-25.254,70.73-43.701
		c-12.035,8.286-29.89,14.797-32.258,14.797c-2.762,0-4.439-1.479-4.439-3.551C63.587,51.927,63.686,51.334,65.067,51.334z"/>
	<path fill="#FBB034" d="M125.246,50.939c3.058-1.381,5.525-1.677,7.3-1.677c2.86,0,4.044,1.184,6.511,4.045
		c2.071,2.466,3.156,5.327,3.156,6.018c0,0.592-0.789,0.69-1.775,0.69c-0.69,0-1.381,0.099-2.17,0.197
		c2.762,0.888,3.649,4.242,3.649,7.497c0,1.874-0.197,3.946-0.888,5.722c-3.452,8.582-16.869,21.012-27.227,21.012
		c-1.579,0-3.848-0.296-5.031-1.282c-2.762-2.269-10.161-9.766-10.161-16.079C98.611,66.625,114.197,56.069,125.246,50.939z
		 M133.039,61.495c-11.641,4.144-25.648,15.784-25.747,21.999c0,1.381,1.479,2.762,2.663,2.762c3.354,0,11.345-5.426,13.318-6.905
		c4.143-3.157,7.498-7.201,7.498-8.582c0-1.086-0.889-1.974-0.889-3.946C129.882,65.54,131.165,63.073,133.039,61.495z"/>
	<path fill="#FBB034" d="M171.316,50.939c3.059-1.381,5.524-1.677,7.3-1.677c2.861,0,4.045,1.184,6.511,4.045
		c2.072,2.466,3.157,5.327,3.157,6.018c0,0.592-0.789,0.69-1.775,0.69c-0.691,0-1.382,0.099-2.171,0.197
		c2.763,0.888,3.65,4.242,3.65,7.497c0,1.874-0.197,3.946-0.888,5.722c-3.453,8.582-16.869,21.012-27.228,21.012
		c-1.578,0-3.847-0.296-5.03-1.282c-2.763-2.269-10.161-9.766-10.161-16.079C144.682,66.625,160.268,56.069,171.316,50.939z
		 M179.109,61.495c-11.64,4.144-25.648,15.784-25.747,21.999c0,1.381,1.48,2.762,2.664,2.762c3.354,0,11.345-5.426,13.317-6.905
		c4.143-3.157,7.497-7.201,7.497-8.582c0-1.086-0.888-1.974-0.888-3.946C175.953,65.54,177.235,63.073,179.109,61.495z"/>
	<path fill="#FBB034" d="M187.792,82.704c0-1.282,0.494-3.255,1.283-4.932c5.722-12.923,24.563-26.537,32.948-26.537
		c1.184,0,2.17,0.297,2.959,0.889c3.059,2.466,4.735,5.523,5.722,7.497c4.242-4.735,29.102-32.751,35.711-38.769
		c0.69-0.69,1.184-0.987,1.775-0.987c0.395,0,0.789,0.1,1.381,0.494c2.565,1.677,5.919,6.215,5.919,7.694
		c0,0.69-0.197,1.479-0.789,1.973C258.03,45.515,244.91,59.72,229.718,76.193c-4.341,4.637-7.398,8.188-7.398,10.161
		c0,0.592,0.296,0.888,1.085,0.888c2.367,0,5.13-1.479,13.811-8.286c2.763-2.17,6.511-5.919,7.398-5.919
		c1.086,0,2.072,2.367,2.072,3.156c0,2.763-18.645,18.842-25.155,18.842c-4.242,0-7.497-3.649-7.497-8.089
		c-3.749,2.861-10.26,8.681-15.587,8.681C192.527,95.627,187.792,86.65,187.792,82.704z M199.63,87.341
		c0.789,0,1.974-0.395,3.453-1.479c4.637-3.256,22.491-18.25,22.491-21.505c0-1.283-0.789-2.368-2.564-2.368
		c-2.86,0-25.057,17.165-25.057,23.577C197.953,86.552,198.052,87.341,199.63,87.341z"/>
	<path fill="#FBB034" d="M245.308,88.919c-3.452-3.748-3.452-5.721-3.452-7.398c0-4.241,2.17-8.681,4.044-11.937
		c5.327-9.075,12.232-15.783,24.169-27.522c15.488-15.29,21.703-20.814,27.129-25.451c0.986-0.888,1.677-1.479,2.564-1.479
		c0.986,0,6.018,5.13,6.018,7.793c0,0.296-0.197,0.986-0.592,1.479c-3.848,5.13-16.573,13.416-31.765,28.608
		c3.551,0,6.412,1.578,8.483,3.551c2.565,2.368,4.439,4.439,4.439,6.905c0,1.48-0.493,3.354-0.986,4.538
		c-3.65,8.879-18.546,28.017-29.003,28.017C252.312,96.022,249.451,93.457,245.308,88.919z M253.595,85.861
		c1.578,0,3.255-0.888,6.511-3.65c5.229-4.438,16.572-17.657,16.77-22.886c0-1.085-0.986-1.579-1.874-1.579
		c-6.116,0-22.887,20.322-22.887,26.143C252.114,84.776,252.312,85.861,253.595,85.861z"/>
	<path fill="#FBB034" d="M295.225,86.256c9.767-5.722,18.546-13.811,40.644-31.962c0.493-0.395,1.874-1.282,2.959-1.282
		c1.974,0,7.398,3.354,7.398,7.3c0,1.184-5.03,5.229-9.568,9.766c-17.855,17.855-33.343,36.007-47.746,56.821
		c-0.986,1.48-2.663,4.933-3.551,4.933c-1.184,0-6.313-4.044-6.313-9.667c0-5.919,5.031-11.937,9.47-16.968
		c5.919-6.807,10.753-11.641,18.151-18.94c0.296-0.296,0.493-0.69,0.493-0.888s-0.099-0.296-0.197-0.296
		c-0.197,0-0.493,0.197-0.69,0.395c-12.528,10.358-14.797,10.358-16.178,10.358c-2.072,0-3.749-0.987-6.116-5.524
		c-0.889-1.776-1.875-4.933-1.875-6.609c0-10.062,13.515-19.632,29.693-32.555c0.296-0.197,0.69-0.296,1.184-0.296
		c4.341,0,9.076,5.722,9.076,7.202c0,0.197-0.099,0.493-0.395,0.592c-10.062,7.793-19.829,15.882-28.411,25.254
		c-0.395,0.493-0.592,0.986-0.592,1.381c0,0.789,0.493,1.381,1.381,1.381C294.337,86.65,294.731,86.552,295.225,86.256z"/>
	<path fill="#FBB034" d="M354.515,77.871c-1.874,2.86-2.96,5.327-2.96,7.103c0,1.578,0.789,3.649,3.848,3.649
		c1.775,0,3.946-0.592,5.13-0.986c18.053-6.609,27.522-15.389,28.41-15.389c0.789,0,0.888,0.592,0.888,0.986
		c0,1.085-3.945,5.623-7.99,9.272c-7.201,6.609-16.968,13.516-26.635,13.516c-4.341,0-13.712-10.161-13.712-14.107
		c0-9.371,7.398-17.361,15.093-24.268c7.892-7.103,13.909-10.259,17.658-10.259c2.071,0,4.834,2.071,7.3,4.834
		c3.552,3.255,3.848,4.932,3.848,6.215c0,9.47-16.277,22.886-23.676,22.886C359.645,81.323,356.685,80.14,354.515,77.871z
		 M357.375,74.122c0.789,1.184,1.875,1.282,2.368,1.282c5.623,0,18.645-13.909,18.645-16.967c0-0.79-0.493-1.086-1.185-1.086
		c-0.69,0-1.578,0.395-2.071,0.691C368.522,62.58,361.913,68.598,357.375,74.122z"/>
	<path fill="#FBB034" d="M386.379,88.82c0-4.734,6.609-8.286,9.569-8.286c2.269,0,4.933,3.749,4.933,6.905
		c0,5.031-5.426,7.3-9.471,7.3C388.451,94.739,386.379,91.682,386.379,88.82z M404.037,68.992c0-5.919,26.142-38.078,44.786-51.396
		c1.578-1.085,2.763-1.973,3.65-1.973s2.367,1.184,2.367,5.327c0,11.739-13.021,17.164-34.033,40.445
		c-0.493,0.493-0.592,1.085-0.592,1.775c0,0.789,0.197,1.678,0.197,2.565s-2.467,2.762-5.031,4.933
		c-2.763,2.466-5.623,5.228-6.412,5.228C406.01,75.897,404.037,71.656,404.037,68.992z"/>
</g>
<g>
	<g>
		<g>
			<g>
				<g>
					<path fill="#ACA095" d="M98.096,156.919c49.889,15.144,42.044,65.428,42.044,65.428h-36.717c0,0,4.443-29.087-17.855-46.129"/>
				</g>
			</g>
			<g>
				<g>
					<path fill="#DED7D1" d="M127.896,222.347c0,3.378,2.74,6.118,6.118,6.118c3.379,0,6.118-2.74,6.118-6.118"/>
				</g>
			</g>
			<g>
				<g>
					<path fill="#DED7D1" d="M115.66,222.347c0,3.378,2.739,6.118,6.117,6.118c3.38,0,6.119-2.74,6.119-6.118"/>
				</g>
			</g>
			<g>
				<g>
					<path fill="#DED7D1" d="M103.423,222.347c0,3.378,2.738,6.118,6.119,6.118c3.379,0,6.118-2.74,6.118-6.118"/>
				</g>
			</g>
			<g>
				<g>
					<circle fill="#ACA095" cx="94.06" cy="165.728" r="19.762"/>
				</g>
			</g>
		</g>
		<g>
			<g>
				<path fill="#ACA095" d="M70.666,75.012l1.697,39.953c2.394-1.111,8.684-1.111,11.077,0V94.989
					C83.44,86.13,78.202,78.515,70.666,75.012z"/>
			</g>
		</g>
		<g>
			<g>
				<path fill="#C9C1B8" d="M51.224,75.012l1.699,39.953c2.393-1.111,8.683-1.111,11.075,0V94.989
					C63.998,86.13,58.761,78.515,51.224,75.012z"/>
			</g>
		</g>
		<g>
			<g>
				<path fill="#BCB1A7" d="M56.248,78.242l3.194,35.91c1.823,0.073,3.542,0.341,4.556,0.813V94.989
					C63.998,88.274,60.987,82.279,56.248,78.242z"/>
			</g>
		</g>
		<g>
			<g>
				<polygon fill="#C9C1B8" points="67.74,268.988 39.164,268.988 57.918,208.433 73.223,208.433 				"/>
			</g>
		</g>
		<g>
			<g>
				<polygon fill="#ACA095" points="80.913,268.988 109.49,268.988 90.736,208.433 75.432,208.433 				"/>
			</g>
		</g>
		<g>
			<g>
				<path fill="#C9C1B8" d="M135.207,88.94c3.423,28.529-14.573,26.106-21.957,21.708c4.884-6.803,1.646-15.192,1.646-15.192
					s-1.946,8.216-8.23,11.294c-11.247-6.61-21.592-11.948-36.796-11.948c-71.323,0-16.912,129.841-16.912,129.841
					c72.304,0,62.558-45.165,52.81-68.325c17.142,6.726,25.626-4.788,26.568-8.395c0,0,3.332,1.736,3.787,0.718
					c1.822-4.071,5.742-15.101-0.621-23.577C150.292,107.059,135.207,88.94,135.207,88.94z"/>
			</g>
		</g>
		<g>
			<g>
				<path fill="#ACA095" d="M88.493,121.133h-7.308c3.948,1.99,7.742,2.067,7.742,2.067c0.797,1.823,2.613,3.098,4.73,3.099
					c2.853,0,5.164-2.313,5.164-5.166H88.493z"/>
			</g>
		</g>
		<g>
			<g>
				<path fill="#ACA095" d="M96.306,121.133c0,1.426-1.157,2.583-2.584,2.583c-1.426,0-2.582-1.157-2.582-2.583"/>
			</g>
		</g>
		<g>
			<g>
				<path fill="#ACA095" d="M94.538,131.705v-2.066c4.69,0,8.506-3.815,8.506-8.506h2.067
					C105.111,126.963,100.368,131.705,94.538,131.705z"/>
			</g>
		</g>
		<g>
			<g>
				<path fill="#ACA095" d="M126.403,145.67c-3.449-0.22-6.999-0.449-8.552-1.883c0.586-0.952,0.93-2.069,0.93-3.267h-2.066
					c0,2.317-1.885,4.201-4.201,4.201v2.066c1.513,0,2.902-0.539,3.985-1.435c2.074,1.882,5.828,2.128,9.773,2.38
					c2.042,0.129,4.117,0.263,5.924,0.627c0.352,0.072,0.692,0.152,1.021,0.242c0.926,0.254,1.754,0.591,2.434,1.047
					c0.212-0.428,0.516-1.074,0.857-1.9C133.885,146.153,130.094,145.906,126.403,145.67z"/>
			</g>
			<g>
				<g>
					<g>
						<path fill="#ACA095" d="M138.375,131.078c-1.869,0.284-3.303,1.892-3.303,3.84c0,2.109,1.682,3.823,3.777,3.883
							C139.112,136.341,139.049,133.694,138.375,131.078z"/>
					</g>
				</g>
			</g>
		</g>
		<g>
			<g>
				<rect x="52.608" y="244.064" fill="#ACA095" width="10.006" height="2.066"/>
			</g>
		</g>
		<g>
			<g>
				<rect x="45.83" y="129.639" fill="#ACA095" width="19.763" height="2.066"/>
			</g>
		</g>
		<g>
			<g>
				<g>
					<g>
						<circle fill="#BCB1A7" cx="45.831" cy="165.728" r="19.762"/>
					</g>
				</g>
			</g>
		</g>
		<g>
			<g>
				<g>
					<g>
						<path fill="#BCB1A7" d="M41.796,174.536c-49.891-15.144-42.044-65.428-42.044-65.428h36.715c0,0-4.441,29.087,17.857,46.129"
							/>
					</g>
				</g>
				<g>
					<g>
						<path fill="#DED7D1" d="M-0.241,109.108c0,3.378,2.738,6.117,6.117,6.117c3.378,0,6.117-2.739,6.117-6.117"/>
					</g>
				</g>
				<g>
					<g>
						<path fill="#DED7D1" d="M24.231,109.108c0-3.378-2.739-6.117-6.118-6.117c-3.38,0-6.119,2.739-6.119,6.117"/>
					</g>
				</g>
				<g>
					<g>
						<path fill="#DED7D1" d="M36.467,109.108c0-3.378-2.738-6.117-6.117-6.117s-6.118,2.739-6.118,6.117"/>
					</g>
				</g>
				<g>
					<g>
						<circle fill="#BCB1A7" cx="45.831" cy="165.727" r="19.762"/>
					</g>
				</g>
			</g>
			<g>
				<g>
					<rect x="11.994" y="136.527" fill="#ACA095" width="22.241" height="2.066"/>
				</g>
			</g>
			<g>
				<g>
					<rect x="21.81" y="120.029" fill="#ACA095" width="10.006" height="2.068"/>
				</g>
			</g>
			<g>
				<g>
					<rect x="28.988" y="153.913" fill="#ACA095" width="12.782" height="2.066"/>
				</g>
			</g>
		</g>
		<g>
			<g>
				<rect x="54.324" y="196.86" fill="#ACA095" width="17.927" height="2.066"/>
			</g>
		</g>
		<g>
			<g>
				<g>
					<polygon fill="#DED7D1" points="39.164,268.988 67.74,268.988 68.337,262.401 41.204,262.401 					"/>
				</g>
			</g>
			<g>
				<g>
					<polygon fill="#DED7D1" points="80.914,268.988 109.49,268.988 107.449,262.401 80.316,262.401 					"/>
				</g>
			</g>
		</g>
	</g>
	<g>
		<g>
			<g>
				<g>
					<path fill="#786C62" d="M193.479,210.161c2.312-23.319,55.201-25.035,55.201-17.365c0,1.434-3.064,2.588-3.064,2.588
						s8.609-1.465,9.066,2.577c0.453,4.019-9.066,5.741-9.066,5.741s-1.593,8.913-13.952,9.036
						C214.436,212.91,193.479,210.161,193.479,210.161z"/>
				</g>
			</g>
			<g>
				<g>
					<rect x="228.501" y="187.7" fill="#DED7D1" width="17.169" height="26.729"/>
				</g>
				<g>
					<rect x="230.855" y="190.071" fill="#E8E3DD" width="12.461" height="18.286"/>
				</g>
				<g>
					<circle fill="#FFFFFF" cx="237.085" cy="211.275" r="1.663"/>
				</g>
			</g>
			<g>
				<g>
					<path fill="#786C62" d="M237.424,205.765c-0.346,3.004,2.967,4.816,8.191,5.841v-7.911
						C244.947,203.592,237.79,202.579,237.424,205.765z"/>
				</g>
				<g>
					<path fill="#DED7D1" d="M245.615,203.692v0.002c0.032,0.005,0.055,0.008,0.055,0.008S245.646,203.698,245.615,203.692z"/>
				</g>
			</g>
		</g>
		<g>
			<g>
				<polygon fill="#786C62" points="142.465,219.772 171.874,229.06 171.874,236.454 142.465,236.454 				"/>
			</g>
			<g>
				<g>
					<rect x="180.221" y="227.928" fill="#A21E22" width="3.857" height="41.061"/>
				</g>
				<g>
					<path fill="#A21E22" d="M180.221,265.131v3.857h22.168c0,0-2.406-3.857-6.318-3.857S180.221,265.131,180.221,265.131z"/>
				</g>
			</g>
			<g>
				<g>
					<path fill="#EF4135" d="M172.977,265.131v3.857h-22.168c0,0,2.405-3.857,6.318-3.857
						C161.039,265.131,172.977,265.131,172.977,265.131z"/>
				</g>
				<g>
					<rect x="169.118" y="227.928" fill="#EF4135" width="3.858" height="41.061"/>
				</g>
			</g>
			<g>
				<path fill="#ACA095" d="M156.457,174.746c2.187-9.945,6.517-17.92,12.715-20.885c18.158-8.688,33.449,9.756,33.449,9.756
					l6.061,11.129h-21.877l6.197,13.479c25.562,0,8.936,50.748-12.781,50.748C152.668,238.973,150.834,200.333,156.457,174.746z"/>
			</g>
			<g>
				<path fill="#FBB034" d="M167.844,174.746c1.764-8.022,5.257-14.455,10.256-16.847c14.646-7.007,26.98,7.87,26.98,7.87
					l4.888,8.977h-17.645H167.844z"/>
			</g>
			<g>
				<polygon fill="#EF4135" points="234.277,174.746 202.98,163.617 199.42,174.746 				"/>
			</g>
			<g>
				<path fill="#A42624" d="M234.277,174.746c0,0-23.558-0.743-33.021-5.736l-1.836,5.736H234.277z"/>
			</g>
			<g>
				<path fill="#686664" d="M194.703,168.189c0-3.897-3.158-7.057-7.057-7.057c-3.896,0-7.057,3.16-7.057,7.057"/>
			</g>
			<g>
				<circle fill="#FFFFFF" cx="185.189" cy="164.661" r="1.146"/>
			</g>
			<g>
				<path fill="#8B8179" d="M129.31,165.303c1.435,0,2.589,3.065,2.589,3.065s-1.465-8.61,2.576-9.067
					c4.019-0.453,5.742,9.067,5.742,9.067s-1.279-7.862,2.061-8.246c6.221-0.715,7.341,14.211,6.896,29.4
					c9.921,0.758,17.645,1.771,17.645,1.771c-0.88,8.874-9.086,14.617-18.912,17.907c-4.498,1.507-9.334,2.499-13.966,3.041
					c-4.399-6.248-6.966-15.116-8.07-23.471C124.245,176.473,125.785,165.303,129.31,165.303z"/>
			</g>
		</g>
	</g>
</g>
<g>
	<path fill="#3A3430" d="M168.694,146.043h-3.117l-1.748-6.781c-0.064-0.241-0.175-0.74-0.331-1.497
		c-0.156-0.756-0.246-1.264-0.27-1.523c-0.035,0.318-0.123,0.829-0.265,1.532c-0.141,0.703-0.25,1.205-0.326,1.505l-1.739,6.763
		h-3.108l-3.293-12.908h2.692l1.651,7.045c0.288,1.301,0.497,2.428,0.627,3.381c0.035-0.335,0.116-0.855,0.243-1.558
		c0.126-0.704,0.245-1.25,0.357-1.638l1.88-7.23h2.587l1.881,7.23c0.082,0.324,0.186,0.818,0.31,1.483
		c0.123,0.666,0.217,1.236,0.282,1.713c0.059-0.459,0.153-1.031,0.282-1.717c0.13-0.686,0.247-1.24,0.354-1.664l1.642-7.045h2.693
		L168.694,146.043z"/>
	<path fill="#3A3430" d="M177.858,146.22c-1.589,0-2.831-0.438-3.726-1.316c-0.895-0.877-1.342-2.119-1.342-3.726
		c0-1.654,0.413-2.933,1.24-3.836c0.827-0.904,1.971-1.355,3.43-1.355c1.396,0,2.481,0.397,3.258,1.192
		c0.777,0.794,1.166,1.893,1.166,3.293v1.307h-6.366c0.029,0.765,0.257,1.362,0.681,1.792c0.423,0.43,1.018,0.645,1.783,0.645
		c0.594,0,1.156-0.062,1.687-0.186c0.529-0.124,1.082-0.32,1.659-0.591v2.083c-0.471,0.235-0.974,0.411-1.51,0.525
		C179.283,146.162,178.63,146.22,177.858,146.22z M177.479,137.903c-0.57,0-1.018,0.181-1.342,0.543
		c-0.323,0.362-0.509,0.875-0.556,1.541h3.778c-0.012-0.665-0.186-1.179-0.521-1.541
		C178.503,138.083,178.05,137.903,177.479,137.903z"/>
	<path fill="#3A3430" d="M195.04,146.043l-0.521-1.342h-0.07c-0.453,0.571-0.92,0.967-1.399,1.188s-1.105,0.331-1.876,0.331
		c-0.948,0-1.694-0.271-2.238-0.812c-0.545-0.542-0.816-1.312-0.816-2.313c0-1.048,0.366-1.82,1.099-2.318
		c0.732-0.497,1.838-0.772,3.315-0.825l1.713-0.053v-0.433c0-1-0.513-1.501-1.536-1.501c-0.789,0-1.716,0.238-2.781,0.715
		l-0.892-1.819c1.136-0.594,2.396-0.892,3.778-0.892c1.324,0,2.34,0.289,3.046,0.865c0.707,0.577,1.06,1.454,1.06,2.631v6.578
		H195.04z M194.245,141.47l-1.042,0.035c-0.783,0.023-1.365,0.165-1.748,0.424c-0.383,0.259-0.574,0.653-0.574,1.183
		c0,0.759,0.436,1.139,1.307,1.139c0.624,0,1.123-0.179,1.497-0.539c0.373-0.359,0.561-0.835,0.561-1.43V141.47z"/>
	<path fill="#3A3430" d="M205.202,135.987c0.365,0,0.668,0.026,0.909,0.08l-0.203,2.525c-0.218-0.059-0.482-0.088-0.794-0.088
		c-0.859,0-1.529,0.221-2.009,0.662s-0.72,1.06-0.72,1.854v5.023h-2.692v-9.871h2.039l0.397,1.66h0.132
		c0.307-0.553,0.72-0.999,1.241-1.337C204.023,136.156,204.59,135.987,205.202,135.987z"/>
	<path fill="#3A3430" d="M212.37,146.22c-1.589,0-2.831-0.438-3.726-1.316c-0.895-0.877-1.342-2.119-1.342-3.726
		c0-1.654,0.413-2.933,1.24-3.836c0.827-0.904,1.971-1.355,3.43-1.355c1.396,0,2.481,0.397,3.258,1.192
		c0.777,0.794,1.166,1.893,1.166,3.293v1.307h-6.366c0.029,0.765,0.257,1.362,0.681,1.792c0.423,0.43,1.018,0.645,1.783,0.645
		c0.594,0,1.156-0.062,1.687-0.186c0.529-0.124,1.082-0.32,1.659-0.591v2.083c-0.471,0.235-0.974,0.411-1.51,0.525
		C213.795,146.162,213.142,146.22,212.37,146.22z M211.99,137.903c-0.57,0-1.018,0.181-1.342,0.543
		c-0.323,0.362-0.509,0.875-0.556,1.541h3.778c-0.012-0.665-0.186-1.179-0.521-1.541
		C213.015,138.083,212.562,137.903,211.99,137.903z"/>
	<path fill="#3A3430" d="M230.17,143.112c0,1.012-0.352,1.783-1.055,2.313s-1.756,0.795-3.156,0.795
		c-0.719,0-1.33-0.049-1.837-0.146c-0.506-0.097-0.979-0.24-1.421-0.428v-2.225c0.5,0.235,1.063,0.433,1.69,0.591
		c0.627,0.159,1.179,0.238,1.655,0.238c0.978,0,1.466-0.282,1.466-0.847c0-0.212-0.064-0.384-0.194-0.517
		c-0.129-0.132-0.353-0.283-0.671-0.45c-0.317-0.168-0.741-0.364-1.271-0.587c-0.759-0.318-1.316-0.612-1.673-0.883
		c-0.356-0.271-0.615-0.581-0.777-0.932c-0.161-0.35-0.242-0.781-0.242-1.293c0-0.877,0.34-1.555,1.02-2.035
		c0.68-0.48,1.644-0.72,2.892-0.72c1.188,0,2.346,0.259,3.47,0.777l-0.812,1.942c-0.494-0.212-0.956-0.385-1.386-0.521
		c-0.43-0.135-0.868-0.203-1.315-0.203c-0.795,0-1.192,0.215-1.192,0.645c0,0.242,0.128,0.451,0.384,0.627
		c0.257,0.177,0.817,0.438,1.683,0.786c0.771,0.312,1.336,0.604,1.695,0.875c0.358,0.271,0.623,0.583,0.794,0.936
		S230.17,142.623,230.17,143.112z"/>
	<path fill="#3A3430" d="M238.54,146.043l-0.521-1.342h-0.07c-0.453,0.571-0.92,0.967-1.399,1.188s-1.105,0.331-1.876,0.331
		c-0.948,0-1.694-0.271-2.238-0.812c-0.545-0.542-0.816-1.312-0.816-2.313c0-1.048,0.366-1.82,1.099-2.318
		c0.732-0.497,1.838-0.772,3.315-0.825l1.713-0.053v-0.433c0-1-0.513-1.501-1.536-1.501c-0.789,0-1.716,0.238-2.781,0.715
		l-0.892-1.819c1.136-0.594,2.396-0.892,3.778-0.892c1.324,0,2.34,0.289,3.046,0.865c0.707,0.577,1.06,1.454,1.06,2.631v6.578
		H238.54z M237.745,141.47l-1.042,0.035c-0.783,0.023-1.365,0.165-1.748,0.424c-0.383,0.259-0.574,0.653-0.574,1.183
		c0,0.759,0.436,1.139,1.307,1.139c0.624,0,1.123-0.179,1.497-0.539c0.373-0.359,0.561-0.835,0.561-1.43V141.47z"/>
	<path fill="#3A3430" d="M246.318,146.22c-1.159,0-2.07-0.451-2.732-1.351s-0.993-2.148-0.993-3.743c0-1.619,0.337-2.88,1.011-3.783
		c0.674-0.904,1.603-1.355,2.785-1.355c1.242,0,2.189,0.483,2.843,1.448h0.089c-0.136-0.735-0.203-1.392-0.203-1.969v-3.161h2.701
		v13.738h-2.065l-0.521-1.28h-0.114C248.505,145.734,247.572,146.22,246.318,146.22z M247.263,144.074
		c0.689,0,1.193-0.2,1.515-0.601c0.32-0.4,0.496-1.08,0.525-2.04v-0.291c0-1.06-0.163-1.819-0.49-2.278
		c-0.326-0.459-0.857-0.689-1.594-0.689c-0.601,0-1.066,0.255-1.399,0.764c-0.332,0.509-0.499,1.25-0.499,2.221
		s0.168,1.7,0.504,2.185C246.159,143.832,246.639,144.074,247.263,144.074z"/>
	<path fill="#3A3430" d="M263.49,144.074c0.471,0,1.036-0.103,1.695-0.309v2.004c-0.671,0.3-1.495,0.451-2.473,0.451
		c-1.077,0-1.861-0.272-2.353-0.817c-0.492-0.544-0.737-1.361-0.737-2.45v-4.759h-1.289v-1.139l1.483-0.9l0.776-2.084h1.722v2.102
		h2.764v2.021h-2.764v4.759c0,0.383,0.107,0.666,0.322,0.848C262.853,143.983,263.137,144.074,263.49,144.074z"/>
	<path fill="#3A3430" d="M276.151,141.09c0,1.607-0.424,2.864-1.271,3.77c-0.848,0.907-2.027,1.36-3.54,1.36
		c-0.948,0-1.783-0.208-2.508-0.623c-0.724-0.415-1.28-1.011-1.669-1.788c-0.388-0.777-0.582-1.683-0.582-2.719
		c0-1.613,0.421-2.866,1.263-3.761c0.841-0.895,2.024-1.342,3.549-1.342c0.947,0,1.783,0.206,2.508,0.618
		c0.724,0.412,1.28,1.003,1.668,1.774C275.957,139.15,276.151,140.054,276.151,141.09z M269.326,141.09
		c0,0.977,0.161,1.716,0.481,2.216c0.321,0.5,0.844,0.75,1.567,0.75c0.718,0,1.234-0.249,1.55-0.746
		c0.314-0.498,0.472-1.238,0.472-2.221c0-0.977-0.158-1.709-0.477-2.198c-0.317-0.489-0.839-0.733-1.562-0.733
		c-0.719,0-1.236,0.243-1.554,0.729C269.485,139.373,269.326,140.107,269.326,141.09z"/>
	<path fill="#3A3430" d="M289.959,143.112c0,1.012-0.352,1.783-1.055,2.313s-1.756,0.795-3.156,0.795
		c-0.719,0-1.33-0.049-1.837-0.146c-0.506-0.097-0.979-0.24-1.421-0.428v-2.225c0.5,0.235,1.063,0.433,1.69,0.591
		c0.627,0.159,1.179,0.238,1.655,0.238c0.978,0,1.466-0.282,1.466-0.847c0-0.212-0.064-0.384-0.194-0.517
		c-0.129-0.132-0.353-0.283-0.671-0.45c-0.317-0.168-0.741-0.364-1.271-0.587c-0.759-0.318-1.316-0.612-1.673-0.883
		c-0.356-0.271-0.615-0.581-0.777-0.932c-0.161-0.35-0.242-0.781-0.242-1.293c0-0.877,0.34-1.555,1.02-2.035
		c0.68-0.48,1.644-0.72,2.892-0.72c1.188,0,2.346,0.259,3.47,0.777l-0.812,1.942c-0.494-0.212-0.956-0.385-1.386-0.521
		c-0.43-0.135-0.868-0.203-1.315-0.203c-0.795,0-1.192,0.215-1.192,0.645c0,0.242,0.128,0.451,0.384,0.627
		c0.257,0.177,0.817,0.438,1.683,0.786c0.771,0.312,1.336,0.604,1.695,0.875c0.358,0.271,0.623,0.583,0.794,0.936
		S289.959,142.623,289.959,143.112z"/>
	<path fill="#3A3430" d="M296.528,146.22c-1.589,0-2.831-0.438-3.726-1.316c-0.895-0.877-1.342-2.119-1.342-3.726
		c0-1.654,0.413-2.933,1.24-3.836c0.827-0.904,1.971-1.355,3.43-1.355c1.396,0,2.481,0.397,3.258,1.192
		c0.777,0.794,1.166,1.893,1.166,3.293v1.307h-6.366c0.029,0.765,0.257,1.362,0.681,1.792c0.423,0.43,1.018,0.645,1.783,0.645
		c0.594,0,1.156-0.062,1.687-0.186c0.529-0.124,1.082-0.32,1.659-0.591v2.083c-0.471,0.235-0.974,0.411-1.51,0.525
		C297.953,146.162,297.3,146.22,296.528,146.22z M296.148,137.903c-0.57,0-1.018,0.181-1.342,0.543
		c-0.323,0.362-0.509,0.875-0.556,1.541h3.778c-0.012-0.665-0.186-1.179-0.521-1.541
		C297.173,138.083,296.72,137.903,296.148,137.903z"/>
	<path fill="#3A3430" d="M307.211,146.22c-1.589,0-2.831-0.438-3.726-1.316c-0.895-0.877-1.342-2.119-1.342-3.726
		c0-1.654,0.413-2.933,1.24-3.836c0.827-0.904,1.971-1.355,3.43-1.355c1.396,0,2.481,0.397,3.258,1.192
		c0.777,0.794,1.166,1.893,1.166,3.293v1.307h-6.366c0.029,0.765,0.257,1.362,0.681,1.792c0.423,0.43,1.018,0.645,1.783,0.645
		c0.594,0,1.156-0.062,1.687-0.186c0.529-0.124,1.082-0.32,1.659-0.591v2.083c-0.471,0.235-0.974,0.411-1.51,0.525
		C308.636,146.162,307.982,146.22,307.211,146.22z M306.831,137.903c-0.57,0-1.018,0.181-1.342,0.543
		c-0.323,0.362-0.509,0.875-0.556,1.541h3.778c-0.012-0.665-0.186-1.179-0.521-1.541
		C307.855,138.083,307.402,137.903,306.831,137.903z"/>
	<path fill="#3A3430" d="M316.711,136.172h2.949l1.862,5.553c0.159,0.483,0.268,1.054,0.327,1.713h0.053
		c0.064-0.606,0.191-1.177,0.38-1.713l1.827-5.553h2.888l-4.177,11.133c-0.383,1.03-0.929,1.801-1.638,2.313
		s-1.537,0.768-2.485,0.768c-0.465,0-0.921-0.05-1.368-0.15V148.1c0.323,0.077,0.677,0.115,1.06,0.115
		c0.477,0,0.893-0.146,1.249-0.437s0.634-0.731,0.834-1.32l0.159-0.486L316.711,136.172z"/>
	<path fill="#3A3430" d="M337.38,141.09c0,1.607-0.424,2.864-1.271,3.77c-0.848,0.907-2.027,1.36-3.54,1.36
		c-0.948,0-1.783-0.208-2.508-0.623c-0.724-0.415-1.28-1.011-1.669-1.788c-0.388-0.777-0.582-1.683-0.582-2.719
		c0-1.613,0.421-2.866,1.263-3.761c0.841-0.895,2.024-1.342,3.549-1.342c0.947,0,1.783,0.206,2.508,0.618
		c0.724,0.412,1.28,1.003,1.668,1.774C337.186,139.15,337.38,140.054,337.38,141.09z M330.555,141.09
		c0,0.977,0.161,1.716,0.481,2.216c0.321,0.5,0.844,0.75,1.567,0.75c0.718,0,1.234-0.249,1.55-0.746
		c0.314-0.498,0.472-1.238,0.472-2.221c0-0.977-0.158-1.709-0.477-2.198c-0.317-0.489-0.839-0.733-1.562-0.733
		c-0.719,0-1.236,0.243-1.554,0.729C330.714,139.373,330.555,140.107,330.555,141.09z"/>
	<path fill="#3A3430" d="M346.598,146.043l-0.362-1.263h-0.141c-0.289,0.459-0.698,0.814-1.228,1.064
		c-0.53,0.25-1.133,0.375-1.81,0.375c-1.16,0-2.034-0.311-2.623-0.932c-0.588-0.621-0.883-1.514-0.883-2.68v-6.436h2.693v5.765
		c0,0.712,0.126,1.247,0.379,1.603c0.254,0.356,0.656,0.534,1.21,0.534c0.754,0,1.298-0.252,1.634-0.755
		c0.335-0.503,0.503-1.338,0.503-2.503v-4.644h2.692v9.871H346.598z"/>
	<path fill="#3A3430" d="M364.775,136.172v1.368l-1.545,0.397c0.282,0.441,0.424,0.936,0.424,1.483c0,1.06-0.369,1.885-1.108,2.477
		c-0.738,0.591-1.764,0.887-3.076,0.887l-0.486-0.026l-0.396-0.044c-0.277,0.212-0.415,0.447-0.415,0.707
		c0,0.388,0.494,0.583,1.483,0.583h1.677c1.083,0,1.909,0.232,2.477,0.698c0.568,0.465,0.853,1.147,0.853,2.048
		c0,1.153-0.481,2.048-1.443,2.684c-0.963,0.636-2.345,0.954-4.146,0.954c-1.377,0-2.43-0.24-3.156-0.719
		c-0.728-0.48-1.091-1.152-1.091-2.018c0-0.595,0.186-1.092,0.557-1.492s0.915-0.686,1.633-0.856
		c-0.276-0.118-0.518-0.311-0.724-0.578c-0.206-0.268-0.309-0.552-0.309-0.852c0-0.376,0.108-0.69,0.326-0.94
		c0.218-0.25,0.533-0.496,0.944-0.737c-0.518-0.224-0.928-0.583-1.231-1.077c-0.303-0.494-0.454-1.077-0.454-1.748
		c0-1.077,0.35-1.91,1.051-2.499c0.7-0.588,1.7-0.883,3.001-0.883c0.277,0,0.605,0.025,0.984,0.075
		c0.38,0.05,0.623,0.087,0.729,0.11H364.775z M357.156,147.438c0,0.371,0.178,0.662,0.534,0.874s0.854,0.318,1.496,0.318
		c0.966,0,1.722-0.132,2.27-0.397c0.547-0.265,0.821-0.627,0.821-1.086c0-0.371-0.162-0.627-0.486-0.768
		c-0.323-0.141-0.823-0.212-1.5-0.212h-1.396c-0.494,0-0.908,0.116-1.24,0.349C357.322,146.748,357.156,147.055,357.156,147.438z
		 M358.137,139.404c0,0.536,0.122,0.959,0.366,1.271c0.244,0.312,0.616,0.468,1.116,0.468c0.507,0,0.877-0.156,1.113-0.468
		c0.235-0.312,0.353-0.735,0.353-1.271c0-1.189-0.488-1.784-1.466-1.784C358.631,137.62,358.137,138.215,358.137,139.404z"/>
	<path fill="#3A3430" d="M375.37,141.09c0,1.607-0.424,2.864-1.271,3.77c-0.848,0.907-2.027,1.36-3.54,1.36
		c-0.948,0-1.783-0.208-2.508-0.623c-0.724-0.415-1.28-1.011-1.669-1.788c-0.388-0.777-0.582-1.683-0.582-2.719
		c0-1.613,0.421-2.866,1.263-3.761c0.841-0.895,2.024-1.342,3.549-1.342c0.947,0,1.783,0.206,2.508,0.618
		c0.724,0.412,1.28,1.003,1.668,1.774C375.176,139.15,375.37,140.054,375.37,141.09z M368.545,141.09
		c0,0.977,0.161,1.716,0.481,2.216c0.321,0.5,0.844,0.75,1.567,0.75c0.718,0,1.234-0.249,1.55-0.746
		c0.314-0.498,0.472-1.238,0.472-2.221c0-0.977-0.158-1.709-0.477-2.198c-0.317-0.489-0.839-0.733-1.562-0.733
		c-0.719,0-1.236,0.243-1.554,0.729C368.704,139.373,368.545,140.107,368.545,141.09z"/>
	<path fill="#3A3430" d="M380.235,144.145c-0.307,1.189-0.824,2.599-1.554,4.229h-1.942c0.382-1.566,0.68-3.043,0.892-4.432h2.472
		L380.235,144.145z"/>
</g>
<g>
	<path fill="#3A3430" d="M271.7,169.106c-1.16,0-2.069-0.421-2.729-1.263h-0.142c0.095,0.824,0.142,1.301,0.142,1.43v4h-2.692
		v-14.214h2.189l0.379,1.28h0.124c0.63-0.977,1.562-1.466,2.799-1.466c1.165,0,2.077,0.45,2.737,1.351
		c0.659,0.901,0.988,2.151,0.988,3.752c0,1.054-0.154,1.969-0.463,2.746c-0.31,0.777-0.75,1.368-1.32,1.774
		C273.142,168.903,272.471,169.106,271.7,169.106z M270.905,161.028c-0.665,0-1.15,0.205-1.457,0.614
		c-0.306,0.409-0.465,1.084-0.477,2.026v0.292c0,1.06,0.157,1.819,0.473,2.278c0.314,0.459,0.813,0.688,1.496,0.688
		c1.207,0,1.81-0.995,1.81-2.984c0-0.971-0.148-1.7-0.445-2.185C272.007,161.271,271.541,161.028,270.905,161.028z"/>
	<path fill="#3A3430" d="M283.99,168.93l-0.521-1.342h-0.07c-0.453,0.571-0.92,0.967-1.399,1.188s-1.105,0.331-1.876,0.331
		c-0.948,0-1.694-0.271-2.238-0.812c-0.545-0.542-0.816-1.312-0.816-2.313c0-1.048,0.366-1.82,1.099-2.318
		c0.732-0.497,1.838-0.772,3.315-0.825l1.713-0.053v-0.433c0-1-0.513-1.501-1.536-1.501c-0.789,0-1.716,0.238-2.781,0.715
		l-0.892-1.819c1.136-0.594,2.396-0.892,3.778-0.892c1.324,0,2.34,0.289,3.046,0.865c0.707,0.577,1.06,1.454,1.06,2.631v6.578
		H283.99z M283.195,164.356l-1.042,0.035c-0.783,0.023-1.365,0.165-1.748,0.424c-0.383,0.259-0.574,0.653-0.574,1.183
		c0,0.759,0.436,1.139,1.307,1.139c0.624,0,1.123-0.179,1.497-0.539c0.373-0.359,0.561-0.835,0.561-1.43V164.356z"/>
	<path fill="#3A3430" d="M294.151,158.874c0.365,0,0.668,0.026,0.909,0.08l-0.203,2.525c-0.218-0.059-0.482-0.088-0.794-0.088
		c-0.859,0-1.529,0.221-2.009,0.662s-0.72,1.06-0.72,1.854v5.023h-2.692v-9.871h2.039l0.397,1.66h0.132
		c0.307-0.553,0.72-0.999,1.241-1.337C292.973,159.043,293.539,158.874,294.151,158.874z"/>
	<path fill="#3A3430" d="M301.012,166.961c0.471,0,1.036-0.103,1.695-0.309v2.004c-0.671,0.3-1.495,0.451-2.473,0.451
		c-1.077,0-1.861-0.272-2.353-0.817c-0.492-0.544-0.737-1.361-0.737-2.45v-4.759h-1.289v-1.139l1.483-0.9l0.776-2.084h1.722v2.102
		h2.764v2.021h-2.764v4.759c0,0.383,0.107,0.666,0.322,0.848C300.374,166.87,300.658,166.961,301.012,166.961z"/>
	<path fill="#3A3430" d="M304.588,156.507c0-0.877,0.488-1.315,1.466-1.315c0.977,0,1.466,0.438,1.466,1.315
		c0,0.418-0.123,0.743-0.367,0.976s-0.61,0.349-1.099,0.349C305.076,157.832,304.588,157.39,304.588,156.507z M307.396,168.93
		h-2.692v-9.871h2.692V168.93z"/>
	<path fill="#3A3430" d="M319.332,168.93h-2.693v-5.765c0-0.712-0.126-1.247-0.38-1.603c-0.253-0.356-0.656-0.534-1.209-0.534
		c-0.754,0-1.298,0.251-1.634,0.755c-0.335,0.503-0.503,1.337-0.503,2.503v4.644h-2.692v-9.871h2.057l0.362,1.262h0.149
		c0.301-0.477,0.714-0.837,1.241-1.082c0.526-0.244,1.125-0.366,1.796-0.366c1.148,0,2.02,0.311,2.614,0.932
		c0.594,0.621,0.892,1.517,0.892,2.688V168.93z"/>
	<path fill="#3A3430" d="M330.694,159.059v1.368l-1.545,0.397c0.282,0.441,0.424,0.936,0.424,1.483c0,1.06-0.369,1.885-1.108,2.477
		c-0.738,0.591-1.764,0.887-3.076,0.887l-0.486-0.026l-0.396-0.044c-0.277,0.212-0.415,0.447-0.415,0.707
		c0,0.388,0.494,0.583,1.483,0.583h1.677c1.083,0,1.909,0.232,2.477,0.698c0.568,0.465,0.853,1.147,0.853,2.048
		c0,1.153-0.481,2.048-1.443,2.684c-0.963,0.636-2.345,0.954-4.146,0.954c-1.377,0-2.43-0.24-3.156-0.719
		c-0.728-0.48-1.091-1.152-1.091-2.018c0-0.595,0.186-1.092,0.557-1.492s0.915-0.686,1.633-0.856
		c-0.276-0.118-0.518-0.311-0.724-0.578c-0.206-0.268-0.309-0.552-0.309-0.852c0-0.376,0.108-0.69,0.326-0.94
		c0.218-0.25,0.533-0.496,0.944-0.737c-0.518-0.224-0.928-0.583-1.231-1.077c-0.303-0.494-0.454-1.077-0.454-1.748
		c0-1.077,0.35-1.91,1.051-2.499c0.7-0.588,1.7-0.883,3.001-0.883c0.277,0,0.605,0.025,0.984,0.075
		c0.38,0.05,0.623,0.087,0.729,0.11H330.694z M323.075,170.325c0,0.371,0.178,0.662,0.534,0.874s0.854,0.318,1.496,0.318
		c0.966,0,1.722-0.132,2.27-0.397c0.547-0.265,0.821-0.627,0.821-1.086c0-0.371-0.162-0.627-0.486-0.768
		c-0.323-0.141-0.823-0.212-1.5-0.212h-1.396c-0.494,0-0.908,0.116-1.24,0.349C323.241,169.634,323.075,169.942,323.075,170.325z
		 M324.056,162.291c0,0.536,0.122,0.959,0.366,1.271c0.244,0.312,0.616,0.468,1.116,0.468c0.507,0,0.877-0.156,1.113-0.468
		c0.235-0.312,0.353-0.735,0.353-1.271c0-1.189-0.488-1.784-1.466-1.784C324.55,160.507,324.056,161.102,324.056,162.291z"/>
	<path fill="#3A3430" d="M336.901,156.507c0-0.877,0.488-1.315,1.466-1.315c0.977,0,1.466,0.438,1.466,1.315
		c0,0.418-0.123,0.743-0.367,0.976s-0.61,0.349-1.099,0.349C337.39,157.832,336.901,157.39,336.901,156.507z M339.709,168.93h-2.692
		v-9.871h2.692V168.93z"/>
	<path fill="#3A3430" d="M349.421,165.999c0,1.012-0.352,1.783-1.055,2.313s-1.756,0.795-3.156,0.795
		c-0.719,0-1.33-0.049-1.837-0.146c-0.506-0.097-0.979-0.24-1.421-0.428v-2.225c0.5,0.235,1.063,0.433,1.69,0.591
		c0.627,0.159,1.179,0.238,1.655,0.238c0.978,0,1.466-0.282,1.466-0.847c0-0.212-0.064-0.384-0.194-0.517
		c-0.129-0.132-0.353-0.283-0.671-0.45c-0.317-0.168-0.741-0.364-1.271-0.587c-0.759-0.318-1.316-0.612-1.673-0.883
		c-0.356-0.271-0.615-0.581-0.777-0.932c-0.161-0.35-0.242-0.781-0.242-1.293c0-0.877,0.34-1.555,1.02-2.035
		c0.68-0.48,1.644-0.72,2.892-0.72c1.188,0,2.346,0.259,3.47,0.777l-0.812,1.942c-0.494-0.212-0.956-0.385-1.386-0.521
		c-0.43-0.135-0.868-0.203-1.315-0.203c-0.795,0-1.192,0.215-1.192,0.645c0,0.242,0.128,0.451,0.384,0.627
		c0.257,0.177,0.817,0.438,1.683,0.786c0.771,0.312,1.336,0.604,1.695,0.875c0.358,0.271,0.623,0.583,0.794,0.936
		S349.421,165.51,349.421,165.999z"/>
	<path fill="#3A3430" d="M363.105,165.999c0,1.012-0.352,1.783-1.055,2.313s-1.756,0.795-3.156,0.795
		c-0.719,0-1.33-0.049-1.837-0.146c-0.506-0.097-0.979-0.24-1.421-0.428v-2.225c0.5,0.235,1.063,0.433,1.69,0.591
		c0.627,0.159,1.179,0.238,1.655,0.238c0.978,0,1.466-0.282,1.466-0.847c0-0.212-0.064-0.384-0.194-0.517
		c-0.129-0.132-0.353-0.283-0.671-0.45c-0.317-0.168-0.741-0.364-1.271-0.587c-0.759-0.318-1.316-0.612-1.673-0.883
		c-0.356-0.271-0.615-0.581-0.777-0.932c-0.161-0.35-0.242-0.781-0.242-1.293c0-0.877,0.34-1.555,1.02-2.035
		c0.68-0.48,1.644-0.72,2.892-0.72c1.188,0,2.346,0.259,3.47,0.777l-0.812,1.942c-0.494-0.212-0.956-0.385-1.386-0.521
		c-0.43-0.135-0.868-0.203-1.315-0.203c-0.795,0-1.192,0.215-1.192,0.645c0,0.242,0.128,0.451,0.384,0.627
		c0.257,0.177,0.817,0.438,1.683,0.786c0.771,0.312,1.336,0.604,1.695,0.875c0.358,0.271,0.623,0.583,0.794,0.936
		S363.105,165.51,363.105,165.999z"/>
	<path fill="#3A3430" d="M372.2,168.93l-0.362-1.263h-0.141c-0.289,0.459-0.698,0.814-1.228,1.064
		c-0.53,0.25-1.133,0.375-1.81,0.375c-1.16,0-2.034-0.311-2.623-0.932c-0.588-0.621-0.883-1.514-0.883-2.68v-6.436h2.693v5.765
		c0,0.712,0.126,1.247,0.379,1.603c0.254,0.356,0.656,0.534,1.21,0.534c0.754,0,1.298-0.252,1.634-0.755
		c0.335-0.503,0.503-1.338,0.503-2.503v-4.644h2.692v9.871H372.2z"/>
	<path fill="#3A3430" d="M381.099,169.106c-3.072,0-4.608-1.687-4.608-5.059c0-1.678,0.418-2.959,1.254-3.845
		c0.835-0.886,2.033-1.329,3.593-1.329c1.142,0,2.166,0.224,3.072,0.671l-0.794,2.083c-0.424-0.17-0.818-0.31-1.184-0.419
		s-0.729-0.164-1.095-0.164c-1.4,0-2.102,0.995-2.102,2.984c0,1.931,0.701,2.896,2.102,2.896c0.518,0,0.998-0.069,1.439-0.207
		c0.441-0.139,0.883-0.355,1.324-0.649v2.304c-0.436,0.277-0.876,0.468-1.32,0.574S381.775,169.106,381.099,169.106z"/>
	<path fill="#3A3430" d="M395.499,168.93h-2.693v-5.765c0-1.424-0.529-2.137-1.589-2.137c-0.754,0-1.298,0.256-1.634,0.768
		c-0.335,0.512-0.503,1.342-0.503,2.49v4.644h-2.692v-13.738h2.692v2.799c0,0.218-0.021,0.73-0.062,1.536l-0.062,0.794h0.142
		c0.601-0.965,1.554-1.448,2.86-1.448c1.16,0,2.04,0.312,2.641,0.936c0.6,0.624,0.9,1.519,0.9,2.684V168.93z"/>
	<path fill="#3A3430" d="M327.41,187.697c0,1.012-0.352,1.783-1.055,2.313s-1.756,0.795-3.156,0.795
		c-0.719,0-1.33-0.049-1.837-0.146c-0.506-0.097-0.979-0.24-1.421-0.428v-2.225c0.5,0.235,1.063,0.433,1.69,0.591
		c0.627,0.159,1.179,0.238,1.655,0.238c0.978,0,1.466-0.282,1.466-0.847c0-0.212-0.064-0.384-0.194-0.517
		c-0.129-0.132-0.353-0.283-0.671-0.45c-0.317-0.168-0.741-0.364-1.271-0.587c-0.759-0.318-1.316-0.612-1.673-0.883
		c-0.356-0.271-0.615-0.581-0.777-0.932c-0.161-0.35-0.242-0.781-0.242-1.293c0-0.877,0.34-1.555,1.02-2.035
		c0.68-0.48,1.644-0.72,2.892-0.72c1.188,0,2.346,0.259,3.47,0.777l-0.812,1.942c-0.494-0.212-0.956-0.385-1.386-0.521
		c-0.43-0.135-0.868-0.203-1.315-0.203c-0.795,0-1.192,0.215-1.192,0.645c0,0.242,0.128,0.451,0.384,0.627
		c0.257,0.177,0.817,0.438,1.683,0.786c0.771,0.312,1.336,0.604,1.695,0.875c0.358,0.271,0.623,0.583,0.794,0.936
		S327.41,187.208,327.41,187.697z"/>
	<path fill="#3A3430" d="M337.626,190.628l-0.759-3.452l-1.024-4.361h-0.062l-1.802,7.813h-2.896l-2.808-9.871h2.684l1.139,4.37
		c0.183,0.783,0.368,1.863,0.557,3.24h0.053c0.023-0.447,0.127-1.157,0.31-2.128l0.141-0.75l1.219-4.732h2.967l1.156,4.732
		c0.023,0.13,0.061,0.321,0.11,0.574s0.099,0.522,0.146,0.808c0.047,0.286,0.09,0.565,0.128,0.839
		c0.039,0.274,0.061,0.493,0.066,0.658h0.053c0.054-0.424,0.147-1.005,0.283-1.744c0.135-0.739,0.232-1.237,0.291-1.497l1.184-4.37
		h2.64l-2.843,9.871H337.626z"/>
	<path fill="#3A3430" d="M349.457,190.805c-1.589,0-2.831-0.438-3.726-1.316c-0.895-0.877-1.342-2.119-1.342-3.726
		c0-1.654,0.413-2.933,1.24-3.836c0.827-0.904,1.971-1.355,3.43-1.355c1.396,0,2.481,0.397,3.258,1.192
		c0.777,0.794,1.166,1.893,1.166,3.293v1.307h-6.366c0.029,0.765,0.257,1.362,0.681,1.792c0.423,0.43,1.018,0.645,1.783,0.645
		c0.594,0,1.156-0.062,1.687-0.186c0.529-0.124,1.082-0.32,1.659-0.591v2.083c-0.471,0.235-0.974,0.411-1.51,0.525
		C350.882,190.747,350.229,190.805,349.457,190.805z M349.077,182.488c-0.57,0-1.018,0.181-1.342,0.543
		c-0.323,0.362-0.509,0.875-0.556,1.541h3.778c-0.012-0.665-0.186-1.179-0.521-1.541
		C350.102,182.668,349.648,182.488,349.077,182.488z"/>
	<path fill="#3A3430" d="M360.14,190.805c-1.589,0-2.831-0.438-3.726-1.316c-0.895-0.877-1.342-2.119-1.342-3.726
		c0-1.654,0.413-2.933,1.24-3.836c0.827-0.904,1.971-1.355,3.43-1.355c1.396,0,2.481,0.397,3.258,1.192
		c0.777,0.794,1.166,1.893,1.166,3.293v1.307H357.8c0.029,0.765,0.257,1.362,0.681,1.792c0.423,0.43,1.018,0.645,1.783,0.645
		c0.594,0,1.156-0.062,1.687-0.186c0.529-0.124,1.082-0.32,1.659-0.591v2.083c-0.471,0.235-0.974,0.411-1.51,0.525
		C361.564,190.747,360.911,190.805,360.14,190.805z M359.76,182.488c-0.57,0-1.018,0.181-1.342,0.543
		c-0.323,0.362-0.509,0.875-0.556,1.541h3.778c-0.012-0.665-0.186-1.179-0.521-1.541
		C360.784,182.668,360.331,182.488,359.76,182.488z"/>
	<path fill="#3A3430" d="M370.514,188.659c0.471,0,1.036-0.103,1.695-0.309v2.004c-0.671,0.3-1.495,0.451-2.473,0.451
		c-1.077,0-1.861-0.272-2.353-0.817c-0.492-0.544-0.737-1.361-0.737-2.45v-4.759h-1.289v-1.139l1.483-0.9l0.776-2.084h1.722v2.102
		h2.764v2.021h-2.764v4.759c0,0.383,0.107,0.666,0.322,0.848C369.876,188.568,370.16,188.659,370.514,188.659z"/>
	<path fill="#3A3430" d="M385.787,187.697c0,1.012-0.352,1.783-1.055,2.313s-1.756,0.795-3.156,0.795
		c-0.719,0-1.33-0.049-1.837-0.146c-0.506-0.097-0.979-0.24-1.421-0.428v-2.225c0.5,0.235,1.063,0.433,1.69,0.591
		c0.627,0.159,1.179,0.238,1.655,0.238c0.978,0,1.466-0.282,1.466-0.847c0-0.212-0.064-0.384-0.194-0.517
		c-0.129-0.132-0.353-0.283-0.671-0.45c-0.317-0.168-0.741-0.364-1.271-0.587c-0.759-0.318-1.316-0.612-1.673-0.883
		c-0.356-0.271-0.615-0.581-0.777-0.932c-0.161-0.35-0.242-0.781-0.242-1.293c0-0.877,0.34-1.555,1.02-2.035
		c0.68-0.48,1.644-0.72,2.892-0.72c1.188,0,2.346,0.259,3.47,0.777l-0.812,1.942c-0.494-0.212-0.956-0.385-1.386-0.521
		c-0.43-0.135-0.868-0.203-1.315-0.203c-0.795,0-1.192,0.215-1.192,0.645c0,0.242,0.128,0.451,0.384,0.627
		c0.257,0.177,0.817,0.438,1.683,0.786c0.771,0.312,1.336,0.604,1.695,0.875c0.358,0.271,0.623,0.583,0.794,0.936
		S385.787,187.208,385.787,187.697z"/>
	<path fill="#3A3430" d="M396.859,185.675c0,1.607-0.424,2.864-1.271,3.77c-0.848,0.907-2.027,1.36-3.54,1.36
		c-0.948,0-1.783-0.208-2.508-0.623c-0.724-0.415-1.28-1.011-1.669-1.788c-0.388-0.777-0.582-1.683-0.582-2.719
		c0-1.613,0.421-2.866,1.263-3.761c0.841-0.895,2.024-1.342,3.549-1.342c0.947,0,1.783,0.206,2.508,0.618
		c0.724,0.412,1.28,1.003,1.668,1.774C396.665,183.735,396.859,184.639,396.859,185.675z M390.034,185.675
		c0,0.977,0.161,1.716,0.481,2.216c0.321,0.5,0.844,0.75,1.567,0.75c0.718,0,1.234-0.249,1.55-0.746
		c0.314-0.498,0.472-1.238,0.472-2.221c0-0.977-0.158-1.709-0.477-2.198c-0.317-0.489-0.839-0.733-1.562-0.733
		c-0.719,0-1.236,0.243-1.554,0.729C390.193,183.958,390.034,184.692,390.034,185.675z"/>
	<path fill="#3A3430" d="M404.594,180.572c0.365,0,0.668,0.026,0.909,0.08l-0.203,2.525c-0.218-0.059-0.482-0.088-0.794-0.088
		c-0.859,0-1.529,0.221-2.009,0.662s-0.72,1.06-0.72,1.854v5.023h-2.692v-9.871h2.039l0.397,1.66h0.132
		c0.307-0.553,0.72-0.999,1.241-1.337C403.415,180.741,403.981,180.572,404.594,180.572z"/>
	<path fill="#3A3430" d="M412.805,180.572c0.365,0,0.668,0.026,0.909,0.08l-0.203,2.525c-0.218-0.059-0.482-0.088-0.794-0.088
		c-0.859,0-1.529,0.221-2.009,0.662s-0.72,1.06-0.72,1.854v5.023h-2.692v-9.871h2.039l0.397,1.66h0.132
		c0.307-0.553,0.72-0.999,1.241-1.337C411.626,180.741,412.192,180.572,412.805,180.572z"/>
	<path fill="#3A3430" d="M424.477,185.675c0,1.607-0.424,2.864-1.271,3.77c-0.848,0.907-2.027,1.36-3.54,1.36
		c-0.948,0-1.783-0.208-2.508-0.623c-0.724-0.415-1.28-1.011-1.669-1.788c-0.388-0.777-0.582-1.683-0.582-2.719
		c0-1.613,0.421-2.866,1.263-3.761c0.841-0.895,2.024-1.342,3.549-1.342c0.947,0,1.783,0.206,2.508,0.618
		c0.724,0.412,1.28,1.003,1.668,1.774C424.282,183.735,424.477,184.639,424.477,185.675z M417.651,185.675
		c0,0.977,0.161,1.716,0.481,2.216c0.321,0.5,0.844,0.75,1.567,0.75c0.718,0,1.234-0.249,1.55-0.746
		c0.314-0.498,0.472-1.238,0.472-2.221c0-0.977-0.158-1.709-0.477-2.198c-0.317-0.489-0.839-0.733-1.562-0.733
		c-0.719,0-1.236,0.243-1.554,0.729C417.811,183.958,417.651,184.692,417.651,185.675z"/>
	<path fill="#3A3430" d="M434.815,190.628l-0.759-3.452l-1.024-4.361h-0.062l-1.802,7.813h-2.896l-2.808-9.871h2.684l1.139,4.37
		c0.183,0.783,0.368,1.863,0.557,3.24h0.053c0.023-0.447,0.127-1.157,0.31-2.128l0.141-0.75l1.219-4.732h2.967l1.156,4.732
		c0.023,0.13,0.061,0.321,0.11,0.574s0.099,0.522,0.146,0.808c0.047,0.286,0.09,0.565,0.128,0.839
		c0.039,0.274,0.061,0.493,0.066,0.658h0.053c0.054-0.424,0.147-1.005,0.283-1.744c0.135-0.739,0.232-1.237,0.291-1.497l1.184-4.37
		h2.64l-2.843,9.871H434.815z"/>
	<path fill="#3A3430" d="M441.8,189.365c0-0.494,0.132-0.868,0.397-1.121c0.265-0.253,0.65-0.38,1.156-0.38
		c0.488,0,0.866,0.13,1.135,0.389c0.268,0.259,0.401,0.63,0.401,1.112c0,0.465-0.136,0.832-0.406,1.099
		c-0.271,0.268-0.647,0.402-1.13,0.402c-0.494,0-0.877-0.131-1.147-0.393C441.935,190.211,441.8,189.842,441.8,189.365z
		 M444.439,186.346h-2.154l-0.45-8.625h3.055L444.439,186.346z"/>
</g>
<g>
	<path fill="#D4CCC4" d="M238.272,232.299c2.764-0.266,8.24-0.247,9.255,1.302c0.723,1.104,0.188,6.395-0.137,8.302
		c-0.299,1.749-5.198,5.092-9.118,4.627c-3.557-0.423-6.346-6.615-5.307-8.813C234.086,235.343,236.274,232.49,238.272,232.299z"/>
	<circle fill="#ACA095" cx="234.738" cy="239.371" r="0.608"/>
	<circle fill="#ACA095" cx="245.112" cy="235.233" r="0.609"/>
	<circle fill="#ACA095" cx="238.542" cy="244.328" r="0.608"/>
</g>
<g>
	<path fill="#ADA197" d="M252.383,238.68c0-0.702,0.655-1.374,1.14-1.873c1.124-1.187,2.092-2.264,3.435-3.638
		c0.077-0.078,0.155-0.108,0.233-0.108c0.344,0,0.703,0.577,0.703,0.858c0,0.187-0.156,0.358-0.312,0.562
		c-0.328,0.406-0.655,0.765-0.655,0.843c0.937-0.702,2.622-1.904,3.246-1.904c0.391,0,0.609,0.359,0.609,0.671
		c0,0.875-1.312,1.765-1.452,1.765c-0.281,0-0.421-0.625-0.78-0.625c-0.062,0-0.125,0.016-0.219,0.062
		c-0.921,0.484-2.622,1.982-4.433,3.934c-0.141,0.156-0.406,0.703-0.719,0.703C252.977,239.929,252.383,239.288,252.383,238.68z"/>
	<path fill="#ADA197" d="M258.457,238.867c0-0.078,0.047-0.219,0.141-0.359c2.607-3.809,9.038-9.272,10.35-10.488
		c0.078-0.078,0.125-0.125,0.203-0.125c0.171,0,0.577,0.982,0.577,1.154c0,0.39-0.266,0.718-0.577,1.03
		c-2.623,2.685-4.527,3.965-4.979,4.542c1.015-0.5,1.607-0.874,2.419-0.874c0.484,0,1.39,0.499,1.39,1.14
		c0,0.187-0.062,0.265-0.328,0.499c-0.749,0.641-3.138,2.514-3.138,3.31c0,0.156,0.094,0.219,0.203,0.219
		c0.312,0,1.28-0.641,2.186-1.343c0.89-0.687,0.843-0.749,0.999-0.749s0.312,0.249,0.312,0.468c0,0.438-2.951,2.935-4.027,2.935
		c-0.891,0-1.343-1.093-1.343-1.873c0-0.983,1.202-2.139,2.264-3.185c-1.218,0.516-2.592,1.687-4.762,4.34
		c-0.124,0.141-0.39,0.765-0.562,0.765C259.487,240.271,258.457,239.444,258.457,238.867z"/>
	<path fill="#ADA197" d="M266.749,238.664c0-1.358,3.855-4.933,4.262-5.229c0.125-0.094,0.187-0.094,0.249-0.094
		c0.125,0,1.233,0.937,1.233,1.202c0,0.047-0.016,0.141-0.109,0.234c-3.324,3.216-4.027,3.965-4.027,4.23
		c0,0.047,0.016,0.093,0.094,0.093c0.359,0,1.233-0.468,2.498-1.389c0.343-0.25,0.89-0.765,1.062-0.765
		c0.155,0,0.312,0.374,0.312,0.452c0,0.109-0.094,0.203-0.125,0.25c-0.483,0.671-3.152,2.575-3.996,2.575
		C267.311,240.225,266.749,239.444,266.749,238.664z M272.806,232.062c0-0.938,0.999-1.343,1.296-1.343
		c0.265,0,0.874,0.421,0.874,1.046c0,0.374-0.688,1.373-1.28,1.373C273.398,233.138,272.806,232.623,272.806,232.062z"/>
	<path fill="#ADA197" d="M274.352,238.648c0-0.796,0.797-1.623,1.39-2.217c0.016-0.016,0.062-0.062,0.062-0.109
		c0-0.016-0.016-0.031-0.047-0.031c-0.062,0-0.156,0.047-0.203,0.078c-1.077,0.718-2.81,2.279-4.043,3.606
		c-0.078,0.108-0.141,0.155-0.219,0.155c-0.047,0-0.108-0.031-0.187-0.062c-0.406-0.234-0.875-0.922-0.875-1.437
		c0-0.188,0.141-0.453,0.328-0.64c1.764-1.749,2.81-2.701,4.09-4.293c0.062-0.078,0.109-0.094,0.156-0.094
		c0.219,0,0.702,0.64,0.702,0.937c0,0.266-0.671,0.952-0.796,1.155c0.188-0.031,1.826-1.124,3.403-1.889
		c0.047-0.016,0.093-0.031,0.14-0.031c0.391,0,1.312,0.812,1.312,1.218c0,0.077-0.016,0.14-0.141,0.265
		c-1.062,0.968-3.449,2.95-3.449,3.56c0,0.047,0.016,0.249,0.233,0.249c0.453,0,2.279-1.154,3.466-2.325
		c0.047-0.047,0.078-0.062,0.141-0.062c0.203,0,0.359,0.234,0.359,0.437c0,0.188-0.531,0.797-1.483,1.593
		c-0.983,0.827-1.967,1.498-2.81,1.498C275.102,240.209,274.352,239.491,274.352,238.648z"/>
	<path fill="#ADA197" d="M283.658,233.231c0.483-0.218,0.874-0.265,1.155-0.265c0.452,0,0.64,0.187,1.03,0.64
		c0.327,0.391,0.499,0.843,0.499,0.952c0,0.094-0.125,0.109-0.281,0.109c-0.108,0-0.218,0.016-0.343,0.031
		c0.437,0.141,0.577,0.671,0.577,1.187c0,0.296-0.031,0.624-0.141,0.905c-0.546,1.357-2.669,3.324-4.308,3.324
		c-0.25,0-0.609-0.046-0.797-0.202c-0.437-0.359-1.607-1.546-1.607-2.545C279.443,235.714,281.91,234.044,283.658,233.231z
		 M284.892,234.902c-1.843,0.655-4.059,2.497-4.074,3.48c0,0.219,0.233,0.438,0.421,0.438c0.531,0,1.795-0.858,2.107-1.093
		c0.655-0.5,1.187-1.14,1.187-1.358c0-0.172-0.141-0.312-0.141-0.624C284.392,235.542,284.595,235.151,284.892,234.902z"/>
</g>
<g>
	<path fill="#ADA197" d="M262.861,255.243c-0.547-0.593-0.547-0.905-0.547-1.17c0-0.672,0.344-1.374,0.641-1.89
		c0.843-1.436,1.936-2.497,3.824-4.354c2.45-2.42,3.434-3.294,4.292-4.027c0.156-0.141,0.266-0.234,0.406-0.234
		c0.156,0,0.952,0.812,0.952,1.233c0,0.047-0.031,0.156-0.094,0.234c-0.608,0.812-2.622,2.122-5.026,4.526
		c0.562,0,1.015,0.25,1.343,0.562c0.405,0.375,0.702,0.703,0.702,1.093c0,0.234-0.078,0.531-0.156,0.719
		c-0.577,1.404-2.935,4.433-4.589,4.433C263.97,256.367,263.517,255.962,262.861,255.243z M264.172,254.76
		c0.25,0,0.516-0.141,1.03-0.578c0.827-0.702,2.623-2.794,2.654-3.621c0-0.172-0.156-0.25-0.297-0.25
		c-0.968,0-3.621,3.216-3.621,4.137C263.938,254.588,263.97,254.76,264.172,254.76z"/>
	<path fill="#ADA197" d="M268.467,254.666c0-1.358,3.855-4.933,4.262-5.229c0.125-0.094,0.187-0.094,0.249-0.094
		c0.125,0,1.233,0.937,1.233,1.202c0,0.047-0.016,0.141-0.109,0.234c-3.324,3.216-4.027,3.965-4.027,4.23
		c0,0.047,0.016,0.093,0.094,0.093c0.359,0,1.233-0.468,2.498-1.389c0.343-0.25,0.89-0.765,1.062-0.765
		c0.155,0,0.312,0.374,0.312,0.452c0,0.109-0.094,0.203-0.125,0.25c-0.483,0.671-3.152,2.575-3.996,2.575
		C269.028,256.227,268.467,255.446,268.467,254.666z M274.523,248.063c0-0.938,0.999-1.343,1.296-1.343
		c0.265,0,0.874,0.421,0.874,1.046c0,0.374-0.688,1.373-1.28,1.373C275.116,249.14,274.523,248.625,274.523,248.063z"/>
	<path fill="#ADA197" d="M272.262,254.682c0-0.702,0.656-1.374,1.14-1.873c1.124-1.187,2.092-2.264,3.435-3.638
		c0.078-0.078,0.155-0.108,0.233-0.108c0.344,0,0.703,0.577,0.703,0.858c0,0.187-0.156,0.358-0.312,0.562
		c-0.328,0.406-0.655,0.765-0.655,0.843c0.937-0.702,2.622-1.904,3.246-1.904c0.391,0,0.609,0.359,0.609,0.671
		c0,0.875-1.312,1.765-1.452,1.765c-0.281,0-0.421-0.625-0.78-0.625c-0.062,0-0.125,0.016-0.219,0.062
		c-0.921,0.484-2.622,1.982-4.433,3.934c-0.141,0.156-0.406,0.703-0.719,0.703C272.855,255.931,272.262,255.29,272.262,254.682z"/>
	<path fill="#ADA197" d="M279.102,254.26c0-0.202,0.077-0.515,0.202-0.78c0.905-2.045,3.887-4.199,5.214-4.199
		c0.188,0,0.344,0.047,0.469,0.141c0.483,0.391,0.749,0.874,0.905,1.187c0.671-0.749,4.604-5.183,5.65-6.135
		c0.109-0.109,0.188-0.156,0.281-0.156c0.062,0,0.125,0.016,0.219,0.078c0.405,0.266,0.937,0.983,0.937,1.218
		c0,0.109-0.031,0.234-0.125,0.312c-2.639,2.45-4.715,4.698-7.118,7.305c-0.687,0.734-1.171,1.296-1.171,1.608
		c0,0.094,0.047,0.141,0.172,0.141c0.375,0,0.812-0.234,2.186-1.312c0.437-0.344,1.03-0.937,1.171-0.937
		c0.171,0,0.327,0.374,0.327,0.499c0,0.438-2.95,2.981-3.98,2.981c-0.671,0-1.187-0.577-1.187-1.279
		c-0.593,0.452-1.623,1.373-2.466,1.373C279.851,256.305,279.102,254.885,279.102,254.26z M280.975,254.994
		c0.125,0,0.312-0.062,0.546-0.234c0.733-0.516,3.56-2.888,3.56-3.403c0-0.203-0.125-0.374-0.406-0.374
		c-0.453,0-3.965,2.716-3.965,3.73C280.709,254.869,280.725,254.994,280.975,254.994z"/>
</g>
<g>
	<path fill="#ADA197" d="M258.501,245.203c-2.115,0.569-4.782,1.547-4.782,2.578c0,0.319,0.622,0.711,2.862,0.871
		c0.693,0.018,1.493,0.355,1.493,1.084c0,0.587-0.392,1.014-0.96,1.014c-2.826,0-6.488,1.138-8.497,2.612
		c-0.604,0.444-1.511,1.191-1.511,1.974c0,0.622,0.497,0.889,1.279,0.889c1.582,0,4.676-0.729,5.866-1.991
		c-1.742,0-3.164-0.516-3.164-0.924c0-0.16,0.16-0.249,0.32-0.284c2.15-0.534,4.551-0.765,6.897-0.765
		c1.368,0,1.919,0.924,1.919,1.315c0,0.498-3.11,0.64-3.786,0.64h-0.427c0.054,0.089,0.089,0.16,0.089,0.267
		c0,1.244-4.426,3.822-6.577,3.822c-0.319,0-0.64-0.036-0.978-0.106c-0.889-0.178-1.617-0.871-2.169-1.689
		c-0.568-0.693-0.835-1.298-0.835-2.062c0-0.214,0.035-0.427,0.089-0.587c0.889-2.702,5.155-4.124,8.105-4.764
		c-1.812-0.498-2.133-1.404-2.133-1.938c0-1.938,6.275-4.194,9.635-4.194c1.244,0,1.76,1.297,1.76,1.724
		c0,1.209-2.862,2.524-4.426,2.524c-0.801,0-1.067-0.32-1.067-0.676C257.505,245.985,258.109,245.47,258.501,245.203z
		 M258.963,245.097c0.071,0.071,0.106,0.178,0.106,0.231c0,0.053-0.586,0.337-0.586,0.622c0,0.213,0.497,0.23,0.764,0.23
		c1.209,0,2.4-0.693,2.4-1.102c0-0.249-0.303-0.338-0.711-0.338C260.634,244.741,259.869,244.865,258.963,245.097z"/>
</g>
</svg>
