<?xml version="1.0" encoding="utf-8"?>
<!-- Generator: Adobe Illustrator 15.0.2, SVG Export Plug-In . SVG Version: 6.00 Build 0)  -->
<!DOCTYPE svg PUBLIC "-//W3C//DTD SVG 1.1//EN" "http://www.w3.org/Graphics/SVG/1.1/DTD/svg11.dtd">
<svg version="1.1" id="Layer_1" xmlns="http://www.w3.org/2000/svg" xmlns:xlink="http://www.w3.org/1999/xlink" x="0px" y="0px"
	 width="473px" height="200px" viewBox="0 0 473 200" enable-background="new 0 0 473 200" xml:space="preserve">
<g>
	<path fill="#AFA69C" d="M407.698,184.085c-0.271-0.112-0.535-0.229-0.8-0.351c-0.527-0.241-1.049-0.498-1.562-0.766
		c-1.026-0.535-2.026-1.117-3-1.736c-1.947-1.241-3.792-2.637-5.52-4.16s-3.336-3.178-4.811-4.939
		c-1.474-1.763-2.814-3.634-4.011-5.589c-0.009-0.015-0.004-0.03,0.01-0.039c0.013-0.009,0.03-0.005,0.039,0.009
		c1.253,1.916,2.644,3.739,4.162,5.447c1.519,1.707,3.162,3.298,4.915,4.754c1.754,1.456,3.616,2.778,5.569,3.941
		c0.976,0.58,1.975,1.123,2.994,1.615c0.511,0.248,1.025,0.481,1.547,0.701c0.26,0.109,0.521,0.215,0.783,0.315
		c0.132,0.051,0.264,0.101,0.396,0.147c0.13,0.047,0.264,0.094,0.389,0.133h0.002C409.035,183.643,407.833,184.143,407.698,184.085z
		"/>
	<g>
		<path fill="#D4CCC4" d="M408.803,184h-0.002c-0.125,0-0.259-0.301-0.389-0.348c-0.132-0.047-0.264-0.205-0.396-0.256
			c-0.263-0.101-0.523-0.261-0.783-0.369c-0.521-0.221-1.036-0.48-1.546-0.729c-0.453-0.22-0.9-0.465-1.346-0.703
			c-0.048,0.103-0.104,0.195-0.177,0.297c-0.077,0.107-0.158,0.205-0.245,0.301c0.467,0.269,0.938,0.527,1.416,0.777
			c0.514,0.268,1.034,0.522,1.562,0.764c0.265,0.121,0.529,0.453,0.8,0.566C407.833,184.357,409.035,184,408.803,184z"/>
		<path fill="#D4CCC4" d="M396.817,177.072c-1.728-1.523-3.335-3.178-4.811-4.939c-1.474-1.763-2.813-3.634-4.011-5.589
			c-0.008-0.015-0.004-0.03,0.01-0.039s0.03-0.005,0.039,0.009c1.253,1.916,2.645,3.739,4.162,5.447
			c1.518,1.707,3.162,3.298,4.915,4.754c1.754,1.456,3.616,2.778,5.569,3.941c0.542,0.322,1.094,0.63,1.649,0.928
			c0.979-2.04-2.886-3.973-6.791-7.175l0.082,2.174l-0.589-2.597c-0.328-0.279-0.654-0.567-0.978-0.866
			c-4.636-4.289-7.505-9.072-8.825-8.313c-2.03,1.162,0.473,8.353,6.459,13.93c1.017,0.947,1.963,1.728,2.841,2.354l3.736-0.631
			l-2.635,1.36c3.003,1.828,5.08,1.699,6.276,0.369c-0.535-0.308-1.062-0.625-1.584-0.957
			C400.39,179.991,398.545,178.596,396.817,177.072z"/>
	</g>
</g>
<g enable-background="new    ">
	<path fill="#FBB034" d="M227.64,27.293c1.148,0.811,5.204,4.934,5.204,6.556c0,1.216-4.055,4.055-6.488,6.555
		C205,62.638,188.983,81.764,181.211,91.225c-4.393,5.339-5.001,8.042-5.812,8.042c-1.69,0-6.15-5.677-6.15-8.718
		c0-6.758,19.666-23.248,30.141-34.061c-8.448,6.42-14.395,10.137-20.207,10.137c-6.285,0-12.638-5.947-12.638-14.598
		c0-11.894,15.747-26.627,28.452-34.466c6.218-3.785,16.355-9.664,25.073-9.664c5.474,0,6.758,3.581,9.326,7.028
		c1.419,1.419,2.636,2.567,2.636,5.203C232.032,22.495,230.275,24.995,227.64,27.293z M200.336,36.078
		c0.608,0,1.149-0.135,1.69-0.27c4.393-1.149,24.667-12.098,24.667-17.166c0-1.352-0.946-2.027-2.298-2.027
		c-16.557,0-51.902,28.587-51.902,39.94c0,2.23,1.082,3.176,3.514,3.176c11.692,0,35.075-17.301,48.456-29.938
		c-8.245,5.678-20.477,10.138-22.099,10.138c-1.893,0-3.042-1.014-3.042-2.433C199.323,36.484,199.391,36.078,200.336,36.078z"/>
	<path fill="#FBB034" d="M241.561,35.809c2.095-0.946,3.784-1.149,5-1.149c1.961,0,2.771,0.812,4.461,2.771
		c1.419,1.689,2.162,3.649,2.162,4.123c0,0.405-0.54,0.473-1.216,0.473c-0.474,0-0.946,0.067-1.487,0.136
		c1.893,0.607,2.501,2.905,2.501,5.136c0,1.284-0.136,2.703-0.608,3.92c-2.365,5.88-11.557,14.395-18.652,14.395
		c-1.082,0-2.636-0.203-3.447-0.879c-1.892-1.554-6.961-6.69-6.961-11.016C223.313,46.554,233.991,39.322,241.561,35.809z
		 M246.898,43.039c-7.975,2.839-17.57,10.813-17.638,15.071c0,0.945,1.014,1.892,1.825,1.892c2.298,0,7.772-3.717,9.124-4.73
		c2.838-2.162,5.136-4.934,5.136-5.88c0-0.743-0.608-1.352-0.608-2.703C244.736,45.811,245.615,44.121,246.898,43.039z"/>
	<path fill="#FBB034" d="M273.119,35.809c2.096-0.946,3.785-1.149,5.002-1.149c1.959,0,2.771,0.812,4.46,2.771
		c1.419,1.689,2.163,3.649,2.163,4.123c0,0.405-0.541,0.473-1.217,0.473c-0.473,0-0.946,0.067-1.486,0.136
		c1.892,0.607,2.5,2.905,2.5,5.136c0,1.284-0.135,2.703-0.608,3.92c-2.365,5.88-11.556,14.395-18.652,14.395
		c-1.081,0-2.636-0.203-3.446-0.879c-1.893-1.554-6.961-6.69-6.961-11.016C254.873,46.554,265.551,39.322,273.119,35.809z
		 M278.459,43.039c-7.975,2.839-17.571,10.813-17.639,15.071c0,0.945,1.014,1.892,1.824,1.892c2.298,0,7.771-3.717,9.123-4.73
		c2.839-2.162,5.137-4.934,5.137-5.88c0-0.743-0.608-1.352-0.608-2.703C276.296,45.811,277.174,44.121,278.459,43.039z"/>
	<path fill="#FBB034" d="M284.405,57.569c0-0.879,0.338-2.23,0.878-3.379c3.92-8.854,16.828-18.18,22.572-18.18
		c0.812,0,1.487,0.203,2.028,0.608c2.095,1.689,3.243,3.784,3.919,5.136c2.906-3.243,19.937-22.437,24.465-26.559
		c0.473-0.474,0.811-0.676,1.217-0.676c0.27,0,0.54,0.067,0.945,0.338c1.758,1.148,4.056,4.257,4.056,5.271
		c0,0.474-0.136,1.014-0.541,1.352c-11.421,10.61-20.409,20.343-30.817,31.629c-2.974,3.176-5.068,5.608-5.068,6.96
		c0,0.406,0.203,0.608,0.743,0.608c1.622,0,3.515-1.014,9.462-5.677c1.893-1.486,4.46-4.055,5.068-4.055
		c0.743,0,1.419,1.622,1.419,2.163c0,1.892-12.772,12.907-17.233,12.907c-2.905,0-5.136-2.5-5.136-5.541
		c-2.567,1.96-7.028,5.947-10.678,5.947C287.649,66.423,284.405,60.272,284.405,57.569z M292.516,60.745
		c0.54,0,1.352-0.27,2.365-1.014c3.176-2.229,15.408-12.502,15.408-14.732c0-0.878-0.541-1.622-1.757-1.622
		c-1.96,0-17.166,11.76-17.166,16.152C291.366,60.205,291.434,60.745,292.516,60.745z"/>
	<path fill="#FBB034" d="M323.805,61.827c-2.365-2.568-2.365-3.92-2.365-5.069c0-2.905,1.487-5.946,2.771-8.177
		c3.649-6.218,8.381-10.813,16.558-18.855c10.61-10.475,14.868-14.26,18.585-17.436c0.676-0.608,1.149-1.014,1.757-1.014
		c0.676,0,4.123,3.514,4.123,5.339c0,0.202-0.136,0.676-0.405,1.014c-2.636,3.514-11.354,9.191-21.762,19.599
		c2.433,0,4.393,1.081,5.812,2.433c1.757,1.622,3.041,3.041,3.041,4.73c0,1.014-0.338,2.298-0.676,3.109
		c-2.501,6.082-12.705,19.192-19.869,19.192C328.604,66.692,326.644,64.936,323.805,61.827z M329.481,59.731
		c1.082,0,2.23-0.607,4.461-2.5c3.581-3.041,11.354-12.097,11.488-15.679c0-0.743-0.676-1.081-1.284-1.081
		c-4.189,0-15.679,13.921-15.679,17.908C328.468,58.988,328.604,59.731,329.481,59.731z"/>
	<path fill="#FBB034" d="M358,60.002c6.69-3.92,12.705-9.461,27.844-21.896c0.338-0.27,1.284-0.878,2.027-0.878
		c1.352,0,5.068,2.298,5.068,5.001c0,0.811-3.446,3.582-6.556,6.69c-12.231,12.232-22.842,24.667-32.709,38.927
		c-0.676,1.014-1.824,3.379-2.433,3.379c-0.812,0-4.325-2.771-4.325-6.623c0-4.055,3.446-8.177,6.487-11.624
		c4.055-4.663,7.366-7.975,12.436-12.976c0.202-0.202,0.338-0.473,0.338-0.608c0-0.135-0.068-0.202-0.136-0.202
		c-0.135,0-0.338,0.135-0.473,0.271c-8.583,7.096-10.138,7.096-11.083,7.096c-1.42,0-2.568-0.676-4.19-3.784
		c-0.608-1.217-1.284-3.38-1.284-4.528c0-6.894,9.259-13.448,20.342-22.302c0.203-0.135,0.474-0.203,0.812-0.203
		c2.974,0,6.217,3.92,6.217,4.934c0,0.136-0.067,0.338-0.27,0.405c-6.894,5.339-13.584,10.881-19.464,17.301
		c-0.271,0.338-0.405,0.676-0.405,0.946c0,0.541,0.338,0.946,0.946,0.946C357.392,60.272,357.662,60.205,358,60.002z"/>
	<path fill="#FBB034" d="M398.615,54.258c-1.284,1.96-2.027,3.649-2.027,4.866c0,1.081,0.541,2.5,2.636,2.5
		c1.216,0,2.703-0.405,3.514-0.676c12.368-4.528,18.855-10.543,19.464-10.543c0.54,0,0.608,0.406,0.608,0.676
		c0,0.744-2.703,3.853-5.475,6.354c-4.934,4.527-11.624,9.258-18.247,9.258c-2.974,0-9.394-6.961-9.394-9.664
		c0-6.42,5.068-11.894,10.34-16.625c5.406-4.865,9.529-7.028,12.098-7.028c1.419,0,3.312,1.419,5.001,3.312
		c2.433,2.23,2.636,3.379,2.636,4.258c0,6.487-11.151,15.679-16.22,15.679C402.13,56.623,400.102,55.812,398.615,54.258z
		 M400.575,51.689c0.54,0.812,1.284,0.879,1.622,0.879c3.852,0,12.772-9.529,12.772-11.624c0-0.541-0.338-0.743-0.811-0.743
		c-0.474,0-1.082,0.271-1.42,0.473C408.212,43.783,403.684,47.905,400.575,51.689z"/>
	<path fill="#FBB034" d="M420.443,61.76c0-3.244,4.528-5.678,6.556-5.678c1.555,0,3.379,2.568,3.379,4.731
		c0,3.446-3.717,5.001-6.487,5.001C421.863,65.814,420.443,63.719,420.443,61.76z M432.541,48.176
		c0-4.055,17.908-26.087,30.682-35.21c1.081-0.743,1.893-1.352,2.5-1.352c0.608,0,1.622,0.811,1.622,3.649
		c0,8.042-8.921,11.759-23.315,27.708c-0.338,0.338-0.405,0.743-0.405,1.217c0,0.54,0.135,1.148,0.135,1.757
		s-1.689,1.893-3.446,3.379c-1.893,1.689-3.853,3.582-4.393,3.582C433.893,52.906,432.541,50,432.541,48.176z"/>
</g>
<g>
	<g>
		<g>
			<g>
				<g>
					<path fill="#ACA095" d="M104.596,84.919c49.889,15.144,42.044,65.429,42.044,65.429h-36.717c0,0,4.443-29.088-17.855-46.13"/>
				</g>
			</g>
			<g>
				<g>
					<path fill="#DED7D1" d="M134.396,150.348c0,3.377,2.74,6.117,6.118,6.117c3.379,0,6.118-2.74,6.118-6.117"/>
				</g>
			</g>
			<g>
				<g>
					<path fill="#DED7D1" d="M122.16,150.348c0,3.377,2.739,6.117,6.117,6.117c3.38,0,6.119-2.74,6.119-6.117"/>
				</g>
			</g>
			<g>
				<g>
					<path fill="#DED7D1" d="M109.923,150.348c0,3.377,2.738,6.117,6.119,6.117c3.379,0,6.118-2.74,6.118-6.117"/>
				</g>
			</g>
			<g>
				<g>
					<circle fill="#ACA095" cx="100.56" cy="93.728" r="19.762"/>
				</g>
			</g>
		</g>
		<g>
			<g>
				<path fill="#ACA095" d="M77.166,3.012l1.697,39.953c2.394-1.111,8.684-1.111,11.077,0V22.989
					C89.94,14.13,84.702,6.515,77.166,3.012z"/>
			</g>
		</g>
		<g>
			<g>
				<path fill="#C9C1B8" d="M57.724,3.012l1.699,39.953c2.393-1.111,8.683-1.111,11.075,0V22.989
					C70.498,14.13,65.261,6.515,57.724,3.012z"/>
			</g>
		</g>
		<g>
			<g>
				<path fill="#BCB1A7" d="M62.748,6.242l3.194,35.91c1.823,0.073,3.542,0.341,4.556,0.813V22.989
					C70.498,16.274,67.487,10.279,62.748,6.242z"/>
			</g>
		</g>
		<g>
			<g>
				<polygon fill="#C9C1B8" points="74.24,196.988 45.664,196.988 64.418,136.434 79.723,136.434 				"/>
			</g>
		</g>
		<g>
			<g>
				<polygon fill="#ACA095" points="87.413,196.988 115.99,196.988 97.236,136.434 81.932,136.434 				"/>
			</g>
		</g>
		<g>
			<g>
				<path fill="#C9C1B8" d="M141.707,16.94c3.423,28.529-14.573,26.106-21.957,21.708c4.884-6.803,1.646-15.192,1.646-15.192
					s-1.946,8.216-8.23,11.294c-11.247-6.61-21.592-11.948-36.796-11.948c-71.323,0-16.912,129.841-16.912,129.841
					c72.304,0,62.558-45.164,52.81-68.325c17.142,6.726,25.626-4.788,26.568-8.395c0,0,3.332,1.736,3.787,0.718
					c1.822-4.071,5.742-15.101-0.621-23.577C156.792,35.059,141.707,16.94,141.707,16.94z"/>
			</g>
		</g>
		<g>
			<g>
				<path fill="#ACA095" d="M94.993,49.133h-7.308c3.948,1.99,7.742,2.067,7.742,2.067c0.797,1.823,2.613,3.098,4.73,3.099
					c2.853,0,5.164-2.313,5.164-5.166H94.993z"/>
			</g>
		</g>
		<g>
			<g>
				<path fill="#ACA095" d="M102.806,49.133c0,1.426-1.157,2.583-2.584,2.583c-1.426,0-2.582-1.157-2.582-2.583"/>
			</g>
		</g>
		<g>
			<g>
				<path fill="#ACA095" d="M101.038,59.705v-2.066c4.69,0,8.506-3.815,8.506-8.506h2.067
					C111.611,54.963,106.868,59.705,101.038,59.705z"/>
			</g>
		</g>
		<g>
			<g>
				<path fill="#ACA095" d="M132.903,73.67c-3.449-0.22-6.999-0.449-8.552-1.883c0.586-0.952,0.93-2.069,0.93-3.267h-2.066
					c0,2.317-1.885,4.201-4.201,4.201v2.066c1.513,0,2.902-0.539,3.985-1.435c2.074,1.882,5.828,2.128,9.773,2.38
					c2.042,0.129,4.117,0.263,5.924,0.627c0.352,0.072,0.692,0.152,1.021,0.242c0.926,0.254,1.754,0.591,2.434,1.047
					c0.212-0.428,0.516-1.074,0.857-1.9C140.385,74.153,136.594,73.906,132.903,73.67z"/>
			</g>
			<g>
				<g>
					<g>
						<path fill="#ACA095" d="M144.875,59.078c-1.869,0.284-3.303,1.892-3.303,3.84c0,2.109,1.682,3.823,3.777,3.883
							C145.612,64.341,145.549,61.694,144.875,59.078z"/>
					</g>
				</g>
			</g>
		</g>
		<g>
			<g>
				<rect x="59.108" y="172.064" fill="#ACA095" width="10.006" height="2.065"/>
			</g>
		</g>
		<g>
			<g>
				<rect x="52.33" y="57.639" fill="#ACA095" width="19.763" height="2.066"/>
			</g>
		</g>
		<g>
			<g>
				<g>
					<g>
						<circle fill="#BCB1A7" cx="52.331" cy="93.728" r="19.762"/>
					</g>
				</g>
			</g>
		</g>
		<g>
			<g>
				<g>
					<g>
						<path fill="#BCB1A7" d="M48.296,102.536C-1.595,87.393,6.252,37.108,6.252,37.108h36.715c0,0-4.441,29.087,17.857,46.129"/>
					</g>
				</g>
				<g>
					<g>
						<path fill="#DED7D1" d="M6.259,37.108c0,3.378,2.738,6.117,6.117,6.117c3.378,0,6.117-2.739,6.117-6.117"/>
					</g>
				</g>
				<g>
					<g>
						<path fill="#DED7D1" d="M30.731,37.108c0-3.378-2.739-6.117-6.118-6.117c-3.38,0-6.119,2.739-6.119,6.117"/>
					</g>
				</g>
				<g>
					<g>
						<path fill="#DED7D1" d="M42.967,37.108c0-3.378-2.738-6.117-6.117-6.117s-6.118,2.739-6.118,6.117"/>
					</g>
				</g>
				<g>
					<g>
						<circle fill="#BCB1A7" cx="52.331" cy="93.727" r="19.762"/>
					</g>
				</g>
			</g>
			<g>
				<g>
					<rect x="18.494" y="64.527" fill="#ACA095" width="22.241" height="2.066"/>
				</g>
			</g>
			<g>
				<g>
					<rect x="28.31" y="48.029" fill="#ACA095" width="10.006" height="2.068"/>
				</g>
			</g>
			<g>
				<g>
					<rect x="35.488" y="81.913" fill="#ACA095" width="12.782" height="2.066"/>
				</g>
			</g>
		</g>
		<g>
			<g>
				<rect x="60.824" y="124.859" fill="#ACA095" width="17.927" height="2.066"/>
			</g>
		</g>
		<g>
			<g>
				<g>
					<polygon fill="#DED7D1" points="45.664,196.988 74.24,196.988 74.837,190.4 47.704,190.4 					"/>
				</g>
			</g>
			<g>
				<g>
					<polygon fill="#DED7D1" points="87.414,196.988 115.99,196.988 113.949,190.4 86.816,190.4 					"/>
				</g>
			</g>
		</g>
	</g>
	<g>
		<g>
			<g>
				<g>
					<path fill="#786C62" d="M199.979,138.161c2.312-23.319,55.201-25.035,55.201-17.365c0,1.435-3.063,2.588-3.063,2.588
						s8.608-1.465,9.065,2.577c0.453,4.02-9.065,5.741-9.065,5.741s-1.593,8.913-13.952,9.036
						C220.936,140.91,199.979,138.161,199.979,138.161z"/>
				</g>
			</g>
			<g>
				<g>
					<rect x="235.001" y="115.7" fill="#DED7D1" width="17.169" height="26.729"/>
				</g>
				<g>
					<rect x="237.355" y="118.07" fill="#E8E3DD" width="12.461" height="18.287"/>
				</g>
				<g>
					<circle fill="#FFFFFF" cx="243.585" cy="139.274" r="1.663"/>
				</g>
			</g>
			<g>
				<g>
					<path fill="#786C62" d="M243.924,133.766c-0.346,3.004,2.967,4.815,8.191,5.84v-7.91
						C251.447,131.592,244.29,130.579,243.924,133.766z"/>
				</g>
				<g>
					<path fill="#DED7D1" d="M252.115,131.691v0.002c0.031,0.006,0.055,0.009,0.055,0.009S252.146,131.698,252.115,131.691z"/>
				</g>
			</g>
		</g>
		<g>
			<g>
				<polygon fill="#786C62" points="148.965,147.771 178.374,157.061 178.374,164.454 148.965,164.454 				"/>
			</g>
			<g>
				<g>
					<rect x="186.721" y="155.928" fill="#A21E22" width="3.857" height="41.061"/>
				</g>
				<g>
					<path fill="#A21E22" d="M186.721,193.131v3.857h22.168c0,0-2.406-3.857-6.318-3.857
						C198.659,193.131,186.721,193.131,186.721,193.131z"/>
				</g>
			</g>
			<g>
				<g>
					<path fill="#EF4135" d="M179.477,193.131v3.857h-22.168c0,0,2.405-3.857,6.318-3.857
						C167.539,193.131,179.477,193.131,179.477,193.131z"/>
				</g>
				<g>
					<rect x="175.618" y="155.928" fill="#EF4135" width="3.858" height="41.061"/>
				</g>
			</g>
			<g>
				<path fill="#ACA095" d="M162.957,102.746c2.187-9.945,6.517-17.92,12.715-20.885c18.158-8.688,33.449,9.756,33.449,9.756
					l6.061,11.129h-21.877l6.197,13.479c25.562,0,8.936,50.748-12.781,50.748C159.168,166.973,157.334,128.333,162.957,102.746z"/>
			</g>
			<g>
				<path fill="#FBB034" d="M174.344,102.746c1.764-8.022,5.257-14.455,10.256-16.847c14.646-7.007,26.98,7.87,26.98,7.87
					l4.888,8.977h-17.645H174.344z"/>
			</g>
			<g>
				<polygon fill="#EF4135" points="240.777,102.746 209.48,91.617 205.92,102.746 				"/>
			</g>
			<g>
				<path fill="#A42624" d="M240.777,102.746c0,0-23.559-0.743-33.021-5.736l-1.836,5.736H240.777z"/>
			</g>
			<g>
				<path fill="#686664" d="M201.203,96.189c0-3.897-3.158-7.057-7.057-7.057c-3.896,0-7.057,3.16-7.057,7.057"/>
			</g>
			<g>
				<circle fill="#FFFFFF" cx="191.689" cy="92.661" r="1.146"/>
			</g>
			<g>
				<path fill="#8B8179" d="M135.81,93.303c1.435,0,2.589,3.065,2.589,3.065s-1.465-8.61,2.576-9.067
					c4.019-0.453,5.742,9.067,5.742,9.067s-1.279-7.862,2.061-8.246c6.221-0.715,7.341,14.211,6.896,29.399
					c9.921,0.758,17.645,1.771,17.645,1.771c-0.88,8.874-9.086,14.617-18.912,17.907c-4.498,1.507-9.334,2.499-13.966,3.041
					c-4.399-6.248-6.966-15.116-8.07-23.472C130.745,104.473,132.285,93.303,135.81,93.303z"/>
			</g>
		</g>
	</g>
</g>
<g enable-background="new    ">
	<path fill="#3A3430" d="M258.633,105.822h-2.334l-1.31-5.079c-0.049-0.181-0.132-0.555-0.248-1.121s-0.185-0.946-0.202-1.141
		c-0.025,0.238-0.092,0.621-0.197,1.147c-0.106,0.527-0.188,0.902-0.246,1.128l-1.303,5.065h-2.327l-2.467-9.669h2.017l1.237,5.277
		c0.216,0.975,0.372,1.819,0.47,2.533c0.025-0.251,0.086-0.641,0.182-1.167c0.095-0.527,0.184-0.936,0.268-1.227l1.408-5.417h1.938
		l1.409,5.417c0.062,0.242,0.14,0.612,0.231,1.11c0.093,0.499,0.163,0.926,0.212,1.283c0.044-0.344,0.114-0.772,0.212-1.286
		c0.097-0.514,0.185-0.93,0.264-1.247l1.23-5.277h2.018L258.633,105.822z"/>
	<path fill="#3A3430" d="M265.498,105.954c-1.191,0-2.121-0.328-2.791-0.985c-0.67-0.656-1.006-1.587-1.006-2.79
		c0-1.239,0.311-2.197,0.93-2.874s1.476-1.015,2.569-1.015c1.045,0,1.858,0.297,2.44,0.893c0.582,0.595,0.873,1.417,0.873,2.467
		v0.979h-4.769c0.022,0.573,0.192,1.021,0.509,1.343c0.318,0.321,0.764,0.482,1.336,0.482c0.445,0,0.867-0.046,1.264-0.139
		s0.811-0.24,1.243-0.443v1.561c-0.353,0.177-0.729,0.308-1.131,0.394S266.075,105.954,265.498,105.954z M265.213,99.725
		c-0.428,0-0.762,0.136-1.005,0.407c-0.243,0.271-0.382,0.655-0.417,1.153h2.831c-0.009-0.498-0.14-0.883-0.39-1.153
		C265.98,99.86,265.641,99.725,265.213,99.725z"/>
	<path fill="#3A3430" d="M278.367,105.822l-0.391-1.005h-0.053c-0.34,0.428-0.689,0.724-1.049,0.889
		c-0.359,0.166-0.827,0.248-1.404,0.248c-0.711,0-1.27-0.202-1.677-0.608c-0.408-0.405-0.612-0.982-0.612-1.732
		c0-0.784,0.275-1.363,0.824-1.735c0.549-0.373,1.376-0.579,2.482-0.619l1.283-0.039v-0.324c0-0.75-0.383-1.124-1.15-1.124
		c-0.591,0-1.285,0.179-2.084,0.535l-0.668-1.362c0.852-0.445,1.795-0.668,2.831-0.668c0.992,0,1.753,0.216,2.282,0.648
		c0.528,0.432,0.793,1.089,0.793,1.971v4.927H278.367z M277.771,102.396l-0.78,0.026c-0.587,0.018-1.022,0.124-1.31,0.317
		c-0.287,0.194-0.43,0.489-0.43,0.887c0,0.568,0.326,0.853,0.979,0.853c0.467,0,0.842-0.134,1.121-0.403
		c0.279-0.269,0.42-0.626,0.42-1.071V102.396z"/>
	<path fill="#3A3430" d="M285.979,98.29c0.273,0,0.5,0.02,0.682,0.06l-0.152,1.891c-0.163-0.044-0.361-0.065-0.596-0.065
		c-0.643,0-1.145,0.165-1.504,0.496c-0.359,0.33-0.539,0.793-0.539,1.389v3.763h-2.018v-7.394h1.528l0.298,1.243h0.099
		c0.229-0.414,0.539-0.748,0.929-1.002C285.096,98.417,285.52,98.29,285.979,98.29z"/>
	<path fill="#3A3430" d="M291.349,105.954c-1.19,0-2.12-0.328-2.79-0.985c-0.671-0.656-1.006-1.587-1.006-2.79
		c0-1.239,0.31-2.197,0.93-2.874c0.619-0.677,1.475-1.015,2.568-1.015c1.045,0,1.859,0.297,2.44,0.893
		c0.582,0.595,0.873,1.417,0.873,2.467v0.979h-4.769c0.022,0.573,0.192,1.021,0.51,1.343c0.317,0.321,0.763,0.482,1.336,0.482
		c0.445,0,0.866-0.046,1.264-0.139c0.396-0.093,0.811-0.24,1.242-0.443v1.561c-0.352,0.177-0.729,0.308-1.131,0.394
		C292.416,105.911,291.926,105.954,291.349,105.954z M291.064,99.725c-0.428,0-0.763,0.136-1.006,0.407
		c-0.242,0.271-0.381,0.655-0.416,1.153h2.83c-0.009-0.498-0.139-0.883-0.39-1.153C291.832,99.86,291.492,99.725,291.064,99.725z"/>
	<path fill="#3A3430" d="M304.681,103.627c0,0.758-0.263,1.336-0.79,1.732s-1.314,0.595-2.364,0.595
		c-0.538,0-0.997-0.036-1.376-0.108c-0.379-0.073-0.734-0.18-1.064-0.321v-1.666c0.375,0.176,0.797,0.324,1.267,0.442
		c0.47,0.119,0.883,0.179,1.239,0.179c0.732,0,1.099-0.211,1.099-0.635c0-0.158-0.049-0.287-0.146-0.387
		c-0.098-0.1-0.265-0.212-0.503-0.337c-0.237-0.126-0.556-0.272-0.952-0.44c-0.568-0.237-0.986-0.458-1.254-0.661
		c-0.266-0.202-0.46-0.436-0.582-0.697c-0.121-0.263-0.182-0.586-0.182-0.969c0-0.657,0.255-1.165,0.764-1.524
		c0.51-0.359,1.232-0.539,2.166-0.539c0.891,0,1.758,0.193,2.6,0.582l-0.608,1.455c-0.37-0.159-0.717-0.289-1.038-0.391
		c-0.322-0.102-0.65-0.152-0.986-0.152c-0.595,0-0.893,0.161-0.893,0.483c0,0.181,0.096,0.337,0.288,0.469
		c0.192,0.133,0.612,0.329,1.26,0.589c0.577,0.233,1.001,0.452,1.271,0.654c0.268,0.203,0.467,0.437,0.594,0.701
		C304.617,102.945,304.681,103.261,304.681,103.627z"/>
	<path fill="#3A3430" d="M310.95,105.822l-0.39-1.005h-0.053c-0.34,0.428-0.689,0.724-1.049,0.889
		c-0.359,0.166-0.828,0.248-1.405,0.248c-0.71,0-1.269-0.202-1.677-0.608c-0.408-0.405-0.611-0.982-0.611-1.732
		c0-0.784,0.274-1.363,0.823-1.735c0.549-0.373,1.376-0.579,2.483-0.619l1.283-0.039v-0.324c0-0.75-0.384-1.124-1.15-1.124
		c-0.592,0-1.286,0.179-2.084,0.535l-0.668-1.362c0.852-0.445,1.795-0.668,2.83-0.668c0.992,0,1.753,0.216,2.282,0.648
		c0.528,0.432,0.794,1.089,0.794,1.971v4.927H310.95z M310.355,102.396l-0.781,0.026c-0.586,0.018-1.022,0.124-1.309,0.317
		c-0.287,0.194-0.43,0.489-0.43,0.887c0,0.568,0.326,0.853,0.979,0.853c0.467,0,0.841-0.134,1.121-0.403
		c0.279-0.269,0.42-0.626,0.42-1.071V102.396z"/>
	<path fill="#3A3430" d="M316.777,105.954c-0.869,0-1.551-0.337-2.047-1.012c-0.496-0.674-0.744-1.608-0.744-2.804
		c0-1.212,0.252-2.157,0.757-2.834s1.2-1.015,2.087-1.015c0.93,0,1.64,0.361,2.129,1.084h0.066
		c-0.102-0.551-0.152-1.042-0.152-1.475v-2.367h2.023v10.29h-1.547l-0.391-0.959h-0.086
		C318.414,105.591,317.716,105.954,316.777,105.954z M317.484,104.348c0.516,0,0.894-0.15,1.135-0.45
		c0.24-0.3,0.371-0.809,0.393-1.527v-0.218c0-0.794-0.122-1.362-0.367-1.707c-0.244-0.344-0.643-0.516-1.193-0.516
		c-0.449,0-0.799,0.191-1.049,0.572c-0.248,0.382-0.373,0.936-0.373,1.663s0.125,1.273,0.377,1.637
		C316.658,104.166,317.018,104.348,317.484,104.348z"/>
	<path fill="#3A3430" d="M329.639,104.348c0.354,0,0.776-0.077,1.271-0.231v1.501c-0.503,0.225-1.12,0.337-1.853,0.337
		c-0.807,0-1.394-0.203-1.762-0.611c-0.368-0.407-0.553-1.02-0.553-1.835v-3.564h-0.965V99.09l1.111-0.675l0.582-1.561h1.289v1.574
		h2.07v1.515h-2.07v3.564c0,0.286,0.08,0.498,0.241,0.635S329.375,104.348,329.639,104.348z"/>
	<path fill="#3A3430" d="M339.123,102.112c0,1.203-0.317,2.145-0.953,2.824c-0.635,0.679-1.518,1.018-2.651,1.018
		c-0.71,0-1.336-0.155-1.878-0.466c-0.543-0.311-0.959-0.757-1.25-1.339s-0.437-1.261-0.437-2.037c0-1.208,0.315-2.147,0.946-2.817
		c0.63-0.67,1.516-1.005,2.658-1.005c0.709,0,1.336,0.154,1.878,0.463s0.959,0.752,1.25,1.329S339.123,101.336,339.123,102.112z
		 M334.011,102.112c0,0.731,0.12,1.285,0.36,1.66c0.24,0.374,0.632,0.562,1.174,0.562c0.538,0,0.925-0.186,1.16-0.559
		c0.236-0.372,0.354-0.927,0.354-1.663c0-0.731-0.119-1.28-0.356-1.646c-0.238-0.366-0.629-0.549-1.172-0.549
		c-0.537,0-0.926,0.182-1.163,0.545C334.13,100.826,334.011,101.376,334.011,102.112z"/>
	<path fill="#3A3430" d="M349.466,103.627c0,0.758-0.263,1.336-0.79,1.732s-1.314,0.595-2.364,0.595
		c-0.538,0-0.997-0.036-1.376-0.108c-0.379-0.073-0.734-0.18-1.064-0.321v-1.666c0.375,0.176,0.797,0.324,1.267,0.442
		c0.47,0.119,0.883,0.179,1.239,0.179c0.732,0,1.099-0.211,1.099-0.635c0-0.158-0.049-0.287-0.146-0.387
		c-0.098-0.1-0.265-0.212-0.503-0.337c-0.237-0.126-0.556-0.272-0.952-0.44c-0.568-0.237-0.986-0.458-1.254-0.661
		c-0.266-0.202-0.46-0.436-0.582-0.697c-0.121-0.263-0.182-0.586-0.182-0.969c0-0.657,0.255-1.165,0.764-1.524
		c0.51-0.359,1.232-0.539,2.166-0.539c0.891,0,1.758,0.193,2.6,0.582l-0.608,1.455c-0.37-0.159-0.717-0.289-1.038-0.391
		c-0.322-0.102-0.65-0.152-0.986-0.152c-0.595,0-0.893,0.161-0.893,0.483c0,0.181,0.096,0.337,0.288,0.469
		c0.192,0.133,0.612,0.329,1.26,0.589c0.577,0.233,1.001,0.452,1.271,0.654c0.268,0.203,0.467,0.437,0.594,0.701
		C349.402,102.945,349.466,103.261,349.466,103.627z"/>
	<path fill="#3A3430" d="M354.386,105.954c-1.19,0-2.12-0.328-2.79-0.985c-0.671-0.656-1.006-1.587-1.006-2.79
		c0-1.239,0.31-2.197,0.93-2.874c0.619-0.677,1.475-1.015,2.568-1.015c1.045,0,1.859,0.297,2.44,0.893
		c0.582,0.595,0.873,1.417,0.873,2.467v0.979h-4.769c0.022,0.573,0.192,1.021,0.51,1.343c0.317,0.321,0.763,0.482,1.336,0.482
		c0.445,0,0.866-0.046,1.264-0.139c0.396-0.093,0.811-0.24,1.242-0.443v1.561c-0.352,0.177-0.729,0.308-1.131,0.394
		C355.453,105.911,354.963,105.954,354.386,105.954z M354.102,99.725c-0.428,0-0.763,0.136-1.006,0.407
		c-0.242,0.271-0.381,0.655-0.416,1.153h2.83c-0.009-0.498-0.139-0.883-0.39-1.153C354.869,99.86,354.529,99.725,354.102,99.725z"/>
	<path fill="#3A3430" d="M362.388,105.954c-1.19,0-2.12-0.328-2.79-0.985c-0.671-0.656-1.006-1.587-1.006-2.79
		c0-1.239,0.31-2.197,0.93-2.874c0.619-0.677,1.475-1.015,2.568-1.015c1.045,0,1.859,0.297,2.44,0.893
		c0.582,0.595,0.873,1.417,0.873,2.467v0.979h-4.769c0.022,0.573,0.192,1.021,0.51,1.343c0.317,0.321,0.763,0.482,1.336,0.482
		c0.445,0,0.866-0.046,1.264-0.139c0.396-0.093,0.811-0.24,1.242-0.443v1.561c-0.352,0.177-0.729,0.308-1.131,0.394
		C363.455,105.911,362.965,105.954,362.388,105.954z M362.104,99.725c-0.428,0-0.763,0.136-1.006,0.407
		c-0.242,0.271-0.381,0.655-0.416,1.153h2.83c-0.009-0.498-0.139-0.883-0.39-1.153C362.871,99.86,362.531,99.725,362.104,99.725z"/>
	<path fill="#3A3430" d="M369.504,98.429h2.209l1.395,4.16c0.119,0.361,0.201,0.789,0.246,1.282h0.039
		c0.049-0.454,0.143-0.882,0.284-1.282l1.369-4.16h2.163l-3.129,8.339c-0.287,0.771-0.695,1.35-1.227,1.733
		c-0.531,0.383-1.152,0.575-1.861,0.575c-0.349,0-0.69-0.038-1.025-0.112v-1.601c0.242,0.057,0.507,0.086,0.793,0.086
		c0.357,0,0.67-0.109,0.937-0.327c0.267-0.219,0.476-0.548,0.625-0.989l0.118-0.363L369.504,98.429z"/>
	<path fill="#3A3430" d="M384.985,102.112c0,1.203-0.317,2.145-0.952,2.824c-0.635,0.679-1.52,1.018-2.652,1.018
		c-0.71,0-1.336-0.155-1.878-0.466s-0.959-0.757-1.25-1.339s-0.437-1.261-0.437-2.037c0-1.208,0.314-2.147,0.945-2.817
		s1.518-1.005,2.658-1.005c0.711,0,1.336,0.154,1.879,0.463s0.959,0.752,1.25,1.329S384.985,101.336,384.985,102.112z
		 M379.873,102.112c0,0.731,0.12,1.285,0.36,1.66c0.24,0.374,0.632,0.562,1.174,0.562c0.538,0,0.925-0.186,1.161-0.559
		c0.235-0.372,0.354-0.927,0.354-1.663c0-0.731-0.119-1.28-0.357-1.646s-0.628-0.549-1.17-0.549c-0.538,0-0.926,0.182-1.164,0.545
		C379.992,100.826,379.873,101.376,379.873,102.112z"/>
	<path fill="#3A3430" d="M391.89,105.822l-0.271-0.945h-0.105c-0.216,0.344-0.522,0.609-0.919,0.797
		c-0.396,0.187-0.85,0.28-1.355,0.28c-0.869,0-1.523-0.232-1.965-0.697s-0.661-1.134-0.661-2.007v-4.821h2.017v4.318
		c0,0.533,0.096,0.934,0.285,1.2s0.491,0.4,0.906,0.4c0.563,0,0.972-0.188,1.223-0.565c0.252-0.377,0.377-1.002,0.377-1.875v-3.479
		h2.018v7.394H391.89z"/>
	<path fill="#3A3430" d="M405.507,98.429v1.025l-1.157,0.297c0.211,0.331,0.317,0.701,0.317,1.111c0,0.794-0.277,1.412-0.83,1.855
		c-0.554,0.442-1.322,0.664-2.305,0.664l-0.364-0.02l-0.298-0.033c-0.207,0.159-0.311,0.335-0.311,0.529
		c0,0.291,0.37,0.437,1.111,0.437h1.257c0.811,0,1.429,0.174,1.854,0.522c0.426,0.348,0.639,0.859,0.639,1.534
		c0,0.864-0.36,1.534-1.082,2.01c-0.721,0.477-1.756,0.715-3.104,0.715c-1.031,0-1.82-0.18-2.364-0.539
		c-0.545-0.359-0.816-0.863-0.816-1.512c0-0.445,0.139-0.817,0.416-1.117c0.278-0.3,0.686-0.514,1.224-0.642
		c-0.207-0.088-0.388-0.232-0.542-0.433c-0.154-0.201-0.231-0.414-0.231-0.639c0-0.282,0.081-0.517,0.244-0.704
		s0.399-0.371,0.708-0.553c-0.388-0.167-0.695-0.437-0.923-0.807c-0.227-0.37-0.341-0.807-0.341-1.31
		c0-0.807,0.263-1.431,0.787-1.871c0.525-0.44,1.274-0.661,2.249-0.661c0.207,0,0.453,0.019,0.737,0.056
		c0.284,0.038,0.466,0.065,0.546,0.083H405.507z M399.799,106.867c0,0.277,0.134,0.496,0.4,0.654
		c0.267,0.159,0.641,0.238,1.121,0.238c0.723,0,1.29-0.099,1.699-0.298c0.41-0.198,0.615-0.469,0.615-0.813
		c0-0.277-0.121-0.469-0.363-0.575c-0.243-0.105-0.617-0.158-1.125-0.158h-1.044c-0.371,0-0.681,0.087-0.93,0.261
		C399.924,106.351,399.799,106.58,399.799,106.867z M400.533,100.849c0,0.401,0.092,0.719,0.274,0.953
		c0.183,0.233,0.462,0.351,0.837,0.351c0.379,0,0.656-0.117,0.833-0.351c0.177-0.234,0.265-0.552,0.265-0.953
		c0-0.89-0.366-1.335-1.098-1.335C400.903,99.514,400.533,99.959,400.533,100.849z"/>
	<path fill="#3A3430" d="M413.442,102.112c0,1.203-0.317,2.145-0.952,2.824c-0.635,0.679-1.52,1.018-2.652,1.018
		c-0.71,0-1.336-0.155-1.878-0.466s-0.959-0.757-1.25-1.339s-0.437-1.261-0.437-2.037c0-1.208,0.315-2.147,0.945-2.817
		c0.631-0.67,1.517-1.005,2.659-1.005c0.71,0,1.336,0.154,1.878,0.463s0.959,0.752,1.25,1.329S413.442,101.336,413.442,102.112z
		 M408.33,102.112c0,0.731,0.12,1.285,0.36,1.66c0.24,0.374,0.632,0.562,1.174,0.562c0.538,0,0.925-0.186,1.161-0.559
		c0.235-0.372,0.354-0.927,0.354-1.663c0-0.731-0.119-1.28-0.357-1.646s-0.628-0.549-1.17-0.549c-0.538,0-0.926,0.182-1.164,0.545
		C408.449,100.826,408.33,101.376,408.33,102.112z"/>
	<path fill="#3A3430" d="M417.086,104.4c-0.229,0.891-0.617,1.946-1.164,3.168h-1.454c0.286-1.173,0.509-2.279,0.668-3.32h1.852
		L417.086,104.4z"/>
</g>
<g enable-background="new    ">
	<path fill="#3A3430" d="M272.617,121.349c-0.868,0-1.549-0.314-2.043-0.945h-0.105c0.07,0.617,0.105,0.975,0.105,1.071v2.996
		h-2.018v-10.647h1.641l0.284,0.959h0.093c0.472-0.731,1.17-1.098,2.096-1.098c0.873,0,1.557,0.337,2.051,1.012
		s0.74,1.611,0.74,2.811c0,0.789-0.115,1.475-0.347,2.057s-0.562,1.025-0.989,1.329
		C273.697,121.197,273.195,121.349,272.617,121.349z M272.022,115.298c-0.498,0-0.862,0.153-1.091,0.46
		c-0.229,0.307-0.349,0.812-0.357,1.518v0.218c0,0.794,0.117,1.362,0.354,1.707c0.236,0.344,0.609,0.516,1.121,0.516
		c0.904,0,1.355-0.745,1.355-2.235c0-0.728-0.111-1.273-0.334-1.637C272.848,115.479,272.498,115.298,272.022,115.298z"/>
	<path fill="#3A3430" d="M281.823,121.217l-0.39-1.005h-0.053c-0.34,0.428-0.689,0.724-1.049,0.889
		c-0.359,0.166-0.828,0.248-1.405,0.248c-0.71,0-1.269-0.202-1.677-0.608c-0.408-0.405-0.611-0.982-0.611-1.732
		c0-0.784,0.274-1.363,0.823-1.735c0.549-0.373,1.376-0.579,2.483-0.619l1.283-0.039v-0.324c0-0.75-0.384-1.124-1.15-1.124
		c-0.592,0-1.286,0.179-2.084,0.535l-0.668-1.362c0.852-0.445,1.795-0.668,2.83-0.668c0.992,0,1.753,0.216,2.282,0.648
		c0.528,0.432,0.794,1.089,0.794,1.971v4.927H281.823z M281.229,117.791l-0.781,0.026c-0.586,0.018-1.022,0.124-1.309,0.317
		c-0.287,0.194-0.43,0.489-0.43,0.887c0,0.568,0.326,0.853,0.979,0.853c0.467,0,0.841-0.134,1.121-0.403
		c0.279-0.269,0.42-0.626,0.42-1.071V117.791z"/>
	<path fill="#3A3430" d="M289.436,113.685c0.273,0,0.5,0.02,0.681,0.06l-0.151,1.891c-0.164-0.044-0.362-0.065-0.596-0.065
		c-0.644,0-1.145,0.165-1.504,0.496c-0.359,0.33-0.539,0.793-0.539,1.389v3.763h-2.018v-7.394h1.527l0.298,1.243h0.099
		c0.23-0.414,0.539-0.748,0.93-1.002C288.553,113.812,288.977,113.685,289.436,113.685z"/>
	<path fill="#3A3430" d="M294.573,119.742c0.353,0,0.776-0.077,1.271-0.231v1.501c-0.504,0.225-1.121,0.337-1.853,0.337
		c-0.807,0-1.394-0.203-1.763-0.611c-0.367-0.407-0.552-1.02-0.552-1.835v-3.564h-0.966v-0.854l1.111-0.675l0.582-1.561h1.289v1.574
		h2.07v1.515h-2.07v3.564c0,0.286,0.081,0.498,0.242,0.635C294.096,119.674,294.309,119.742,294.573,119.742z"/>
	<path fill="#3A3430" d="M297.252,111.912c0-0.657,0.365-0.985,1.098-0.985s1.098,0.328,1.098,0.985c0,0.312-0.092,0.557-0.274,0.73
		c-0.183,0.175-0.457,0.262-0.823,0.262C297.617,112.904,297.252,112.573,297.252,111.912z M299.355,121.217h-2.018v-7.394h2.018
		V121.217z"/>
	<path fill="#3A3430" d="M308.296,121.217h-2.017v-4.318c0-0.533-0.096-0.934-0.285-1.2s-0.491-0.4-0.905-0.4
		c-0.564,0-0.972,0.188-1.224,0.565s-0.377,1.002-0.377,1.875v3.479h-2.018v-7.394h1.541l0.271,0.945h0.112
		c0.226-0.356,0.534-0.627,0.929-0.81c0.395-0.184,0.844-0.274,1.346-0.274c0.86,0,1.513,0.232,1.958,0.697
		c0.445,0.466,0.668,1.137,0.668,2.014V121.217z"/>
	<path fill="#3A3430" d="M316.807,113.823v1.025l-1.156,0.297c0.211,0.331,0.316,0.701,0.316,1.111c0,0.794-0.276,1.412-0.83,1.855
		c-0.553,0.442-1.32,0.664-2.305,0.664l-0.363-0.02l-0.297-0.033c-0.208,0.159-0.312,0.335-0.312,0.529
		c0,0.291,0.37,0.437,1.111,0.437h1.257c0.811,0,1.43,0.174,1.854,0.522c0.425,0.348,0.638,0.859,0.638,1.534
		c0,0.864-0.359,1.534-1.08,2.01c-0.722,0.477-1.756,0.715-3.105,0.715c-1.031,0-1.82-0.18-2.364-0.539s-0.817-0.863-0.817-1.512
		c0-0.445,0.14-0.817,0.418-1.117c0.277-0.3,0.685-0.514,1.223-0.642c-0.207-0.088-0.388-0.232-0.542-0.433
		c-0.155-0.201-0.231-0.414-0.231-0.639c0-0.282,0.081-0.517,0.244-0.704c0.164-0.188,0.399-0.371,0.708-0.553
		c-0.388-0.167-0.696-0.437-0.923-0.807s-0.34-0.807-0.34-1.31c0-0.807,0.262-1.431,0.787-1.871c0.523-0.44,1.273-0.661,2.248-0.661
		c0.207,0,0.453,0.019,0.737,0.056c0.284,0.038,0.466,0.065,0.546,0.083H316.807z M311.1,122.262c0,0.277,0.134,0.496,0.4,0.654
		c0.267,0.159,0.641,0.238,1.121,0.238c0.723,0,1.289-0.099,1.699-0.298c0.41-0.198,0.615-0.469,0.615-0.813
		c0-0.277-0.121-0.469-0.363-0.575c-0.242-0.105-0.617-0.158-1.125-0.158h-1.045c-0.369,0-0.68,0.087-0.929,0.261
		C311.225,121.745,311.1,121.975,311.1,122.262z M311.834,116.243c0,0.401,0.092,0.719,0.274,0.953
		c0.183,0.233,0.462,0.351,0.837,0.351c0.379,0,0.656-0.117,0.833-0.351c0.177-0.234,0.265-0.552,0.265-0.953
		c0-0.89-0.366-1.335-1.098-1.335C312.205,114.908,311.834,115.354,311.834,116.243z"/>
	<path fill="#3A3430" d="M321.457,111.912c0-0.657,0.365-0.985,1.098-0.985c0.731,0,1.098,0.328,1.098,0.985
		c0,0.312-0.092,0.557-0.275,0.73c-0.182,0.175-0.457,0.262-0.822,0.262C321.822,112.904,321.457,112.573,321.457,111.912z
		 M323.56,121.217h-2.017v-7.394h2.017V121.217z"/>
	<path fill="#3A3430" d="M330.834,119.021c0,0.758-0.264,1.336-0.791,1.732c-0.526,0.396-1.314,0.595-2.363,0.595
		c-0.539,0-0.997-0.036-1.376-0.108c-0.38-0.073-0.734-0.18-1.065-0.321v-1.666c0.375,0.176,0.797,0.324,1.268,0.442
		c0.469,0.119,0.883,0.179,1.239,0.179c0.731,0,1.099-0.211,1.099-0.635c0-0.158-0.049-0.287-0.146-0.387
		c-0.097-0.1-0.264-0.212-0.502-0.337c-0.238-0.126-0.556-0.272-0.953-0.44c-0.568-0.237-0.986-0.458-1.253-0.661
		c-0.267-0.202-0.46-0.436-0.582-0.697c-0.121-0.263-0.182-0.586-0.182-0.969c0-0.657,0.255-1.165,0.764-1.524
		s1.231-0.539,2.166-0.539c0.891,0,1.757,0.193,2.599,0.582l-0.607,1.455c-0.371-0.159-0.717-0.289-1.039-0.391
		s-0.65-0.152-0.985-0.152c-0.595,0-0.893,0.161-0.893,0.483c0,0.181,0.096,0.337,0.288,0.469c0.191,0.133,0.611,0.329,1.26,0.589
		c0.577,0.233,1,0.452,1.27,0.654c0.269,0.203,0.467,0.437,0.595,0.701S330.834,118.655,330.834,119.021z"/>
	<path fill="#3A3430" d="M341.084,119.021c0,0.758-0.263,1.336-0.789,1.732c-0.527,0.396-1.315,0.595-2.365,0.595
		c-0.537,0-0.996-0.036-1.375-0.108c-0.379-0.073-0.734-0.18-1.064-0.321v-1.666c0.374,0.176,0.797,0.324,1.266,0.442
		c0.47,0.119,0.883,0.179,1.24,0.179c0.732,0,1.098-0.211,1.098-0.635c0-0.158-0.049-0.287-0.145-0.387
		c-0.098-0.1-0.266-0.212-0.504-0.337c-0.237-0.126-0.555-0.272-0.951-0.44c-0.569-0.237-0.986-0.458-1.254-0.661
		c-0.267-0.202-0.461-0.436-0.582-0.697c-0.121-0.263-0.182-0.586-0.182-0.969c0-0.657,0.254-1.165,0.764-1.524
		s1.231-0.539,2.166-0.539c0.891,0,1.757,0.193,2.6,0.582l-0.609,1.455c-0.37-0.159-0.717-0.289-1.038-0.391
		s-0.65-0.152-0.985-0.152c-0.596,0-0.893,0.161-0.893,0.483c0,0.181,0.096,0.337,0.287,0.469c0.192,0.133,0.612,0.329,1.26,0.589
		c0.578,0.233,1.002,0.452,1.271,0.654c0.269,0.203,0.468,0.437,0.595,0.701C341.021,118.34,341.084,118.655,341.084,119.021z"/>
	<path fill="#3A3430" d="M347.896,121.217l-0.271-0.945h-0.105c-0.217,0.344-0.523,0.609-0.92,0.797
		c-0.396,0.187-0.849,0.28-1.355,0.28c-0.869,0-1.523-0.232-1.965-0.697c-0.44-0.465-0.66-1.134-0.66-2.007v-4.821h2.017v4.318
		c0,0.533,0.095,0.934,0.284,1.2s0.492,0.4,0.906,0.4c0.564,0,0.973-0.188,1.223-0.565c0.252-0.377,0.377-1.002,0.377-1.875v-3.479
		h2.018v7.394H347.896z"/>
	<path fill="#3A3430" d="M354.562,121.349c-2.302,0-3.453-1.263-3.453-3.789c0-1.257,0.313-2.217,0.939-2.88
		s1.523-0.995,2.691-0.995c0.855,0,1.623,0.167,2.302,0.502l-0.595,1.562c-0.318-0.128-0.613-0.232-0.887-0.314
		s-0.547-0.122-0.82-0.122c-1.049,0-1.574,0.745-1.574,2.235c0,1.445,0.525,2.169,1.574,2.169c0.389,0,0.748-0.052,1.078-0.155
		s0.662-0.266,0.992-0.486v1.726c-0.326,0.208-0.656,0.351-0.988,0.431C355.488,121.31,355.068,121.349,354.562,121.349z"/>
	<path fill="#3A3430" d="M365.348,121.217h-2.017v-4.318c0-1.067-0.396-1.601-1.19-1.601c-0.564,0-0.972,0.191-1.223,0.575
		c-0.252,0.384-0.377,1.006-0.377,1.865v3.479h-2.018v-10.29h2.018v2.097c0,0.163-0.016,0.546-0.047,1.15l-0.047,0.595h0.106
		c0.45-0.723,1.164-1.084,2.143-1.084c0.868,0,1.528,0.233,1.978,0.701c0.449,0.467,0.674,1.137,0.674,2.01V121.217z"/>
	<path fill="#3A3430" d="M376.102,119.021c0,0.758-0.264,1.336-0.791,1.732c-0.526,0.396-1.314,0.595-2.363,0.595
		c-0.539,0-0.997-0.036-1.376-0.108c-0.38-0.073-0.734-0.18-1.065-0.321v-1.666c0.375,0.176,0.797,0.324,1.268,0.442
		c0.469,0.119,0.883,0.179,1.239,0.179c0.731,0,1.099-0.211,1.099-0.635c0-0.158-0.049-0.287-0.146-0.387
		c-0.097-0.1-0.264-0.212-0.502-0.337c-0.238-0.126-0.556-0.272-0.953-0.44c-0.568-0.237-0.986-0.458-1.253-0.661
		c-0.267-0.202-0.46-0.436-0.582-0.697c-0.121-0.263-0.182-0.586-0.182-0.969c0-0.657,0.255-1.165,0.764-1.524
		s1.231-0.539,2.166-0.539c0.891,0,1.757,0.193,2.599,0.582l-0.607,1.455c-0.371-0.159-0.717-0.289-1.039-0.391
		s-0.65-0.152-0.985-0.152c-0.595,0-0.893,0.161-0.893,0.483c0,0.181,0.096,0.337,0.288,0.469c0.191,0.133,0.611,0.329,1.26,0.589
		c0.577,0.233,1,0.452,1.27,0.654c0.269,0.203,0.467,0.437,0.595,0.701S376.102,118.655,376.102,119.021z"/>
	<path fill="#3A3430" d="M383.753,121.217l-0.569-2.586l-0.767-3.267h-0.046l-1.35,5.853h-2.169l-2.103-7.394h2.01l0.854,3.273
		c0.137,0.587,0.275,1.396,0.416,2.427h0.04c0.018-0.335,0.095-0.866,0.231-1.594l0.105-0.562l0.913-3.545h2.222l0.867,3.545
		c0.018,0.097,0.045,0.24,0.082,0.43s0.074,0.392,0.109,0.605s0.066,0.423,0.096,0.628c0.028,0.205,0.045,0.369,0.049,0.492h0.041
		c0.039-0.317,0.109-0.752,0.211-1.306s0.174-0.927,0.219-1.121l0.886-3.273h1.978l-2.13,7.394H383.753z"/>
	<path fill="#3A3430" d="M392.614,121.349c-1.19,0-2.12-0.328-2.79-0.985c-0.671-0.656-1.006-1.587-1.006-2.79
		c0-1.239,0.31-2.197,0.93-2.874c0.619-0.677,1.475-1.015,2.568-1.015c1.045,0,1.859,0.297,2.44,0.893
		c0.582,0.595,0.873,1.417,0.873,2.467v0.979h-4.769c0.022,0.573,0.192,1.021,0.51,1.343c0.317,0.321,0.763,0.482,1.336,0.482
		c0.445,0,0.866-0.046,1.264-0.139c0.396-0.093,0.811-0.24,1.242-0.443v1.561c-0.352,0.177-0.729,0.308-1.131,0.394
		C393.682,121.306,393.191,121.349,392.614,121.349z M392.33,115.119c-0.428,0-0.763,0.136-1.006,0.407
		c-0.242,0.271-0.381,0.655-0.416,1.153h2.83c-0.009-0.498-0.139-0.883-0.39-1.153C393.098,115.255,392.758,115.119,392.33,115.119z
		"/>
	<path fill="#3A3430" d="M400.617,121.349c-1.191,0-2.121-0.328-2.791-0.985c-0.67-0.656-1.006-1.587-1.006-2.79
		c0-1.239,0.311-2.197,0.93-2.874s1.476-1.015,2.569-1.015c1.045,0,1.858,0.297,2.44,0.893c0.582,0.595,0.873,1.417,0.873,2.467
		v0.979h-4.769c0.022,0.573,0.192,1.021,0.509,1.343c0.318,0.321,0.764,0.482,1.336,0.482c0.445,0,0.867-0.046,1.264-0.139
		s0.811-0.24,1.243-0.443v1.561c-0.353,0.177-0.729,0.308-1.131,0.394S401.194,121.349,400.617,121.349z M400.332,115.119
		c-0.428,0-0.762,0.136-1.005,0.407c-0.243,0.271-0.382,0.655-0.417,1.153h2.831c-0.009-0.498-0.14-0.883-0.39-1.153
		C401.1,115.255,400.76,115.119,400.332,115.119z"/>
	<path fill="#3A3430" d="M408.387,119.742c0.354,0,0.776-0.077,1.271-0.231v1.501c-0.503,0.225-1.12,0.337-1.853,0.337
		c-0.807,0-1.394-0.203-1.762-0.611c-0.368-0.407-0.553-1.02-0.553-1.835v-3.564h-0.965v-0.854l1.111-0.675l0.582-1.561h1.289v1.574
		h2.07v1.515h-2.07v3.564c0,0.286,0.08,0.498,0.241,0.635S408.123,119.742,408.387,119.742z"/>
	<path fill="#3A3430" d="M419.829,119.021c0,0.758-0.264,1.336-0.791,1.732s-1.314,0.595-2.364,0.595
		c-0.538,0-0.996-0.036-1.375-0.108c-0.38-0.073-0.734-0.18-1.065-0.321v-1.666c0.374,0.176,0.797,0.324,1.267,0.442
		c0.469,0.119,0.883,0.179,1.24,0.179c0.731,0,1.097-0.211,1.097-0.635c0-0.158-0.047-0.287-0.145-0.387s-0.265-0.212-0.503-0.337
		c-0.238-0.126-0.555-0.272-0.952-0.44c-0.569-0.237-0.986-0.458-1.253-0.661c-0.268-0.202-0.461-0.436-0.582-0.697
		c-0.121-0.263-0.182-0.586-0.182-0.969c0-0.657,0.254-1.165,0.764-1.524c0.509-0.359,1.23-0.539,2.166-0.539
		c0.89,0,1.757,0.193,2.599,0.582l-0.609,1.455c-0.369-0.159-0.715-0.289-1.037-0.391s-0.651-0.152-0.985-0.152
		c-0.596,0-0.893,0.161-0.893,0.483c0,0.181,0.096,0.337,0.287,0.469c0.191,0.133,0.611,0.329,1.261,0.589
		c0.576,0.233,1,0.452,1.27,0.654c0.268,0.203,0.467,0.437,0.594,0.701C419.765,118.34,419.829,118.655,419.829,119.021z"/>
	<path fill="#3A3430" d="M428.121,117.507c0,1.203-0.317,2.145-0.952,2.824c-0.635,0.679-1.52,1.018-2.652,1.018
		c-0.71,0-1.336-0.155-1.878-0.466s-0.959-0.757-1.25-1.339s-0.437-1.261-0.437-2.037c0-1.208,0.315-2.147,0.945-2.817
		c0.631-0.67,1.517-1.005,2.659-1.005c0.71,0,1.336,0.154,1.878,0.463s0.959,0.752,1.25,1.329S428.121,116.73,428.121,117.507z
		 M423.009,117.507c0,0.731,0.12,1.285,0.36,1.66c0.24,0.374,0.632,0.562,1.174,0.562c0.538,0,0.925-0.186,1.161-0.559
		c0.235-0.372,0.354-0.927,0.354-1.663c0-0.731-0.119-1.28-0.357-1.646s-0.628-0.549-1.17-0.549c-0.538,0-0.926,0.182-1.164,0.545
		C423.128,116.221,423.009,116.771,423.009,117.507z"/>
	<path fill="#3A3430" d="M433.914,113.685c0.273,0,0.501,0.02,0.682,0.06l-0.152,1.891c-0.163-0.044-0.361-0.065-0.596-0.065
		c-0.644,0-1.145,0.165-1.504,0.496c-0.359,0.33-0.539,0.793-0.539,1.389v3.763h-2.017v-7.394h1.527l0.298,1.243h0.099
		c0.229-0.414,0.539-0.748,0.93-1.002C433.031,113.812,433.456,113.685,433.914,113.685z"/>
	<path fill="#3A3430" d="M440.064,113.685c0.273,0,0.501,0.02,0.682,0.06l-0.152,1.891c-0.163-0.044-0.361-0.065-0.596-0.065
		c-0.644,0-1.145,0.165-1.504,0.496c-0.359,0.33-0.539,0.793-0.539,1.389v3.763h-2.017v-7.394h1.527l0.298,1.243h0.099
		c0.229-0.414,0.539-0.748,0.93-1.002C439.182,113.812,439.606,113.685,440.064,113.685z"/>
	<path fill="#3A3430" d="M448.808,117.507c0,1.203-0.317,2.145-0.952,2.824c-0.635,0.679-1.52,1.018-2.652,1.018
		c-0.71,0-1.336-0.155-1.878-0.466s-0.959-0.757-1.25-1.339s-0.437-1.261-0.437-2.037c0-1.208,0.315-2.147,0.945-2.817
		c0.631-0.67,1.517-1.005,2.659-1.005c0.71,0,1.336,0.154,1.878,0.463s0.959,0.752,1.25,1.329S448.808,116.73,448.808,117.507z
		 M443.695,117.507c0,0.731,0.12,1.285,0.36,1.66c0.24,0.374,0.632,0.562,1.174,0.562c0.538,0,0.925-0.186,1.161-0.559
		c0.235-0.372,0.354-0.927,0.354-1.663c0-0.731-0.119-1.28-0.357-1.646s-0.628-0.549-1.17-0.549c-0.538,0-0.926,0.182-1.164,0.545
		C443.814,116.221,443.695,116.771,443.695,117.507z"/>
	<path fill="#3A3430" d="M456.552,121.217l-0.568-2.586l-0.768-3.267h-0.046l-1.35,5.853h-2.169l-2.104-7.394h2.011l0.854,3.273
		c0.137,0.587,0.275,1.396,0.416,2.427h0.04c0.018-0.335,0.095-0.866,0.231-1.594l0.105-0.562l0.913-3.545h2.222l0.866,3.545
		c0.018,0.097,0.046,0.24,0.083,0.43s0.074,0.392,0.109,0.605s0.067,0.423,0.096,0.628s0.045,0.369,0.05,0.492h0.039
		c0.04-0.317,0.11-0.752,0.212-1.306s0.174-0.927,0.219-1.121l0.886-3.273h1.978l-2.13,7.394H456.552z"/>
	<path fill="#3A3430" d="M461.782,120.271c0-0.371,0.1-0.65,0.298-0.84s0.487-0.285,0.866-0.285c0.366,0,0.649,0.098,0.85,0.291
		c0.201,0.194,0.302,0.472,0.302,0.834c0,0.348-0.102,0.622-0.305,0.823c-0.203,0.2-0.485,0.301-0.847,0.301
		c-0.37,0-0.657-0.099-0.859-0.295C461.884,120.905,461.782,120.628,461.782,120.271z M463.76,118.01h-1.613l-0.338-6.462h2.289
		L463.76,118.01z"/>
</g>
<g>
	<path fill="#D4CCC4" d="M404.772,159.299c2.764-0.266,8.239-0.247,9.255,1.303c0.723,1.104,0.188,6.395-0.138,8.301
		c-0.299,1.75-5.197,5.093-9.117,4.627c-3.558-0.422-6.347-6.614-5.308-8.812C400.586,162.343,402.774,159.49,404.772,159.299z"/>
	<circle fill="#ACA095" cx="401.238" cy="166.371" r="0.607"/>
	<circle fill="#ACA095" cx="411.612" cy="162.233" r="0.609"/>
	<circle fill="#ACA095" cx="405.042" cy="171.328" r="0.607"/>
</g>
<g enable-background="new    ">
	<path fill="#ADA197" d="M418.883,165.68c0-0.702,0.656-1.374,1.14-1.873c1.124-1.187,2.092-2.264,3.435-3.638
		c0.078-0.078,0.156-0.108,0.234-0.108c0.343,0,0.701,0.577,0.701,0.858c0,0.187-0.155,0.358-0.312,0.562
		c-0.327,0.406-0.655,0.765-0.655,0.843c0.936-0.702,2.622-1.904,3.246-1.904c0.391,0,0.609,0.359,0.609,0.671
		c0,0.875-1.312,1.765-1.452,1.765c-0.28,0-0.421-0.625-0.78-0.625c-0.062,0-0.125,0.016-0.219,0.062
		c-0.921,0.484-2.622,1.982-4.434,3.934c-0.14,0.156-0.405,0.703-0.717,0.703C419.477,166.929,418.883,166.288,418.883,165.68z"/>
	<path fill="#ADA197" d="M424.957,165.867c0-0.078,0.047-0.219,0.141-0.359c2.607-3.809,9.038-9.272,10.35-10.489
		c0.078-0.078,0.125-0.125,0.203-0.125c0.172,0,0.577,0.983,0.577,1.155c0,0.39-0.265,0.718-0.577,1.03
		c-2.623,2.685-4.527,3.965-4.98,4.542c1.016-0.5,1.608-0.874,2.42-0.874c0.484,0,1.39,0.499,1.39,1.14
		c0,0.187-0.062,0.265-0.328,0.499c-0.749,0.641-3.138,2.514-3.138,3.31c0,0.156,0.094,0.219,0.203,0.219
		c0.312,0,1.28-0.641,2.186-1.343c0.89-0.687,0.843-0.749,0.999-0.749c0.155,0,0.312,0.249,0.312,0.468
		c0,0.438-2.949,2.935-4.027,2.935c-0.889,0-1.342-1.093-1.342-1.873c0-0.983,1.201-2.139,2.264-3.185
		c-1.218,0.516-2.592,1.687-4.762,4.34c-0.125,0.141-0.39,0.765-0.562,0.765C425.988,167.271,424.957,166.444,424.957,165.867z"/>
	<path fill="#ADA197" d="M433.249,165.664c0-1.358,3.855-4.933,4.261-5.229c0.125-0.094,0.188-0.094,0.25-0.094
		c0.125,0,1.233,0.937,1.233,1.202c0,0.047-0.016,0.141-0.108,0.234c-3.326,3.216-4.027,3.965-4.027,4.23
		c0,0.047,0.016,0.093,0.093,0.093c0.359,0,1.233-0.468,2.497-1.389c0.344-0.25,0.891-0.765,1.062-0.765
		c0.156,0,0.312,0.374,0.312,0.452c0,0.109-0.094,0.203-0.125,0.25c-0.484,0.671-3.154,2.575-3.996,2.575
		C433.811,167.225,433.249,166.444,433.249,165.664z M439.306,159.062c0-0.938,0.999-1.343,1.296-1.343
		c0.266,0,0.873,0.421,0.873,1.046c0,0.374-0.686,1.373-1.279,1.373C439.898,160.138,439.306,159.623,439.306,159.062z"/>
	<path fill="#ADA197" d="M440.852,165.648c0-0.796,0.797-1.623,1.39-2.217c0.016-0.016,0.062-0.062,0.062-0.109
		c0-0.016-0.016-0.031-0.047-0.031c-0.062,0-0.156,0.047-0.203,0.078c-1.077,0.718-2.81,2.279-4.043,3.606
		c-0.077,0.108-0.14,0.155-0.218,0.155c-0.047,0-0.109-0.031-0.188-0.062c-0.406-0.234-0.875-0.922-0.875-1.437
		c0-0.188,0.141-0.453,0.328-0.64c1.764-1.749,2.811-2.701,4.09-4.293c0.062-0.078,0.109-0.094,0.156-0.094
		c0.219,0,0.702,0.64,0.702,0.937c0,0.266-0.671,0.952-0.796,1.155c0.188-0.031,1.826-1.124,3.402-1.889
		c0.047-0.016,0.094-0.031,0.141-0.031c0.391,0,1.312,0.812,1.312,1.218c0,0.077-0.016,0.14-0.14,0.265
		c-1.062,0.968-3.451,2.95-3.451,3.56c0,0.047,0.016,0.249,0.234,0.249c0.453,0,2.279-1.154,3.466-2.325
		c0.047-0.047,0.078-0.062,0.141-0.062c0.202,0,0.358,0.234,0.358,0.437c0,0.188-0.53,0.797-1.482,1.593
		c-0.983,0.827-1.967,1.498-2.81,1.498C441.602,167.209,440.852,166.491,440.852,165.648z"/>
	<path fill="#ADA197" d="M450.158,160.231c0.484-0.218,0.874-0.265,1.154-0.265c0.453,0,0.641,0.187,1.031,0.64
		c0.328,0.391,0.499,0.843,0.499,0.952c0,0.094-0.124,0.109-0.28,0.109c-0.109,0-0.219,0.016-0.344,0.031
		c0.438,0.141,0.577,0.671,0.577,1.187c0,0.296-0.031,0.624-0.14,0.905c-0.547,1.357-2.67,3.324-4.309,3.324
		c-0.25,0-0.609-0.046-0.797-0.202c-0.437-0.359-1.607-1.546-1.607-2.545C445.943,162.714,448.41,161.044,450.158,160.231z
		 M451.391,161.902c-1.842,0.655-4.059,2.497-4.074,3.48c0,0.219,0.234,0.438,0.422,0.438c0.531,0,1.795-0.858,2.107-1.093
		c0.656-0.5,1.187-1.14,1.187-1.358c0-0.172-0.141-0.312-0.141-0.624C450.892,162.542,451.095,162.151,451.391,161.902z"/>
</g>
<g enable-background="new    ">
	<path fill="#ADA197" d="M429.361,182.243c-0.547-0.593-0.547-0.905-0.547-1.17c0-0.672,0.344-1.374,0.641-1.89
		c0.842-1.436,1.936-2.497,3.824-4.354c2.451-2.42,3.434-3.294,4.293-4.027c0.156-0.141,0.265-0.234,0.405-0.234
		c0.156,0,0.952,0.812,0.952,1.233c0,0.047-0.031,0.156-0.094,0.234c-0.608,0.812-2.622,2.122-5.026,4.526
		c0.562,0,1.015,0.25,1.343,0.562c0.406,0.375,0.702,0.703,0.702,1.093c0,0.234-0.078,0.531-0.155,0.719
		c-0.578,1.404-2.936,4.433-4.59,4.433C430.469,183.367,430.017,182.962,429.361,182.243z M430.672,181.76
		c0.25,0,0.516-0.141,1.031-0.578c0.826-0.702,2.621-2.794,2.652-3.621c0-0.172-0.155-0.25-0.296-0.25
		c-0.968,0-3.622,3.216-3.622,4.137C430.438,181.588,430.469,181.76,430.672,181.76z"/>
	<path fill="#ADA197" d="M434.967,181.666c0-1.358,3.855-4.933,4.262-5.229c0.125-0.094,0.188-0.094,0.25-0.094
		c0.125,0,1.232,0.937,1.232,1.202c0,0.047-0.016,0.141-0.108,0.234c-3.325,3.216-4.027,3.965-4.027,4.23
		c0,0.047,0.016,0.093,0.093,0.093c0.359,0,1.234-0.468,2.498-1.389c0.344-0.25,0.891-0.765,1.062-0.765
		c0.156,0,0.312,0.374,0.312,0.452c0,0.109-0.094,0.203-0.125,0.25c-0.483,0.671-3.153,2.575-3.996,2.575
		C435.529,183.227,434.967,182.446,434.967,181.666z M441.023,175.063c0-0.938,1-1.343,1.296-1.343c0.266,0,0.874,0.421,0.874,1.046
		c0,0.374-0.687,1.373-1.279,1.373C441.617,176.14,441.023,175.625,441.023,175.063z"/>
	<path fill="#ADA197" d="M438.762,181.682c0-0.702,0.655-1.374,1.139-1.873c1.125-1.187,2.092-2.264,3.435-3.638
		c0.078-0.078,0.156-0.108,0.234-0.108c0.343,0,0.702,0.577,0.702,0.858c0,0.187-0.156,0.358-0.312,0.562
		c-0.327,0.406-0.655,0.765-0.655,0.843c0.937-0.702,2.622-1.904,3.247-1.904c0.391,0,0.608,0.359,0.608,0.671
		c0,0.875-1.312,1.765-1.452,1.765c-0.28,0-0.421-0.625-0.779-0.625c-0.062,0-0.125,0.016-0.219,0.062
		c-0.922,0.484-2.623,1.982-4.434,3.934c-0.141,0.156-0.406,0.703-0.718,0.703C439.354,182.931,438.762,182.29,438.762,181.682z"/>
	<path fill="#ADA197" d="M445.601,181.26c0-0.202,0.078-0.515,0.203-0.78c0.905-2.045,3.887-4.199,5.214-4.199
		c0.188,0,0.344,0.047,0.468,0.141c0.483,0.391,0.749,0.874,0.905,1.187c0.672-0.749,4.605-5.183,5.65-6.135
		c0.109-0.109,0.188-0.156,0.281-0.156c0.062,0,0.125,0.016,0.219,0.078c0.406,0.266,0.937,0.983,0.937,1.218
		c0,0.109-0.031,0.234-0.124,0.312c-2.639,2.45-4.715,4.698-7.119,7.305c-0.687,0.734-1.17,1.296-1.17,1.608
		c0,0.094,0.047,0.141,0.172,0.141c0.374,0,0.811-0.234,2.185-1.312c0.438-0.344,1.03-0.937,1.171-0.937
		c0.172,0,0.328,0.374,0.328,0.499c0,0.438-2.951,2.981-3.98,2.981c-0.672,0-1.187-0.577-1.187-1.279
		c-0.593,0.452-1.624,1.373-2.466,1.373C446.35,183.305,445.601,181.885,445.601,181.26z M447.474,181.994
		c0.125,0,0.312-0.062,0.546-0.234c0.734-0.516,3.56-2.888,3.56-3.403c0-0.203-0.125-0.374-0.405-0.374
		c-0.453,0-3.965,2.716-3.965,3.73C447.209,181.869,447.225,181.994,447.474,181.994z"/>
</g>
<g enable-background="new    ">
	<path fill="#ADA197" d="M425.001,172.203c-2.116,0.569-4.782,1.547-4.782,2.578c0,0.319,0.623,0.711,2.862,0.871
		c0.693,0.018,1.493,0.355,1.493,1.084c0,0.587-0.391,1.014-0.96,1.014c-2.827,0-6.488,1.138-8.497,2.612
		c-0.604,0.444-1.512,1.191-1.512,1.974c0,0.622,0.498,0.889,1.28,0.889c1.583,0,4.675-0.729,5.866-1.991
		c-1.742,0-3.164-0.516-3.164-0.924c0-0.16,0.16-0.249,0.32-0.284c2.15-0.534,4.551-0.765,6.896-0.765
		c1.369,0,1.92,0.924,1.92,1.315c0,0.498-3.11,0.64-3.786,0.64h-0.427c0.054,0.089,0.09,0.16,0.09,0.267
		c0,1.244-4.427,3.822-6.578,3.822c-0.32,0-0.64-0.036-0.978-0.106c-0.889-0.178-1.618-0.871-2.169-1.689
		c-0.568-0.693-0.836-1.298-0.836-2.062c0-0.214,0.036-0.427,0.09-0.587c0.889-2.702,5.154-4.124,8.105-4.764
		c-1.812-0.498-2.133-1.404-2.133-1.938c0-1.938,6.275-4.194,9.635-4.194c1.244,0,1.76,1.297,1.76,1.724
		c0,1.209-2.861,2.524-4.426,2.524c-0.801,0-1.066-0.32-1.066-0.676C424.006,172.985,424.609,172.47,425.001,172.203z
		 M425.463,172.097c0.071,0.071,0.107,0.178,0.107,0.231c0,0.053-0.588,0.337-0.588,0.622c0,0.213,0.498,0.23,0.766,0.23
		c1.208,0,2.399-0.693,2.399-1.102c0-0.249-0.302-0.338-0.712-0.338C427.134,171.741,426.369,171.865,425.463,172.097z"/>
</g>
</svg>
