<?xml version="1.0" encoding="utf-8"?>
<!-- Generator: Adobe Illustrator 15.0.2, SVG Export Plug-In . SVG Version: 6.00 Build 0)  -->
<!DOCTYPE svg PUBLIC "-//W3C//DTD SVG 1.1//EN" "http://www.w3.org/Graphics/SVG/1.1/DTD/svg11.dtd">
<svg version="1.1" id="Layer_1" xmlns="http://www.w3.org/2000/svg" xmlns:xlink="http://www.w3.org/1999/xlink" x="0px" y="0px"
	 width="32px" height="32px" viewBox="0 0 32 32" enable-background="new 0 0 32 32" xml:space="preserve">
<g>
	<path fill="#FFFFFF" d="M27.413,22.55c0,0.946-0.765,1.711-1.71,1.711H6.298c-0.946,0-1.712-0.765-1.712-1.711V11.039
		c0-0.947,0.766-1.712,1.712-1.712h1.136v1.712c0,0.691,0.417,1.317,1.057,1.581c0.64,0.264,1.376,0.12,1.866-0.371l3.424-3.423
		c0.333-0.334,0.5-0.772,0.5-1.21c0-0.439-0.167-0.877-0.5-1.211l-3.424-3.422C9.866,2.49,9.13,2.346,8.49,2.611
		c-0.64,0.264-1.057,0.891-1.057,1.581v1.711H6.298c-2.838,0-5.137,2.301-5.137,5.136V22.55c0,2.837,2.299,5.135,5.137,5.135h19.405
		c2.837,0,5.136-2.298,5.136-5.135v-2.849h-3.426V22.55z"/>
	<path fill="#FFFFFF" d="M14.72,18.597c1.336,1.337,3.507,1.337,4.841,0c1.338-1.337,1.338-3.505,0-4.843
		c-1.334-1.335-3.505-1.335-4.841,0C13.384,15.091,13.384,17.26,14.72,18.597z"/>
	<path fill="#FFFFFF" d="M27.413,16.177h3.426C30.836,8.611,24.704,2.479,17.14,2.48v3.426
		C22.814,5.903,27.413,10.502,27.413,16.177z"/>
	<path fill="#FFFFFF" d="M22.277,16.177h3.426c0-4.729-3.834-8.561-8.563-8.56v3.423C19.978,11.04,22.277,13.339,22.277,16.177z"/>
</g>
</svg>
