<?xml version="1.0" encoding="utf-8"?>
<!-- Generator: Adobe Illustrator 15.0.2, SVG Export Plug-In . SVG Version: 6.00 Build 0)  -->
<!DOCTYPE svg PUBLIC "-//W3C//DTD SVG 1.1//EN" "http://www.w3.org/Graphics/SVG/1.1/DTD/svg11.dtd">
<svg version="1.1" id="Layer_1" xmlns="http://www.w3.org/2000/svg" xmlns:xlink="http://www.w3.org/1999/xlink" x="0px" y="0px"
	 width="64px" height="64px" viewBox="0 0 64 64" enable-background="new 0 0 64 64" xml:space="preserve">
<g>
	<path fill="#7F7F7F" d="M56.557,48.064c0,2.037-1.646,3.682-3.684,3.682H11.126c-2.034,0-3.683-1.645-3.683-3.682V23.3
		c0-2.036,1.649-3.683,3.683-3.683h2.444V23.3c0,1.487,0.899,2.836,2.273,3.404c1.377,0.566,2.963,0.254,4.015-0.799l7.365-7.366
		c0.718-0.719,1.08-1.662,1.08-2.605c0-0.943-0.362-1.886-1.08-2.604l-7.365-7.362c-1.054-1.058-2.638-1.371-4.015-0.799
		c-1.374,0.567-2.273,1.916-2.273,3.403v3.68h-2.444c-6.103,0-11.049,4.95-11.049,11.048v24.764c0,6.104,4.946,11.048,11.049,11.048
		h41.747c6.104,0,11.05-4.943,11.05-11.048v-6.13h-7.366V48.064z"/>
	<path fill="#7F7F7F" d="M29.248,39.561c2.876,2.878,7.543,2.878,10.418,0c2.874-2.876,2.874-7.542,0-10.417
		c-2.875-2.875-7.542-2.875-10.418,0C26.372,32.019,26.372,36.685,29.248,39.561z"/>
	<path fill="#7F7F7F" d="M56.553,34.353h7.37C63.92,18.078,50.729,4.886,34.456,4.889v7.368
		C46.66,12.252,56.557,22.147,56.553,34.353z"/>
	<path fill="#7F7F7F" d="M45.506,34.353h7.366c0-10.17-8.244-18.415-18.416-18.414v7.366C40.561,23.305,45.508,28.25,45.506,34.353z
		"/>
</g>
</svg>
