<?xml version="1.0" encoding="utf-8"?>
<!-- Generator: Adobe Illustrator 15.0.2, SVG Export Plug-In . SVG Version: 6.00 Build 0)  -->
<!DOCTYPE svg PUBLIC "-//W3C//DTD SVG 1.1//EN" "http://www.w3.org/Graphics/SVG/1.1/DTD/svg11.dtd">
<svg version="1.1" id="Layer_1" xmlns="http://www.w3.org/2000/svg" xmlns:xlink="http://www.w3.org/1999/xlink" x="0px" y="0px"
	 width="32px" height="32px" viewBox="0 0 32 32" enable-background="new 0 0 32 32" xml:space="preserve">
<path fill="#4E4E50" d="M15.875,0.146C7.122,0.146,0,7.267,0,16.021c0,8.754,7.122,15.875,15.875,15.875
	c8.754,0,15.875-7.121,15.875-15.875C31.75,7.267,24.629,0.146,15.875,0.146L15.875,0.146z"/>
<g>
	<path fill="#FFFFFF" d="M24.018,20.245c0,0.664-0.537,1.201-1.201,1.201H9.185c-0.664,0-1.203-0.537-1.203-1.201v-8.086
		c0-0.665,0.539-1.203,1.203-1.203h0.798v1.203c0,0.485,0.293,0.925,0.742,1.111c0.45,0.185,0.967,0.084,1.311-0.261l2.405-2.405
		c0.234-0.235,0.352-0.542,0.352-0.85c0-0.309-0.118-0.616-0.352-0.851l-2.405-2.404c-0.344-0.345-0.861-0.447-1.311-0.261
		c-0.449,0.186-0.742,0.626-0.742,1.111v1.202H9.185c-1.993,0-3.608,1.616-3.608,3.607v8.086c0,1.992,1.615,3.606,3.608,3.606
		h13.632c1.992,0,3.607-1.614,3.607-3.606v-2.002h-2.406V20.245z"/>
	<circle fill="#FFFFFF" cx="16.802" cy="15.767" r="2.405"/>
	<path fill="#FFFFFF" d="M24.018,15.768h2.406c-0.002-5.314-4.309-9.622-9.623-9.621v2.406
		C20.787,8.551,24.018,11.782,24.018,15.768z"/>
	<path fill="#FFFFFF" d="M20.41,15.768h2.406c0-3.321-2.693-6.013-6.016-6.013v2.405C18.795,12.16,20.41,13.774,20.41,15.768z"/>
</g>
</svg>
