<?xml version="1.0" encoding="utf-8"?>
<!-- Generator: Adobe Illustrator 15.0.2, SVG Export Plug-In . SVG Version: 6.00 Build 0)  -->
<!DOCTYPE svg PUBLIC "-//W3C//DTD SVG 1.1//EN" "http://www.w3.org/Graphics/SVG/1.1/DTD/svg11.dtd">
<svg version="1.1" id="Layer_1" xmlns="http://www.w3.org/2000/svg" xmlns:xlink="http://www.w3.org/1999/xlink" x="0px" y="0px"
	 width="36px" height="30px" viewBox="0 0 36 30" enable-background="new 0 0 36 30" xml:space="preserve">
<rect fill="#F52029" width="36" height="30"/>
<g>
	<path fill="#FFFFFF" d="M27.617,20.29c0,0.798-0.645,1.442-1.442,1.442H9.825c-0.796,0-1.442-0.645-1.442-1.442v-9.698
		c0-0.798,0.646-1.442,1.442-1.442h0.957v1.442c0,0.583,0.352,1.11,0.89,1.333c0.54,0.222,1.161,0.1,1.572-0.312l2.885-2.885
		c0.281-0.282,0.423-0.651,0.423-1.02c0-0.37-0.142-0.739-0.423-1.02l-2.885-2.883c-0.413-0.414-1.033-0.537-1.572-0.313
		c-0.538,0.222-0.89,0.75-0.89,1.333v1.441H9.825c-2.39,0-4.327,1.938-4.327,4.327v9.698c0,2.391,1.937,4.327,4.327,4.327h16.35
		c2.39,0,4.327-1.937,4.327-4.327v-2.4h-2.885V20.29z"/>
	<circle fill="#FFFFFF" cx="18.962" cy="14.92" r="2.885"/>
	<path fill="#FFFFFF" d="M27.615,14.92h2.887c-0.001-6.374-5.167-11.54-11.54-11.539v2.886C23.741,6.265,27.617,10.14,27.615,14.92z
		"/>
	<path fill="#FFFFFF" d="M23.289,14.92h2.885c0-3.983-3.229-7.212-7.212-7.211v2.885C21.353,10.594,23.29,12.53,23.289,14.92z"/>
</g>
</svg>
