<?xml version="1.0" encoding="utf-8"?>
<!-- Generator: Adobe Illustrator 15.0.2, SVG Export Plug-In . SVG Version: 6.00 Build 0)  -->
<!DOCTYPE svg PUBLIC "-//W3C//DTD SVG 1.1//EN" "http://www.w3.org/Graphics/SVG/1.1/DTD/svg11.dtd">
<svg version="1.1" id="Layer_1" xmlns="http://www.w3.org/2000/svg" xmlns:xlink="http://www.w3.org/1999/xlink" x="0px" y="0px"
	 width="32px" height="32px" viewBox="0 0 32 32" enable-background="new 0 0 32 32" xml:space="preserve">
<path fill="#4E4E50" d="M15.875,0.146C7.122,0.146,0,7.267,0,16.021c0,8.754,7.122,15.875,15.875,15.875
	c8.754,0,15.875-7.121,15.875-15.875C31.75,7.267,24.629,0.146,15.875,0.146L15.875,0.146z"/>
<path fill="#FFFFFF" d="M28.013,17.656c-0.049-0.503-0.317-0.781-0.807-0.829h-2.423v-5.345V9.59c0.093-0.4-0.032-0.653-0.378-0.758
	H12.299c-0.248,0.027-0.384,0.152-0.411,0.38c0.005,0.09,0.035,0.168,0.094,0.234l2.055,2.274c0.087,0.094,0.19,0.14,0.317,0.14
	h7.399v4.967h-2.471c-0.499,0.048-0.771,0.326-0.821,0.829c0,0.202,0.065,0.378,0.195,0.528l4.032,4.712
	c0.15,0.173,0.345,0.264,0.578,0.271c0.234-0.008,0.43-0.099,0.579-0.271l3.978-4.712C27.949,18.034,28.013,17.858,28.013,17.656z
	 M20.104,22.788c-0.003-0.087-0.031-0.171-0.087-0.247l-2.055-2.272c-0.088-0.084-0.197-0.127-0.322-0.129h-7.397v-4.969h2.465
	c0.499-0.049,0.773-0.325,0.822-0.828c0-0.202-0.063-0.38-0.19-0.531L9.312,9.105C9.159,8.936,8.968,8.85,8.732,8.845
	C8.496,8.85,8.305,8.936,8.151,9.105l-3.977,4.706c-0.126,0.151-0.187,0.329-0.187,0.531c0.047,0.503,0.318,0.779,0.806,0.828h2.424
	v5.347v1.893c-0.096,0.4,0.03,0.651,0.378,0.758h12.1C19.939,23.141,20.078,23.016,20.104,22.788z"/>
</svg>
