<?xml version="1.0" encoding="utf-8"?>
<!-- Generator: Adobe Illustrator 15.0.2, SVG Export Plug-In . SVG Version: 6.00 Build 0)  -->
<!DOCTYPE svg PUBLIC "-//W3C//DTD SVG 1.1//EN" "http://www.w3.org/Graphics/SVG/1.1/DTD/svg11.dtd">
<svg version="1.1" id="Layer_1" xmlns="http://www.w3.org/2000/svg" xmlns:xlink="http://www.w3.org/1999/xlink" x="0px" y="0px"
	 width="32px" height="32px" viewBox="0 0 32 32" enable-background="new 0 0 32 32" xml:space="preserve">
<path fill="#FFFFFF" d="M31.513,18.139c-0.063-0.649-0.41-1.009-1.042-1.07h-3.129v-6.902V7.722c0.12-0.517-0.041-0.844-0.487-0.979
	H11.221c-0.32,0.035-0.496,0.197-0.531,0.491c0.006,0.116,0.045,0.217,0.121,0.303l2.653,2.937c0.112,0.121,0.246,0.18,0.41,0.18
	h9.555v6.414h-3.19c-0.645,0.062-0.996,0.421-1.061,1.07c0,0.262,0.085,0.488,0.253,0.683l5.207,6.085
	c0.193,0.223,0.444,0.34,0.746,0.35c0.303-0.01,0.555-0.127,0.748-0.35l5.136-6.085C31.431,18.627,31.513,18.4,31.513,18.139z
	 M21.301,24.766c-0.004-0.111-0.041-0.221-0.112-0.318l-2.653-2.936c-0.114-0.107-0.255-0.164-0.417-0.166H8.566v-6.417h3.183
	c0.644-0.063,0.999-0.42,1.062-1.069c0-0.261-0.082-0.49-0.246-0.686L7.364,7.097C7.166,6.877,6.919,6.766,6.614,6.76
	C6.31,6.766,6.062,6.877,5.864,7.097l-5.136,6.077c-0.163,0.196-0.241,0.425-0.241,0.686c0.061,0.649,0.411,1.006,1.041,1.069h3.13
	v6.905v2.443c-0.124,0.518,0.039,0.842,0.488,0.979h15.626C21.087,25.221,21.267,25.061,21.301,24.766z"/>
</svg>
