<?xml version="1.0" encoding="utf-8"?>
<!-- Generator: Adobe Illustrator 15.0.2, SVG Export Plug-In . SVG Version: 6.00 Build 0)  -->
<!DOCTYPE svg PUBLIC "-//W3C//DTD SVG 1.1//EN" "http://www.w3.org/Graphics/SVG/1.1/DTD/svg11.dtd">
<svg version="1.1" id="Layer_1" xmlns="http://www.w3.org/2000/svg" xmlns:xlink="http://www.w3.org/1999/xlink" x="0px" y="0px"
	 width="32px" height="32px" viewBox="0 0 32 32" enable-background="new 0 0 32 32" xml:space="preserve">
<circle opacity="0.75" cx="16" cy="16" r="15.416"/>
<path fill="#EBEBEB" d="M27.603,17.6c-0.048-0.484-0.307-0.754-0.78-0.801h-2.34v-5.161V9.81c0.09-0.387-0.03-0.632-0.363-0.732
	H12.426c-0.24,0.026-0.371,0.147-0.397,0.367c0.004,0.087,0.034,0.162,0.091,0.227l1.984,2.197c0.084,0.09,0.184,0.134,0.307,0.134
	h7.146v4.797h-2.386c-0.483,0.047-0.745,0.315-0.795,0.801c0,0.195,0.064,0.365,0.19,0.51l3.895,4.552
	c0.144,0.167,0.331,0.255,0.557,0.262c0.228-0.007,0.416-0.095,0.56-0.262l3.842-4.552C27.541,17.965,27.603,17.795,27.603,17.6z
	 M19.964,22.557c-0.003-0.083-0.03-0.165-0.083-0.238l-1.984-2.195c-0.085-0.08-0.19-0.123-0.312-0.125H10.44V15.2h2.38
	c0.481-0.047,0.747-0.314,0.795-0.8c0-0.195-0.062-0.366-0.185-0.513l-3.89-4.545C9.393,9.177,9.208,9.094,8.98,9.089
	C8.753,9.094,8.567,9.177,8.419,9.342l-3.841,4.545c-0.122,0.147-0.181,0.318-0.181,0.513c0.046,0.485,0.308,0.752,0.779,0.8h2.341
	v5.164v1.828c-0.093,0.387,0.029,0.629,0.365,0.731h11.687C19.805,22.896,19.939,22.776,19.964,22.557z"/>
</svg>
