<?xml version="1.0" encoding="utf-8"?>
<!-- Generator: Adobe Illustrator 15.0.2, SVG Export Plug-In . SVG Version: 6.00 Build 0)  -->
<!DOCTYPE svg PUBLIC "-//W3C//DTD SVG 1.1//EN" "http://www.w3.org/Graphics/SVG/1.1/DTD/svg11.dtd">
<svg version="1.1" id="Layer_1" xmlns="http://www.w3.org/2000/svg" xmlns:xlink="http://www.w3.org/1999/xlink" x="0px" y="0px"
	 width="32px" height="32px" viewBox="0 0 32 32" enable-background="new 0 0 32 32" xml:space="preserve">
<path fill="#FFFFFF" d="M15.875,1.657c7.932,0,14.363,6.431,14.363,14.363s-6.432,14.363-14.363,14.363
	c-7.933,0-14.363-6.432-14.363-14.363C1.512,8.088,7.942,1.657,15.875,1.657 M15.875,0.146C7.122,0.146,0,7.267,0,16.021
	c0,8.754,7.122,15.875,15.875,15.875c8.754,0,15.875-7.121,15.875-15.875C31.75,7.267,24.629,0.146,15.875,0.146L15.875,0.146z"/>
<polygon fill="#FFFFFF" points="28,13.208 15,13.208 15,9.244 9.403,12.622 3.722,16 9.361,19.379 15,22.756 15,19.208 28,19.208 
	"/>
</svg>
