<?xml version="1.0" encoding="utf-8"?>
<!-- Generator: Adobe Illustrator 15.0.2, SVG Export Plug-In . SVG Version: 6.00 Build 0)  -->
<!DOCTYPE svg PUBLIC "-//W3C//DTD SVG 1.1//EN" "http://www.w3.org/Graphics/SVG/1.1/DTD/svg11.dtd">
<svg version="1.1" id="Layer_1" xmlns="http://www.w3.org/2000/svg" xmlns:xlink="http://www.w3.org/1999/xlink" x="0px" y="0px"
	 width="46px" height="46px" viewBox="0 0 46 46" enable-background="new 0 0 46 46" xml:space="preserve">
<path fill="none" d="M22.625,0C10.15,0,0,10.148,0,22.625C0,35.102,10.15,45.25,22.625,45.25c12.477,0,22.625-10.148,22.625-22.625
	C45.25,10.148,35.102,0,22.625,0L22.625,0z"/>
<path fill="#FFFFFF" d="M30.276,28.531c-1.017,0-1.932,0.431-2.582,1.115l-12.489-5.894c0.052-0.243,0.083-0.494,0.083-0.753
	c0-0.142-0.025-0.279-0.041-0.417l12.708-5.995c0.623,0.541,1.43,0.879,2.321,0.879c1.972,0,3.569-1.597,3.569-3.568
	s-1.598-3.569-3.569-3.569c-1.968,0-3.56,1.591-3.568,3.556l-12.793,6.036c-0.07,0.033-0.116,0.092-0.18,0.134
	c-0.574-0.393-1.267-0.626-2.015-0.626c-1.972,0-3.569,1.598-3.569,3.569c0,1.971,1.598,3.568,3.569,3.568
	c0.636,0,1.225-0.181,1.743-0.472c0.125,0.134,0.274,0.252,0.452,0.335l12.833,6.055c0.194,1.787,1.689,3.183,3.529,3.183
	c1.972,0,3.569-1.598,3.569-3.569C33.846,30.129,32.248,28.531,30.276,28.531z"/>
</svg>
