<?xml version="1.0" encoding="utf-8"?>
<!-- Generator: Adobe Illustrator 15.0.2, SVG Export Plug-In . SVG Version: 6.00 Build 0)  -->
<!DOCTYPE svg PUBLIC "-//W3C//DTD SVG 1.1//EN" "http://www.w3.org/Graphics/SVG/1.1/DTD/svg11.dtd">
<svg version="1.1" id="Layer_1" xmlns="http://www.w3.org/2000/svg" xmlns:xlink="http://www.w3.org/1999/xlink" x="0px" y="0px"
	 width="16px" height="16px" viewBox="0 0 16 16" enable-background="new 0 0 16 16" xml:space="preserve">
<g>
	<g>
		<path fill="#B6ADA5" d="M11.693,2.512c-2.535-2.535-6.646-2.535-9.182,0c-2.534,2.536-2.534,6.645,0,9.179
			c2.187,2.189,5.542,2.482,8.053,0.898l3.41,3.41L16,13.976l-3.412-3.41C14.174,8.057,13.879,4.7,11.693,2.512z M10.27,10.268
			c-1.75,1.749-4.585,1.749-6.333,0c-1.749-1.748-1.749-4.583,0-6.33c1.748-1.75,4.583-1.75,6.333,0
			C12.016,5.685,12.016,8.52,10.27,10.268z"/>
	</g>
</g>
</svg>
