<?xml version="1.0" encoding="utf-8"?>
<!-- Generator: Adobe Illustrator 15.0.2, SVG Export Plug-In . SVG Version: 6.00 Build 0)  -->
<!DOCTYPE svg PUBLIC "-//W3C//DTD SVG 1.1//EN" "http://www.w3.org/Graphics/SVG/1.1/DTD/svg11.dtd">
<svg version="1.1" id="Layer_1" xmlns="http://www.w3.org/2000/svg" xmlns:xlink="http://www.w3.org/1999/xlink" x="0px" y="0px"
	 width="24px" height="24px" viewBox="0 0 24 24" enable-background="new 0 0 24 24" xml:space="preserve">
<g>
	<g>
		<path fill="#FFFFFF" d="M15.389,6.207c-2.535-2.535-6.646-2.535-9.183,0c-2.534,2.536-2.534,6.645,0,9.18
			c2.188,2.188,5.542,2.481,8.053,0.897l3.41,3.409l2.024-2.021l-3.411-3.41C17.868,11.752,17.573,8.395,15.389,6.207z
			 M13.964,13.963c-1.75,1.75-4.584,1.75-6.332,0c-1.749-1.749-1.749-4.583,0-6.33c1.748-1.75,4.583-1.75,6.332,0
			C15.71,9.38,15.71,12.214,13.964,13.963z"/>
	</g>
</g>
</svg>
