<?xml version="1.0" encoding="utf-8"?>
<!-- Generator: Adobe Illustrator 15.0.2, SVG Export Plug-In . SVG Version: 6.00 Build 0)  -->
<!DOCTYPE svg PUBLIC "-//W3C//DTD SVG 1.1//EN" "http://www.w3.org/Graphics/SVG/1.1/DTD/svg11.dtd">
<svg version="1.1" id="Layer_1" xmlns="http://www.w3.org/2000/svg" xmlns:xlink="http://www.w3.org/1999/xlink" x="0px" y="0px"
	 width="32px" height="32px" viewBox="0 0 32 32" enable-background="new 0 0 32 32" xml:space="preserve">
<path fill="#FFFFFF" d="M15.875,1.657c7.932,0,14.363,6.431,14.363,14.363s-6.432,14.363-14.363,14.363
	c-7.933,0-14.363-6.432-14.363-14.363C1.512,8.088,7.942,1.657,15.875,1.657 M15.875,0.146C7.122,0.146,0,7.267,0,16.021
	c0,8.754,7.122,15.875,15.875,15.875c8.754,0,15.875-7.121,15.875-15.875C31.75,7.267,24.629,0.146,15.875,0.146L15.875,0.146z"/>
<path fill="#FFFFFF" d="M20.088,20.771c-0.477,0-0.922,0.115-1.324,0.31l-7.969-5.344c0.001-0.034,0.01-0.064,0.01-0.097
	l8.087-5.422c0.367,0.155,0.772,0.241,1.195,0.241c1.708,0,3.094-1.385,3.094-3.094c0-1.708-1.386-3.094-3.094-3.094
	s-3.094,1.385-3.094,3.094c0,0.258,0.041,0.505,0.102,0.745L9.57,13.154c-0.519-0.392-1.157-0.634-1.857-0.634
	c-1.708,0-3.094,1.385-3.094,3.094c0,1.708,1.386,3.094,3.094,3.094c0.653,0,1.256-0.204,1.755-0.549l7.587,5.086
	c-0.039,0.202-0.062,0.405-0.062,0.619c0,1.708,1.386,3.094,3.094,3.094s3.095-1.386,3.095-3.094S21.796,20.771,20.088,20.771z"/>
</svg>
