<?xml version="1.0" encoding="utf-8"?>
<!-- Generator: Adobe Illustrator 15.0.2, SVG Export Plug-In . SVG Version: 6.00 Build 0)  -->
<!DOCTYPE svg PUBLIC "-//W3C//DTD SVG 1.1//EN" "http://www.w3.org/Graphics/SVG/1.1/DTD/svg11.dtd">
<svg version="1.1" id="Layer_1" xmlns="http://www.w3.org/2000/svg" xmlns:xlink="http://www.w3.org/1999/xlink" x="0px" y="0px"
	 width="64px" height="64px" viewBox="0 0 64 64" enable-background="new 0 0 64 64" xml:space="preserve">
<g>
	<path fill="#7F7F7F" d="M21.578,12.252H11.126c-6.103,0-11.049,4.95-11.049,11.048v24.764c0,6.104,4.946,11.048,11.049,11.048
		h41.747c6.104,0,11.05-4.943,11.05-11.048v-6.13h-7.366v6.13c0,2.037-1.646,3.682-3.684,3.682H11.126
		c-2.034,0-3.683-1.645-3.683-3.682V23.3c0-2.036,1.649-3.683,3.683-3.683h10.452V12.252z"/>
</g>
<path fill="#7F7F7F" d="M41.99,14.88L39.491,3.97L64,21.168l-24.509,17.48l2.685-12.301c0,0-18.402,0.091-18.402,17.107
	c0,0-1.849,0-2.775,0C20.998,43.455,21.089,14.88,41.99,14.88z"/>
</svg>
