<?xml version="1.0" encoding="utf-8"?>
<!-- Generator: Adobe Illustrator 15.0.2, SVG Export Plug-In . SVG Version: 6.00 Build 0)  -->
<!DOCTYPE svg PUBLIC "-//W3C//DTD SVG 1.1//EN" "http://www.w3.org/Graphics/SVG/1.1/DTD/svg11.dtd">
<svg version="1.1" id="Layer_1" xmlns="http://www.w3.org/2000/svg" xmlns:xlink="http://www.w3.org/1999/xlink" x="0px" y="0px"
	 width="32px" height="32px" viewBox="0 0 32 32" enable-background="new 0 0 32 32" xml:space="preserve">
<path fill="#FFFFFF" d="M15.875,1.657c7.932,0,14.363,6.431,14.363,14.363s-6.432,14.363-14.363,14.363
	c-7.933,0-14.363-6.432-14.363-14.363C1.512,8.088,7.942,1.657,15.875,1.657 M15.875,0.146C7.122,0.146,0,7.267,0,16.021
	c0,8.754,7.122,15.875,15.875,15.875c8.754,0,15.875-7.121,15.875-15.875C31.75,7.267,24.629,0.146,15.875,0.146L15.875,0.146z"/>
<g>
	<circle fill="#FFFFFF" cx="16.779" cy="16.779" r="2.339"/>
	<path fill="#FFFFFF" d="M6.646,21.456c0,0.862,0.698,1.56,1.56,1.56h15.591c0.86,0,1.559-0.695,1.559-1.56v-9.354
		c0-0.862-0.697-1.559-1.559-1.559h-9.356c0-0.86-0.698-1.559-1.56-1.559h-1.559c-0.86,0-1.558,0.699-1.559,1.559H8.205
		c-0.862,0-1.56,0.697-1.56,1.559l0,0L6.646,21.456L6.646,21.456z M16.779,20.677c-2.152,0-3.897-1.743-3.897-3.897
		c0-2.153,1.745-3.898,3.897-3.898c2.154,0,3.898,1.745,3.898,3.898C20.678,18.934,18.934,20.677,16.779,20.677z M22.626,15.22
		c-0.647,0-1.169-0.523-1.169-1.169c0-0.644,0.521-1.169,1.169-1.169c0.646,0,1.17,0.525,1.17,1.169
		C23.796,14.697,23.271,15.22,22.626,15.22z"/>
</g>
</svg>
