<?xml version="1.0" encoding="utf-8"?>
<!-- Generator: Adobe Illustrator 15.0.2, SVG Export Plug-In . SVG Version: 6.00 Build 0)  -->
<!DOCTYPE svg PUBLIC "-//W3C//DTD SVG 1.1//EN" "http://www.w3.org/Graphics/SVG/1.1/DTD/svg11.dtd">
<svg version="1.1" id="Layer_1" xmlns="http://www.w3.org/2000/svg" xmlns:xlink="http://www.w3.org/1999/xlink" x="0px" y="0px"
	 width="140px" height="46px" viewBox="0 0 140 46" enable-background="new 0 0 140 46" xml:space="preserve">
<g id="up" display="none">
	<rect display="inline" fill="#FFFFFF" width="140" height="46"/>
	<g display="inline">
		<path fill="#FFFFFF" d="M35.498,36.947c-0.347,0-0.698-0.014-1.048-0.036c-3.309-0.229-6.477-1.599-8.923-3.841
			c-5.983-5.49-6.387-14.824-0.899-20.807c3.019-3.291,7.397-5.053,11.89-4.738c3.312,0.23,6.479,1.596,8.926,3.844
			c2.896,2.654,4.59,6.284,4.758,10.215c0.172,3.932-1.203,7.695-3.869,10.596C43.555,35.208,39.605,36.947,35.498,36.947z"/>
		<path opacity="0.75" fill="#D9D9D9" enable-background="new    " d="M51.031,22.212c0,8.577-6.955,15.529-15.532,15.529
			s-15.53-6.952-15.53-15.529H51.031z"/>
		<path fill="#FF1A15" stroke="#CC1511" stroke-width="1.6205" stroke-miterlimit="10" d="M42.035,15.077
			c3.951,3.617,4.217,9.75,0.592,13.696c-3.613,3.938-9.748,4.207-13.694,0.586c-3.942-3.619-4.208-9.75-0.591-13.693
			C31.964,11.718,38.096,11.456,42.035,15.077z"/>
		<circle fill="#FFFFFF" cx="30.279" cy="16.004" r="3.664"/>
		<circle fill="#CC1511" cx="40.436" cy="28.988" r="1.992"/>
		<path fill="#A8A8A8" d="M35.498,37.758c-0.365,0-0.734-0.014-1.102-0.037c-3.488-0.244-6.832-1.683-9.417-4.053
			c-6.312-5.793-6.738-15.641-0.948-21.952c3.181-3.466,7.806-5.33,12.543-4.999c3.49,0.243,6.836,1.683,9.417,4.055
			c3.059,2.803,4.841,6.631,5.018,10.777c0.183,4.146-1.269,8.117-4.082,11.178C43.998,35.924,39.832,37.758,35.498,37.758z
			 M35.489,8.3c-3.893,0-7.634,1.645-10.264,4.512c-5.185,5.652-4.805,14.473,0.85,19.661c2.315,2.123,5.31,3.412,8.432,3.629
			c4.22,0.289,8.38-1.361,11.226-4.471c2.521-2.742,3.819-6.299,3.658-10.013c-0.158-3.714-1.756-7.142-4.494-9.653
			c-2.312-2.125-5.309-3.415-8.436-3.633C36.136,8.311,35.812,8.3,35.489,8.3z"/>
	</g>
	<g display="inline">
		<path fill="#353535" d="M67.465,25.505c-1.214,1.604-3.25,2.489-5.245,2.47c-3.538-0.021-6.582-2.964-6.5-6.851
			c0-3.127,2.345-5.986,5.492-6.582c0.309-0.042,0.699-0.062,1.069-0.062c1.79,0,3.703,0.617,4.834,1.934
			c0.617,0.72-0.432,1.707-1.07,0.967c-1.152-1.337-3.065-1.81-4.607-1.419c-2.263,0.535-4.237,2.53-4.237,5.225
			c0.042,2.9,2.386,5.327,5.04,5.389c1.522,0.021,3.106-0.639,4.011-1.852v-2.736H62.55c-0.967,0-0.864-1.358,0-1.358h4.36
			c0.597,0,0.782,0.309,0.782,0.761v3.435C67.691,25.052,67.65,25.318,67.465,25.505z"/>
		<path fill="#353535" d="M69.832,21.021c0-3.229,2.18-5.986,5.451-6.5c0.76-0.103,1.459-0.082,2.18,0
			c3.168,0.494,5.615,3.126,5.615,6.5c0,4.278-3.086,6.995-6.582,6.995C72.793,28.016,69.832,25.381,69.832,21.021z M71.375,21.083
			c0,3.374,2.221,5.513,5.121,5.513c2.777,0,5.061-2.058,5.061-5.513c0-2.653-1.748-4.772-4.279-5.183
			c-0.616-0.083-1.213-0.083-1.789,0C73,16.29,71.375,18.285,71.375,21.083z"/>
		<path fill="#353535" d="M92.357,27.788c-0.558,0-0.781-0.269-0.781-0.761V15.221c0-0.967,1.521-0.967,1.521,0v11.21h7.692
			c1.049,0,1.049,1.356,0,1.356H92.357z"/>
		<path fill="#353535" d="M103.279,14.974c0-1.028,1.543-1.008,1.543,0v12.299c0,0.947-1.543,0.987-1.543,0V14.974z"/>
		<path fill="#353535" d="M106.551,15.529c-0.391-0.885,1.029-1.46,1.439-0.576l5.287,10.531l5.162-10.49
			c0.33-0.843,1.729-0.391,1.42,0.535l-5.924,11.991c-0.289,0.535-1.029,0.658-1.379-0.062L106.551,15.529z"/>
		<path fill="#353535" d="M123.09,26.432h8.125c0.863,0,0.986,1.356,0,1.356h-8.66c-0.576,0-0.945-0.411-0.945-0.905V15.591
			c0-0.473,0.369-0.885,0.945-0.885h8.68c0.886,0,0.845,1.316-0.02,1.316h-8.125v4.628h7.734c0.822,0,0.863,1.316,0,1.316h-7.734
			V26.432L123.09,26.432z"/>
	</g>
</g>
<g id="hover" display="none">
	<g display="inline">
		<path fill="#FF1A15" d="M12.463,13.307L9.49,10.333c-6.564,6.566-6.564,17.208,0.001,23.771l2.973-2.973
			C7.538,26.212,7.537,18.229,12.463,13.307z"/>
		<path fill="#FF1A15" d="M16.917,17.762l-2.97-2.971c-4.103,4.103-4.104,10.752,0.001,14.855l2.971-2.973
			C14.457,24.214,14.456,20.223,16.917,17.762z"/>
	</g>
</g>
<g id="on_air">
	<g>
		<path fill="#FFFFFF" d="M35.498,36.947c-0.347,0-0.698-0.014-1.048-0.036c-3.309-0.229-6.477-1.599-8.923-3.841
			c-5.983-5.49-6.387-14.824-0.899-20.807c3.019-3.291,7.397-5.053,11.89-4.738c3.312,0.23,6.479,1.596,8.926,3.844
			c2.896,2.654,4.59,6.284,4.758,10.215c0.172,3.932-1.203,7.695-3.869,10.596C43.555,35.208,39.605,36.947,35.498,36.947z"/>
		<path opacity="0.75" fill="#D9D9D9" enable-background="new    " d="M51.031,22.212c0,8.577-6.955,15.529-15.532,15.529
			s-15.53-6.952-15.53-15.529H51.031z"/>
		<path fill="#FF1A15" stroke="#CC1511" stroke-width="1.6205" stroke-miterlimit="10" d="M42.035,15.077
			c3.951,3.617,4.217,9.75,0.592,13.696c-3.613,3.938-9.748,4.207-13.694,0.586c-3.942-3.619-4.208-9.75-0.591-13.693
			C31.964,11.718,38.096,11.456,42.035,15.077z"/>
		<circle fill="#FFFFFF" cx="30.279" cy="16.004" r="3.664"/>
		<circle fill="#CC1511" cx="40.436" cy="28.988" r="1.992"/>
		<path fill="#A8A8A8" d="M35.498,37.758c-0.365,0-0.734-0.014-1.102-0.037c-3.488-0.244-6.832-1.683-9.417-4.053
			c-6.312-5.793-6.738-15.641-0.948-21.952c3.181-3.466,7.806-5.33,12.543-4.999c3.49,0.243,6.836,1.683,9.417,4.055
			c3.059,2.803,4.841,6.631,5.018,10.777c0.183,4.146-1.269,8.117-4.082,11.178C43.998,35.924,39.832,37.758,35.498,37.758z
			 M35.489,8.3c-3.893,0-7.634,1.645-10.264,4.512c-5.185,5.652-4.805,14.473,0.85,19.661c2.315,2.123,5.31,3.412,8.432,3.629
			c4.22,0.289,8.38-1.361,11.226-4.471c2.521-2.742,3.819-6.299,3.658-10.013c-0.158-3.714-1.756-7.142-4.494-9.653
			c-2.312-2.125-5.309-3.415-8.436-3.633C36.136,8.311,35.812,8.3,35.489,8.3z"/>
	</g>
	<g>
		<path fill="#FF1A15" d="M12.463,13.307L9.49,10.333c-6.564,6.566-6.564,17.208,0.001,23.771l2.973-2.973
			C7.538,26.212,7.537,18.229,12.463,13.307z"/>
		<path fill="#FF1A15" d="M16.917,17.762l-2.97-2.971c-4.103,4.103-4.104,10.752,0.001,14.855l2.971-2.973
			C14.457,24.214,14.456,20.223,16.917,17.762z"/>
	</g>
</g>
<g>
	<path fill="#353535" d="M57.948,24.516c0.536,1.711,2.824,2.082,4.473,2.082c1.752,0,4.474-0.535,4.474-2.617
		c0-1.794-2.165-1.938-4.432-2.124c-2.845-0.227-5.896-0.495-5.896-3.566c0-2.721,3.134-3.937,5.648-3.937
		c2.165,0,4.865,0.515,5.731,2.865c0.309,0.825-1.092,1.196-1.402,0.495c-0.618-1.566-2.824-1.834-4.309-1.834
		c-1.381,0-4.061,0.557-4.061,2.433c0,1.793,2.062,1.979,4.453,2.165c2.824,0.247,5.854,0.392,5.854,3.483
		c0,3.154-3.525,4.123-6.061,4.123c-2.103,0-5.318-0.721-5.999-3.195C56.175,23.98,57.783,23.67,57.948,24.516z"/>
	<path fill="#353535" d="M80.023,14.642c1.01,0,1.01,1.422,0,1.422h-4.598c0,3.71,0.021,7.483,0.021,11.194
		c0,0.516-0.434,0.762-0.783,0.762c-0.352,0-0.742-0.246-0.742-0.762V16.064h-4.577c-0.969,0-0.969-1.422,0-1.422H80.023z"/>
	<path fill="#353535" d="M80.112,20.991c0-3.236,2.185-5.999,5.463-6.514c0.762-0.103,1.463-0.083,2.185,0
		c3.175,0.495,5.628,3.133,5.628,6.514c0,4.289-3.092,7.009-6.597,7.009C83.081,28,80.112,25.361,80.112,20.991z M81.657,21.053
		c0,3.381,2.227,5.525,5.134,5.525c2.782,0,5.071-2.062,5.071-5.525c0-2.66-1.752-4.783-4.288-5.195
		c-0.618-0.083-1.216-0.083-1.794,0C83.286,16.25,81.657,18.249,81.657,21.053z"/>
	<path fill="#353535" d="M96.752,23.896v3.32c0,0.947-1.484,0.928-1.484,0.02V15.363c0-0.433,0.352-0.721,0.764-0.721h4.473
		c3.566,0,5.236,2.371,5.236,4.741c0,2.474-1.689,4.514-5.297,4.514H96.752z M96.752,22.558h3.691c2.74,0,3.875-1.608,3.834-3.175
		c-0.021-1.69-1.361-3.401-3.752-3.401h-3.773V22.558z"/>
</g>
</svg>
