<?xml version="1.0" encoding="utf-8"?>
<!-- Generator: Adobe Illustrator 15.0.2, SVG Export Plug-In . SVG Version: 6.00 Build 0)  -->
<!DOCTYPE svg PUBLIC "-//W3C//DTD SVG 1.1//EN" "http://www.w3.org/Graphics/SVG/1.1/DTD/svg11.dtd">
<svg version="1.1" id="Layer_1" xmlns="http://www.w3.org/2000/svg" xmlns:xlink="http://www.w3.org/1999/xlink" x="0px" y="0px"
	 width="34px" height="32px" viewBox="0 0 34 32" enable-background="new 0 0 34 32" xml:space="preserve">
<g>
	<g>
		<path fill="#F52029" d="M33.669,30.691c0,0.693-0.562,1.256-1.256,1.256H1.586c-0.693,0-1.255-0.562-1.255-1.256V1.256
			C0.331,0.562,0.893,0,1.586,0h30.827c0.694,0,1.256,0.562,1.256,1.256V30.691z"/>
		<path fill="#E01D25" d="M33.669,30.691c0,0.693-0.562,1.256-1.256,1.256H17.006V0h15.407c0.694,0,1.256,0.562,1.256,1.256V30.691z
			"/>
	</g>
	
		<path fill="#FFFFFF" stroke="#BF1721" stroke-width="1.0634" stroke-linecap="round" stroke-linejoin="round" stroke-miterlimit="10" d="
		M12.44,4.427c0.429-0.429,1.125-0.429,1.554,0l13.241,10.256c0.429,0.429,0.429,1.124,0,1.553L13.994,26.491
		c-0.429,0.429-1.125,0.429-1.554,0V4.427z"/>
</g>
</svg>
