<?xml version="1.0" encoding="utf-8"?>
<!-- Generator: Adobe Illustrator 15.0.2, SVG Export Plug-In . SVG Version: 6.00 Build 0)  -->
<!DOCTYPE svg PUBLIC "-//W3C//DTD SVG 1.1//EN" "http://www.w3.org/Graphics/SVG/1.1/DTD/svg11.dtd">
<svg version="1.1" id="Layer_1" xmlns="http://www.w3.org/2000/svg" xmlns:xlink="http://www.w3.org/1999/xlink" x="0px" y="0px"
	 width="24px" height="24px" viewBox="0 0 24 24" enable-background="new 0 0 24 24" xml:space="preserve">
<path fill="#999999" d="M22.777,11.896c0,5.975-4.845,10.819-10.819,10.819c-5.975,0-10.819-4.845-10.819-10.819
	c0-5.976,4.844-10.819,10.819-10.819C17.933,1.077,22.777,5.92,22.777,11.896 M23.916,11.896c0-6.593-5.364-11.958-11.958-11.958
	S0,5.302,0,11.896c0,6.594,5.364,11.958,11.958,11.958C18.551,23.854,23.916,18.489,23.916,11.896L23.916,11.896z"/>
<polygon fill="#999999" points="15,21 15,12 17.062,12 14.518,7.402 11.974,2.932 9.428,7.466 6.884,12 9,12 9,21 "/>
</svg>
