<?xml version="1.0" encoding="utf-8"?>
<!-- Generator: Adobe Illustrator 15.0.2, SVG Export Plug-In . SVG Version: 6.00 Build 0)  -->
<!DOCTYPE svg PUBLIC "-//W3C//DTD SVG 1.1//EN" "http://www.w3.org/Graphics/SVG/1.1/DTD/svg11.dtd">
<svg version="1.1" id="Layer_1" xmlns="http://www.w3.org/2000/svg" xmlns:xlink="http://www.w3.org/1999/xlink" x="0px" y="0px"
	 width="54px" height="54px" viewBox="0 0 54 54" enable-background="new 0 0 54 54" xml:space="preserve">
<g>
	<path fill="#3A5366" d="M27,0.014C12.097,0.014,0.014,12.096,0.014,27c0,14.904,12.083,26.986,26.985,26.986
		c14.905,0,26.987-12.082,26.987-26.986C53.986,12.096,41.904,0.014,27,0.014z M37.572,42.288c-1.438,0.675-2.742,1.149-3.91,1.427
		c-1.168,0.27-2.43,0.407-3.785,0.407c-1.539,0-2.449-0.192-3.631-0.581c-1.184-0.393-2.192-0.948-3.028-1.662
		c-0.836-0.722-1.414-1.488-1.738-2.298c-0.322-0.81-0.484-1.985-0.484-3.528V24.239h-4.575v-4.771
		c1.322-0.427,2.857-1.045,3.799-1.848c0.946-0.804,1.701-1.766,2.273-2.892c0.571-1.124,0.965-2.558,1.179-4.293h4.792v7.791h7.787
		v6.012h-7.787v8.638c0,1.955-0.026,3.08,0.183,3.636c0.205,0.551,0.721,1.123,1.28,1.455c0.748,0.445,1.599,0.668,2.558,0.668
		c1.707,0,3.401-0.553,5.09-1.662v5.315H37.572z"/>
</g>
</svg>
