<?xml version="1.0" encoding="utf-8"?>
<!-- Generator: Adobe Illustrator 15.0.2, SVG Export Plug-In . SVG Version: 6.00 Build 0)  -->
<!DOCTYPE svg PUBLIC "-//W3C//DTD SVG 1.1//EN" "http://www.w3.org/Graphics/SVG/1.1/DTD/svg11.dtd">
<svg version="1.1" id="Layer_1" xmlns="http://www.w3.org/2000/svg" xmlns:xlink="http://www.w3.org/1999/xlink" x="0px" y="0px"
	 width="32px" height="32px" viewBox="0 0 32 32" enable-background="new 0 0 32 32" xml:space="preserve">
<path fill="#999999" d="M15.875,1.657c7.932,0,14.363,6.431,14.363,14.363c0,7.932-6.432,14.363-14.363,14.363
	c-7.933,0-14.363-6.432-14.363-14.363C1.512,8.088,7.942,1.657,15.875,1.657 M15.875,0.146C7.122,0.146,0,7.267,0,16.021
	c0,8.754,7.122,15.875,15.875,15.875c8.754,0,15.875-7.121,15.875-15.875C31.75,7.267,24.629,0.146,15.875,0.146L15.875,0.146z"/>
<path fill="#999999" d="M21.981,25.947c-0.949,0.446-1.811,0.761-2.582,0.943c-0.771,0.178-1.604,0.269-2.499,0.269
	c-1.017,0-1.618-0.127-2.398-0.383c-0.782-0.26-1.448-0.627-2-1.099c-0.552-0.477-0.934-0.982-1.148-1.518
	c-0.212-0.534-0.319-1.312-0.319-2.33v-7.802H8.013v-3.151c0.874-0.281,1.887-0.69,2.51-1.22c0.625-0.531,1.123-1.167,1.501-1.91
	c0.377-0.742,0.637-1.689,0.778-2.835h3.165v5.145h5.142v3.971h-5.142v5.706c0,1.29-0.017,2.034,0.121,2.401
	c0.136,0.363,0.476,0.741,0.845,0.96c0.494,0.295,1.057,0.441,1.689,0.441c1.127,0,2.248-0.364,3.363-1.098v3.51H21.981z"/>
</svg>
