<?xml version="1.0" encoding="utf-8"?>
<!-- Generator: Adobe Illustrator 15.0.2, SVG Export Plug-In . SVG Version: 6.00 Build 0)  -->
<!DOCTYPE svg PUBLIC "-//W3C//DTD SVG 1.1//EN" "http://www.w3.org/Graphics/SVG/1.1/DTD/svg11.dtd">
<svg version="1.1" id="Layer_1" xmlns="http://www.w3.org/2000/svg" xmlns:xlink="http://www.w3.org/1999/xlink" x="0px" y="0px"
	 width="46px" height="46px" viewBox="-7 -7 46 46" enable-background="new -7 -7 46 46" xml:space="preserve">
<path fill="none" d="M15.875-6.854C3.263-6.854-7,3.407-7,16.021c0,12.614,10.263,22.875,22.875,22.875
	c12.613,0,22.875-10.262,22.875-22.875C38.75,3.407,28.488-6.854,15.875-6.854L15.875-6.854z"/>
<path fill="#FFFFFF" d="M27.931,16.58C25.373,26.949,8.218,31.348,0.324,20.582c3.022,2.889,8.288,3.143,11.626-0.31
	c-1.957,0.286-3.381-1.636-0.978-2.673c-2.162,0.233-3.365-0.919-3.857-1.898c0.507-0.53,1.066-0.778,2.148-0.85
	c-2.369-0.56-3.242-1.718-3.511-3.125c0.657-0.159,1.479-0.292,1.93-0.233c-2.077-1.085-2.798-2.718-2.681-3.945
	c3.706,1.376,6.067,2.482,8.042,3.543c0.704,0.375,1.487,1.051,2.374,1.91c1.129-2.981,2.523-6.058,4.907-7.583
	c-0.038,0.347-0.226,0.668-0.469,0.933c0.677-0.616,1.555-1.04,2.449-1.163c-0.103,0.673-1.067,1.051-1.651,1.268
	c0.441-0.137,2.791-1.186,3.043-0.588c0.304,0.678-1.62,0.992-1.949,1.109c-0.243,0.083-0.489,0.172-0.729,0.271
	c2.977-0.297,5.814,2.161,6.646,5.208c0.062,0.22,0.12,0.463,0.172,0.719c1.091,0.408,3.059-0.02,3.697-0.409
	c-0.458,1.087-1.655,1.888-3.411,2.034c0.847,0.353,2.445,0.546,3.552,0.36C30.97,15.915,29.847,16.597,27.931,16.58z"/>
</svg>
