<?xml version="1.0" encoding="utf-8"?>
<!-- Generator: Adobe Illustrator 15.0.2, SVG Export Plug-In . SVG Version: 6.00 Build 0)  -->
<!DOCTYPE svg PUBLIC "-//W3C//DTD SVG 1.1//EN" "http://www.w3.org/Graphics/SVG/1.1/DTD/svg11.dtd">
<svg version="1.1" id="Layer_1" xmlns="http://www.w3.org/2000/svg" xmlns:xlink="http://www.w3.org/1999/xlink" x="0px" y="0px"
	 width="32px" height="32px" viewBox="0 0 32 32" enable-background="new 0 0 32 32" xml:space="preserve">
<path fill="#FFFFFF" d="M15.875,1.657c7.932,0,14.363,6.431,14.363,14.363s-6.432,14.363-14.363,14.363
	c-7.933,0-14.363-6.432-14.363-14.363C1.512,8.088,7.942,1.657,15.875,1.657 M15.875,0.146C7.122,0.146,0,7.267,0,16.021
	c0,8.754,7.122,15.875,15.875,15.875c8.754,0,15.875-7.121,15.875-15.875C31.75,7.267,24.629,0.146,15.875,0.146L15.875,0.146z"/>
<path fill="#FFFFFF" d="M23.966,16.362c-1.769,7.171-13.635,10.214-19.095,2.768c2.091,1.998,5.733,2.173,8.042-0.215
	c-1.354,0.198-2.339-1.131-0.676-1.849c-1.496,0.162-2.328-0.635-2.668-1.312c0.35-0.367,0.737-0.538,1.485-0.588
	c-1.638-0.387-2.242-1.188-2.428-2.161c0.455-0.11,1.023-0.202,1.335-0.161c-1.437-0.751-1.935-1.88-1.854-2.729
	c2.563,0.952,4.196,1.717,5.562,2.451c0.487,0.259,1.029,0.727,1.642,1.321c0.781-2.062,1.746-4.19,3.394-5.245
	c-0.025,0.24-0.155,0.462-0.323,0.645c0.468-0.426,1.075-0.719,1.694-0.804c-0.072,0.465-0.738,0.727-1.143,0.877
	c0.305-0.095,1.93-0.82,2.105-0.407c0.21,0.469-1.12,0.686-1.348,0.767c-0.168,0.057-0.338,0.119-0.504,0.187
	c2.059-0.205,4.021,1.495,4.597,3.603c0.043,0.152,0.083,0.32,0.12,0.497c0.753,0.282,2.115-0.014,2.556-0.283
	c-0.317,0.752-1.144,1.306-2.36,1.407c0.586,0.244,1.693,0.378,2.457,0.249C26.068,15.902,25.292,16.373,23.966,16.362z"/>
</svg>
