<?xml version="1.0" encoding="utf-8"?>
<!-- Generator: Adobe Illustrator 15.0.2, SVG Export Plug-In . SVG Version: 6.00 Build 0)  -->
<!DOCTYPE svg PUBLIC "-//W3C//DTD SVG 1.1//EN" "http://www.w3.org/Graphics/SVG/1.1/DTD/svg11.dtd">
<svg version="1.1" id="Layer_1" xmlns="http://www.w3.org/2000/svg" xmlns:xlink="http://www.w3.org/1999/xlink" x="0px" y="0px"
	 width="54px" height="54px" viewBox="-11 -11 54 54" enable-background="new -11 -11 54 54" xml:space="preserve">
<path fill="#FFFFFF" d="M16-10.738C1.233-10.738-10.737,1.234-10.737,16c0,14.766,11.971,26.739,26.737,26.739
	c14.766,0,26.736-11.974,26.736-26.739C42.736,1.234,30.768-10.738,16-10.738z M28.501,16.608
	C25.822,27.473,7.846,32.082-0.426,20.802c3.167,3.026,8.685,3.292,12.183-0.325c-2.052,0.3-3.543-1.714-1.024-2.801
	c-2.266,0.246-3.526-0.963-4.042-1.99c0.53-0.555,1.117-0.815,2.251-0.89c-2.482-0.587-3.397-1.8-3.679-3.274
	c0.688-0.166,1.549-0.305,2.021-0.244C5.107,10.14,4.354,8.43,4.477,7.145c3.883,1.441,6.356,2.601,8.426,3.712
	c0.737,0.393,1.56,1.102,2.487,2.002c1.183-3.124,2.645-6.348,5.142-7.946c-0.039,0.363-0.235,0.699-0.49,0.977
	c0.709-0.646,1.629-1.089,2.567-1.218C22.499,5.376,21.49,5.773,20.877,6c0.462-0.144,2.924-1.242,3.188-0.616
	c0.317,0.71-1.696,1.039-2.043,1.162c-0.254,0.086-0.512,0.18-0.763,0.284c3.119-0.311,6.092,2.264,6.964,5.458
	c0.065,0.23,0.127,0.485,0.181,0.753c1.143,0.428,3.205-0.021,3.874-0.428c-0.479,1.139-1.733,1.978-3.575,2.131
	c0.888,0.37,2.564,0.573,3.723,0.377C31.686,15.912,30.51,16.625,28.501,16.608z"/>
</svg>
