<?xml version="1.0" encoding="utf-8"?>
<!-- Generator: Adobe Illustrator 15.0.2, SVG Export Plug-In . SVG Version: 6.00 Build 0)  -->
<!DOCTYPE svg PUBLIC "-//W3C//DTD SVG 1.1//EN" "http://www.w3.org/Graphics/SVG/1.1/DTD/svg11.dtd">
<svg version="1.1" id="Layer_1" xmlns="http://www.w3.org/2000/svg" xmlns:xlink="http://www.w3.org/1999/xlink" x="0px" y="0px"
	 width="54px" height="54px" viewBox="0 0 54 54" enable-background="new 0 0 54 54" xml:space="preserve">
<path fill="#FFFFFF" d="M27-0.008C12.083-0.008-0.008,12.084-0.008,27S12.083,54.008,27,54.008
	c14.918,0,27.008-12.092,27.008-27.008S41.918-0.008,27-0.008z M38.576,27.605c-2.488,10.086-19.177,14.365-26.855,3.894
	c2.94,2.81,8.062,3.056,11.31-0.304c-1.904,0.279-3.29-1.59-0.95-2.6c-2.104,0.229-3.274-0.891-3.754-1.842
	c0.493-0.517,1.037-0.757,2.09-0.826c-2.304-0.545-3.154-1.672-3.415-3.04c0.64-0.153,1.439-0.284,1.877-0.226
	c-2.019-1.056-2.72-2.644-2.608-3.838c3.605,1.34,5.902,2.416,7.823,3.447c0.685,0.365,1.448,1.023,2.31,1.858
	c1.097-2.901,2.454-5.893,4.773-7.376c-0.038,0.337-0.219,0.649-0.456,0.906c0.657-0.599,1.514-1.011,2.383-1.13
	c-0.101,0.653-1.039,1.021-1.607,1.234c0.43-0.134,2.715-1.153,2.963-0.572c0.295,0.66-1.576,0.965-1.895,1.079
	c-0.236,0.079-0.476,0.167-0.709,0.262c2.896-0.288,5.658,2.102,6.465,5.067c0.059,0.214,0.115,0.45,0.168,0.699
	c1.059,0.395,2.977-0.02,3.594-0.399c-0.447,1.058-1.607,1.837-3.32,1.979c0.824,0.344,2.381,0.532,3.455,0.35
	C41.535,26.959,40.439,27.621,38.576,27.605z"/>
</svg>
