<?xml version="1.0" encoding="utf-8"?>
<!-- Generator: Adobe Illustrator 15.0.2, SVG Export Plug-In . SVG Version: 6.00 Build 0)  -->
<!DOCTYPE svg PUBLIC "-//W3C//DTD SVG 1.1//EN" "http://www.w3.org/Graphics/SVG/1.1/DTD/svg11.dtd">
<svg version="1.1" id="Layer_1" xmlns="http://www.w3.org/2000/svg" xmlns:xlink="http://www.w3.org/1999/xlink" x="0px" y="0px"
	 width="32px" height="32px" viewBox="0 0 32 32" enable-background="new 0 0 32 32" xml:space="preserve">
<polygon fill="#FFFFFF" points="0,32.001 0,0 32,0 "/>
<circle fill="#808285" cx="11.384" cy="11.097" r="4.52"/>
<path fill="#231F20" d="M15.021,5.34c0,0-5.087-5.573-10-0.659C0.106,9.594,5.62,14.74,5.62,14.74
	c-0.339,0.851-0.203,1.506,1.507,3.215c2.314,2.314,3.845,0.427,3.845,0.427l-4.701-4.699c0,0-4.029-3.662,0.03-7.72
	c4.059-4.059,7.661,0.029,7.661,0.029l4.7,4.7c0,0,1.888-1.531-0.427-3.846C16.527,5.137,15.871,5,15.021,5.34"/>
</svg>
