<?xml version="1.0" encoding="utf-8"?>
<!-- Generator: Adobe Illustrator 15.0.2, SVG Export Plug-In . SVG Version: 6.00 Build 0)  -->
<!DOCTYPE svg PUBLIC "-//W3C//DTD SVG 1.1//EN" "http://www.w3.org/Graphics/SVG/1.1/DTD/svg11.dtd">
<svg version="1.1" id="Layer_1" xmlns="http://www.w3.org/2000/svg" xmlns:xlink="http://www.w3.org/1999/xlink" x="0px" y="0px"
	 width="128px" height="128px" viewBox="0 0 128 128" enable-background="new 0 0 128 128" xml:space="preserve">
<path fill="#999999" d="M64,0c35.346,0,64,28.654,64,64c0,35.348-28.654,64-64,64C28.654,128,0,99.348,0,64C0,28.654,28.654,0,64,0z
	"/>
<path fill="#999999" d="M40,34c-2.209,0-4,1.791-4,4v54c0,2.209,1.791,4,4,4s4-1.791,4-4V38C44,35.791,42.209,34,40,34z M64,34
	c-2.209,0-4,1.791-4,4v54c0,2.209,1.791,4,4,4s4-1.791,4-4V38C68,35.791,66.209,34,64,34z M88,34c-2.209,0-4,1.791-4,4v54
	c0,2.209,1.791,4,4,4s4-1.791,4-4V38C92,35.791,90.209,34,88,34z"/>
<path fill="#FFFFFF" d="M88,36c1.104,0,2,0.897,2,2v54c0,1.104-0.896,2-2,2s-2-0.896-2-2V38C86,36.897,86.896,36,88,36 M64,36
	c1.104,0,2,0.897,2,2v54c0,1.104-0.896,2-2,2c-1.103,0-2-0.896-2-2V38C62,36.897,62.897,36,64,36 M40,36c1.103,0,2,0.897,2,2v54
	c0,1.104-0.897,2-2,2s-2-0.896-2-2V38C38,36.897,38.897,36,40,36 M88,34c-2.209,0-4,1.791-4,4v54c0,2.209,1.791,4,4,4s4-1.791,4-4
	V38C92,35.791,90.209,34,88,34z M64,34c-2.209,0-4,1.791-4,4v54c0,2.209,1.791,4,4,4s4-1.791,4-4V38C68,35.791,66.209,34,64,34z
	 M40,34c-2.209,0-4,1.791-4,4v54c0,2.209,1.791,4,4,4s4-1.791,4-4V38C44,35.791,42.209,34,40,34z"/>
<circle fill="#FFFFFF" cx="40" cy="56" r="7"/>
<circle fill="#FFFFFF" cx="64" cy="75" r="7"/>
<circle fill="#FFFFFF" cx="88" cy="56" r="7"/>
<circle fill="#FFA600" cx="40" cy="56" r="4.96"/>
<circle fill="#FFA600" cx="64" cy="75" r="4.96"/>
<circle fill="#FFA600" cx="88" cy="56" r="4.96"/>
</svg>
