<?xml version="1.0" encoding="utf-8"?>
<!-- Generator: Adobe Illustrator 15.0.2, SVG Export Plug-In . SVG Version: 6.00 Build 0)  -->
<!DOCTYPE svg PUBLIC "-//W3C//DTD SVG 1.1//EN" "http://www.w3.org/Graphics/SVG/1.1/DTD/svg11.dtd">
<svg version="1.1" id="Layer_1" xmlns="http://www.w3.org/2000/svg" xmlns:xlink="http://www.w3.org/1999/xlink" x="0px" y="0px"
	 width="32px" height="32px" viewBox="0 0 32 32" enable-background="new 0 0 32 32" xml:space="preserve">
<polygon fill="#FFFFFF" points="0,32.001 0,0 32,0 "/>
<g>
	<path fill="#E21D24" d="M9.914,4.309h1.991l-3.162,9.3h-2.15l-3.155-9.3h1.991l1.75,5.534c0.097,0.327,0.198,0.708,0.302,1.142
		c0.104,0.435,0.169,0.737,0.194,0.907c0.046-0.391,0.206-1.073,0.477-2.049L9.914,4.309z"/>
	<path fill="#E21D24" d="M11.58,16.345c-0.445,0-0.833-0.047-1.164-0.141v-1.641c0.339,0.085,0.649,0.127,0.929,0.127
		c0.433,0,0.742-0.135,0.929-0.404c0.187-0.27,0.28-0.69,0.28-1.263V4.309h1.972v8.702c0,1.086-0.248,1.913-0.744,2.481
		C13.285,16.06,12.551,16.345,11.58,16.345z"/>
</g>
</svg>
