<?xml version="1.0" encoding="utf-8"?>
<!-- Generator: Adobe Illustrator 15.0.2, SVG Export Plug-In . SVG Version: 6.00 Build 0)  -->
<!DOCTYPE svg PUBLIC "-//W3C//DTD SVG 1.1//EN" "http://www.w3.org/Graphics/SVG/1.1/DTD/svg11.dtd">
<svg version="1.1" id="Layer_1" xmlns="http://www.w3.org/2000/svg" xmlns:xlink="http://www.w3.org/1999/xlink" x="0px" y="0px"
	 width="46px" height="46px" viewBox="-7 -7 46 46" enable-background="new -7 -7 46 46" xml:space="preserve">
<path fill="none" d="M16-6.625C3.525-6.625-6.625,3.523-6.625,16c0,12.476,10.15,22.625,22.625,22.625
	c12.476,0,22.625-10.149,22.625-22.625C38.625,3.523,28.476-6.625,16-6.625L16-6.625z"/>
<g>
	<g>
		<path fill="#FFFFFF" d="M16.26,0.575c-7.76,0-14.052,6.292-14.052,14.053c0,2.655,0.736,5.138,2.016,7.256l-2.537,7.539l7.78-2.49
			c2.013,1.113,4.328,1.748,6.792,1.748c7.762,0,14.053-6.292,14.053-14.053C30.312,6.867,24.021,0.575,16.26,0.575z M16.26,26.326
			c-2.375,0-4.588-0.713-6.436-1.935l-4.495,1.439l1.461-4.345c-1.401-1.929-2.228-4.298-2.228-6.858
			c0-6.451,5.248-11.699,11.698-11.699c6.451,0,11.698,5.249,11.698,11.699C27.958,21.078,22.711,26.326,16.26,26.326z
			 M22.849,17.821c-0.353-0.192-2.082-1.127-2.407-1.26c-0.325-0.131-0.561-0.2-0.814,0.15c-0.252,0.35-0.971,1.131-1.188,1.363
			c-0.219,0.232-0.43,0.253-0.781,0.06c-0.352-0.192-1.493-0.614-2.817-1.889c-1.031-0.99-1.707-2.191-1.903-2.558
			c-0.196-0.367-0.002-0.554,0.185-0.725c0.167-0.155,0.374-0.406,0.562-0.609c0.187-0.202,0.252-0.349,0.381-0.585
			c0.128-0.235,0.076-0.446-0.007-0.629c-0.083-0.182-0.734-1.975-1.006-2.704c-0.272-0.729-0.575-0.621-0.784-0.629
			c-0.209-0.008-0.447-0.047-0.687-0.056s-0.631,0.066-0.973,0.414c-0.343,0.346-1.301,1.179-1.368,2.944
			c-0.066,1.765,1.155,3.519,1.326,3.764c0.17,0.247,2.332,4.072,5.924,5.646c3.593,1.572,3.611,1.093,4.271,1.058
			c0.66-0.035,2.155-0.789,2.485-1.615c0.331-0.825,0.357-1.543,0.273-1.697C23.436,18.112,23.201,18.014,22.849,17.821z"/>
	</g>
</g>
</svg>
